<svg xmlns="http://www.w3.org/2000/svg" viewBox="0 0 641.61 576.32"><defs><style>.cls-1{isolation:isolate;}.cls-2{fill:#fcf4ea;}.cls-3{fill:#e2e5fd;}.cls-4{fill:#9298c4;}.cls-5{fill:#777eb5;}.cls-6{fill:#adb2d3;}.cls-7{fill:#c5ccfc;}.cls-8{fill:#54688b;}.cls-9{fill:#333643;}.cls-10{fill:#4c5063;}.cls-11{fill:#1b2e96;}.cls-12{fill:#7c8bde;}.cls-13{fill:#6a0084;}.cls-14{fill:#7d87b7;}.cls-15{fill:#ff8d8d;}.cls-16{fill:#979fc5;}.cls-17{fill:#5d68a7;}.cls-18{fill:#f98a8a;}.cls-19{fill:#ea7373;}.cls-20{fill:#d86666;}.cls-21{fill:#b8b8e0;}.cls-22{fill:#777caa;}.cls-23{fill:#2b3278;}.cls-24{fill:#e3e4ff;}.cls-25{fill:#fff;}.cls-26{fill:#f2b90c;}.cls-27{fill:#b65f2e;}.cls-28{fill:#f7931e;}.cls-29{fill:#591914;}.cls-30{fill:#b96e16;}.cls-31{fill:#f8e000;}.cls-32{fill:#3c1709;}.cls-33{fill:#363a68;}.cls-34{fill:#260e0d;}.cls-35{fill:#2f1954;}.cls-36{fill:#0e0e0e;}.cls-37{fill:#f1a97e;}.cls-38{fill:#fc7575;}.cls-39{fill:#fd5e5a;}.cls-40{fill:#121841;}.cls-41{fill:#2f499f;}.cls-42{fill:#555da2;}.cls-43{fill:#1e3340;}.cls-44{fill:#f47b50;}.cls-45{fill:#b5441b;}.cls-46{fill:#f15a24;}.cls-47{fill:#792d12;}.cls-48{fill:#6f81a6;}.cls-49{fill:#6e0054;}.cls-50{fill:#464f7c;}.cls-51{fill:#5d69a5;}.cls-52{fill:#c20095;}.cls-53{fill:#f992e1;}.cls-54{fill:#d6e9fa;}.cls-55{fill:#99c8f2;}.cls-56{fill:#220d58;}.cls-57{fill:#2d1175;}.cls-58{fill:#494c62;}.cls-59{fill:#252631;}.cls-60{fill:#384153;}.cls-61{fill:#f27f3d;}.cls-62{fill:#13232d;}.cls-63{fill:#53260d;}.cls-64{fill:#ffda88;opacity:0.42;mix-blend-mode:screen;}</style></defs><g class="cls-1"><g id="Layer_2" data-name="Layer 2"><g id="_Layer_" data-name="&lt;Layer&gt;"><path class="cls-2" d="M50.18,550.33s96.39-195.18,273.49-240.11c94.07-23.87,133.89-122.86,205.82-137.84s95.33,118.49,107.88,220.86-6.76,160.69-6.76,160.69Z"/><polygon class="cls-3" points="48.11 538.85 48.11 338.56 111.26 338.56 111.26 175 188.6 175 188.6 280.61 260.21 280.61 260.21 456.93 340.33 456.93 340.33 329.39 413.95 329.39 413.95 551.09 48.11 551.09 48.11 538.85"/><path class="cls-4" d="M188.31,404.45v16.38H433V404.45ZM207.51,417H198.8a3.36,3.36,0,0,1,0-6.71h8.71a3.36,3.36,0,0,1,0,6.71Zm24,0H222.8a3.36,3.36,0,0,1,0-6.71h8.71a3.36,3.36,0,0,1,0,6.71Zm24,0H246.8a3.36,3.36,0,1,1,0-6.71h8.71a3.36,3.36,0,0,1,0,6.71Zm24,0H270.8a3.36,3.36,0,1,1,0-6.71h8.71a3.36,3.36,0,0,1,0,6.71Zm24,0h-8.7a3.36,3.36,0,1,1,0-6.71h8.7a3.36,3.36,0,1,1,0,6.71Zm94.13,0h-8.7a3.36,3.36,0,1,1,0-6.71h8.7a3.36,3.36,0,1,1,0,6.71Zm24,0h-8.7a3.36,3.36,0,1,1,0-6.71h8.7a3.36,3.36,0,1,1,0,6.71Z"/><rect class="cls-5" x="188.31" y="404.45" width="244.64" height="2.33"/><rect class="cls-4" x="177.29" y="395.59" width="263.12" height="8.86"/><rect class="cls-4" x="178.91" y="420.83" width="261.5" height="9.08"/><rect class="cls-6" x="178.91" y="420.83" width="261.5" height="2.12"/><rect class="cls-7" x="67.68" y="427.7" width="218.73" height="130.48"/><rect class="cls-3" x="219.8" y="427.7" width="66.61" height="130.48"/><rect class="cls-7" x="337.52" y="427.7" width="191.23" height="130.48"/><rect class="cls-3" x="440.41" y="427.7" width="88.34" height="130.48"/><path class="cls-8" d="M637.16,558.24c0,9.94-143-4.88-318.17,9-197.59,15.67-330.8,10-318.16-9,5.5-8.27,142-22.48,317.75-22.48S637.16,548.31,637.16,558.24Z"/><polygon class="cls-9" points="245.23 367.35 192.28 385.62 209.51 267.87 245.23 367.35"/><path class="cls-10" d="M229,531.49l-3.2,16.08s34.39,2.54,34.39,1-18-6.17-20.08-8.3c-3-3-2-6-2-6Z"/><polygon class="cls-11" points="253.71 342.89 253.71 378.53 241.93 535.76 224.88 534.11 223 430.46 232.67 341.06 253.71 342.89"/><path class="cls-10" d="M207.38,533.82s2,7.52,2,12.91,17,20.69,20.43,17.3-9-28.35-9-28.35l-.85-4.24Z"/><path class="cls-12" d="M246.93,341.06l-4.08,35.77s-26.7,127.73-19,160.55H203.48L199.07,381l9.84-37.56Z"/><path class="cls-13" d="M240,245.53s13.74,23.16,13.74,34.47,5,55.44,0,71.58C249.6,364.71,224.81,368,202.8,346c-8.13-8.14,8.83-45.15,8.83-45.15l-12.56-56,22.07-7.15S229.8,252.66,240,245.53Z"/><polygon class="cls-14" points="211.52 240.77 199.07 244.8 197.03 310.57 179.04 376.83 192.28 385.62 227.92 324.22 223.51 268.96 211.52 240.77"/><path class="cls-14" d="M253.06,258.43,240,245.53s12.54,27.91,12.54,40.75,1.19,76.87,1.19,76.87S260,344.93,260,327.62,253.06,258.43,253.06,258.43Z"/><polygon class="cls-15" points="206.08 368.04 206.08 377.83 215.22 375.99 218.75 372.94 215.22 363.69 206.08 368.04"/><path class="cls-16" d="M199.07,244.8s-7.64-.71-11.54,9.4S184.47,323,184.47,323l19,48.87,11.74-8.21s-8.47-33.94-6.86-51.36S199.07,244.8,199.07,244.8Z"/><path class="cls-17" d="M203.48,376.79s16.92-4.78,22.85-10.71c0,0-8.29,9.79-13.36,12.21S203.48,376.79,203.48,376.79Z"/><path class="cls-18" d="M220.12,201.79c-.88-5.54,4.47-9.63,10-10.27s10.77-1.38,13.15,1.66c5.76,7.32,1.08,23.42,1.08,23.42s-2.63,7.56-10,8.7C229.29,226.08,221.76,212.14,220.12,201.79Z"/><path class="cls-19" d="M217.24,218.08s2.35,21.24,3.9,26.48,20.38,7.94,19.69,2.9c-.55-3.93-4.71-20.33-4.71-20.33Z"/><path class="cls-20" d="M219.05,232.63a1.24,1.24,0,0,0,.4-.22c1.62-2.44,2.74-10.23,2.74-10.23s2.2,7.39,2.85,11.56c.41,2.66,5.47,3.67,10.32,3.88a12.6,12.6,0,0,0,1.16-3.67,13.47,13.47,0,0,1-.29,3.69c.85,0,1.68,0,2.47,0-1.25-5.26-2.58-10.5-2.58-10.5l-18.88-9S218.06,225.49,219.05,232.63Z"/><path class="cls-21" d="M244.05,227.07A10.45,10.45,0,0,0,246.8,230a11.67,11.67,0,0,0,1.59-7.36c-.61-4-3.44-5.81-3.67-7.29,0,0-.35,3.53-5,5s-9-1.56-11.06-3.09-4.65-2.89-5.11-5.84S221,197,221,197s-.79-1.9-5.54,1.46-3.83,5.22-4,9.26,1.35,6.74-1.68,8.25a8,8,0,0,0-2.55,11.45c3.24,4.66,10.13,4.24,11.78,2s3.14-8.51,3.14-8.51a85.76,85.76,0,0,1,2.42,9.66c.37,2.42,5.42,3.29,10.25,3.41a11.07,11.07,0,0,0,1.2-3.38,11.39,11.39,0,0,1-.33,3.39,42.9,42.9,0,0,0,6.28-.38,6.43,6.43,0,0,0,3.66-2A10.2,10.2,0,0,1,244.05,227.07Z"/><path class="cls-22" d="M215,198.29c-4.41,2.86-4.06,5.24-4.22,8.81-.36,5.18,1.27,6.8-1.65,8.25a8.63,8.63,0,0,0,3.69,15.9c2.19.2,4.8-.07,6.2-1.9-1.63,1.51-4.06,1.52-6.06,1.09-7.32-1.57-8.44-10.56-3-13.65,3.85-1.65,2.07-5.15,2.26-9.64.13-3.34-.77-5.06,3.27-8.2,1.41-1.15,4.35-3.35,5.58-2C220,195.3,216.61,197.23,215,198.29Z"/><path class="cls-18" d="M225.31,207.53a4.25,4.25,0,0,0-4.43-.79c-2.59,1,.53,7.6,2.89,7.24S225.31,207.53,225.31,207.53Z"/><path class="cls-23" d="M240.39,203.62c1.21,8,.71,7.25.85,11.22-.9,0-1.8,0-2.71,0a24.69,24.69,0,0,0,3.26.66C241.7,214,243,209.93,240.39,203.62Z"/><path class="cls-24" d="M229.5,205.31a8.66,8.66,0,0,1,4.6-2,26.3,26.3,0,0,1,4.32-.53s-.94-3.13-2.78-2.33-1.82,2.39-3.75,1.63S229.5,205.31,229.5,205.31Z"/><path class="cls-24" d="M247.3,200.67a4.56,4.56,0,0,0-3.4.65,15.52,15.52,0,0,0-2.62,1.67s-.82-2.92.54-3.18,2,1,2.78-.53S247.3,200.67,247.3,200.67Z"/><path class="cls-23" d="M245.21,204.09a1,1,0,1,1-1.19-1A1.13,1.13,0,0,1,245.21,204.09Z"/><path class="cls-23" d="M236.68,205.66a1,1,0,1,1-1.19-1A1.12,1.12,0,0,1,236.68,205.66Z"/><path class="cls-20" d="M223.18,208.34s-1.86-1.15-2,.15,1.09,3.79,2.27,3.77S223.18,208.34,223.18,208.34Z"/><path class="cls-25" d="M241.57,218.14c-1.43,1.87-4.7,2.18-8-.32a.41.41,0,0,1,.45-.69C234.79,217.27,237.29,220,241.57,218.14Z"/><path class="cls-16" d="M219.63,236.65l-12.85,3.48,7,23.45-2.38,5,16.52,55.65s-2.08-42.28-2.74-56.1S219.63,236.65,219.63,236.65Z"/><path class="cls-26" d="M221.73,179.59c0,.15,1.52,13.37,1.5,13.23,5.31-.47,12.68-.61,18-.56-.27-2.28-.69-5.83-2.43-7.57-2.34-2.34-6.41-6.17-10.38-6.52C225.06,177.86,223.35,179,221.73,179.59Z"/><path class="cls-26" d="M222.34,179.29c0,.15,1.63,13.67,1.62,13.53,5.59-.47,15.69-1.12,21.27-1.06a20.29,20.29,0,0,0-2.06-6.54c-1.28-2.53-3.88-4.51-6.33-5.84a14.27,14.27,0,0,0-7.57-1.71A22.23,22.23,0,0,0,223,179,4.74,4.74,0,0,0,222.34,179.29Z"/><path class="cls-27" d="M219,179.83l2.62,13.22c.15,0,7.18-.79,17-.79,0-3.33-.21-7.08-2.36-9.81a11.57,11.57,0,0,0-8.79-4.33A12.35,12.35,0,0,0,223,179,19.06,19.06,0,0,0,219,179.83Z"/><path class="cls-28" d="M209.58,198c3.55-5.46,18.95-5.65,25.83-5.65.07-1.76.47-6.22-.7-8.28-4.35-7.61-20.52-6.94-24.62,3.86C209.22,190.23,209.39,195.18,209.58,198Z"/><path class="cls-29" d="M217.66,184h0l2.4-.59a.17.17,0,0,0,.13-.22A.18.18,0,0,0,220,183l-2.4.6a.17.17,0,0,0-.13.21A.18.18,0,0,0,217.66,184Z"/><path class="cls-29" d="M217.9,185.31h0l2.17-.6a.18.18,0,0,0-.09-.34l-2.17.59a.2.2,0,0,0-.13.22A.19.19,0,0,0,217.9,185.31Z"/><path class="cls-29" d="M212.44,185.88h.06l2.23-.86a.18.18,0,0,0-.13-.34l-2.22.86a.18.18,0,0,0-.11.23A.19.19,0,0,0,212.44,185.88Z"/><path class="cls-29" d="M212.44,187h.06l2.22-.79a.18.18,0,0,0-.12-.34l-2.22.8a.18.18,0,0,0-.11.23A.18.18,0,0,0,212.44,187Z"/><path class="cls-29" d="M215.63,184.79a.48.48,0,1,0,.48-.49A.48.48,0,0,0,215.63,184.79Z"/><path class="cls-30" d="M209.57,198h0c3.37-5.5,17.77-5.54,24.54-5.65,3.72-.13,14.91-1.26,14.91,1.85,0,1.18-1.48,2.14-3.82,2.66-.18-.48-1.52-1-2.52-1-8.1.12-21.9.58-29.13,4.22a6.26,6.26,0,0,0-2.59,3.56C207.85,202.83,208.34,199.92,209.57,198Z"/><path class="cls-31" d="M209.32,197.8c4.62-8.06,36.69-8.89,40.48-5.54,1.61,1.42-.4,3.51-4.13,4.47a5.73,5.73,0,0,0,2.76-1.78c3.09-4.85-26.84-2.44-34.2.22a9.22,9.22,0,0,0-4.37,2.9h0c-.07.15-1.56,2.84-.45,4.75C207,201.3,209.32,197.8,209.32,197.8Z"/><path class="cls-32" d="M160.83,215.84s-11.94,5.43-20.56,7.75-10.67,4.68-12.24,4.19,2.7-7.23,2.7-7.23l15.84-8.23,13.52-2.3Z"/><path class="cls-33" d="M169.71,277s3.17,18.61,13.14,31.13c7.45,9.36,23,19.8,23,19.8l-8.83,9.47-24.33-19.67Z"/><polygon class="cls-34" points="156.38 259.64 136.86 259.64 137.49 322.48 163.41 324.19 156.38 259.64"/><path class="cls-34" d="M178.25,560.74c11,0,10.73,4.42,10.73,4.42H156.8s1.6-13.6,1.84-16.81h7.56C167,552.28,169.81,560.74,178.25,560.74Z"/><path class="cls-34" d="M124.47,562.36c10,0,12.05-11.88,12.34-14H144v1c0,1.48,1.88,17.4,1.88,17.4H113.74S113.47,562.36,124.47,562.36Z"/><path class="cls-35" d="M127.33,476.82l-10.27-85.06,2.9-25.17h56.55l.4,22.18,5.94,86.43s-14.75,72-14.5,73.15H157.67c0-.27,3-78.9,3-78.9l-12.2-70.06-4.77,73.53s2.16,66.28,2.2,75.43h-10C135.9,548.14,127.33,476.82,127.33,476.82Z"/><path class="cls-36" d="M119.58,369.9l.38-3.31h56.55l.05,2.9-11.87,3.95a50.62,50.62,0,0,1-29.77.74Z"/><path class="cls-37" d="M116,276.35c6.15-6.76,20.38-17.56,36.07-15l16.39,7.13,4.82,34.63,4.31,66-58.44.66-5.56-64.22S109.89,283.11,116,276.35Z"/><path class="cls-38" d="M154.1,245.85s.17,13.54,1.49,20.43a5.7,5.7,0,0,1-3.05,6.38,11.62,11.62,0,0,1-6.79.62c-7.36-1.37-7.61-9.46-7.61-9.46l2.49-24.68Z"/><path class="cls-39" d="M140.63,239.14l13.47,6.71s.06,5,.41,10.47c-3.52.17-7.94-1.78-12.63-7.67q-1-1.32-1.95-2.61Z"/><path class="cls-38" d="M153.23,211.16a23.72,23.72,0,0,1,6.61,10.28c2,6.45,3.74,11.11,3.74,11.11l-2.12,1.37s1.68,9,.37,12.07c-2,4.66-10.41,8.44-20-2.06s-10.34-19.74-8.72-24.27S149.49,208.83,153.23,211.16Z"/><path class="cls-40" d="M159.87,216c-7.53-2.82-3.28-10.08-23-4.68a6.93,6.93,0,0,1-3.43,2.08c-3.62.68-3.25,8.64-3.25,8.64s-2.11,1.64-.62,7.4,10.32,14.58,10.32,17.32c0,0,2.15-3.47.4-9.09s-1.74-8.91.13-8.91-1.5-7.54-1.5-7.54a11.61,11.61,0,0,1,10.35-2.2c6.11,1.65,8.16-.89,7-2.19A9.15,9.15,0,0,0,159.87,216Z"/><path class="cls-38" d="M141.59,232.46s-.61-4.73-2-4.73-2.61.51-2.29,3.18,1.73,5.66,3.51,4.43A2.09,2.09,0,0,0,141.59,232.46Z"/><path class="cls-41" d="M154.31,225.44c0,1.17.47,2.11,1.05,2.11s1-.94,1-2.11-.47-2.11-1-2.11S154.31,224.28,154.31,225.44Z"/><path class="cls-41" d="M152,223.36a4.3,4.3,0,0,1,4.84-.71l.39-1.52a4.7,4.7,0,0,0-5.38.83Z"/><path class="cls-42" d="M158.33,262l4.35,128.05H189.8l-8-58.16-5.25-35.37s-2.54-23.77-8.06-28A65.69,65.69,0,0,0,158.33,262Z"/><path class="cls-39" d="M140.69,230.55s-.79-1.6-1.5-1.38-.86,3.45.39,4.81S141.9,233.11,140.69,230.55Z"/><path class="cls-42" d="M136.57,261.33l2.85,128.75h-29S109.29,288,112.5,277.37,136.57,261.33,136.57,261.33Z"/><polygon class="cls-5" points="168.87 266.79 156.38 259.64 160.4 323 167.26 287.19 164.84 285.56 168.87 266.79"/><polygon class="cls-5" points="137.95 323.87 136.86 259.64 125.73 264.59 131.79 285.51 130.26 286.69 137.95 323.87"/><polygon class="cls-43" points="188.98 341.41 229.23 311.28 186.6 307.4 154.37 341.41 188.98 341.41"/><path class="cls-38" d="M166.56,328.62s-4.37,1-6,2.71c-2.06,2.21-7,5.8-9,5.8s-10.82.86-10.82.86l-1.47,9.64s32.7-7.49,34.24-9.14-7.67,1.23-7.67.49,11.09-1.56,10.52-3.41-10.24,2.49-11.09,1.58,11.66-2.45,11.66-4.41-12.46,2.83-12.46,2.83-.23-1,3.14-2.59,6.65-2.87,5.9-3.67-9.37,4.27-10.51,3.06Z"/><path class="cls-5" d="M120.5,274.88a41.21,41.21,0,0,1,3.81,21.21c-1,12.53-2.57,31.73.09,38s22.16,0,22.16,0V348.9s-28.27,11.48-36.46,7.72-7.4-36.11-7.4-52S115.28,263.49,120.5,274.88Z"/><path class="cls-4" d="M120.5,274.88a43.52,43.52,0,0,1,3.4,20.24c-.88,11.66-3.66,37,1.42,40.8,4.9,3,16,0,21.24-1.84-5.18,1.37-19.82,4.75-21.72-.23-1.62-4-1.36-13.6-1.21-17.88.59-18.5,2.86-25-1-36.31A28.21,28.21,0,0,0,120.5,274.88Z"/><path class="cls-23" d="M159.61,241.34l-.38,2.33a10,10,0,0,1-7.06-4.53C155,241.94,159.61,241.34,159.61,241.34Z"/><path class="cls-38" d="M200.83,328.23a13.16,13.16,0,0,1,1.47,2.82c.87,2.07-1.56,4.18-2,4.63a23.21,23.21,0,0,1-3.55,2.58,8.41,8.41,0,0,1-2.65,1.09c-1.44.32-4.67-4.81-4.22-5.3.3-.33.66-.58,1-.48s3.94,2.9,3.94,2.9-3.23-4-2.87-5.23,1.06-1.05,1.34-.74,4.39,4.09,4.39,4.09-2.77-4.82-2.53-5.6,1.36-1.33,2.63.61a23.68,23.68,0,0,0,2.58,2.86s-1.56-3.64-1.2-4.81S200.83,328.23,200.83,328.23Z"/><path class="cls-26" d="M135,202.39c0,.15,3.53,13,3.5,12.85C143.68,214,151,212.7,156.2,212c-.62-2.22-1.57-5.66-3.56-7.12-2.67-2-7.28-5.12-11.26-4.86C138,200.18,136.52,201.58,135,202.39Z"/><path class="cls-44" d="M135.57,202l3.66,13.12c5.45-1.31,15.34-3.49,20.86-4.29a20.51,20.51,0,0,0-3-6.15c-1.65-2.29-4.53-3.86-7.15-4.8a14.27,14.27,0,0,0-7.74-.54,22.65,22.65,0,0,0-6,2.27A5.23,5.23,0,0,0,135.57,202Z"/><path class="cls-45" d="M132.32,203.05l4.6,12.66c.15,0,7-1.87,16.68-3.36-.5-3.3-1.28-7-3.82-9.34a11.56,11.56,0,0,0-9.35-2.94,12.25,12.25,0,0,0-4.22,1.54A18.44,18.44,0,0,0,132.32,203.05Z"/><path class="cls-46" d="M126.75,225.66c2.67-5.94,16.92-11.74,23.72-12.79-.2-1.75-.49-6.22-2-8.07-5.46-6.86-21.33-3.73-23.74,7.57C124.27,214.81,125.19,222.88,126.75,225.66Z"/><path class="cls-29" d="M131.65,207.32h0l2.29-1a.17.17,0,0,0,.09-.23.18.18,0,0,0-.23-.1l-2.28,1a.17.17,0,0,0-.1.23A.18.18,0,0,0,131.65,207.32Z"/><path class="cls-29" d="M132.09,208.63h0l2.05-.92a.18.18,0,0,0,.09-.24.18.18,0,0,0-.24-.08l-2,.91a.18.18,0,0,0-.09.24A.2.2,0,0,0,132.09,208.63Z"/><path class="cls-29" d="M126.79,210l.06,0,2.06-1.19a.18.18,0,0,0,.07-.25.18.18,0,0,0-.24-.06l-2.07,1.19a.18.18,0,0,0-.07.24A.19.19,0,0,0,126.79,210Z"/><path class="cls-29" d="M127,211.1l.06,0,2.08-1.12a.19.19,0,0,0,.07-.25.18.18,0,0,0-.24-.07l-2.08,1.13a.17.17,0,0,0-.07.24A.17.17,0,0,0,127,211.1Z"/><path class="cls-29" d="M129.77,208.46a.48.48,0,0,0,.95-.15.47.47,0,0,0-.55-.4A.48.48,0,0,0,129.77,208.46Z"/><path class="cls-47" d="M155.89,207.9c-6.66,1.19-22.28,5.56-28.3,15.46,0,0-2.75,4.12.44,4.42a6.16,6.16,0,0,1,2-3.91c6.58-4.71,17.78-10.25,28.13-8.61,1,.15,2.4.13,2.65.58a12.39,12.39,0,0,0,4.38-2.76C168.27,210,168.17,205.7,155.89,207.9Z"/><path class="cls-26" d="M165.21,213.08c1.23-1.33,2.25-3.14,1.06-4.4-1.05-1.08-3.27-1.14-4.73-1.19-5.37-.19-11.43,1.82-16.42,3.78-14.62,5.47-21.9,15.85-17.09,16.51-4.44-.38,1.16-7.58,4.79-10.62,10.57-8.66,35-14.17,34.15-7A5.22,5.22,0,0,1,165.21,213.08Z"/><path class="cls-48" d="M362,338.83l53.91-62.57s3.53-2.56-6.09-7.7-15.73,0-15.73,0S348,337.93,350.33,337.93,362,338.83,362,338.83Z"/><path class="cls-49" d="M346.89,228.68s15.3,68.79,35,77.47l-13.07,11s-15.83-8.84-26.61-28.71S346.89,228.68,346.89,228.68Z"/><path class="cls-10" d="M322.53,527.12l-1.91,13h33S352.6,536.93,343,535s-10.73-5.54-10.73-5.54l1.35-8.1-8.74-1.28Z"/><polygon class="cls-50" points="308.68 378.24 328.18 446.81 321.04 529.47 333.62 529.47 350.89 442.05 333.62 341.95 308.68 378.24"/><path class="cls-10" d="M288.42,525.84l-1.28,7s3.31,10.77,8.32,15.78,15.77,5.33,15.77,1.06S300,532.24,300,527.12,288.42,525.84,288.42,525.84Z"/><path class="cls-51" d="M333.62,339.29l-13.5,41.36s-15.92,55.86-18.8,89.55,0,56.71,0,56.71l-15.88,2.56s-9.17-69.93-5.76-93.39-.76-80.59-.76-80.59l6.52-16.2Z"/><polygon class="cls-52" points="299.02 306.15 278.92 344.18 334.17 345.13 342.18 312.2 299.02 306.15"/><path class="cls-52" d="M346.89,228.68s-33.68-7-51.34-5C285.82,224.71,283,226,283,226l16,93.57s40.11,2.57,41.08,1.61S349.46,245.69,346.89,228.68Z"/><path class="cls-53" d="M340.16,321.19c.94-5.17,8-77.21,6.73-92.51C349.8,247.5,343.91,305.19,340.16,321.19Z"/><path class="cls-54" d="M406.58,275.62,356.2,338.83s-9.31-.64-7.38-2.56,45.24-67.71,45.24-67.71S391.82,282.68,406.58,275.62Z"/><path class="cls-55" d="M295.23,266.28s-1.12,12.39,4.81,18.32,106.22,8,115.84-8.34L361,340.44s-16,3.85-36.9-1.61-34,1.93-44.28-1.92a74.28,74.28,0,0,0-18-4.49Z"/><path class="cls-52" d="M259.93,279.47S264.11,240.58,283,226c0,0,12.62,34.55,6.9,40.27s-14.26,16.15-14.26,16.15S274.69,283,259.93,279.47Z"/><path class="cls-39" d="M274.37,280.11s6.52,5.14,1.82,23.91l-8.36,8.69s-15.28-19.76-7.9-33.24C259.93,279.47,268.92,274.66,274.37,280.11Z"/><path class="cls-38" d="M286.57,314.45s-7-3.05-8.68-6.74-.13-4.94-1.17-6-5.13-.23-6.18.83-4.15,2.32-3.51,6.16-3.25,5.14-3.25,6.9a11.38,11.38,0,0,0,2.67,6.41c1.41,1.42,6.48,1.72,10,.6s-4.33-3.37-4.33-3.37,9.3,1.77,10.91.16-8-3.85-8-3.85,8.18,1.77,10.42,1.77S286.57,314.45,286.57,314.45Z"/><path class="cls-39" d="M385.68,312s-5.17-3-5.17-.76,2.87,3.77,2.87,3.77-3.86-2.17-4.72-.56,1.71,2.56,1.71,2.56-3-.5-4,.49,1.49,3.24,1.49,3.24-2.67-1.08-2.67,0,2.63,3.12,5,3.12,5-.11,5.83-1.82,1.5-1.28,2.4-3.21S385.68,313.07,385.68,312Z"/><path class="cls-38" d="M307.09,223.93s4.47,17.8,17,12.34c2-.87,1.74-18.47,2.08-22.79-.77-1.77-6.57-15.24-6.2-14.38h0l-1.2-2.76Z"/><path class="cls-39" d="M319.93,199.1h0l-1.2-2.76-4.9,11.61c3.12,8.42,8.66,11.44,12.08,12,.07-2.79.12-5.2.22-6.46-.74-1.7-6.12-14.19-6.22-14.42Z"/><path class="cls-56" d="M305.79,184.47c1.31,0,3-.16,4.83-.31h0c4.06-.29,8-.43,11.59,1.4-1.69,2.75.37,6.6.87,9.82-5.28,1.07-11.6,2.06-16.68.06a30.28,30.28,0,0,1-2.86-9.54C304.17,185.46,304.92,185,305.79,184.47Z"/><path class="cls-26" d="M315.57,169.42c0,.15,1.52,13.37,1.5,13.22,5.31-.47,12.68-.61,18-.55-.27-2.29-.69-5.83-2.43-7.58-2.34-2.33-6.41-6.16-10.38-6.52C318.9,167.69,317.19,168.84,315.57,169.42Z"/><path class="cls-26" d="M316.18,169.12c0,.14,1.64,13.67,1.62,13.52,5.59-.47,15.69-1.11,21.28-1.06A20.39,20.39,0,0,0,337,175c-1.28-2.52-3.88-4.51-6.33-5.84a14.25,14.25,0,0,0-7.57-1.71,22.59,22.59,0,0,0-6.24,1.34A5.37,5.37,0,0,0,316.18,169.12Z"/><path class="cls-27" d="M312.81,169.66l2.62,13.21c.15,0,7.18-.78,17-.78,0-3.34-.21-7.08-2.36-9.81a11.58,11.58,0,0,0-8.79-4.34,12.39,12.39,0,0,0-4.41.89A18.45,18.45,0,0,0,312.81,169.66Z"/><path class="cls-28" d="M303.42,187.78c3.55-5.46,19-5.65,25.83-5.65.07-1.76.47-6.22-.7-8.27-4.35-7.62-20.52-6.94-24.62,3.85C303.06,180.05,303.23,185,303.42,187.78Z"/><path class="cls-29" d="M311.5,173.77h0l2.41-.6a.18.18,0,0,0,.13-.21.18.18,0,0,0-.22-.13l-2.4.59a.18.18,0,0,0-.13.22A.17.17,0,0,0,311.5,173.77Z"/><path class="cls-29" d="M311.74,175.14h.05l2.16-.59a.17.17,0,0,0,.12-.22.17.17,0,0,0-.21-.13l-2.17.6a.17.17,0,0,0-.12.22A.18.18,0,0,0,311.74,175.14Z"/><path class="cls-29" d="M306.28,175.7h.06l2.23-.86a.18.18,0,0,0,.1-.23.17.17,0,0,0-.23-.1l-2.22.86a.17.17,0,0,0-.1.23A.16.16,0,0,0,306.28,175.7Z"/><path class="cls-29" d="M306.28,176.8h.06l2.22-.8a.17.17,0,0,0,.11-.23.18.18,0,0,0-.22-.11l-2.23.8a.19.19,0,0,0-.11.23A.19.19,0,0,0,306.28,176.8Z"/><circle class="cls-29" cx="309.95" cy="174.61" r="0.48"/><path class="cls-38" d="M336.48,185.59a1.3,1.3,0,0,1,1.16.8,15.71,15.71,0,0,1,.85,2.76c1.23,6.22,2.79,16.19,2.79,16.19l-2.78.08s-2.15,5.61-2.05,9.31-5.82,1.56-9.21,1.65-11-2.62-14.26-13.18a59.17,59.17,0,0,1-2.87-12.82c3.78-.95,7.57-3.12,11.35-3.91C326.48,185.42,331.46,185.66,336.48,185.59Z"/><path class="cls-57" d="M321.63,186.45c-.24,3.6,2.68,9.31,1.1,12.16l-3.06.67s-.68-1.8-1.91-1.77-1.32,9.39-3.3,9.44-6.07-7.78-8-11.43c-.19-.36-.4-.81-.62-1.32a4,4,0,0,1,1.57-4.31C311.56,187.78,315.53,187.28,321.63,186.45Z"/><path class="cls-57" d="M310.5,188.59c-.29.09-.57.21-.85.32C309.93,188.8,310.21,188.68,310.5,188.59Z"/><path class="cls-57" d="M307.39,189.89a2,2,0,0,0-.43.3A2,2,0,0,1,307.39,189.89Z"/><path class="cls-57" d="M308.94,189.17c-.48.2-1,.43-1.44.67C308,189.6,308.46,189.37,308.94,189.17Z"/><path class="cls-57" d="M306.09,191.41c0,.08-.07.15-.1.23C306,191.56,306.06,191.49,306.09,191.41Z"/><path class="cls-57" d="M306.41,190.84l-.16.26Z"/><path class="cls-57" d="M306.82,190.33a3.2,3.2,0,0,0-.25.27A3.2,3.2,0,0,1,306.82,190.33Z"/><path class="cls-57" d="M319.37,186.75l-.76.12Z"/><path class="cls-57" d="M312.09,188.1l-.72.22Z"/><path class="cls-57" d="M317.37,187.05l-.79.13Z"/><path class="cls-57" d="M313.75,187.7l-.72.17Z"/><path class="cls-57" d="M315.5,187.35l-.75.15Z"/><path class="cls-57" d="M305.7,192.66s0,.06,0,.09S305.7,192.69,305.7,192.66Z"/><path class="cls-57" d="M305.65,193.25s0,0,0,.05S305.65,193.27,305.65,193.25Z"/><path class="cls-39" d="M321.46,186.47c4-.67,5.6-.88,15-.88,1,0,1.24,1,1.49,1.72-3.32.19-9.82.95-16.09,1.91C321.69,188.22,321.52,186.46,321.46,186.47Z"/><path class="cls-57" d="M305.85,192l-.05.17Z"/><path class="cls-57" d="M319.37,186.75l2.09-.28h0Z"/><path class="cls-57" d="M314.75,187.5l-1,.2Z"/><path class="cls-57" d="M306,191.64c-.05.13-.1.26-.14.39C305.89,191.9,305.94,191.77,306,191.64Z"/><path class="cls-57" d="M305.71,193.8a2.07,2.07,0,0,1,0-.5A2.07,2.07,0,0,0,305.71,193.8Z"/><path class="cls-57" d="M316.58,187.18l-1.08.17Z"/><path class="cls-57" d="M318.61,186.87c-.42,0-.84.12-1.24.18C317.77,187,318.19,186.92,318.61,186.87Z"/><path class="cls-57" d="M313,187.87l-.94.23Z"/><path class="cls-57" d="M307.39,189.89h0l.11,0-.11,0Z"/><path class="cls-57" d="M307,190.19l-.14.14Z"/><path class="cls-57" d="M305.8,192.2c0,.15-.07.3-.1.46C305.73,192.5,305.76,192.35,305.8,192.2Z"/><path class="cls-57" d="M306.25,191.1c-.06.1-.11.21-.16.31C306.14,191.31,306.19,191.2,306.25,191.1Z"/><path class="cls-57" d="M306.57,190.6c-.05.08-.1.16-.16.24C306.47,190.76,306.52,190.68,306.57,190.6Z"/><path class="cls-57" d="M311.37,188.32l-.87.27Z"/><path class="cls-57" d="M305.69,192.75a4.38,4.38,0,0,0,0,.5A4.38,4.38,0,0,1,305.69,192.75Z"/><path class="cls-57" d="M309.65,188.91l-.71.26Z"/><path class="cls-56" d="M321.63,186.45a11.54,11.54,0,0,0,.25,2.77c-13.73,2.1-15.35,3.08-16.17,4.58C304.94,188.36,314.41,187.42,321.63,186.45Z"/><path class="cls-57" d="M335.21,191.29l.28,1.46s-2.59-.23-4,1.22-1.57,1.62-1.57,1.62S330.62,192.24,335.21,191.29Z"/><path class="cls-57" d="M333.73,197.22c1.51,0,1.43-2.74-.07-2.69C333,194.54,332.23,197.26,333.73,197.22Z"/><path class="cls-57" d="M335.13,209.42a3.69,3.69,0,0,1-3.33-1.37,3.23,3.23,0,0,1-.35-1.13.44.44,0,0,0-.88.13C330.84,208.72,332.57,209.92,335.13,209.42Z"/><path class="cls-38" d="M320.31,194.06s.32,6.08-1.15,6.12-4.77-3.31-4.33-7S319.52,189.83,320.31,194.06Z"/><path class="cls-39" d="M319.27,193.43s.8,2.4-.27,3.53-3.26-1.45-2.15-3.46S319,192,319.27,193.43Z"/><path class="cls-30" d="M303.42,187.8v0c3.36-5.5,17.76-5.54,24.53-5.65,3.72-.13,14.92-1.26,14.92,1.86,0,1.18-2.68,2.47-5,3-.18-.48-.33-1.34-1.33-1.32-8.1.12-21.9.58-29.13,4.23a4.09,4.09,0,0,0-1.72,3.73A3.73,3.73,0,0,1,303.42,187.8Z"/><path class="cls-31" d="M303.17,187.63c4.62-8.07,36.68-8.9,40.47-5.54,1.61,1.42-.4,3.5-4.13,4.46a5.73,5.73,0,0,0,2.76-1.78c3.1-4.85-26.84-2.44-34.2.22a9.22,9.22,0,0,0-4.37,2.9h0a4,4,0,0,0-.76,2.35,3.43,3.43,0,0,0,.8,2.35C301.31,191.08,303.17,187.63,303.17,187.63Z"/><path class="cls-58" d="M410,219.34h-3.12v-9.2a4.86,4.86,0,1,0-9.72,0v9.2H394v-9.2a8,8,0,1,1,16,0Z"/><path class="cls-58" d="M592.33,219.34H589.2v-9.2a4.86,4.86,0,1,0-9.72,0v9.2h-3.12v-9.2a8,8,0,0,1,16,0Z"/><path class="cls-4" d="M378.09,224.92v15H602.48v-15Zm17.61,11.49h-8a3.08,3.08,0,1,1,0-6.16h8a3.08,3.08,0,0,1,0,6.16Zm22,0h-8a3.08,3.08,0,0,1,0-6.16h8a3.08,3.08,0,0,1,0,6.16Zm22,0h-8a3.08,3.08,0,1,1,0-6.16h8a3.08,3.08,0,0,1,0,6.16Zm22,0h-8a3.08,3.08,0,1,1,0-6.16h8a3.08,3.08,0,0,1,0,6.16Zm22,0h-8a3.08,3.08,0,1,1,0-6.16h8a3.08,3.08,0,0,1,0,6.16Zm86.34,0h-8a3.08,3.08,0,0,1,0-6.16h8a3.08,3.08,0,0,1,0,6.16Zm22,0h-8a3.08,3.08,0,0,1,0-6.16h8a3.08,3.08,0,0,1,0,6.16Z"/><rect class="cls-5" x="378.09" y="224.92" width="224.39" height="2.14"/><rect class="cls-4" x="367.98" y="216.79" width="241.34" height="8.13"/><rect class="cls-4" x="369.47" y="239.94" width="239.86" height="8.33"/><rect class="cls-6" x="369.47" y="239.94" width="239.86" height="1.94"/><path class="cls-59" d="M584.34,208.92a2,2,0,0,1-1.51-.66L493.65,111l-90.19,95.69a2.05,2.05,0,1,1-3-2.82L493.69,105l92.17,100.51a2.06,2.06,0,0,1-.13,2.9A2,2,0,0,1,584.34,208.92Z"/><path class="cls-60" d="M498.34,103.46s-1,2.26-2.07,4.33l1.44,1.56C498.2,106.18,498.34,103.46,498.34,103.46Z"/><path class="cls-48" d="M493.65,111c-1.21-1.21,1.7-28.53,1.71-28.68h-5c-.05,2.39-4.08,36.68,2.78,36.68,1.59,0,2.71-2.08,3.49-4.72Z"/><polygon class="cls-61" points="499.83 88.91 484.17 88.91 481.18 57.95 502.82 57.95 499.83 88.91"/><polygon class="cls-62" points="486.67 57.95 481.67 63.01 482.04 66.88 490.86 57.95 486.67 57.95"/><polygon class="cls-62" points="497.74 57.95 482.65 73.24 483.03 77.11 501.93 57.95 497.74 57.95"/><polygon class="cls-62" points="502.23 64.03 483.59 82.94 483.96 86.81 501.78 68.74 502.23 64.03"/><polygon class="cls-62" points="500.99 76.89 489.14 88.91 493.33 88.91 500.54 81.6 500.99 76.89"/><rect class="cls-63" x="487.52" y="88.91" width="8.75" height="2.55"/><path class="cls-63" d="M487.44,52.85h9.48a2.91,2.91,0,0,1,2.91,2.91v2.19a0,0,0,0,1,0,0H484.54a0,0,0,0,1,0,0V55.75A2.91,2.91,0,0,1,487.44,52.85Z"/><rect class="cls-63" x="490.69" width="3.17" height="52.85"/><polygon class="cls-64" points="481.18 57.95 502.82 57.95 499.83 88.91 501.05 59.59 481.18 57.95"/></g></g></g></svg>