<?xml version="1.0" encoding="utf-8"?>
<!-- Generator: Adobe Illustrator 22.1.0, SVG Export Plug-In . SVG Version: 6.00 Build 0)  -->
<svg version="1.1" id="Layer_1" xmlns="http://www.w3.org/2000/svg" xmlns:xlink="http://www.w3.org/1999/xlink" x="0px" y="0px"
	 viewBox="0 0 693 270" style="enable-background:new 0 0 693 270;" xml:space="preserve">
<style type="text/css">
	.st0{fill:#FFFFFF;}
	.st1{fill:#5FB0E5;}
	.st2{fill:none;stroke:#0686D8;stroke-width:1.5;stroke-miterlimit:10;}
	.st3{fill:#D2E9F7;}
	.st4{fill:#FFFFFE;}
	.st5{fill:#9ECFEF;}
	.st6{opacity:0.3;fill:#03436C;enable-background:new    ;}
	.st7{opacity:0.3;}
	.st8{fill:#03436C;}
	.st9{fill:#0686D8;}
	.st10{fill-rule:evenodd;clip-rule:evenodd;fill:none;stroke:#0686D8;stroke-width:1.5;stroke-miterlimit:10;}
</style>
<g>
	<g id="XMLID_721_">
		<g id="XMLID_688_">
			<g id="XMLID_635_">
				<path id="XMLID_660_" class="st0" d="M712.7,492.8h-7.5c-0.3,0-0.5-0.2-0.5-0.5v-54.5c0-0.1,0-0.2,0-0.2l3.7-6.1
					c0.2-0.4,0.8-0.4,1,0l3.7,6.1c0,0.1,0,0.1,0,0.2v54.5C713.2,492.6,713,492.8,712.7,492.8z"/>
				<rect id="XMLID_659_" x="704.7" y="439.6" class="st1" width="8.5" height="47.7"/>
				<path id="XMLID_658_" class="st2" d="M713.2,492.8h-8.5v-55.1l4-6.6c0.1-0.3,0.5-0.3,0.6,0l4,6.6L713.2,492.8L713.2,492.8z"/>
				<line id="XMLID_657_" class="st2" x1="704.5" y1="439.6" x2="713.2" y2="439.6"/>
				<line id="XMLID_656_" class="st2" x1="704.3" y1="487.3" x2="713.6" y2="487.3"/>
			</g>
			<g id="XMLID_663_">
				<path id="XMLID_686_" class="st2" d="M716.1,439c10.6,3,18.4,12.8,18.4,24.5c0,11.9-8.2,21.9-19.3,24.7"/>
				<path id="XMLID_670_" class="st2" d="M702.6,488.1c-10.9-2.9-19-12.8-19-24.6c0-11.7,8-21.6,18.8-24.5"/>
				<path id="XMLID_669_" class="st2" d="M718,439.7c3.9,6.2,6.2,14.6,6.2,23.7c0,9.3-2.4,17.7-6.3,23.9"/>
				<path id="XMLID_668_" class="st2" d="M700.8,439.7c-3.8,6.2-6.2,14.6-6.2,23.7c0,9.3,2.4,17.7,6.3,23.9"/>
				<line id="XMLID_666_" class="st2" x1="716.1" y1="463.5" x2="734.5" y2="463.5"/>
				<line id="XMLID_665_" class="st2" x1="717.5" y1="451.4" x2="732.1" y2="451.4"/>
				<line id="XMLID_687_" class="st2" x1="683.7" y1="463.5" x2="702.2" y2="463.5"/>
				<line id="XMLID_685_" class="st2" x1="685.8" y1="451.4" x2="701.1" y2="451.4"/>
				<line id="XMLID_664_" class="st2" x1="717.2" y1="475.6" x2="730.7" y2="475.6"/>
				<line id="XMLID_667_" class="st2" x1="687.4" y1="475.6" x2="700.9" y2="475.6"/>
			</g>
		</g>
	</g>
	<g>
		<path class="st0" d="M238.7,491.6h-96.8v-170c0-1.7,1.4-3,3-3h90.7c1.7,0,3,1.4,3,3v170H238.7z"/>
		<path class="st1" d="M238.7,337.3h-96.8v-13c0-3.2,2.6-5.8,5.8-5.8h85.2c3.2,0,5.8,2.6,5.8,5.8L238.7,337.3L238.7,337.3z"/>
		<path class="st2" d="M141.9,407.2v-82.9c0-3.2,2.6-5.8,5.8-5.8h85.2c3.2,0,5.8,2.6,5.8,5.8v68.2"/>
		<line class="st2" x1="141.9" y1="491.6" x2="141.9" y2="432.4"/>
		<line class="st2" x1="142.6" y1="337.7" x2="238.7" y2="337.7"/>
		<rect x="156.4" y="392.9" class="st3" width="67.3" height="14.4"/>
		<rect x="156.4" y="417.1" class="st3" width="67.3" height="14.4"/>
		<line class="st2" x1="151.6" y1="326" x2="154.5" y2="326"/>
		<line class="st2" x1="165.9" y1="400.1" x2="209.8" y2="400.1"/>
		<line class="st2" x1="164.5" y1="424.2" x2="166.7" y2="424.2"/>
		<line class="st2" x1="171.5" y1="424.2" x2="173.7" y2="424.2"/>
		<line class="st2" x1="178.5" y1="424.2" x2="180.7" y2="424.2"/>
		<line class="st2" x1="185.5" y1="424.2" x2="187.7" y2="424.2"/>
		<line class="st2" x1="192.5" y1="424.2" x2="194.7" y2="424.2"/>
		<line class="st2" x1="199.5" y1="424.2" x2="201.7" y2="424.2"/>
		<line class="st2" x1="206.5" y1="424.2" x2="208.7" y2="424.2"/>
		<line class="st2" x1="158.7" y1="326" x2="161.6" y2="326"/>
		<line class="st2" x1="165.8" y1="326" x2="168.7" y2="326"/>
		<g id="XMLID_69_">
			<path id="XMLID_79_" class="st2" d="M194.6,356.9c0,2.8-2.2,5-5,5s-5-2.2-5-5c0-2.8,2.2-5,5-5S194.6,354.2,194.6,356.9z"/>
			<path id="XMLID_77_" class="st2" d="M181.9,378.6v-4.7c0-4.5,3.6-8.1,8.1-8.1l0,0c4.5,0,8.1,3.6,8.1,8.1v4.7"/>
		</g>
		<circle class="st2" cx="190" cy="365.3" r="18.7"/>
	</g>
	<g id="XMLID_147_">
		<g id="XMLID_12_">
			<path id="XMLID_152_" class="st3" d="M583.7,479.8h-25.5c-0.7,0-1.4-0.6-1.4-1.4v-90.5c0-0.7,0.6-1.4,1.4-1.4h25.5
				c0.7,0,1.4,0.6,1.4,1.4v90.5C585.1,479.2,584.5,479.8,583.7,479.8z"/>
			<path id="XMLID_151_" class="st1" d="M607.7,479.8h-13.1c-0.7,0-1.4-0.6-1.4-1.4V375c0-0.7,0.6-1.4,1.4-1.4h13.1
				c0.7,0,1.4,0.6,1.4,1.4v103.4C609.1,479.2,608.5,479.8,607.7,479.8z"/>
			<rect id="XMLID_150_" x="598.8" y="394.8" class="st4" width="5.5" height="67.1"/>
			<path id="XMLID_42_" class="st3" d="M640.5,479.8h-21.7c-0.7,0-1.4-0.6-1.4-1.4v-93.8c0-0.7,0.6-1.4,1.4-1.4h21.7
				c0.7,0,1.4,0.6,1.4,1.4v93.8C641.9,479.2,641.3,479.8,640.5,479.8z"/>
			<path id="XMLID_146_" class="st2" d="M556.8,399.2v-7.5c0-2.8,2.3-5,5-5H580c2.8,0,5,2.3,5,5v40.2"/>
			<path id="XMLID_145_" class="st2" d="M593.3,428.6v-49.9c0-2.8,2.3-5,5-5h5.3c3,0,5.4,2.4,5.4,5.4v49.5"/>
			<path id="XMLID_41_" class="st2" d="M617.4,431.9v-43.6c0-2.8,2.3-5,5-5h14.4c2.8,0,5,2.3,5,5v25.9"/>
			<line id="XMLID_40_" class="st2" x1="563.7" y1="397.7" x2="578.2" y2="397.7"/>
			<line id="XMLID_142_" class="st2" x1="563.7" y1="409.3" x2="578.2" y2="409.3"/>
			<line id="XMLID_141_" class="st2" x1="563.7" y1="420.8" x2="578.2" y2="420.8"/>
			<line id="XMLID_140_" class="st2" x1="563.7" y1="432.4" x2="578.2" y2="432.4"/>
			<line id="XMLID_39_" class="st2" x1="563.7" y1="443.9" x2="571.6" y2="443.9"/>
			<line id="XMLID_138_" class="st2" x1="563.7" y1="455.5" x2="578.2" y2="455.5"/>
			<line id="XMLID_137_" class="st2" x1="563.7" y1="467" x2="578.2" y2="467"/>
			<path id="XMLID_136_" class="st1" d="M638.3,400.6c0,4.8-3.9,8.7-8.7,8.7s-8.7-3.9-8.7-8.7c0-4.8,3.9-8.7,8.7-8.7
				C634.5,391.9,638.3,395.8,638.3,400.6z"/>
			<path id="XMLID_38_" class="st1" d="M638.3,458.4c0,4.8-3.9,8.7-8.7,8.7s-8.7-3.9-8.7-8.7c0-4.8,3.9-8.7,8.7-8.7
				C634.5,449.7,638.3,453.6,638.3,458.4z"/>
			<g id="XMLID_14_">
				<path id="XMLID_535_" class="st3" d="M652.9,465.7h-0.5c-2.3-7.8-9.4-13.4-17.9-13.4c-3.7,0-7.1,1.1-10.1,3
					c-1.9-12.2-12.4-21.6-25.2-21.6c-11.4,0-21.1,7.5-24.4,17.9c-1.5-0.4-3-0.6-4.6-0.6c-8.7,0-16,6.4-17.3,14.8H550
					c-7.2,0-13.1,5.9-13.1,13.1v1c0,7.2,5.9,13.1,13.1,13.1h102.7c7.2,0,13.1-5.9,13.1-13.1v-1C665.9,471.6,660.1,465.7,652.9,465.7
					z"/>
				<path id="XMLID_37_" class="st0" d="M640.8,468.9h-0.5c-2-6.8-8.3-11.8-15.8-11.8c-3.3,0-6.3,1-8.9,2.6
					c-1.7-10.8-10.9-19-22.2-19c-10.1,0-18.6,6.7-21.5,15.8c-1.3-0.3-2.6-0.5-4-0.5c-7.7,0-14.1,5.6-15.2,13h-2.5
					c-6.3,0-11.5,5.2-11.5,11.5v0.8c0,6.3,5.2,11.5,11.5,11.5h90.6c6.3,0,11.5-5.2,11.5-11.5v-0.8
					C652.4,474.1,647.2,468.9,640.8,468.9z"/>
				<path id="XMLID_533_" class="st2" d="M615.8,453.2c-3.8-5.8-10.3-9.7-17.8-9.7c-4,0-7.7,1.1-10.8,3"/>
				<path id="XMLID_531_" class="st2" d="M570.7,450.9c5,0,9.1,4.1,9.1,9.1"/>
				<path id="XMLID_59_" class="st2" d="M550.2,465.7c-7.2,0-13.1,5.9-13.1,13.1v1c0,7.2,5.9,13.1,13.1,13.1h102.7
					c7.2,0,13.1-5.9,13.1-13.1v-1c0-7.2-5.9-13.1-13.1-13.1h-0.5c-2.3-7.8-9.4-13.4-17.9-13.4c-3.7,0-7.1,1.1-10.1,3
					c-1.9-12.2-12.4-21.6-25.2-21.6c-11.4,0-21.1,7.5-24.4,17.9c-1.5-0.4-3-0.6-4.6-0.6"/>
			</g>
		</g>
	</g>
	<g id="XMLID_74_">
		<g id="XMLID_78_">
			<path id="XMLID_186_" class="st1" d="M513.7,443.7H333V341c0-2.7,2.2-4.8,4.8-4.8h171.1c2.7,0,4.8,2.2,4.8,4.8V443.7z"/>
			<path id="XMLID_51_" class="st2" d="M333,394.3v-49c0-5,4-9,9-9h12.2H371"/>
			<path id="XMLID_48_" class="st2" d="M411.1,336.2h93.6c5,0,9,4,9,9v54.1"/>
			<line id="XMLID_55_" class="st2" x1="379" y1="336.2" x2="399" y2="336.2"/>
			<rect id="XMLID_36_" x="342.8" y="346.7" class="st0" width="161.3" height="84.9"/>
			<rect id="XMLID_20_" x="396.2" y="460" class="st3" width="54.4" height="32.2"/>
			<rect id="XMLID_182_" x="396.2" y="460" class="st5" width="54.4" height="16.1"/>
			<rect id="XMLID_15_" x="396.2" y="460" class="st2" width="54.4" height="32.2"/>
			<path id="XMLID_180_" class="st0" d="M513.7,439.8H333v18.5c0,3.2,2.6,5.9,5.9,5.9h168.9c3.2,0,5.9-2.6,5.9-5.9V439.8z"/>
			<line id="XMLID_54_" class="st2" x1="362.1" y1="464.2" x2="492" y2="464.2"/>
			<line id="XMLID_53_" class="st2" x1="490" y1="439.8" x2="362.3" y2="439.8"/>
			<line id="XMLID_178_" class="st2" x1="385.6" y1="492.8" x2="461.9" y2="492.8"/>
		</g>
		<path id="XMLID_58_" class="st3" d="M422.7,401.7h-67.3c-0.6,0-1.1-0.5-1.1-1.1v-40.1c0-0.6,0.5-1.1,1.1-1.1h67.3
			c0.6,0,1.1,0.5,1.1,1.1v40.1C423.7,401.2,423.3,401.7,422.7,401.7z"/>
		<path id="XMLID_56_" class="st2" d="M422.7,401.7h-67.3c-0.6,0-1.1-0.5-1.1-1.1v-40.1c0-0.6,0.5-1.1,1.1-1.1h67.3
			c0.6,0,1.1,0.5,1.1,1.1v40.1C423.7,401.2,423.3,401.7,422.7,401.7z"/>
		<path id="XMLID_812_" class="st1" d="M398.2,381.9l-16.8,9.7c-1.1,0.6-2.4-0.2-2.4-1.4v-19.3c0-1.2,1.3-2,2.4-1.4l16.8,9.7
			C399.2,379.8,399.2,381.3,398.2,381.9z"/>
		<path id="XMLID_811_" class="st2" d="M398.2,381.9l-16.8,9.7c-1.1,0.6-2.4-0.2-2.4-1.4v-19.3c0-1.2,1.3-2,2.4-1.4l16.8,9.7
			C399.2,379.8,399.2,381.3,398.2,381.9z"/>
		<line id="XMLID_61_" class="st2" x1="354.3" y1="413.2" x2="387.8" y2="413.2"/>
		<line id="XMLID_11_" class="st2" x1="466.3" y1="365.9" x2="499.8" y2="365.9"/>
		<line id="XMLID_10_" class="st2" x1="466.3" y1="376.3" x2="483" y2="376.3"/>
		<line id="XMLID_73_" class="st2" x1="466.3" y1="396.5" x2="499.8" y2="396.5"/>
		<line id="XMLID_72_" class="st2" x1="466.3" y1="406.8" x2="483" y2="406.8"/>
		<line id="XMLID_9_" class="st2" x1="466.3" y1="427.1" x2="499.8" y2="427.1"/>
		<line id="XMLID_60_" class="st2" x1="352.1" y1="422.3" x2="426.6" y2="422.3"/>
		<rect id="XMLID_62_" x="439.3" y="359.7" class="st1" width="22.6" height="22.6"/>
		<rect id="XMLID_63_" x="439.3" y="390.4" class="st1" width="22.6" height="22.6"/>
		<rect id="XMLID_64_" x="439.3" y="421.1" class="st1" width="22.6" height="11.3"/>
	</g>
	<path class="st6" d="M515.1,453.4v-8.3v-6.7v-38.7h-2v-1.4h-7.7v1.4h-5.3v-1.4h-4.2c-3.1,0-5.7,2.5-5.7,5.7v61.5H503
		C509.7,465.5,515.1,460.1,515.1,453.4z"/>
	<path class="st6" d="M569.5,488.5v-80.9c0-3.1-2.5-5.7-5.7-5.7h-2.1h-6.3v50.2h1.4v3c-2.4,2.5-4.2,5.6-4.9,9.1h-1.7
		c-8,0-14.5,6.5-14.5,14.5v1c0,8,6.5,14.5,14.5,14.5h13.6C567,494.2,569.5,491.7,569.5,488.5z"/>
	<g id="XMLID_113_">
		<path id="XMLID_99_" class="st0" d="M562.7,492.8H497c-1,0-1.8-0.8-1.8-1.8v-85.9c0-1,0.8-1.8,1.8-1.8h65.7c1,0,1.8,0.8,1.8,1.8
			V491C564.5,492,563.7,492.8,562.7,492.8z"/>
		<path id="XMLID_112_" class="st2" d="M521,403.4h39.1c2.4,0,4.3,1.9,4.3,4.3v80.9c0,2.4-1.9,4.3-4.3,4.3h-60.7
			c-2.4,0-4.3-1.9-4.3-4.3v-80.9c0-2.4,1.9-4.3,4.3-4.3h4.2"/>
		<line id="XMLID_98_" class="st2" x1="509.1" y1="403.4" x2="516.8" y2="403.4"/>
		<rect id="XMLID_100_" x="501.7" y="412.5" class="st3" width="56.2" height="71.8"/>
		<line id="XMLID_102_" class="st2" x1="522" y1="408.1" x2="537.7" y2="408.1"/>
		<polygon id="XMLID_103_" class="st1" points="556.7,454.8 549.7,452.4 542.8,454.8 542.8,403.4 556.7,403.4 		"/>
		<polygon id="XMLID_101_" class="st2" points="556.7,454.8 549.7,452.4 542.8,454.8 542.8,403.4 556.7,403.4 		"/>
		<line id="XMLID_105_" class="st2" x1="505.9" y1="419.9" x2="538.7" y2="419.9"/>
		<line id="XMLID_104_" class="st2" x1="505.9" y1="428.3" x2="538.7" y2="428.3"/>
		<line id="XMLID_106_" class="st2" x1="505.9" y1="436.6" x2="538.7" y2="436.6"/>
		<line id="XMLID_107_" class="st2" x1="505.9" y1="445" x2="538.7" y2="445"/>
		<line id="XMLID_108_" class="st2" x1="505.9" y1="453.4" x2="538.7" y2="453.4"/>
		<line id="XMLID_109_" class="st2" x1="505.9" y1="461.8" x2="553.5" y2="461.8"/>
		<line id="XMLID_110_" class="st2" x1="505.9" y1="470.2" x2="553.5" y2="470.2"/>
		<line id="XMLID_111_" class="st2" x1="505.9" y1="478.5" x2="553.5" y2="478.5"/>
		<line id="XMLID_115_" class="st2" x1="527.1" y1="487.9" x2="532.6" y2="487.9"/>
	</g>
	<line id="XMLID_5_" class="st2" x1="19.3" y1="492.8" x2="819.8" y2="492.8"/>
	<path class="st6" d="M356.9,392.4h-25.2v46v6.7v8.3c0,6.7,5.4,12.1,12.1,12.1h17.6v-68.6C361.4,394.4,359.4,392.4,356.9,392.4z"/>
	<path class="st6" d="M238.7,396.1h-8.6c-2.5,0-4.5,2-4.5,4.5v80.5h-6.2l1.1,6.9c0.2,1.4,0.8,2.6,1.7,3.6h16.5V396.1z"/>
	<g>
		<g id="XMLID_49_">
			<path id="XMLID_802_" class="st1" d="M355.3,487.8H231.6c-0.6,0-1-0.4-1-1v-88.4c0-0.5,0.4-1,1-1h123.7c0.5,0,1,0.5,1,1v88.4
				C356.3,487.4,355.9,487.8,355.3,487.8z"/>
			<path id="XMLID_57_" class="st2" d="M230.6,427.9v-27.4c0-1.7,1.4-3.1,3.1-3.1H255"/>
			<path id="XMLID_52_" class="st2" d="M327.4,397.4h25.8c1.7,0,3.1,1.4,3.1,3.1v84.1c0,1.7-1.4,3.1-3.1,3.1"/>
			<rect id="XMLID_799_" x="236.7" y="404.6" class="st0" width="112.8" height="73.3"/>
			<path id="XMLID_798_" class="st0" d="M354.1,492.8H231.4c-2.9,0-5.5-2.1-5.9-5l-0.9-5.3h56.9l2.2,3.1h15.7l2.4-3.1h59.9l-0.8,4.6
				C360.4,490.4,357.5,492.8,354.1,492.8z"/>
			<path id="XMLID_797_" class="st2" d="M354.1,492.8H231.4c-2.9,0-5.5-2.1-5.9-5l-0.9-5.3h56.9l2.2,3.1h15.7l2.4-3.1h59.9l-0.8,4.6
				C360.4,490.4,357.5,492.8,354.1,492.8z"/>
		</g>
		<path id="XMLID_757_" class="st3" d="M259.8,382.5v30c0,1.4,1.1,2.5,2.5,2.5h2v5.9v11.2c0,0.6,0.8,0.9,1.2,0.4l14.7-17.6h41.6
			c1.4,0,2.5-1.1,2.5-2.5v-30c0-1.4-1.1-2.5-2.5-2.5h-59.4C260.9,380,259.8,381.1,259.8,382.5z"/>
		<path id="XMLID_756_" class="st2" d="M301.3,380h-39c-1.4,0-2.5,1.1-2.5,2.5v30c0,1.4,1.1,2.5,2.5,2.5h2v5.9v11.2
			c0,0.6,0.8,0.9,1.2,0.4l14.7-17.6h41.6c1.4,0,2.5-1.1,2.5-2.5v-30c0-1.4-1.1-2.5-2.5-2.5h-5.4h-3.3"/>
		<line id="XMLID_754_" class="st2" x1="311.2" y1="380" x2="305.3" y2="380"/>
		<g id="XMLID_724_">
			<path id="XMLID_726_" class="st2" d="M269.8,446.2c0,2.8-2.2,5-5,5s-5-2.2-5-5c0-2.8,2.2-5,5-5
				C267.5,441.2,269.8,443.5,269.8,446.2z"/>
			<path id="XMLID_725_" class="st2" d="M257,467.9v-4.7c0-4.5,3.6-8.1,8.1-8.1l0,0c4.5,0,8.1,3.6,8.1,8.1v4.7"/>
		</g>
		<polyline id="XMLID_712_" class="st2" points="257,431.5 244.7,431.5 244.7,467.9 284.8,467.9 284.8,431.5 273.3,431.5 		"/>
		<path id="XMLID_713_" class="st2" d="M280.5,398.5c0,2.5-2.1,4.6-4.6,4.6s-4.6-2.1-4.6-4.6s2.1-4.6,4.6-4.6
			C278.5,393.9,280.5,395.9,280.5,398.5z"/>
		<path id="XMLID_788_" class="st2" d="M298.2,398.5c0,2.5-2.1,4.6-4.6,4.6s-4.6-2.1-4.6-4.6s2.1-4.6,4.6-4.6
			S298.2,395.9,298.2,398.5z"/>
		<path id="XMLID_789_" class="st2" d="M315.8,398.5c0,2.5-2.1,4.6-4.6,4.6s-4.6-2.1-4.6-4.6s2.1-4.6,4.6-4.6
			C313.8,393.9,315.8,395.9,315.8,398.5z"/>
		<line id="XMLID_791_" class="st2" x1="295.9" y1="432.8" x2="341.3" y2="432.8"/>
		<line id="XMLID_790_" class="st2" x1="296.4" y1="446.2" x2="341.8" y2="446.2"/>
		<line id="XMLID_792_" class="st2" x1="296.8" y1="459.6" x2="319.5" y2="459.6"/>
	</g>
	<path class="st6" d="M244,489.1v-49.6c0-2.5-2-4.6-4.6-4.6h-7v-5.4h-2.7v5.4h-0.5v46.2H223l1.1,6.9c0.4,2.6,2.2,4.7,4.5,5.6h10.8
		C242,493.6,244,491.6,244,489.1z"/>
	<g id="XMLID_464_">
		<path id="XMLID_530_" class="st0" d="M237.2,492.3h-62.9c-1,0-1.8-0.8-1.8-1.8v-52.4c0-1,0.8-1.8,1.8-1.8h62.9
			c1,0,1.8,0.8,1.8,1.8v52.4C239,491.5,238.2,492.3,237.2,492.3z"/>
		<path id="XMLID_467_" class="st5" d="M235.8,436.3h-60.2c-1.8,0-3.2,1.4-3.2,3.2v8.5H239v-8.5C239,437.7,237.6,436.3,235.8,436.3z
			"/>
		<line id="XMLID_488_" class="st2" x1="183.1" y1="429.5" x2="183.1" y2="440.2"/>
		<line id="XMLID_487_" class="st2" x1="190.5" y1="429.5" x2="190.5" y2="440.2"/>
		<line id="XMLID_486_" class="st2" x1="197.9" y1="429.5" x2="197.9" y2="440.2"/>
		<line id="XMLID_485_" class="st2" x1="205.3" y1="429.5" x2="205.3" y2="440.2"/>
		<line id="XMLID_484_" class="st2" x1="212.7" y1="429.5" x2="212.7" y2="440.2"/>
		<line id="XMLID_483_" class="st2" x1="220" y1="429.5" x2="220" y2="440.2"/>
		<line id="XMLID_482_" class="st2" x1="227.4" y1="429.5" x2="227.4" y2="440.2"/>
		<circle id="XMLID_458_" class="st3" cx="205.3" cy="471" r="17.1"/>
		<path id="XMLID_462_" class="st0" d="M215.6,471c0,5.7-4.6,10.3-10.3,10.3S195,476.7,195,471c0-5.7,4.6-10.3,10.3-10.3
			C211,460.6,215.6,465.2,215.6,471z"/>
		<path id="XMLID_44_" class="st2" d="M198.4,486.7c-1.9-0.8-3.7-2-5.1-3.5"/>
		<path id="XMLID_422_" class="st2" d="M191.6,481.3c-2.2-2.9-3.5-6.5-3.5-10.4c0-9.5,7.7-17.1,17.1-17.1c9.5,0,17.1,7.7,17.1,17.1
			c0,9.5-7.7,17.1-17.1,17.1c-1.4,0-2.8-0.2-4.2-0.5"/>
		<polyline id="XMLID_423_" class="st2" points="213,465 203,475 197.5,469.5 		"/>
		<line id="XMLID_463_" class="st2" x1="172.6" y1="448" x2="239" y2="448"/>
		<path id="XMLID_50_" class="st2" d="M223.6,492.3h12.2c1.8,0,3.2-1.4,3.2-3.2v-49.6c0-1.8-1.4-3.2-3.2-3.2h-60.2
			c-1.8,0-3.2,1.4-3.2,3.2v49.6c0,1.8,1.4,3.2,3.2,3.2h10.9H223.6L223.6,492.3z"/>
	</g>
	<g>
		<path id="XMLID_426_" class="st5" d="M530.8,377.1l2.9-15.8c-1.7-3.7-2.6-7.9-2.6-12.2c0-16.6,13.4-30,30-30s30,13.4,30,30
			c0,16.6-13.4,30-30,30c-5.9,0-11.3-1.7-15.9-4.6L530.8,377.1z"/>
		<path id="XMLID_425_" class="st2" d="M549.1,321.5c3.7-1.6,7.7-2.5,12-2.5c16.6,0,30,13.4,30,30c0,16.6-13.4,30-30,30
			c-5.9,0-11.3-1.7-15.9-4.6l-14.4,2.6l2.9-15.8c-1.7-3.7-2.6-7.9-2.6-12.2c0-7.2,2.5-13.7,6.7-18.9"/>
		<path id="XMLID_424_" class="st2" d="M539.8,327.9c1.9-1.9,4-3.5,6.3-4.9"/>
		<ellipse id="XMLID_96_" class="st0" cx="561" cy="349" rx="23.2" ry="22.6"/>
		<path id="XMLID_97_" class="st2" d="M570.1,350l-11.8,6.8c-0.7,0.4-1.7-0.1-1.7-1v-13.6c0-0.9,0.9-1.4,1.7-1l11.8,6.8
			C570.9,348.5,570.9,349.6,570.1,350z"/>
	</g>
	<g class="st7">
		<path class="st8" d="M653.4,464.3c-1.9-5.5-6.2-9.9-11.5-12v-3.4h1.4v-32c-0.6,0.6-1.2,1.2-1.7,1.8l-1.1-0.9
			c-3.9,4.6-6,10.5-6,16.6c0,8.9,4.7,17.2,12.2,21.9v5.3h-2.3v2.7h2.3v2.8h-2.3v2.7h2.3v2.8h-2.3v2.7h2.3v2.8h-2.3v2.7h2.8l3.5,6.5
			h4.3v1.7c0,1.8,1.4,3.2,3.2,3.2h1.8c2.1-1.2,3.8-2.8,5.1-4.8v-0.1l0,0c1.4-2.2,2.3-4.9,2.3-7.7v-1
			C667.3,471,661.1,464.6,653.4,464.3z"/>
		<path class="st8" d="M643.3,415.6v-0.5c-0.1,0.1-0.2,0.2-0.3,0.3L643.3,415.6z"/>
	</g>
	<g id="XMLID_602_">
		<path id="XMLID_647_" class="st1" d="M666.3,491H661c-0.5,0-1-0.4-1-1v-9.2c0-0.6,0.5-1,1-1h5.3c0.5,0,1,0.4,1,1v9.2
			C667.3,490.5,666.9,491,666.3,491z"/>
		<path id="XMLID_646_" class="st2" d="M666.3,491H661c-0.5,0-1-0.4-1-1v-9.2c0-0.6,0.5-1,1-1h5.3c0.5,0,1,0.4,1,1v9.2
			C667.3,490.5,666.9,491,666.3,491z"/>
		<path id="XMLID_645_" class="st0" d="M688.2,434.4c0-13.5-10.9-24.4-24.4-24.4s-24.4,10.9-24.4,24.4c0,9,4.9,16.9,12.2,21.1v24
			l3.5,6.5h16.7l4.1-6.5v-24C683.3,451.3,688.2,443.5,688.2,434.4z"/>
		<polygon id="XMLID_644_" class="st5" points="651.7,462.2 651.7,481 655.2,486.1 671.9,486.1 676,481 676,462.2 		"/>
		<polygon id="XMLID_643_" class="st1" points="676,479.6 671.9,486.1 655.2,486.1 651.7,479.6 		"/>
		<path id="XMLID_642_" class="st2" d="M645.2,418.7c-3.6,4.2-5.7,9.7-5.7,15.7c0,9,4.9,16.9,12.2,21.1v24l3.5,6.5h16.7l4.1-6.5v-24
			c7.3-4.2,12.2-12.1,12.2-21.1c0-13.5-10.9-24.4-24.4-24.4c-3.2,0-6.3,0.6-9.2,1.8"/>
		<path id="XMLID_641_" class="st2" d="M651.7,413.3c-1.9,1.1-2.5,1.4-4.1,2.9"/>
		<line id="XMLID_640_" class="st2" x1="648" y1="463" x2="679.7" y2="463"/>
		<line id="XMLID_639_" class="st2" x1="648" y1="468.5" x2="679.7" y2="468.5"/>
		<line id="XMLID_638_" class="st2" x1="648" y1="474" x2="679.7" y2="474"/>
		<line id="XMLID_637_" class="st2" x1="648" y1="479.6" x2="679.7" y2="479.6"/>
		<path id="XMLID_625_" class="st5" d="M676.7,434.4c0,7.1-5.7,12.8-12.8,12.8s-12.8-5.7-12.8-12.8s5.7-12.8,12.8-12.8
			C670.9,421.6,676.7,427.4,676.7,434.4z"/>
		<g id="XMLID_626_">
			<g id="XMLID_95_">
				<polygon class="st9" points="667.1,418.4 659.7,434.2 658.5,432.2 668.8,432.2 671.1,432.2 670.1,434.2 661.1,451 660,450.5 
					667.6,433 668.8,434.9 658.5,434.9 656.2,434.9 657.3,433 665.7,417.8 				"/>
			</g>
		</g>
	</g>
</g>
<g>
	<g>
		<path class="st2" d="M663.1,212.6c-1.7,0-3.3,0.5-4.6,1.4c-0.9-1-2.1-1.7-3.5-2c0.1-0.4,0.1-0.8,0.1-1.2c0-4.5-3.7-8.2-8.2-8.2
			c-4.5,0-8.2,3.7-8.2,8.2c0,0.7,0.1,1.3,0.2,1.9c-0.6-0.1-1.2-0.2-1.9-0.2c-4.5,0-8.2,3.8-8.2,8.2h42.5
			C671.3,216.4,667.7,212.6,663.1,212.6z"/>
	</g>
	<g>
		<g>
			<path class="st2" d="M76.8,205.1c-11.5,0-20.9,9.4-20.9,20.9c0,11.5,9.4,20.9,20.9,20.9c11.5,0,20.9-9.4,20.9-20.9
				C97.7,214.4,88.3,205.1,76.8,205.1z"/>
		</g>
	</g>
	<g>
		<rect x="75.3" y="219.8" class="st2" width="2.9" height="6.2"/>
	</g>
	<g>
		
			<rect x="77.8" y="222.6" transform="matrix(0.6561 -0.7547 0.7547 0.6561 -144.8892 138.2106)" class="st2" width="2.9" height="11"/>
	</g>
	<g>
		<g>
			<rect x="75.5" y="207.8" class="st2" width="1.9" height="5.7"/>
		</g>
		<g>
			<g>
				<rect x="58" y="225.3" class="st2" width="5.7" height="1.9"/>
			</g>
		</g>
		<g>
			<g>
				<rect x="75.5" y="239.6" class="st2" width="1.9" height="4.5"/>
			</g>
		</g>
		<g>
			<g>
				<rect x="89.1" y="225.3" class="st2" width="6.4" height="1.9"/>
			</g>
		</g>
		<g>
			
				<rect x="84.7" y="214.4" transform="matrix(0.7071 -0.7071 0.7071 0.7071 -126.8218 124.5325)" class="st2" width="4.4" height="1.9"/>
		</g>
		<g>
			<g>
				
					<rect x="65" y="213.5" transform="matrix(0.7072 -0.707 0.707 0.7072 -133.0907 109.7288)" class="st2" width="1.9" height="4.1"/>
			</g>
		</g>
		<g>
			<g>
				
					<rect x="64.1" y="235.9" transform="matrix(0.7069 -0.7073 0.7073 0.7069 -148.2703 115.9784)" class="st2" width="3.4" height="1.9"/>
			</g>
		</g>
		<g>
			<g>
				
					<rect x="86.6" y="234.9" transform="matrix(0.7072 -0.707 0.707 0.7072 -141.7522 131.2271)" class="st2" width="1.9" height="3.8"/>
			</g>
		</g>
	</g>
	<g>
		<g>
			<g>
				<path class="st2" d="M628.9,241.6v-73.9c0-4.1-3.3-7.4-7.3-7.4H508.5c-4,0-7.3,3.3-7.3,7.4v73.9H628.9z"/>
			</g>
		</g>
		<g>
			<g>
				<rect x="541.1" y="159.3" class="st2" width="50" height="1.9"/>
			</g>
			<g>
				<rect x="597.9" y="159.3" class="st2" width="8.1" height="1.9"/>
			</g>
			<g>
				<path class="st2" d="M629.8,242.5H500.2v-74.8c0-4.6,3.7-8.4,8.2-8.4h20.4v1.9h-20.4c-3.5,0-6.3,2.9-6.3,6.5v72.9h125.8v-72.9
					c0-3.6-2.8-6.5-6.3-6.5h-9.3v-1.9h9.3c4.5,0,8.2,3.8,8.2,8.4V242.5z"/>
			</g>
		</g>
		<g>
			<g>
				<path class="st2" d="M494.7,241.6v3.5c0,1.9,1.5,3.5,3.4,3.5H632c1.9,0,3.4-1.6,3.4-3.5v-3.5H494.7z"/>
			</g>
		</g>
		<g>
			<g>
				<g>
					<path class="st2" d="M632,249.5H498.1c-2.4,0-4.4-2-4.4-4.4v-4.4h142.6v4.4C636.3,247.5,634.4,249.5,632,249.5z M495.6,242.5
						v2.5c0,1.4,1.1,2.5,2.5,2.5H632c1.4,0,2.5-1.1,2.5-2.5v-2.5H495.6z"/>
				</g>
			</g>
		</g>
		<g>
			<g>
				<g>
					<rect x="507.5" y="167.3" class="st2" width="115" height="68.5"/>
				</g>
			</g>
		</g>
		<g>
			<g>
				<rect x="553.1" y="171.7" class="st2" width="4" height="1.9"/>
			</g>
			<g>
				<rect x="542" y="171.7" class="st2" width="4" height="1.9"/>
			</g>
			<g>
				<rect x="530.8" y="171.7" class="st2" width="4" height="1.9"/>
			</g>
			<g>
				<rect x="530.8" y="179.3" class="st2" width="62.3" height="1.9"/>
			</g>
			<g>
				<rect x="530.8" y="186.8" class="st2" width="62.3" height="1.9"/>
			</g>
			<g>
				<rect x="530.8" y="194.3" class="st2" width="28.5" height="1.9"/>
			</g>
			<g>
				<rect x="530.8" y="201.8" class="st2" width="62.3" height="1.9"/>
			</g>
		</g>
		<g>
			<g>
				<polygon class="st2" points="523.2,228.3 522.5,226.5 552.3,214.9 571.7,219.8 603.4,206.3 604.1,208 571.9,221.8 552.4,216.9 
									"/>
			</g>
			<g>
				<path class="st2" d="M575,220.8c0,1.8-1.4,3.2-3.2,3.2c-1.8,0-3.2-1.4-3.2-3.2s1.4-3.2,3.2-3.2C573.6,217.6,575,219.1,575,220.8
					z"/>
			</g>
			<g>
				<path class="st2" d="M607,207.1c0,1.8-1.4,3.2-3.2,3.2c-1.8,0-3.2-1.4-3.2-3.2s1.4-3.2,3.2-3.2C605.5,203.9,607,205.3,607,207.1
					z"/>
			</g>
			<g>
				<path class="st2" d="M555.6,215.9c0,1.8-1.4,3.2-3.2,3.2s-3.2-1.4-3.2-3.2s1.4-3.2,3.2-3.2S555.6,214.1,555.6,215.9z"/>
			</g>
			<g>
				<path class="st2" d="M526.1,227.4c0,1.8-1.4,3.2-3.2,3.2c-1.8,0-3.2-1.4-3.2-3.2s1.4-3.2,3.2-3.2
					C524.7,224.2,526.1,225.6,526.1,227.4z"/>
			</g>
		</g>
	</g>
	<g>
		<rect x="670.2" y="247.6" class="st2" width="13.5" height="1.9"/>
	</g>
	<g>
		<g>
			<rect x="326.9" y="23.4" class="st2" width="9.7" height="225.1"/>
		</g>
		<g>
			<g>
				<rect x="235.3" y="59.6" class="st2" width="192.9" height="123.8"/>
			</g>
		</g>
		<g>
			<g>
				<g>
					<g>
						<g>
							<g>
								<path class="st2" d="M291.1,154.2c-18.1,0-32.8-14.7-32.8-32.8c0-17.2,13.5-31.6,30.6-32.7l1-0.1v34h34l-0.1,1
									C322.6,140.8,308.3,154.2,291.1,154.2z M288,90.7c-15.7,1.6-27.8,14.9-27.8,30.7c0,17,13.9,30.9,30.9,30.9
									c15.9,0,29.2-12.1,30.7-27.8H288V90.7z"/>
							</g>
						</g>
					</g>
				</g>
				<g>
					<g>
						<path class="st2" d="M293.2,118V91.7c10.2,0.7,19,6.6,23.7,15L293.2,118z"/>
					</g>
				</g>
				<g>
					<g>
						<path class="st2" d="M320.7,119.3h-20.2l18.3-8.7C319.9,113.4,320.5,116.3,320.7,119.3L320.7,119.3z"/>
					</g>
				</g>
			</g>
		</g>
		<g>
			<rect x="226.3" y="58.6" class="st2" width="210.9" height="1.9"/>
		</g>
		<g>
			<g>
				<rect x="365.5" y="87" class="st2" width="4" height="1.9"/>
			</g>
			<g>
				<rect x="354.4" y="87" class="st2" width="4" height="1.9"/>
			</g>
			<g>
				<rect x="343.3" y="87" class="st2" width="4" height="1.9"/>
			</g>
			<g>
				<rect x="343.3" y="94.6" class="st2" width="62.3" height="1.9"/>
			</g>
			<g>
				<rect x="343.3" y="102.1" class="st2" width="62.3" height="1.9"/>
			</g>
			<g>
				<rect x="343.3" y="109.6" class="st2" width="28.5" height="1.9"/>
			</g>
			<g>
				<rect x="343.3" y="117.1" class="st2" width="62.3" height="1.9"/>
			</g>
		</g>
		<g>
			<rect x="235.3" y="182.4" class="st2" width="192.9" height="1.9"/>
		</g>
		<g>
			<g>
				<polygon class="st2" points="335.7,154.2 335,152.4 364.7,140.8 384.1,145.7 415.8,132.1 416.6,133.9 384.3,147.7 364.9,142.8 
									"/>
			</g>
			<g>
				<path class="st2" d="M387.4,146.7c0,1.8-1.4,3.2-3.2,3.2s-3.2-1.4-3.2-3.2s1.4-3.2,3.2-3.2S387.4,144.9,387.4,146.7z"/>
			</g>
			<g>
				<path class="st2" d="M419.4,133c0,1.8-1.4,3.2-3.2,3.2c-1.8,0-3.2-1.4-3.2-3.2s1.4-3.2,3.2-3.2C418,129.8,419.4,131.2,419.4,133
					z"/>
			</g>
			<g>
				<path class="st2" d="M368,141.8c0,1.8-1.4,3.2-3.2,3.2c-1.8,0-3.2-1.4-3.2-3.2s1.4-3.2,3.2-3.2C366.6,138.5,368,140,368,141.8z"
					/>
			</g>
			<g>
				<path class="st2" d="M338.5,153.3c0,1.8-1.4,3.2-3.2,3.2c-1.8,0-3.2-1.4-3.2-3.2s1.4-3.2,3.2-3.2
					C337.1,150.1,338.5,151.5,338.5,153.3z"/>
			</g>
		</g>
	</g>
	<g>
		<path class="st2" d="M263,41.2c2,0,3.9,0.6,5.5,1.7c1.1-1.2,2.5-2,4.1-2.3c-0.1-0.5-0.1-0.9-0.1-1.4c0-5.3,4.3-9.6,9.6-9.6
			c5.3,0,9.6,4.3,9.6,9.6c0,0.8-0.1,1.5-0.3,2.3c0.7-0.2,1.5-0.2,2.2-0.2c5.3,0,9.6,4.4,9.6,9.7h-49.9
			C253.4,45.6,257.7,41.2,263,41.2z"/>
	</g>
	<g>
		<path class="st2" d="M53.5,189.3c1.5,0,2.8,0.4,3.9,1.2c0.8-0.9,1.8-1.5,3-1.7c0-0.3-0.1-0.7-0.1-1c0-3.8,3.1-6.9,6.9-6.9
			c3.8,0,6.9,3.1,6.9,6.9c0,0.6-0.1,1.1-0.2,1.6c0.5-0.1,1-0.1,1.6-0.1c3.8,0,6.9,3.2,6.9,7h-36C46.6,192.5,49.7,189.3,53.5,189.3z"
			/>
	</g>
	<g>
		<path class="st2" d="M579.1,75.3c1.5,0,2.8,0.4,3.9,1.2c0.8-0.9,1.8-1.5,3-1.7c0-0.3-0.1-0.7-0.1-1c0-3.8,3.1-6.9,6.9-6.9
			c3.8,0,6.9,3.1,6.9,6.9c0,0.6-0.1,1.1-0.2,1.6c0.5-0.1,1-0.1,1.6-0.1c3.8,0,6.9,3.2,6.9,7h-36C572.2,78.5,575.3,75.3,579.1,75.3z"
			/>
	</g>
	<g>
		<g>
			<path class="st10" d="M565,121.8c-8.7,0-18.3,6.8-18.3,18c0,17.2,18.3,35.3,18.3,35.3s18.3-18.4,18.3-35.3
				C583.3,128.6,573.2,121.8,565,121.8z M569.5,147.6c-1.2,0.7-2.7,1.2-4.5,1.2c-2.5,0-4.4-0.9-5.8-2.3c-5.1-4.8-3.2-15.7,5.9-15.7
				C574.8,130.9,576.3,143.7,569.5,147.6z"/>
		</g>
		<g>
			<path class="st2" d="M565.1,154.6c-0.4,0-0.8,0-1.3-0.1l0.2-1.9c0.9,0.1,1.8,0.1,2.7,0l0.2,1.9
				C566.3,154.6,565.7,154.6,565.1,154.6z M559.8,153.7c-1-0.4-1.9-0.8-2.7-1.4l1-1.6c0.8,0.5,1.6,0.9,2.4,1.2L559.8,153.7z
				 M570.8,153.5l-0.7-1.8c0.8-0.3,1.6-0.8,2.3-1.3l1.1,1.6C572.6,152.6,571.7,153.1,570.8,153.5z M554,149.7
				c-0.7-0.8-1.3-1.6-1.8-2.5l1.7-0.9c0.4,0.8,1,1.5,1.6,2.2L554,149.7z M576.5,149.3L575,148c0.6-0.7,1.1-1.4,1.5-2.2l1.7,0.9
				C577.7,147.6,577.1,148.5,576.5,149.3z M550.7,143.4c-0.2-1-0.4-2-0.4-3l1.9-0.1c0,0.9,0.2,1.8,0.4,2.6L550.7,143.4z
				 M579.6,142.9l-1.9-0.4c0.2-0.9,0.3-1.8,0.3-2.7l1.9-0.1v0.1C579.9,140.8,579.8,141.9,579.6,142.9z M552.5,136.8l-1.8-0.4
				c0.2-1,0.6-2,1-2.9l1.7,0.8C553,135,552.7,135.9,552.5,136.8z M577.5,136.3c-0.2-0.9-0.6-1.7-1-2.5l1.7-0.9
				c0.5,0.9,0.9,1.9,1.1,2.8L577.5,136.3z M555.4,131.3l-1.4-1.3c0.7-0.8,1.4-1.5,2.3-2.1l1.1,1.5C556.6,130,556,130.6,555.4,131.3z
				 M574.4,130.9c-0.6-0.6-1.3-1.2-2-1.7l1.1-1.6c0.8,0.6,1.6,1.2,2.3,2L574.4,130.9z M560.4,127.8l-0.7-1.8c1-0.4,2-0.6,3-0.8
				l0.3,1.9C562.1,127.2,561.3,127.4,560.4,127.8z M569.2,127.6c-0.8-0.3-1.7-0.5-2.6-0.6l0.2-1.9c1,0.1,2,0.3,3,0.7L569.2,127.6z"
				/>
		</g>
	</g>
	<g>
		<g>
			<rect x="130.6" y="187.7" class="st2" width="94.1" height="59.6"/>
		</g>
		<g>
			<rect x="135.7" y="192.5" class="st2" width="83.8" height="50.1"/>
		</g>
		<g>
			<path class="st2" d="M172.5,235.5h-29.7v-36h29.7V235.5z M144.7,233.6h25.9v-32.2h-25.9V233.6z"/>
		</g>
		<g>
			<path class="st2" d="M130.6,187.7c0.1-6.4,5.3-11.5,11.7-11.5H213c6.4,0,11.6,5.2,11.7,11.5H130.6z"/>
		</g>
		<g>
			<rect x="142.1" y="171" class="st2" width="1.9" height="9.4"/>
		</g>
		<g>
			<rect x="153.5" y="171" class="st2" width="1.9" height="9.4"/>
		</g>
		<g>
			<rect x="165" y="171" class="st2" width="1.9" height="9.4"/>
		</g>
		<g>
			<rect x="176.4" y="171" class="st2" width="1.9" height="9.4"/>
		</g>
		<g>
			<rect x="187.9" y="171" class="st2" width="1.9" height="9.4"/>
		</g>
		<g>
			<rect x="199.3" y="171" class="st2" width="1.9" height="9.4"/>
		</g>
		<g>
			<rect x="210.8" y="171" class="st2" width="1.9" height="9.4"/>
		</g>
		<g>
			<rect x="179.1" y="199.5" class="st2" width="34.9" height="1.9"/>
		</g>
		<g>
			<rect x="200.7" y="208" class="st2" width="13.3" height="1.9"/>
		</g>
		<g>
			<rect x="179.1" y="208" class="st2" width="10.2" height="1.9"/>
		</g>
		<g>
			<rect x="179.1" y="216.6" class="st2" width="34.9" height="1.9"/>
		</g>
		<g>
			<rect x="200.7" y="225.1" class="st2" width="13.3" height="1.9"/>
		</g>
		<g>
			<rect x="179.1" y="225.1" class="st2" width="10.2" height="1.9"/>
		</g>
		<g>
			<rect x="179.1" y="233.6" class="st2" width="34.9" height="1.9"/>
		</g>
	</g>
	<g>
		<g>
			<g>
				<path class="st2" d="M532.9,100.4c-0.5,0-1-0.2-1.4-0.6l-3.5-3.5l2.2-2.2c0.4-0.4,0.6-0.9,0.5-1.1l-3.1-3
					c-0.4,0-0.8,0.2-1.1,0.5l-2.2,2.2l-3.1-3.1c-0.9-0.9-1.1-2.6-0.1-3.7l2.2-2.2l-0.9-0.9c-0.5-0.5-0.7-1-0.8-1.7
					c0-0.7,0.2-1.3,0.7-1.8l3.5-3.5c0.9-0.9,2.6-0.9,3.5,0l0.9,0.9l2.6-2.6c0.5-0.5,1.4-0.9,2.2-0.9c0.7,0,1.3,0.2,1.7,0.6L540,77
					l-2.9,2.9c-0.1,0.1-0.1,0.1-0.1,0.1c0,0,0.1,0.1,0.3,0.3l3.1,3.1c0.1,0.1,0.2,0.2,0.3,0.2c0,0,0.1,0,0.1-0.1l2.9-2.9l3.5,3.5
					c0.3,0.3,0.5,0.8,0.5,1.3c0,1-0.8,2-1.1,2.3l-2.5,2.6l1.3,1.3c0.5,0.5,0.7,1.1,0.7,1.7c0,0.7-0.3,1.3-0.7,1.8l-3.5,3.5
					c-0.5,0.5-1.1,0.7-1.7,0.7l0,0c-0.6,0-1.2-0.3-1.7-0.7l-1.3-1.3l-2.2,2.2C534.2,100,533.5,100.4,532.9,100.4z M530.7,96.3
					l2.2,2.2c0.1,0,0.3-0.1,0.6-0.4l3.5-3.5l2.6,2.6c0.2,0.2,0.5,0.2,0.8,0l3.5-3.5c0.1-0.1,0.2-0.3,0.2-0.4c0-0.1-0.1-0.3-0.2-0.4
					l-2.6-2.6l3.9-3.9c0.4-0.4,0.6-0.8,0.6-1l-2.1-2.1l-1.5,1.5c-0.4,0.4-0.9,0.7-1.4,0.7c-0.7,0-1.2-0.4-1.6-0.8l-3.1-3.1
					c-1.4-1.4-0.7-2.6-0.2-3.1l1.5-1.5l-1.8-1.8c0,0-0.1-0.1-0.4-0.1c-0.4,0-0.7,0.1-0.9,0.3l-3.9,3.9l-2.2-2.2
					c-0.2-0.2-0.6-0.3-0.8,0l-3.5,3.5c-0.1,0.1-0.2,0.2-0.2,0.4c0,0.2,0.1,0.3,0.2,0.4l2.2,2.2l-3.5,3.5c-0.3,0.3-0.2,0.8,0.1,1
					l1.8,1.8l0.9-0.9c0.6-0.6,1.6-1,2.4-1c0.6,0,1.1,0.2,1.4,0.6l3.1,3.1c0.5,0.5,0.7,1.3,0.4,2.1c-0.2,0.6-0.5,1.2-1,1.6
					L530.7,96.3z"/>
			</g>
		</g>
		<g>
			<g>
				<path class="st2" d="M521.7,94l-2,2l-3.3-3.3c-0.6-0.6-1.8-1.4-2.4-0.8l-3,3l2.4,2.4c0.6,0.6,0.4,0.8-0.1,1.4l-3.1,3.1
					c-0.6,0.6-1,1.1-1.7,0.4l-2.4-2.4l-2.4,2.4c-0.6,0.6-0.1,2,0.6,2.6l3.3,3.3l-1.7,1.7c-0.6,0.6-1,1.6-0.3,2.3l3.5,3.5
					c0.6,0.6,1.9,0.4,2.4-0.1l1.7-1.7l2.7,2.7c0.6,0.6,1.5,0.6,2,0l2.4-2.4l-1.4-1.4c-0.6-0.6-1.1-2.1-0.6-2.7l3.1-3.1
					c0.6-0.6,1.7,0.2,2.4,0.8l1.4,1.4l3-3c0.6-0.6,0.4-1.1-0.3-1.8l-2.7-2.7l2-2c0.6-0.6,0.5-1.6-0.1-2.2l-3.5-3.5
					C523,93.3,522.2,93.4,521.7,94z"/>
			</g>
		</g>
	</g>
	<g>
		<g>
			<path class="st2" d="M213,127.6h-6.4c-0.7,0-1.3-0.3-1.7-0.7s-0.7-1.1-0.7-1.7l0-3c-1.6-0.4-3.2-1.1-4.7-1.9l-2.1,2.1
				c-0.9,0.9-2.5,0.9-3.5,0l-4.5-4.5c-0.5-0.5-0.7-1.1-0.7-1.7c0-0.7,0.3-1.3,0.7-1.7l2.1-2.1c-0.8-1.5-1.5-3-2-4.7h-3
				c-1.3,0-2.4-1.1-2.4-2.4v-6.4c0-1.3,1.1-2.4,2.4-2.4h3c0.4-1.6,1.1-3.2,1.9-4.7l-2.1-2.1c-1-1-1-2.5,0-3.5l4.5-4.5
				c0.9-0.9,2.5-0.9,3.4,0l2.1,2.1c1.5-0.8,3-1.5,4.7-2v-3c0-1.3,1.1-2.4,2.4-2.4h6.4c1.3,0,2.4,1.1,2.4,2.4v3
				c1.6,0.4,3.2,1.1,4.7,1.9l2.1-2.1c0.9-0.9,2.5-0.9,3.4,0l4.5,4.5c1,1,1,2.5,0,3.5l-2.1,2.1c0.8,1.5,1.5,3,2,4.7h3
				c1.3,0,2.4,1.1,2.4,2.4v6.4c0,1.3-1.1,2.4-2.4,2.4h-3c-0.4,1.6-1.1,3.2-1.9,4.7l2.1,2.1c0.5,0.5,0.7,1.1,0.7,1.7
				c0,0.7-0.3,1.3-0.7,1.7l-4.5,4.5c-0.9,0.9-2.5,0.9-3.5,0l-2.1-2.1c-1.5,0.8-3,1.5-4.7,2v3C215.5,126.5,214.4,127.6,213,127.6z
				 M199.2,117.9l0.6,0.4c1.7,1,3.6,1.8,5.5,2.2l0.7,0.2l0,4.5c0,0.1,0.1,0.3,0.2,0.4c0.1,0.1,0.2,0.2,0.4,0.2h6.4
				c0.3,0,0.5-0.2,0.5-0.5v-4.4l0.7-0.2c1.9-0.5,3.8-1.2,5.5-2.3l0.6-0.4l0.5,0.5l2.7,2.7c0.2,0.2,0.6,0.2,0.8,0l4.5-4.5
				c0.1-0.1,0.2-0.2,0.2-0.4c0-0.1-0.1-0.3-0.2-0.4l-3.1-3.1l0.4-0.6c1-1.7,1.8-3.6,2.2-5.5l0.2-0.7h4.5c0.3,0,0.5-0.2,0.5-0.5v-6.4
				c0-0.3-0.2-0.5-0.5-0.5h-4.4l-0.2-0.7c-0.5-1.9-1.2-3.8-2.3-5.5l-0.4-0.7l0.6-0.5l2.6-2.6c0.2-0.2,0.2-0.6,0-0.8l-4.5-4.5
				c-0.2-0.2-0.6-0.2-0.8,0l-3.1,3.1l-0.6-0.4c-1.7-1-3.6-1.8-5.5-2.2l-0.7-0.2v-4.5c0-0.3-0.2-0.5-0.5-0.5h-6.4
				c-0.3,0-0.5,0.2-0.5,0.5v4.4l-0.7,0.2c-1.9,0.5-3.8,1.2-5.5,2.3l-0.6,0.4l-3.2-3.2c-0.2-0.2-0.6-0.2-0.8,0l-4.5,4.5
				c-0.2,0.2-0.2,0.6,0,0.8l3.1,3.1l-0.4,0.6c-1,1.7-1.8,3.5-2.2,5.5l-0.2,0.7h-4.5c-0.3,0-0.5,0.2-0.5,0.5v6.4
				c0,0.3,0.2,0.5,0.5,0.5h4.4l0.2,0.7c0.5,1.9,1.2,3.8,2.3,5.5l0.4,0.6l-0.5,0.5l-2.6,2.6c-0.2,0.2-0.2,0.5,0,0.8l4.5,4.5
				c0.2,0.2,0.6,0.2,0.8,0L199.2,117.9z"/>
		</g>
		<g>
			<g>
				<path class="st10" d="M209.8,118.4c9.1,0,16.5-7.4,16.5-16.5c0-9.1-7.4-16.5-16.5-16.5c-9.1,0-16.5,7.4-16.5,16.5
					C193.3,111,200.7,118.4,209.8,118.4z"/>
			</g>
		</g>
		<g>
			<g>
				<path class="st2" d="M209.8,115.4l0-1.9h0c0.9,0,1.7-0.1,2.5-0.3l0.4,1.9C211.8,115.3,210.8,115.4,209.8,115.4z M205.8,114.8
					c-1-0.3-1.9-0.7-2.8-1.2l1-1.6c0.7,0.4,1.5,0.8,2.4,1L205.8,114.8z M216.5,113.6l-0.9-1.7c0.7-0.4,1.4-0.9,2.1-1.5l1.3,1.4
					C218.2,112.5,217.4,113.1,216.5,113.6z M199.9,111.1c-0.7-0.7-1.3-1.6-1.8-2.4l1.6-0.9c0.4,0.7,0.9,1.4,1.5,2.1L199.9,111.1z
					 M221.4,108.7l-1.6-1c0.4-0.7,0.8-1.5,1-2.4l1.8,0.6C222.3,106.9,221.9,107.8,221.4,108.7z M196.7,104.9c-0.2-1-0.3-2-0.3-3
					l1.9,0v0c0,0.9,0.1,1.7,0.3,2.6L196.7,104.9z M221.3,102L221.3,102c0-0.9-0.1-1.7-0.3-2.6l1.9-0.4c0.2,1,0.3,2,0.3,2.9
					L221.3,102z M198.8,98.5L197,98c0.3-1,0.7-1.9,1.2-2.8l1.6,1C199.4,96.9,199,97.7,198.8,98.5z M219.8,96.2
					c-0.4-0.7-0.9-1.5-1.5-2.1l1.4-1.3c0.7,0.7,1.3,1.6,1.8,2.4L219.8,96.2z M202,93.5l-1.3-1.4c0.7-0.7,1.6-1.3,2.4-1.8l1,1.6
					C203.3,92.4,202.6,92.9,202,93.5z M215.6,92c-0.7-0.4-1.5-0.8-2.4-1l0.6-1.8c1,0.3,1.9,0.7,2.8,1.2L215.6,92z M207.2,90.7
					l-0.4-1.9c1-0.2,2-0.3,3-0.3l0.1,1.9h-0.1C208.9,90.4,208.1,90.5,207.2,90.7z"/>
			</g>
		</g>
		<g>
			<g>
				<path class="st2" d="M210.9,108.9h-1.5c-1.8,0-3.3-1.5-3.3-3.3V105h1.9v0.7c0,0.7,0.6,1.4,1.4,1.4h1.5c0.7,0,1.3-0.6,1.3-1.3
					v-1.5c0-0.8-0.6-1.4-1.4-1.4h-2c-1.7,0-3.1-1.4-3.1-3.1v-0.7c0-2.1,1.7-3.8,3.8-3.8h1c1.8,0,3.2,1.4,3.2,3.2v1.2h-1.9v-1.2
					c0-0.7-0.6-1.3-1.3-1.3h-1c-1,0-1.8,0.8-1.8,1.8v0.7c0,0.7,0.5,1.2,1.2,1.2h2c1.8,0,3.3,1.5,3.3,3.3v1.5
					C214,107.5,212.6,108.9,210.9,108.9z"/>
			</g>
			<g>
				<rect x="208.8" y="108" class="st2" width="1.9" height="3"/>
			</g>
			<g>
				<rect x="208.8" y="92.9" class="st2" width="1.9" height="3.4"/>
			</g>
		</g>
	</g>
	<g>
		<g>
			<path class="st2" d="M654.1,111.4h-3c-0.4-1.7-1.1-3.2-1.9-4.6l0,0l2.1-2.1c0.5-0.5,0.5-1.2,0-1.7l-3.6-3.6
				c-0.5-0.5-1.2-0.5-1.7,0l-2.1,2.1c-1.5-0.9-3-1.5-4.6-1.9v0v-3c0-0.7-0.5-1.2-1.2-1.2h-5.1c-0.7,0-1.2,0.5-1.2,1.2v3
				c-1.7,0.4-3.2,1.1-4.6,1.9l0,0l-2.1-2.1c-0.5-0.5-1.2-0.5-1.7,0l-3.6,3.6c-0.5,0.5-0.5,1.2,0,1.7l2.1,2.1c-0.9,1.5-1.5,3-1.9,4.6
				h0h-3c-0.7,0-1.2,0.5-1.2,1.2v5.1c0,0.7,0.5,1.2,1.2,1.2h3c0.4,1.7,1.1,3.2,1.9,4.6l0,0l-2.1,2.1c-0.5,0.5-0.5,1.2,0,1.7l3.6,3.6
				c0.5,0.5,1.2,0.5,1.7,0l2.1-2.1c1.5,0.9,3,1.5,4.6,1.9v0l0,3c0,0.7,0.5,1.2,1.2,1.2h5.1c0.7,0,1.2-0.5,1.2-1.2v-3
				c1.7-0.4,3.2-1.1,4.6-1.9l0,0l2.1,2.1c0.5,0.5,1.2,0.5,1.7,0l3.6-3.6c0.5-0.5,0.5-1.2,0-1.7l-2.1-2.1c0.9-1.5,1.5-3,1.9-4.6h0h3
				c0.7,0,1.2-0.5,1.2-1.2v-5.1C655.3,111.9,654.7,111.4,654.1,111.4z"/>
		</g>
		<g>
			<g>
				<path class="st2" d="M634.9,126.1c-1.1-0.1-2.2-0.3-3.2-0.7l0.7-1.8c0.8,0.3,1.7,0.5,2.6,0.5L634.9,126.1z M639.2,125.4
					l-0.6-1.8c0.8-0.3,1.6-0.7,2.4-1.3l1.1,1.5C641.2,124.5,640.2,125.1,639.2,125.4z M628,123.2c-0.8-0.7-1.5-1.6-2-2.6l1.6-1
					c0.5,0.8,1,1.5,1.7,2.1L628,123.2z M645,120.6l-1.6-1c0.5-0.8,0.8-1.6,1-2.5l1.9,0.4C645.9,118.7,645.5,119.7,645,120.6z
					 M624.6,116.5c-0.1-0.4-0.1-0.9-0.1-1.3c0-0.6,0.1-1.3,0.2-1.9l1.9,0.3c-0.1,0.5-0.1,1-0.1,1.6c0,0.4,0,0.7,0.1,1.1L624.6,116.5
					z M644.4,113.6c-0.2-0.9-0.4-1.8-0.9-2.6l1.7-0.9c0.5,1,0.8,2,1,3.1L644.4,113.6z M627.9,110.2l-1.6-1c0.6-0.9,1.3-1.7,2.2-2.4
					l1.2,1.5C629,108.8,628.4,109.5,627.9,110.2z M641.3,108.2c-0.7-0.6-1.5-1.1-2.3-1.4l0.7-1.8c1,0.4,1.9,1,2.8,1.7L641.3,108.2z
					 M632.8,106.5l-0.6-1.8c1-0.3,2.1-0.5,3.2-0.5l0,1.9h0C634.6,106.1,633.7,106.2,632.8,106.5z"/>
			</g>
		</g>
	</g>
	<g>
		<g>
			<path class="st2" d="M324.1,234.2l-1.4-1.3c0.6-0.7,1.2-1.4,1.8-2.1l1.5,1.2C325.5,232.8,324.8,233.5,324.1,234.2z M284.1,232.1
				c-0.6-0.8-1.2-1.6-1.7-2.5l1.6-1c0.5,0.8,1,1.5,1.5,2.3L284.1,232.1z M328.2,228.7l-1.7-0.9c0.4-0.8,0.8-1.6,1.2-2.5l1.8,0.7
				C329.1,226.9,328.7,227.8,328.2,228.7z M280.7,226.1c-0.4-0.9-0.7-1.9-0.9-2.8l1.8-0.5c0.2,0.9,0.5,1.8,0.9,2.6L280.7,226.1z
				 M330.7,222.3l-1.8-0.5c0.2-0.9,0.4-1.8,0.5-2.7l1.9,0.3C331.2,220.4,331,221.3,330.7,222.3z M279,219.4c-0.1-1-0.2-2-0.2-2.9
				l1.9,0c0,0.9,0.1,1.8,0.2,2.7L279,219.4z M329.6,215.5c0-0.9-0.1-1.8-0.2-2.7l1.9-0.3c0.1,1,0.2,2,0.2,2.9L329.6,215.5z
				 M280.9,212.8l-1.9-0.2c0.1-1,0.3-2,0.5-2.9l1.8,0.5C281.2,211,281,211.9,280.9,212.8z M328.6,209.2c-0.3-0.9-0.6-1.7-0.9-2.6
				l1.8-0.7c0.4,0.9,0.7,1.8,1,2.8L328.6,209.2z M282.5,206.6l-1.8-0.7c0.4-0.9,0.8-1.8,1.3-2.7l1.7,0.9
				C283.3,204.9,282.9,205.8,282.5,206.6z M326.1,203.3c-0.5-0.8-1-1.5-1.6-2.3l1.5-1.2c0.6,0.8,1.2,1.6,1.7,2.4L326.1,203.3z
				 M285.7,201l-1.5-1.2c0.6-0.8,1.2-1.5,1.9-2.3l1.4,1.3C286.8,199.6,286.3,200.3,285.7,201z M322.1,198.3
				c-0.7-0.6-1.4-1.2-2.1-1.8l1.2-1.5c0.8,0.6,1.5,1.2,2.2,1.9L322.1,198.3z M290.2,196.5L289,195c0.8-0.6,1.6-1.2,2.4-1.7l1,1.6
				C291.7,195.4,290.9,195.9,290.2,196.5z M316.9,194.5c-0.8-0.4-1.6-0.8-2.5-1.2l0.7-1.8c0.9,0.4,1.8,0.8,2.7,1.3L316.9,194.5z
				 M295.7,193.3l-0.7-1.8c0.9-0.4,1.8-0.7,2.8-1l0.5,1.8C297.4,192.6,296.5,192.9,295.7,193.3z M311,192.2
				c-0.9-0.2-1.8-0.4-2.7-0.5l0.3-1.9c1,0.1,2,0.3,2.9,0.6L311,192.2z M301.9,191.6l-0.2-1.9c0.5-0.1,1-0.1,1.5-0.1
				c0.5,0,1-0.1,1.5-0.1l0,1.9c-0.5,0-0.9,0-1.4,0.1C302.8,191.5,302.3,191.6,301.9,191.6z"/>
		</g>
		<g>
			<path class="st2" d="M324.9,216c0-11.4-9.7-20.6-21.3-19.8c-10.3,0.7-18.3,9.7-18.1,20c0.1,7.3,3.8,13.6,10.1,17
				c2.2,1.2,3.6,3.6,3.6,6.1v0h12.4v0c0-2.6,1.3-5,3.5-6.3C320.7,229.7,324.9,223.3,324.9,216z"/>
		</g>
		<g>
			<g>
				<path class="st2" d="M311.8,249.5H299c-1.5,0-2.6-1.2-2.6-2.6v-5.7c0-1.5,1.2-2.6,2.6-2.6h12.8c1.5,0,2.6,1.2,2.6,2.6v5.7
					C314.4,248.3,313.2,249.5,311.8,249.5z M299,240.4c-0.4,0-0.7,0.3-0.7,0.7v5.7c0,0.4,0.3,0.7,0.7,0.7h12.8
					c0.4,0,0.7-0.3,0.7-0.7v-5.7c0-0.4-0.3-0.7-0.7-0.7H299z"/>
			</g>
		</g>
		<g>
			<rect x="304.2" y="225.1" class="st2" width="1.9" height="14.3"/>
		</g>
	</g>
	<g>
		<g>
			<rect x="353.3" y="211.8" class="st2" width="11.4" height="12.7"/>
		</g>
		<g>
			<path class="st2" d="M370.8,239.8c0-2.3-1.6-4.1-3.6-4.1h-2.5v-9h-11.4v9H351c-1.9,0-3.5,1.8-3.6,4.1H370.8z"/>
		</g>
		<g>
			<g>
				<path class="st2" d="M368.3,203.1h-6.1c0.5-0.8,0.7-1.6,0.6-2.5c-0.1-1.5-1.2-2.7-2.6-3.1c-2.4-0.7-4.6,1.2-4.6,3.5
					c0,0.8,0.2,1.4,0.6,2.1h-6.4c0,4.1,2.5,7.6,6,8.6h6.4C365.8,210.7,368.3,207.2,368.3,203.1z"/>
			</g>
		</g>
		<g>
			<rect x="352.3" y="224.6" class="st2" width="13.4" height="1.9"/>
		</g>
		<g>
			<rect x="345.2" y="239.6" class="st2" width="27.6" height="1.9"/>
		</g>
		<g>
			<g>
				<rect x="343.2" y="242.2" class="st2" width="31.7" height="4.8"/>
			</g>
		</g>
		<g>
			<rect x="352" y="210.8" class="st2" width="14" height="1.9"/>
		</g>
	</g>
	<g>
		<g>
			<g>
				<path class="st2" d="M434.6,87.3c-0.6,0-1.1,0-1.7-0.1c-6.1-0.4-11.6-3.2-15.6-7.9c-4-4.6-5.9-10.5-5.5-16.6
					c0.5-6.1,3.3-11.7,7.9-15.7c4.6-3.9,10.5-5.9,16.6-5.5c6.1,0.4,11.6,3.2,15.6,7.9c4,4.6,6,10.5,5.5,16.6
					c-0.2,3.1-1.1,6.1-2.5,8.8c-0.9,1.7-2,3.3-3.3,4.7l-0.7,0.8l0,0c-0.4,0.4-0.9,0.9-1.4,1.3c-0.7,0.6-1.5,1.2-2.3,1.7
					C443.5,85.9,439.1,87.3,434.6,87.3z M434.6,43.5c-5,0-9.8,1.8-13.6,5.1c-4.3,3.7-6.8,8.8-7.2,14.3c-0.4,5.6,1.4,11,5.1,15.2
					c3.7,4.2,8.8,6.8,14.3,7.2c4.7,0.3,9.2-0.9,13.1-3.4c0.7-0.5,1.4-1,2.1-1.6c0.7-0.6,1.4-1.3,2-1.9l0.3-0.4
					c1-1.2,1.9-2.5,2.7-3.9c1.3-2.5,2.1-5.2,2.3-8.1c0.4-5.6-1.4-11-5-15.2c-3.7-4.2-8.7-6.8-14.3-7.2
					C435.6,43.5,435.1,43.5,434.6,43.5z"/>
			</g>
		</g>
		<g>
			<g>
				<path class="st2" d="M450.2,71.9l-1.7-0.9c0.9-1.7,1.4-3.5,1.5-5.4l1.9,0.1C451.7,68,451.1,70,450.2,71.9z"/>
			</g>
			<g>
				<path class="st2" d="M443.4,78.7l-0.9-1.7c0.4-0.2,0.9-0.5,1.3-0.8c0.5-0.3,1-0.7,1.4-1.1c0.4-0.3,1.1-1.1,1.3-1.3l1.4,1.3
					c0,0-0.9,1-1.5,1.4c-0.5,0.4-1,0.8-1.6,1.2C444.3,78.2,443.9,78.5,443.4,78.7z"/>
			</g>
		</g>
		<g>
			
				<rect x="450.5" y="79.5" transform="matrix(0.7071 -0.7071 0.7071 0.7071 74.4228 343.2044)" class="st2" width="1.9" height="4.5"/>
		</g>
		<g>
			
				<rect x="460.6" y="78.5" transform="matrix(0.7071 -0.7071 0.7071 0.7071 68.8678 356.6151)" class="st2" width="8.6" height="33.4"/>
		</g>
	</g>
	<g>
		<rect x="38.5" y="247.6" class="st2" width="342.2" height="1.9"/>
	</g>
	<g>
		<rect x="18.8" y="247.6" class="st2" width="9.9" height="1.9"/>
	</g>
	<g>
		<rect x="130.9" y="150.5" class="st2" width="21.7" height="1.9"/>
	</g>
	<g>
		<rect x="644.4" y="149.7" class="st2" width="21.7" height="1.9"/>
	</g>
	<g>
		<rect x="180.9" y="51.3" class="st2" width="21.7" height="1.9"/>
	</g>
	<g>
		<rect x="477" y="73.6" class="st2" width="21.7" height="1.9"/>
	</g>
	<g>
		<rect x="601.9" y="141.5" class="st2" width="21.7" height="1.9"/>
	</g>
	<g>
		<rect x="160" y="140.8" class="st2" width="21.7" height="1.9"/>
	</g>
	<g>
		<rect x="408.6" y="28.6" class="st2" width="21.7" height="1.9"/>
	</g>
	<g>
		<g>
			
				<rect x="202.6" y="149.4" transform="matrix(0.7071 -0.7071 0.7071 0.7071 -48.8609 188.8494)" class="st2" width="1.9" height="8"/>
		</g>
		<g>
			<g>
				<polygon class="st2" points="198.8,154.1 196.9,146.7 204.2,148.7 				"/>
			</g>
		</g>
	</g>
	<g>
		<rect x="388.8" y="247.6" class="st2" width="274.7" height="1.9"/>
	</g>
	<g>
		<g>
			<rect x="119.4" y="105.6" class="st2" width="1.9" height="22.7"/>
		</g>
		<g>
			<rect x="111.2" y="110.6" class="st2" width="1.9" height="17.6"/>
		</g>
		<g>
			<rect x="103" y="115.6" class="st2" width="1.9" height="12.7"/>
		</g>
		<g>
			<rect x="94.9" y="120.3" class="st2" width="1.9" height="7.9"/>
		</g>
	</g>
	<g>
		<g>
			<rect x="677.1" y="165.9" class="st2" width="1.9" height="22.7"/>
		</g>
		<g>
			<rect x="668.9" y="170.9" class="st2" width="1.9" height="17.6"/>
		</g>
		<g>
			<rect x="660.7" y="175.8" class="st2" width="1.9" height="12.7"/>
		</g>
		<g>
			<rect x="652.6" y="180.6" class="st2" width="1.9" height="7.9"/>
		</g>
	</g>
	<g>
		<g>
			<rect x="53.5" y="150.5" class="st2" width="21.7" height="1.9"/>
		</g>
		<g>
			<rect x="79.3" y="150.5" class="st2" width="9.7" height="1.9"/>
		</g>
		<g>
			<path class="st2" d="M98.1,156.1c-2.6,0-4.7-2.1-4.7-4.7c0-2.6,2.1-4.7,4.7-4.7s4.7,2.1,4.7,4.7
				C102.7,154.1,100.7,156.1,98.1,156.1z M98.1,148.7c-1.5,0-2.8,1.2-2.8,2.8c0,1.5,1.2,2.8,2.8,2.8s2.8-1.2,2.8-2.8
				C100.8,149.9,99.6,148.7,98.1,148.7z"/>
		</g>
	</g>
	<g>
		<g>
			<rect x="351.6" y="41.5" class="st2" width="21.7" height="1.9"/>
		</g>
		<g>
			<rect x="377.5" y="41.5" class="st2" width="9.7" height="1.9"/>
		</g>
		<g>
			<path class="st2" d="M396.2,47.2c-2.6,0-4.7-2.1-4.7-4.7s2.1-4.7,4.7-4.7s4.7,2.1,4.7,4.7S398.8,47.2,396.2,47.2z M396.2,39.7
				c-1.5,0-2.8,1.2-2.8,2.8c0,1.5,1.2,2.8,2.8,2.8s2.8-1.2,2.8-2.8C399,41,397.7,39.7,396.2,39.7z"/>
		</g>
	</g>
	<g>
		<g>
			<rect x="553.4" y="107.2" class="st2" width="21.7" height="1.9"/>
		</g>
		<g>
			<rect x="579.3" y="107.2" class="st2" width="9.7" height="1.9"/>
		</g>
		<g>
			<path class="st2" d="M598,112.8c-2.6,0-4.7-2.1-4.7-4.7c0-2.6,2.1-4.7,4.7-4.7c2.6,0,4.7,2.1,4.7,4.7
				C602.7,110.7,600.6,112.8,598,112.8z M598,105.4c-1.5,0-2.8,1.2-2.8,2.8c0,1.5,1.2,2.8,2.8,2.8c1.5,0,2.8-1.2,2.8-2.8
				C600.8,106.6,599.5,105.4,598,105.4z"/>
		</g>
	</g>
	<g>
		<path class="st2" d="M222.5,56.9c-2.6,0-4.7-2.1-4.7-4.7s2.1-4.7,4.7-4.7c2.6,0,4.7,2.1,4.7,4.7S225,56.9,222.5,56.9z M222.5,49.5
			c-1.5,0-2.8,1.2-2.8,2.8c0,1.5,1.2,2.8,2.8,2.8c1.5,0,2.8-1.2,2.8-2.8C225.2,50.7,224,49.5,222.5,49.5z"/>
	</g>
	<g>
		<polygon class="st2" points="141.8,88.3 135.3,81.2 129.2,88.1 122.9,81.7 117.2,87.4 115.9,86 122.9,79 129.1,85.3 135.3,78.4 
			141.7,85.4 147.7,78.3 154.3,85.4 160,78.4 167.6,85.9 166.2,87.3 160.2,81.2 154.4,88.3 147.7,81.2 		"/>
	</g>
	<g>
		<path class="st2" d="M476.2,58.7l-1.3-1.3l4-4c0.8-0.8,1.9-1.2,3-1.2c0,0,0,0,0,0c1.1,0,2.2,0.4,3,1.2l1.5,1.5
			c0.5,0.5,1,0.7,1.7,0.7c0.6,0,1.2-0.3,1.7-0.8l1.4-1.6c0.8-0.9,1.9-1.4,3.1-1.4c1.2,0,2.3,0.5,3.1,1.4l1.5,1.6
			c0.4,0.5,1.1,0.8,1.7,0.8c0.7,0,1.3-0.3,1.7-0.8l1.2-1.4c0.8-0.9,1.9-1.5,3.1-1.5c1.2,0,2.4,0.5,3.2,1.3l1.6,1.7
			c0.5,0.5,1.1,0.8,1.8,0.7c0.7,0,1.3-0.3,1.7-0.8l1.1-1.4c0.8-0.9,1.9-1.5,3-1.5c1.2-0.1,2.3,0.4,3.2,1.2l4.3,4.3l-1.3,1.3
			l-4.3-4.3c-0.5-0.5-1.1-0.7-1.7-0.7c-0.7,0-1.3,0.3-1.7,0.8l-1.1,1.4c-0.8,0.9-1.9,1.5-3.1,1.5c-1.2,0.1-2.4-0.4-3.2-1.3l-1.6-1.7
			c-0.5-0.5-1.1-0.7-1.7-0.7c-0.7,0-1.3,0.3-1.7,0.8l-1.2,1.4c-0.8,0.9-1.9,1.5-3.1,1.5c-1.2,0-2.4-0.5-3.2-1.4l-1.5-1.6
			c-0.4-0.5-1.1-0.7-1.7-0.8c-0.7,0-1.3,0.3-1.7,0.8l-1.4,1.6c-0.8,0.9-1.9,1.4-3,1.4c-1.1,0.1-2.3-0.4-3.1-1.2l-1.5-1.5
			c-0.4-0.4-1-0.7-1.6-0.7c0,0,0,0,0,0c-0.6,0-1.2,0.2-1.6,0.7L476.2,58.7z"/>
	</g>
	<g>
		<path class="st2" d="M157.2,122.3c-0.8,0-1.6-0.3-2.2-0.9l-2.3-2.3c-0.6-0.6-0.9-1.3-0.9-2.2c0-0.8,0.3-1.6,0.9-2.2l2.3-2.3
			c1.2-1.2,3.2-1.2,4.3,0l2.3,2.3c0.6,0.6,0.9,1.3,0.9,2.2c0,0.8-0.3,1.6-0.9,2.2l-2.3,2.3C158.8,122,158,122.3,157.2,122.3z
			 M157.2,113.5c-0.3,0-0.6,0.1-0.8,0.3l-2.3,2.3c-0.2,0.2-0.3,0.5-0.3,0.8c0,0.3,0.1,0.6,0.3,0.8l2.3,2.3c0.4,0.4,1.2,0.4,1.6,0
			l2.3-2.3c0.2-0.2,0.3-0.5,0.3-0.8c0-0.3-0.1-0.6-0.3-0.8l-2.3-2.3C157.8,113.6,157.5,113.5,157.2,113.5z"/>
	</g>
	<g>
		<path class="st2" d="M528.7,141.6c-0.8,0-1.6-0.3-2.2-0.9l-2.3-2.3c-1.2-1.2-1.2-3.1,0-4.3l2.3-2.3c1.2-1.2,3.2-1.2,4.3,0l2.3,2.3
			c1.2,1.2,1.2,3.1,0,4.3l-2.3,2.3C530.3,141.3,529.5,141.6,528.7,141.6z M528.7,132.8c-0.3,0-0.6,0.1-0.8,0.3l-2.3,2.3
			c-0.5,0.5-0.5,1.2,0,1.6l2.3,2.3c0.4,0.4,1.2,0.4,1.6,0l2.3-2.3c0.5-0.5,0.5-1.2,0-1.6l-2.3-2.3
			C529.3,132.9,529,132.8,528.7,132.8z"/>
	</g>
	<g>
		<path class="st2" d="M384.2,218.5c-0.8,0-1.6-0.3-2.2-0.9l-2.3-2.3c-1.2-1.2-1.2-3.1,0-4.3l2.3-2.3c1.2-1.2,3.2-1.2,4.3,0l2.3,2.3
			c1.2,1.2,1.2,3.1,0,4.3l-2.3,2.3C385.8,218.2,385,218.5,384.2,218.5z M384.2,209.7c-0.3,0-0.6,0.1-0.8,0.3l-2.3,2.3
			c-0.5,0.5-0.5,1.2,0,1.6l2.3,2.3c0.4,0.4,1.2,0.4,1.6,0l2.3-2.3c0.5-0.5,0.5-1.2,0-1.6L385,210
			C384.8,209.8,384.5,209.7,384.2,209.7z"/>
	</g>
	<g>
		<path class="st2" d="M92.9,179.7c-0.8,0-1.6-0.3-2.2-0.9l-2.3-2.3c-0.6-0.6-0.9-1.3-0.9-2.2c0-0.8,0.3-1.6,0.9-2.2l2.3-2.3
			c1.2-1.2,3.2-1.2,4.3,0l2.3,2.3c0.6,0.6,0.9,1.3,0.9,2.2c0,0.8-0.3,1.6-0.9,2.2l-2.3,2.3C94.5,179.3,93.7,179.7,92.9,179.7z
			 M92.9,170.8c-0.3,0-0.6,0.1-0.8,0.3l-2.3,2.3c-0.2,0.2-0.3,0.5-0.3,0.8s0.1,0.6,0.3,0.8l2.3,2.3c0.4,0.4,1.2,0.4,1.6,0l2.3-2.3
			c0.2-0.2,0.3-0.5,0.3-0.8s-0.1-0.6-0.3-0.8l-2.3-2.3C93.5,170.9,93.2,170.8,92.9,170.8z"/>
	</g>
</g>
</svg>
