<?xml version="1.0" encoding="utf-8"?>
<!-- Generator: Adobe Illustrator 22.1.0, SVG Export Plug-In . SVG Version: 6.00 Build 0)  -->
<svg version="1.1" id="Layer_1" xmlns="http://www.w3.org/2000/svg" xmlns:xlink="http://www.w3.org/1999/xlink" x="0px" y="0px"
	 viewBox="0 0 693 270" style="enable-background:new 0 0 693 270;" xml:space="preserve">
<style type="text/css">
	.st0{fill:#FFFFFF;}
	.st1{fill:#5FB0E5;}
	.st2{fill:none;stroke:#0686D8;stroke-width:1.5;stroke-miterlimit:10;}
	.st3{fill:#D2E9F7;}
	.st4{fill:#FFFFFE;}
	.st5{fill:#9ECFEF;}
	.st6{opacity:0.3;fill:#03436C;enable-background:new    ;}
	.st7{opacity:0.3;}
	.st8{fill:#03436C;}
	.st9{fill:#0686D8;}
	.st10{fill-rule:evenodd;clip-rule:evenodd;fill:none;stroke:#0686D8;stroke-width:1.5;stroke-miterlimit:10;}
	.st11{fill:none;stroke:#0AA4F5;stroke-miterlimit:10;}
	.st12{opacity:0.3;fill:none;stroke:#0AA4F5;stroke-miterlimit:10;}
	.st13{fill:none;stroke:#0AA4F5;stroke-linecap:round;stroke-miterlimit:10;}
	.st14{opacity:0.35;}
	.st15{opacity:0.39;fill:none;stroke:#0AA4F5;stroke-miterlimit:10;}
</style>
<g>
	<g id="XMLID_721_">
		<g id="XMLID_688_">
			<g id="XMLID_635_">
				<path id="XMLID_660_" class="st0" d="M712.7,492.8h-7.5c-0.3,0-0.5-0.2-0.5-0.5v-54.5c0-0.1,0-0.2,0-0.2l3.7-6.1
					c0.2-0.4,0.8-0.4,1,0l3.7,6.1c0,0.1,0,0.1,0,0.2v54.5C713.2,492.6,713,492.8,712.7,492.8z"/>
				<rect id="XMLID_659_" x="704.7" y="439.6" class="st1" width="8.5" height="47.7"/>
				<path id="XMLID_658_" class="st2" d="M713.2,492.8h-8.5v-55.1l4-6.6c0.1-0.3,0.5-0.3,0.6,0l4,6.6L713.2,492.8L713.2,492.8z"/>
				<line id="XMLID_657_" class="st2" x1="704.5" y1="439.6" x2="713.2" y2="439.6"/>
				<line id="XMLID_656_" class="st2" x1="704.3" y1="487.3" x2="713.6" y2="487.3"/>
			</g>
			<g id="XMLID_663_">
				<path id="XMLID_686_" class="st2" d="M716.1,439c10.6,3,18.4,12.8,18.4,24.5c0,11.9-8.2,21.9-19.3,24.7"/>
				<path id="XMLID_670_" class="st2" d="M702.6,488.1c-10.9-2.9-19-12.8-19-24.6c0-11.7,8-21.6,18.8-24.5"/>
				<path id="XMLID_669_" class="st2" d="M718,439.7c3.9,6.2,6.2,14.6,6.2,23.7c0,9.3-2.4,17.7-6.3,23.9"/>
				<path id="XMLID_668_" class="st2" d="M700.8,439.7c-3.8,6.2-6.2,14.6-6.2,23.7c0,9.3,2.4,17.7,6.3,23.9"/>
				<line id="XMLID_666_" class="st2" x1="716.1" y1="463.5" x2="734.5" y2="463.5"/>
				<line id="XMLID_665_" class="st2" x1="717.5" y1="451.4" x2="732.1" y2="451.4"/>
				<line id="XMLID_687_" class="st2" x1="683.7" y1="463.5" x2="702.2" y2="463.5"/>
				<line id="XMLID_685_" class="st2" x1="685.8" y1="451.4" x2="701.1" y2="451.4"/>
				<line id="XMLID_664_" class="st2" x1="717.2" y1="475.6" x2="730.7" y2="475.6"/>
				<line id="XMLID_667_" class="st2" x1="687.4" y1="475.6" x2="700.9" y2="475.6"/>
			</g>
		</g>
	</g>
	<g>
		<path class="st0" d="M238.7,491.6h-96.8v-170c0-1.7,1.4-3,3-3h90.7c1.7,0,3,1.4,3,3v170H238.7z"/>
		<path class="st1" d="M238.7,337.3h-96.8v-13c0-3.2,2.6-5.8,5.8-5.8h85.2c3.2,0,5.8,2.6,5.8,5.8L238.7,337.3L238.7,337.3z"/>
		<path class="st2" d="M141.9,407.2v-82.9c0-3.2,2.6-5.8,5.8-5.8h85.2c3.2,0,5.8,2.6,5.8,5.8v68.2"/>
		<line class="st2" x1="141.9" y1="491.6" x2="141.9" y2="432.4"/>
		<line class="st2" x1="142.6" y1="337.7" x2="238.7" y2="337.7"/>
		<rect x="156.4" y="392.9" class="st3" width="67.3" height="14.4"/>
		<rect x="156.4" y="417.1" class="st3" width="67.3" height="14.4"/>
		<line class="st2" x1="151.6" y1="326" x2="154.5" y2="326"/>
		<line class="st2" x1="165.9" y1="400.1" x2="209.8" y2="400.1"/>
		<line class="st2" x1="164.5" y1="424.2" x2="166.7" y2="424.2"/>
		<line class="st2" x1="171.5" y1="424.2" x2="173.7" y2="424.2"/>
		<line class="st2" x1="178.5" y1="424.2" x2="180.7" y2="424.2"/>
		<line class="st2" x1="185.5" y1="424.2" x2="187.7" y2="424.2"/>
		<line class="st2" x1="192.5" y1="424.2" x2="194.7" y2="424.2"/>
		<line class="st2" x1="199.5" y1="424.2" x2="201.7" y2="424.2"/>
		<line class="st2" x1="206.5" y1="424.2" x2="208.7" y2="424.2"/>
		<line class="st2" x1="158.7" y1="326" x2="161.6" y2="326"/>
		<line class="st2" x1="165.8" y1="326" x2="168.7" y2="326"/>
		<g id="XMLID_69_">
			<path id="XMLID_79_" class="st2" d="M194.6,356.9c0,2.8-2.2,5-5,5s-5-2.2-5-5c0-2.8,2.2-5,5-5S194.6,354.2,194.6,356.9z"/>
			<path id="XMLID_77_" class="st2" d="M181.9,378.6v-4.7c0-4.5,3.6-8.1,8.1-8.1l0,0c4.5,0,8.1,3.6,8.1,8.1v4.7"/>
		</g>
		<circle class="st2" cx="190" cy="365.3" r="18.7"/>
	</g>
	<g id="XMLID_147_">
		<g id="XMLID_12_">
			<path id="XMLID_152_" class="st3" d="M583.7,479.8h-25.5c-0.7,0-1.4-0.6-1.4-1.4v-90.5c0-0.7,0.6-1.4,1.4-1.4h25.5
				c0.7,0,1.4,0.6,1.4,1.4v90.5C585.1,479.2,584.5,479.8,583.7,479.8z"/>
			<path id="XMLID_151_" class="st1" d="M607.7,479.8h-13.1c-0.7,0-1.4-0.6-1.4-1.4V375c0-0.7,0.6-1.4,1.4-1.4h13.1
				c0.7,0,1.4,0.6,1.4,1.4v103.4C609.1,479.2,608.5,479.8,607.7,479.8z"/>
			<rect id="XMLID_150_" x="598.8" y="394.8" class="st4" width="5.5" height="67.1"/>
			<path id="XMLID_42_" class="st3" d="M640.5,479.8h-21.7c-0.7,0-1.4-0.6-1.4-1.4v-93.8c0-0.7,0.6-1.4,1.4-1.4h21.7
				c0.7,0,1.4,0.6,1.4,1.4v93.8C641.9,479.2,641.3,479.8,640.5,479.8z"/>
			<path id="XMLID_146_" class="st2" d="M556.8,399.2v-7.5c0-2.8,2.3-5,5-5H580c2.8,0,5,2.3,5,5v40.2"/>
			<path id="XMLID_145_" class="st2" d="M593.3,428.6v-49.9c0-2.8,2.3-5,5-5h5.3c3,0,5.4,2.4,5.4,5.4v49.5"/>
			<path id="XMLID_41_" class="st2" d="M617.4,431.9v-43.6c0-2.8,2.3-5,5-5h14.4c2.8,0,5,2.3,5,5v25.9"/>
			<line id="XMLID_40_" class="st2" x1="563.7" y1="397.7" x2="578.2" y2="397.7"/>
			<line id="XMLID_142_" class="st2" x1="563.7" y1="409.3" x2="578.2" y2="409.3"/>
			<line id="XMLID_141_" class="st2" x1="563.7" y1="420.8" x2="578.2" y2="420.8"/>
			<line id="XMLID_140_" class="st2" x1="563.7" y1="432.4" x2="578.2" y2="432.4"/>
			<line id="XMLID_39_" class="st2" x1="563.7" y1="443.9" x2="571.6" y2="443.9"/>
			<line id="XMLID_138_" class="st2" x1="563.7" y1="455.5" x2="578.2" y2="455.5"/>
			<line id="XMLID_137_" class="st2" x1="563.7" y1="467" x2="578.2" y2="467"/>
			<path id="XMLID_136_" class="st1" d="M638.3,400.6c0,4.8-3.9,8.7-8.7,8.7s-8.7-3.9-8.7-8.7c0-4.8,3.9-8.7,8.7-8.7
				C634.5,391.9,638.3,395.8,638.3,400.6z"/>
			<path id="XMLID_38_" class="st1" d="M638.3,458.4c0,4.8-3.9,8.7-8.7,8.7s-8.7-3.9-8.7-8.7c0-4.8,3.9-8.7,8.7-8.7
				C634.5,449.7,638.3,453.6,638.3,458.4z"/>
			<g id="XMLID_14_">
				<path id="XMLID_535_" class="st3" d="M652.9,465.7h-0.5c-2.3-7.8-9.4-13.4-17.9-13.4c-3.7,0-7.1,1.1-10.1,3
					c-1.9-12.2-12.4-21.6-25.2-21.6c-11.4,0-21.1,7.5-24.4,17.9c-1.5-0.4-3-0.6-4.6-0.6c-8.7,0-16,6.4-17.3,14.8H550
					c-7.2,0-13.1,5.9-13.1,13.1v1c0,7.2,5.9,13.1,13.1,13.1h102.7c7.2,0,13.1-5.9,13.1-13.1v-1C665.9,471.6,660.1,465.7,652.9,465.7
					z"/>
				<path id="XMLID_37_" class="st0" d="M640.8,468.9h-0.5c-2-6.8-8.3-11.8-15.8-11.8c-3.3,0-6.3,1-8.9,2.6
					c-1.7-10.8-10.9-19-22.2-19c-10.1,0-18.6,6.7-21.5,15.8c-1.3-0.3-2.6-0.5-4-0.5c-7.7,0-14.1,5.6-15.2,13h-2.5
					c-6.3,0-11.5,5.2-11.5,11.5v0.8c0,6.3,5.2,11.5,11.5,11.5h90.6c6.3,0,11.5-5.2,11.5-11.5v-0.8
					C652.4,474.1,647.2,468.9,640.8,468.9z"/>
				<path id="XMLID_533_" class="st2" d="M615.8,453.2c-3.8-5.8-10.3-9.7-17.8-9.7c-4,0-7.7,1.1-10.8,3"/>
				<path id="XMLID_531_" class="st2" d="M570.7,450.9c5,0,9.1,4.1,9.1,9.1"/>
				<path id="XMLID_59_" class="st2" d="M550.2,465.7c-7.2,0-13.1,5.9-13.1,13.1v1c0,7.2,5.9,13.1,13.1,13.1h102.7
					c7.2,0,13.1-5.9,13.1-13.1v-1c0-7.2-5.9-13.1-13.1-13.1h-0.5c-2.3-7.8-9.4-13.4-17.9-13.4c-3.7,0-7.1,1.1-10.1,3
					c-1.9-12.2-12.4-21.6-25.2-21.6c-11.4,0-21.1,7.5-24.4,17.9c-1.5-0.4-3-0.6-4.6-0.6"/>
			</g>
		</g>
	</g>
	<g id="XMLID_74_">
		<g id="XMLID_78_">
			<path id="XMLID_186_" class="st1" d="M513.7,443.7H333V341c0-2.7,2.2-4.8,4.8-4.8h171.1c2.7,0,4.8,2.2,4.8,4.8V443.7z"/>
			<path id="XMLID_51_" class="st2" d="M333,394.3v-49c0-5,4-9,9-9h12.2H371"/>
			<path id="XMLID_48_" class="st2" d="M411.1,336.2h93.6c5,0,9,4,9,9v54.1"/>
			<line id="XMLID_55_" class="st2" x1="379" y1="336.2" x2="399" y2="336.2"/>
			<rect id="XMLID_36_" x="342.8" y="346.7" class="st0" width="161.3" height="84.9"/>
			<rect id="XMLID_20_" x="396.2" y="460" class="st3" width="54.4" height="32.2"/>
			<rect id="XMLID_182_" x="396.2" y="460" class="st5" width="54.4" height="16.1"/>
			<rect id="XMLID_15_" x="396.2" y="460" class="st2" width="54.4" height="32.2"/>
			<path id="XMLID_180_" class="st0" d="M513.7,439.8H333v18.5c0,3.2,2.6,5.9,5.9,5.9h168.9c3.2,0,5.9-2.6,5.9-5.9V439.8z"/>
			<line id="XMLID_54_" class="st2" x1="362.1" y1="464.2" x2="492" y2="464.2"/>
			<line id="XMLID_53_" class="st2" x1="490" y1="439.8" x2="362.3" y2="439.8"/>
			<line id="XMLID_178_" class="st2" x1="385.6" y1="492.8" x2="461.9" y2="492.8"/>
		</g>
		<path id="XMLID_58_" class="st3" d="M422.7,401.7h-67.3c-0.6,0-1.1-0.5-1.1-1.1v-40.1c0-0.6,0.5-1.1,1.1-1.1h67.3
			c0.6,0,1.1,0.5,1.1,1.1v40.1C423.7,401.2,423.3,401.7,422.7,401.7z"/>
		<path id="XMLID_56_" class="st2" d="M422.7,401.7h-67.3c-0.6,0-1.1-0.5-1.1-1.1v-40.1c0-0.6,0.5-1.1,1.1-1.1h67.3
			c0.6,0,1.1,0.5,1.1,1.1v40.1C423.7,401.2,423.3,401.7,422.7,401.7z"/>
		<path id="XMLID_812_" class="st1" d="M398.2,381.9l-16.8,9.7c-1.1,0.6-2.4-0.2-2.4-1.4v-19.3c0-1.2,1.3-2,2.4-1.4l16.8,9.7
			C399.2,379.8,399.2,381.3,398.2,381.9z"/>
		<path id="XMLID_811_" class="st2" d="M398.2,381.9l-16.8,9.7c-1.1,0.6-2.4-0.2-2.4-1.4v-19.3c0-1.2,1.3-2,2.4-1.4l16.8,9.7
			C399.2,379.8,399.2,381.3,398.2,381.9z"/>
		<line id="XMLID_61_" class="st2" x1="354.3" y1="413.2" x2="387.8" y2="413.2"/>
		<line id="XMLID_11_" class="st2" x1="466.3" y1="365.9" x2="499.8" y2="365.9"/>
		<line id="XMLID_10_" class="st2" x1="466.3" y1="376.3" x2="483" y2="376.3"/>
		<line id="XMLID_73_" class="st2" x1="466.3" y1="396.5" x2="499.8" y2="396.5"/>
		<line id="XMLID_72_" class="st2" x1="466.3" y1="406.8" x2="483" y2="406.8"/>
		<line id="XMLID_9_" class="st2" x1="466.3" y1="427.1" x2="499.8" y2="427.1"/>
		<line id="XMLID_60_" class="st2" x1="352.1" y1="422.3" x2="426.6" y2="422.3"/>
		<rect id="XMLID_62_" x="439.3" y="359.7" class="st1" width="22.6" height="22.6"/>
		<rect id="XMLID_63_" x="439.3" y="390.4" class="st1" width="22.6" height="22.6"/>
		<rect id="XMLID_64_" x="439.3" y="421.1" class="st1" width="22.6" height="11.3"/>
	</g>
	<path class="st6" d="M515.1,453.4v-8.3v-6.7v-38.7h-2v-1.4h-7.7v1.4h-5.3v-1.4h-4.2c-3.1,0-5.7,2.5-5.7,5.7v61.5H503
		C509.7,465.5,515.1,460.1,515.1,453.4z"/>
	<path class="st6" d="M569.5,488.5v-80.9c0-3.1-2.5-5.7-5.7-5.7h-2.1h-6.3v50.2h1.4v3c-2.4,2.5-4.2,5.6-4.9,9.1h-1.7
		c-8,0-14.5,6.5-14.5,14.5v1c0,8,6.5,14.5,14.5,14.5h13.6C567,494.2,569.5,491.7,569.5,488.5z"/>
	<g id="XMLID_113_">
		<path id="XMLID_99_" class="st0" d="M562.7,492.8H497c-1,0-1.8-0.8-1.8-1.8v-85.9c0-1,0.8-1.8,1.8-1.8h65.7c1,0,1.8,0.8,1.8,1.8
			V491C564.5,492,563.7,492.8,562.7,492.8z"/>
		<path id="XMLID_112_" class="st2" d="M521,403.4h39.1c2.4,0,4.3,1.9,4.3,4.3v80.9c0,2.4-1.9,4.3-4.3,4.3h-60.7
			c-2.4,0-4.3-1.9-4.3-4.3v-80.9c0-2.4,1.9-4.3,4.3-4.3h4.2"/>
		<line id="XMLID_98_" class="st2" x1="509.1" y1="403.4" x2="516.8" y2="403.4"/>
		<rect id="XMLID_100_" x="501.7" y="412.5" class="st3" width="56.2" height="71.8"/>
		<line id="XMLID_102_" class="st2" x1="522" y1="408.1" x2="537.7" y2="408.1"/>
		<polygon id="XMLID_103_" class="st1" points="556.7,454.8 549.7,452.4 542.8,454.8 542.8,403.4 556.7,403.4 		"/>
		<polygon id="XMLID_101_" class="st2" points="556.7,454.8 549.7,452.4 542.8,454.8 542.8,403.4 556.7,403.4 		"/>
		<line id="XMLID_105_" class="st2" x1="505.9" y1="419.9" x2="538.7" y2="419.9"/>
		<line id="XMLID_104_" class="st2" x1="505.9" y1="428.3" x2="538.7" y2="428.3"/>
		<line id="XMLID_106_" class="st2" x1="505.9" y1="436.6" x2="538.7" y2="436.6"/>
		<line id="XMLID_107_" class="st2" x1="505.9" y1="445" x2="538.7" y2="445"/>
		<line id="XMLID_108_" class="st2" x1="505.9" y1="453.4" x2="538.7" y2="453.4"/>
		<line id="XMLID_109_" class="st2" x1="505.9" y1="461.8" x2="553.5" y2="461.8"/>
		<line id="XMLID_110_" class="st2" x1="505.9" y1="470.2" x2="553.5" y2="470.2"/>
		<line id="XMLID_111_" class="st2" x1="505.9" y1="478.5" x2="553.5" y2="478.5"/>
		<line id="XMLID_115_" class="st2" x1="527.1" y1="487.9" x2="532.6" y2="487.9"/>
	</g>
	<line id="XMLID_5_" class="st2" x1="19.3" y1="492.8" x2="819.8" y2="492.8"/>
	<path class="st6" d="M356.9,392.4h-25.2v46v6.7v8.3c0,6.7,5.4,12.1,12.1,12.1h17.6v-68.6C361.4,394.4,359.4,392.4,356.9,392.4z"/>
	<path class="st6" d="M238.7,396.1h-8.6c-2.5,0-4.5,2-4.5,4.5v80.5h-6.2l1.1,6.9c0.2,1.4,0.8,2.6,1.7,3.6h16.5V396.1z"/>
	<g>
		<g id="XMLID_49_">
			<path id="XMLID_802_" class="st1" d="M355.3,487.8H231.6c-0.6,0-1-0.4-1-1v-88.4c0-0.5,0.4-1,1-1h123.7c0.5,0,1,0.5,1,1v88.4
				C356.3,487.4,355.9,487.8,355.3,487.8z"/>
			<path id="XMLID_57_" class="st2" d="M230.6,427.9v-27.4c0-1.7,1.4-3.1,3.1-3.1H255"/>
			<path id="XMLID_52_" class="st2" d="M327.4,397.4h25.8c1.7,0,3.1,1.4,3.1,3.1v84.1c0,1.7-1.4,3.1-3.1,3.1"/>
			<rect id="XMLID_799_" x="236.7" y="404.6" class="st0" width="112.8" height="73.3"/>
			<path id="XMLID_798_" class="st0" d="M354.1,492.8H231.4c-2.9,0-5.5-2.1-5.9-5l-0.9-5.3h56.9l2.2,3.1h15.7l2.4-3.1h59.9l-0.8,4.6
				C360.4,490.4,357.5,492.8,354.1,492.8z"/>
			<path id="XMLID_797_" class="st2" d="M354.1,492.8H231.4c-2.9,0-5.5-2.1-5.9-5l-0.9-5.3h56.9l2.2,3.1h15.7l2.4-3.1h59.9l-0.8,4.6
				C360.4,490.4,357.5,492.8,354.1,492.8z"/>
		</g>
		<path id="XMLID_757_" class="st3" d="M259.8,382.5v30c0,1.4,1.1,2.5,2.5,2.5h2v5.9v11.2c0,0.6,0.8,0.9,1.2,0.4l14.7-17.6h41.6
			c1.4,0,2.5-1.1,2.5-2.5v-30c0-1.4-1.1-2.5-2.5-2.5h-59.4C260.9,380,259.8,381.1,259.8,382.5z"/>
		<path id="XMLID_756_" class="st2" d="M301.3,380h-39c-1.4,0-2.5,1.1-2.5,2.5v30c0,1.4,1.1,2.5,2.5,2.5h2v5.9v11.2
			c0,0.6,0.8,0.9,1.2,0.4l14.7-17.6h41.6c1.4,0,2.5-1.1,2.5-2.5v-30c0-1.4-1.1-2.5-2.5-2.5h-5.4h-3.3"/>
		<line id="XMLID_754_" class="st2" x1="311.2" y1="380" x2="305.3" y2="380"/>
		<g id="XMLID_724_">
			<path id="XMLID_726_" class="st2" d="M269.8,446.2c0,2.8-2.2,5-5,5s-5-2.2-5-5c0-2.8,2.2-5,5-5
				C267.5,441.2,269.8,443.5,269.8,446.2z"/>
			<path id="XMLID_725_" class="st2" d="M257,467.9v-4.7c0-4.5,3.6-8.1,8.1-8.1l0,0c4.5,0,8.1,3.6,8.1,8.1v4.7"/>
		</g>
		<polyline id="XMLID_712_" class="st2" points="257,431.5 244.7,431.5 244.7,467.9 284.8,467.9 284.8,431.5 273.3,431.5 		"/>
		<path id="XMLID_713_" class="st2" d="M280.5,398.5c0,2.5-2.1,4.6-4.6,4.6s-4.6-2.1-4.6-4.6s2.1-4.6,4.6-4.6
			C278.5,393.9,280.5,395.9,280.5,398.5z"/>
		<path id="XMLID_788_" class="st2" d="M298.2,398.5c0,2.5-2.1,4.6-4.6,4.6s-4.6-2.1-4.6-4.6s2.1-4.6,4.6-4.6
			S298.2,395.9,298.2,398.5z"/>
		<path id="XMLID_789_" class="st2" d="M315.8,398.5c0,2.5-2.1,4.6-4.6,4.6s-4.6-2.1-4.6-4.6s2.1-4.6,4.6-4.6
			C313.8,393.9,315.8,395.9,315.8,398.5z"/>
		<line id="XMLID_791_" class="st2" x1="295.9" y1="432.8" x2="341.3" y2="432.8"/>
		<line id="XMLID_790_" class="st2" x1="296.4" y1="446.2" x2="341.8" y2="446.2"/>
		<line id="XMLID_792_" class="st2" x1="296.8" y1="459.6" x2="319.5" y2="459.6"/>
	</g>
	<path class="st6" d="M244,489.1v-49.6c0-2.5-2-4.6-4.6-4.6h-7v-5.4h-2.7v5.4h-0.5v46.2H223l1.1,6.9c0.4,2.6,2.2,4.7,4.5,5.6h10.8
		C242,493.6,244,491.6,244,489.1z"/>
	<g id="XMLID_464_">
		<path id="XMLID_530_" class="st0" d="M237.2,492.3h-62.9c-1,0-1.8-0.8-1.8-1.8v-52.4c0-1,0.8-1.8,1.8-1.8h62.9
			c1,0,1.8,0.8,1.8,1.8v52.4C239,491.5,238.2,492.3,237.2,492.3z"/>
		<path id="XMLID_467_" class="st5" d="M235.8,436.3h-60.2c-1.8,0-3.2,1.4-3.2,3.2v8.5H239v-8.5C239,437.7,237.6,436.3,235.8,436.3z
			"/>
		<line id="XMLID_488_" class="st2" x1="183.1" y1="429.5" x2="183.1" y2="440.2"/>
		<line id="XMLID_487_" class="st2" x1="190.5" y1="429.5" x2="190.5" y2="440.2"/>
		<line id="XMLID_486_" class="st2" x1="197.9" y1="429.5" x2="197.9" y2="440.2"/>
		<line id="XMLID_485_" class="st2" x1="205.3" y1="429.5" x2="205.3" y2="440.2"/>
		<line id="XMLID_484_" class="st2" x1="212.7" y1="429.5" x2="212.7" y2="440.2"/>
		<line id="XMLID_483_" class="st2" x1="220" y1="429.5" x2="220" y2="440.2"/>
		<line id="XMLID_482_" class="st2" x1="227.4" y1="429.5" x2="227.4" y2="440.2"/>
		<circle id="XMLID_458_" class="st3" cx="205.3" cy="471" r="17.1"/>
		<path id="XMLID_462_" class="st0" d="M215.6,471c0,5.7-4.6,10.3-10.3,10.3S195,476.7,195,471c0-5.7,4.6-10.3,10.3-10.3
			C211,460.6,215.6,465.2,215.6,471z"/>
		<path id="XMLID_44_" class="st2" d="M198.4,486.7c-1.9-0.8-3.7-2-5.1-3.5"/>
		<path id="XMLID_422_" class="st2" d="M191.6,481.3c-2.2-2.9-3.5-6.5-3.5-10.4c0-9.5,7.7-17.1,17.1-17.1c9.5,0,17.1,7.7,17.1,17.1
			c0,9.5-7.7,17.1-17.1,17.1c-1.4,0-2.8-0.2-4.2-0.5"/>
		<polyline id="XMLID_423_" class="st2" points="213,465 203,475 197.5,469.5 		"/>
		<line id="XMLID_463_" class="st2" x1="172.6" y1="448" x2="239" y2="448"/>
		<path id="XMLID_50_" class="st2" d="M223.6,492.3h12.2c1.8,0,3.2-1.4,3.2-3.2v-49.6c0-1.8-1.4-3.2-3.2-3.2h-60.2
			c-1.8,0-3.2,1.4-3.2,3.2v49.6c0,1.8,1.4,3.2,3.2,3.2h10.9H223.6L223.6,492.3z"/>
	</g>
	<g>
		<path id="XMLID_426_" class="st5" d="M530.8,377.1l2.9-15.8c-1.7-3.7-2.6-7.9-2.6-12.2c0-16.6,13.4-30,30-30s30,13.4,30,30
			c0,16.6-13.4,30-30,30c-5.9,0-11.3-1.7-15.9-4.6L530.8,377.1z"/>
		<path id="XMLID_425_" class="st2" d="M549.1,321.5c3.7-1.6,7.7-2.5,12-2.5c16.6,0,30,13.4,30,30c0,16.6-13.4,30-30,30
			c-5.9,0-11.3-1.7-15.9-4.6l-14.4,2.6l2.9-15.8c-1.7-3.7-2.6-7.9-2.6-12.2c0-7.2,2.5-13.7,6.7-18.9"/>
		<path id="XMLID_424_" class="st2" d="M539.8,327.9c1.9-1.9,4-3.5,6.3-4.9"/>
		<ellipse id="XMLID_96_" class="st0" cx="561" cy="349" rx="23.2" ry="22.6"/>
		<path id="XMLID_97_" class="st2" d="M570.1,350l-11.8,6.8c-0.7,0.4-1.7-0.1-1.7-1v-13.6c0-0.9,0.9-1.4,1.7-1l11.8,6.8
			C570.9,348.5,570.9,349.6,570.1,350z"/>
	</g>
	<g class="st7">
		<path class="st8" d="M653.4,464.3c-1.9-5.5-6.2-9.9-11.5-12v-3.4h1.4v-32c-0.6,0.6-1.2,1.2-1.7,1.8l-1.1-0.9
			c-3.9,4.6-6,10.5-6,16.6c0,8.9,4.7,17.2,12.2,21.9v5.3h-2.3v2.7h2.3v2.8h-2.3v2.7h2.3v2.8h-2.3v2.7h2.3v2.8h-2.3v2.7h2.8l3.5,6.5
			h4.3v1.7c0,1.8,1.4,3.2,3.2,3.2h1.8c2.1-1.2,3.8-2.8,5.1-4.8v-0.1l0,0c1.4-2.2,2.3-4.9,2.3-7.7v-1
			C667.3,471,661.1,464.6,653.4,464.3z"/>
		<path class="st8" d="M643.3,415.6v-0.5c-0.1,0.1-0.2,0.2-0.3,0.3L643.3,415.6z"/>
	</g>
	<g id="XMLID_602_">
		<path id="XMLID_647_" class="st1" d="M666.3,491H661c-0.5,0-1-0.4-1-1v-9.2c0-0.6,0.5-1,1-1h5.3c0.5,0,1,0.4,1,1v9.2
			C667.3,490.5,666.9,491,666.3,491z"/>
		<path id="XMLID_646_" class="st2" d="M666.3,491H661c-0.5,0-1-0.4-1-1v-9.2c0-0.6,0.5-1,1-1h5.3c0.5,0,1,0.4,1,1v9.2
			C667.3,490.5,666.9,491,666.3,491z"/>
		<path id="XMLID_645_" class="st0" d="M688.2,434.4c0-13.5-10.9-24.4-24.4-24.4s-24.4,10.9-24.4,24.4c0,9,4.9,16.9,12.2,21.1v24
			l3.5,6.5h16.7l4.1-6.5v-24C683.3,451.3,688.2,443.5,688.2,434.4z"/>
		<polygon id="XMLID_644_" class="st5" points="651.7,462.2 651.7,481 655.2,486.1 671.9,486.1 676,481 676,462.2 		"/>
		<polygon id="XMLID_643_" class="st1" points="676,479.6 671.9,486.1 655.2,486.1 651.7,479.6 		"/>
		<path id="XMLID_642_" class="st2" d="M645.2,418.7c-3.6,4.2-5.7,9.7-5.7,15.7c0,9,4.9,16.9,12.2,21.1v24l3.5,6.5h16.7l4.1-6.5v-24
			c7.3-4.2,12.2-12.1,12.2-21.1c0-13.5-10.9-24.4-24.4-24.4c-3.2,0-6.3,0.6-9.2,1.8"/>
		<path id="XMLID_641_" class="st2" d="M651.7,413.3c-1.9,1.1-2.5,1.4-4.1,2.9"/>
		<line id="XMLID_640_" class="st2" x1="648" y1="463" x2="679.7" y2="463"/>
		<line id="XMLID_639_" class="st2" x1="648" y1="468.5" x2="679.7" y2="468.5"/>
		<line id="XMLID_638_" class="st2" x1="648" y1="474" x2="679.7" y2="474"/>
		<line id="XMLID_637_" class="st2" x1="648" y1="479.6" x2="679.7" y2="479.6"/>
		<path id="XMLID_625_" class="st5" d="M676.7,434.4c0,7.1-5.7,12.8-12.8,12.8s-12.8-5.7-12.8-12.8s5.7-12.8,12.8-12.8
			C670.9,421.6,676.7,427.4,676.7,434.4z"/>
		<g id="XMLID_626_">
			<g id="XMLID_95_">
				<polygon class="st9" points="667.1,418.4 659.7,434.2 658.5,432.2 668.8,432.2 671.1,432.2 670.1,434.2 661.1,451 660,450.5 
					667.6,433 668.8,434.9 658.5,434.9 656.2,434.9 657.3,433 665.7,417.8 				"/>
			</g>
		</g>
	</g>
</g>
<g>
	<g>
		<path class="st2" d="M671-121.6c-1.7,0-3.3,0.5-4.6,1.4c-0.9-1-2.1-1.7-3.5-2c0.1-0.4,0.1-0.8,0.1-1.2c0-4.5-3.7-8.2-8.2-8.2
			c-4.5,0-8.2,3.7-8.2,8.2c0,0.7,0.1,1.3,0.2,1.9c-0.6-0.1-1.2-0.2-1.9-0.2c-4.5,0-8.2,3.8-8.2,8.2h42.5
			C679.2-117.8,675.5-121.6,671-121.6z"/>
	</g>
	<g>
		<g>
			<path class="st2" d="M84.6-129.1c-11.5,0-20.9,9.4-20.9,20.9c0,11.5,9.4,20.9,20.9,20.9c11.5,0,20.9-9.4,20.9-20.9
				C105.5-119.7,96.2-129.1,84.6-129.1z"/>
		</g>
	</g>
	<g>
		<rect x="83.2" y="-114.4" class="st2" width="2.9" height="6.2"/>
	</g>
	<g>
		
			<rect x="85.6" y="-111.6" transform="matrix(0.6561 -0.7547 0.7547 0.6561 110.0261 29.1945)" class="st2" width="2.9" height="11"/>
	</g>
	<g>
		<g>
			<rect x="83.3" y="-126.4" class="st2" width="1.9" height="5.7"/>
		</g>
		<g>
			<g>
				<rect x="65.9" y="-108.9" class="st2" width="5.7" height="1.9"/>
			</g>
		</g>
		<g>
			<g>
				<rect x="83.3" y="-94.6" class="st2" width="1.9" height="4.5"/>
			</g>
		</g>
		<g>
			<g>
				<rect x="97" y="-108.9" class="st2" width="6.4" height="1.9"/>
			</g>
		</g>
		<g>
			
				<rect x="92.6" y="-119.8" transform="matrix(0.7071 -0.7071 0.7071 0.7071 111.7838 32.2028)" class="st2" width="4.4" height="1.9"/>
		</g>
		<g>
			<g>
				
					<rect x="72.8" y="-120.7" transform="matrix(0.7072 -0.707 0.707 0.7072 105.4754 17.4368)" class="st2" width="1.9" height="4.1"/>
			</g>
		</g>
		<g>
			<g>
				
					<rect x="71.9" y="-98.3" transform="matrix(0.7069 -0.7073 0.7073 0.7069 90.4122 23.5753)" class="st2" width="3.4" height="1.9"/>
			</g>
		</g>
		<g>
			<g>
				
					<rect x="94.5" y="-99.3" transform="matrix(0.7072 -0.707 0.707 0.7072 96.8147 38.9342)" class="st2" width="1.9" height="3.8"/>
			</g>
		</g>
	</g>
	<g>
		<g>
			<g>
				<path class="st2" d="M636.7-92.6v-73.9c0-4.1-3.3-7.4-7.3-7.4H516.3c-4,0-7.3,3.3-7.3,7.4v73.9H636.7z"/>
			</g>
		</g>
		<g>
			<g>
				<rect x="549" y="-174.9" class="st2" width="50" height="1.9"/>
			</g>
			<g>
				<rect x="605.7" y="-174.9" class="st2" width="8.1" height="1.9"/>
			</g>
			<g>
				<path class="st2" d="M637.7-91.7H508.1v-74.8c0-4.6,3.7-8.4,8.2-8.4h20.4v1.9h-20.4c-3.5,0-6.3,2.9-6.3,6.5v72.9h125.8v-72.9
					c0-3.6-2.8-6.5-6.3-6.5h-9.3v-1.9h9.3c4.5,0,8.2,3.8,8.2,8.4V-91.7z"/>
			</g>
		</g>
		<g>
			<g>
				<path class="st2" d="M502.5-92.6v3.5c0,1.9,1.5,3.5,3.4,3.5h133.9c1.9,0,3.4-1.6,3.4-3.5v-3.5H502.5z"/>
			</g>
		</g>
		<g>
			<g>
				<g>
					<path class="st2" d="M639.8-84.7H505.9c-2.4,0-4.4-2-4.4-4.4v-4.4h142.6v4.4C644.2-86.7,642.2-84.7,639.8-84.7z M503.5-91.7
						v2.5c0,1.4,1.1,2.5,2.5,2.5h133.9c1.4,0,2.5-1.1,2.5-2.5v-2.5H503.5z"/>
				</g>
			</g>
		</g>
		<g>
			<g>
				<g>
					<rect x="515.4" y="-166.9" class="st2" width="115" height="68.5"/>
				</g>
			</g>
		</g>
		<g>
			<g>
				<rect x="561" y="-162.5" class="st2" width="4" height="1.9"/>
			</g>
			<g>
				<rect x="549.8" y="-162.5" class="st2" width="4" height="1.9"/>
			</g>
			<g>
				<rect x="538.7" y="-162.5" class="st2" width="4" height="1.9"/>
			</g>
			<g>
				<rect x="538.7" y="-154.9" class="st2" width="62.3" height="1.9"/>
			</g>
			<g>
				<rect x="538.7" y="-147.4" class="st2" width="62.3" height="1.9"/>
			</g>
			<g>
				<rect x="538.7" y="-139.8" class="st2" width="28.5" height="1.9"/>
			</g>
			<g>
				<rect x="538.7" y="-132.4" class="st2" width="62.3" height="1.9"/>
			</g>
		</g>
		<g>
			<g>
				<polygon class="st2" points="531.1,-105.9 530.4,-107.7 560.2,-119.3 579.6,-114.3 611.2,-127.9 612,-126.2 579.7,-112.3 
					560.3,-117.3 				"/>
			</g>
			<g>
				<path class="st2" d="M582.9-113.3c0,1.8-1.4,3.2-3.2,3.2s-3.2-1.4-3.2-3.2s1.4-3.2,3.2-3.2S582.9-115.1,582.9-113.3z"/>
			</g>
			<g>
				<path class="st2" d="M614.8-127.1c0,1.8-1.4,3.2-3.2,3.2c-1.8,0-3.2-1.4-3.2-3.2c0-1.8,1.4-3.2,3.2-3.2
					C613.4-130.3,614.8-128.8,614.8-127.1z"/>
			</g>
			<g>
				<path class="st2" d="M563.4-118.3c0,1.8-1.4,3.2-3.2,3.2s-3.2-1.4-3.2-3.2s1.4-3.2,3.2-3.2S563.4-120.1,563.4-118.3z"/>
			</g>
			<g>
				<path class="st2" d="M534-106.8c0,1.8-1.4,3.2-3.2,3.2s-3.2-1.4-3.2-3.2s1.4-3.2,3.2-3.2S534-108.6,534-106.8z"/>
			</g>
		</g>
	</g>
	<g>
		<rect x="678.1" y="-86.6" class="st2" width="13.5" height="1.9"/>
	</g>
	<g>
		<g>
			<rect x="334.8" y="-310.8" class="st2" width="9.7" height="225.1"/>
		</g>
		<g>
			<g>
				<rect x="243.2" y="-274.6" class="st2" width="192.9" height="123.8"/>
			</g>
		</g>
		<g>
			<g>
				<g>
					<g>
						<g>
							<g>
								<path class="st2" d="M298.9-180c-18.1,0-32.8-14.7-32.8-32.8c0-17.2,13.5-31.6,30.6-32.7l1-0.1v34h34l-0.1,1
									C330.5-193.4,316.1-180,298.9-180z M295.8-243.5c-15.7,1.6-27.8,14.9-27.8,30.7c0,17,13.9,30.9,30.9,30.9
									c15.9,0,29.2-12.1,30.7-27.8h-33.8V-243.5z"/>
							</g>
						</g>
					</g>
				</g>
				<g>
					<g>
						<path class="st2" d="M301-216.1v-26.3c10.2,0.7,19,6.6,23.7,15L301-216.1z"/>
					</g>
				</g>
				<g>
					<g>
						<path class="st2" d="M328.6-214.9h-20.2l18.3-8.7C327.7-220.8,328.4-217.9,328.6-214.9L328.6-214.9z"/>
					</g>
				</g>
			</g>
		</g>
		<g>
			<rect x="234.2" y="-275.6" class="st2" width="210.9" height="1.9"/>
		</g>
		<g>
			<g>
				<rect x="373.4" y="-247.2" class="st2" width="4" height="1.9"/>
			</g>
			<g>
				<rect x="362.3" y="-247.2" class="st2" width="4" height="1.9"/>
			</g>
			<g>
				<rect x="351.1" y="-247.2" class="st2" width="4" height="1.9"/>
			</g>
			<g>
				<rect x="351.1" y="-239.6" class="st2" width="62.3" height="1.9"/>
			</g>
			<g>
				<rect x="351.1" y="-232.1" class="st2" width="62.3" height="1.9"/>
			</g>
			<g>
				<rect x="351.1" y="-224.5" class="st2" width="28.5" height="1.9"/>
			</g>
			<g>
				<rect x="351.1" y="-217.1" class="st2" width="62.3" height="1.9"/>
			</g>
		</g>
		<g>
			<rect x="243.2" y="-151.8" class="st2" width="192.9" height="1.9"/>
		</g>
		<g>
			<g>
				<polygon class="st2" points="343.5,-180 342.8,-181.8 372.6,-193.4 392,-188.5 423.7,-202 424.4,-200.3 392.1,-186.5 
					372.7,-191.4 				"/>
			</g>
			<g>
				<path class="st2" d="M395.3-187.5c0,1.8-1.4,3.2-3.2,3.2c-1.8,0-3.2-1.4-3.2-3.2s1.4-3.2,3.2-3.2
					C393.8-190.7,395.3-189.2,395.3-187.5z"/>
			</g>
			<g>
				<path class="st2" d="M427.3-201.2c0,1.8-1.4,3.2-3.2,3.2c-1.8,0-3.2-1.4-3.2-3.2s1.4-3.2,3.2-3.2
					C425.8-204.4,427.3-202.9,427.3-201.2z"/>
			</g>
			<g>
				<path class="st2" d="M375.9-192.4c0,1.8-1.4,3.2-3.2,3.2c-1.8,0-3.2-1.4-3.2-3.2s1.4-3.2,3.2-3.2
					C374.4-195.7,375.9-194.2,375.9-192.4z"/>
			</g>
			<g>
				<path class="st2" d="M346.4-180.9c0,1.8-1.4,3.2-3.2,3.2c-1.8,0-3.2-1.4-3.2-3.2s1.4-3.2,3.2-3.2
					C345-184.1,346.4-182.7,346.4-180.9z"/>
			</g>
		</g>
	</g>
	<g>
		<path class="st2" d="M270.9-293c2,0,3.9,0.6,5.5,1.7c1.1-1.2,2.5-2,4.1-2.3c-0.1-0.5-0.1-0.9-0.1-1.4c0-5.3,4.3-9.6,9.6-9.6
			c5.3,0,9.6,4.3,9.6,9.6c0,0.8-0.1,1.5-0.3,2.3c0.7-0.2,1.5-0.2,2.2-0.2c5.3,0,9.6,4.4,9.6,9.7h-49.9
			C261.3-288.6,265.6-293,270.9-293z"/>
	</g>
	<g>
		<path class="st2" d="M61.4-144.9c1.5,0,2.8,0.4,3.9,1.2c0.8-0.9,1.8-1.5,3-1.7c0-0.3-0.1-0.7-0.1-1c0-3.8,3.1-6.9,6.9-6.9
			c3.8,0,6.9,3.1,6.9,6.9c0,0.6-0.1,1.1-0.2,1.6c0.5-0.1,1-0.1,1.6-0.1c3.8,0,6.9,3.2,6.9,7h-36C54.5-141.7,57.6-144.9,61.4-144.9z"
			/>
	</g>
	<g>
		<path class="st2" d="M587-258.9c1.5,0,2.8,0.4,3.9,1.2c0.8-0.9,1.8-1.5,3-1.7c0-0.3-0.1-0.7-0.1-1c0-3.8,3.1-6.9,6.9-6.9
			c3.8,0,6.9,3.1,6.9,6.9c0,0.6-0.1,1.1-0.2,1.6c0.5-0.1,1-0.1,1.6-0.1c3.8,0,6.9,3.2,6.9,7h-36C580-255.7,583.1-258.9,587-258.9z"
			/>
	</g>
	<g>
		<g>
			<path class="st10" d="M572.8-212.3c-8.7,0-18.3,6.8-18.3,18c0,17.2,18.3,35.3,18.3,35.3s18.3-18.4,18.3-35.3
				C591.2-205.6,581.1-212.3,572.8-212.3z M577.4-186.6c-1.2,0.7-2.7,1.2-4.5,1.2c-2.5,0-4.4-0.9-5.8-2.3
				c-5.1-4.8-3.2-15.7,5.9-15.7C582.7-203.3,584.2-190.5,577.4-186.6z"/>
		</g>
		<g>
			<path class="st2" d="M572.9-179.5c-0.4,0-0.8,0-1.3-0.1l0.2-1.9c0.9,0.1,1.8,0.1,2.7,0l0.2,1.9
				C574.1-179.6,573.5-179.5,572.9-179.5z M567.7-180.5c-1-0.4-1.9-0.8-2.7-1.4l1-1.6c0.8,0.5,1.6,0.9,2.4,1.2L567.7-180.5z
				 M578.7-180.7l-0.7-1.8c0.8-0.3,1.6-0.8,2.3-1.3l1.1,1.6C580.5-181.6,579.6-181.1,578.7-180.7z M561.8-184.5
				c-0.7-0.8-1.3-1.6-1.8-2.5l1.7-0.9c0.4,0.8,1,1.5,1.6,2.2L561.8-184.5z M584.3-184.9l-1.5-1.2c0.6-0.7,1.1-1.4,1.5-2.2l1.7,0.9
				C585.6-186.6,585-185.7,584.3-184.9z M558.5-190.8c-0.2-1-0.4-2-0.4-3l1.9-0.1c0,0.9,0.2,1.8,0.4,2.6L558.5-190.8z M587.4-191.3
				l-1.9-0.4c0.2-0.9,0.3-1.8,0.3-2.7l1.9-0.1v0.1C587.7-193.3,587.6-192.3,587.4-191.3z M560.4-197.4l-1.8-0.4c0.2-1,0.6-2,1-2.9
				l1.7,0.8C560.9-199.1,560.6-198.3,560.4-197.4z M585.3-197.9c-0.2-0.9-0.6-1.7-1-2.5l1.7-0.9c0.5,0.9,0.9,1.9,1.1,2.8
				L585.3-197.9z M563.2-202.9l-1.4-1.3c0.7-0.8,1.4-1.5,2.3-2.1l1.1,1.5C564.5-204.2,563.8-203.6,563.2-202.9z M582.2-203.3
				c-0.6-0.6-1.3-1.2-2-1.7l1.1-1.6c0.8,0.6,1.6,1.2,2.3,2L582.2-203.3z M568.3-206.4l-0.7-1.8c1-0.4,2-0.6,3-0.8l0.3,1.9
				C570-207,569.1-206.8,568.3-206.4z M577-206.6c-0.8-0.3-1.7-0.5-2.6-0.6l0.2-1.9c1,0.1,2,0.3,3,0.7L577-206.6z"/>
		</g>
	</g>
	<g>
		<g>
			<rect x="138.5" y="-146.5" class="st2" width="94.1" height="59.6"/>
		</g>
		<g>
			<rect x="143.6" y="-141.7" class="st2" width="83.8" height="50.1"/>
		</g>
		<g>
			<path class="st2" d="M180.4-98.6h-29.7v-36h29.7V-98.6z M152.5-100.5h25.9v-32.2h-25.9V-100.5z"/>
		</g>
		<g>
			<path class="st2" d="M138.5-146.5c0.1-6.4,5.3-11.5,11.7-11.5h70.7c6.4,0,11.6,5.2,11.7,11.5H138.5z"/>
		</g>
		<g>
			<rect x="149.9" y="-163.2" class="st2" width="1.9" height="9.4"/>
		</g>
		<g>
			<rect x="161.4" y="-163.2" class="st2" width="1.9" height="9.4"/>
		</g>
		<g>
			<rect x="172.8" y="-163.2" class="st2" width="1.9" height="9.4"/>
		</g>
		<g>
			<rect x="184.3" y="-163.2" class="st2" width="1.9" height="9.4"/>
		</g>
		<g>
			<rect x="195.7" y="-163.2" class="st2" width="1.9" height="9.4"/>
		</g>
		<g>
			<rect x="207.2" y="-163.2" class="st2" width="1.9" height="9.4"/>
		</g>
		<g>
			<rect x="218.6" y="-163.2" class="st2" width="1.9" height="9.4"/>
		</g>
		<g>
			<rect x="186.9" y="-134.7" class="st2" width="34.9" height="1.9"/>
		</g>
		<g>
			<rect x="208.5" y="-126.2" class="st2" width="13.3" height="1.9"/>
		</g>
		<g>
			<rect x="186.9" y="-126.2" class="st2" width="10.2" height="1.9"/>
		</g>
		<g>
			<rect x="186.9" y="-117.6" class="st2" width="34.9" height="1.9"/>
		</g>
		<g>
			<rect x="208.5" y="-109.1" class="st2" width="13.3" height="1.9"/>
		</g>
		<g>
			<rect x="186.9" y="-109.1" class="st2" width="10.2" height="1.9"/>
		</g>
		<g>
			<rect x="186.9" y="-100.5" class="st2" width="34.9" height="1.9"/>
		</g>
	</g>
	<g>
		<g>
			<g>
				<path class="st2" d="M540.8-233.8c-0.5,0-1-0.2-1.4-0.6l-3.5-3.5l2.2-2.2c0.4-0.4,0.6-0.9,0.5-1.1l-3.1-3
					c-0.4,0-0.8,0.2-1.1,0.5l-2.2,2.2l-3.1-3.1c-0.9-0.9-1.1-2.6-0.1-3.7l2.2-2.2l-0.9-0.9c-0.5-0.5-0.7-1-0.8-1.7
					c0-0.7,0.2-1.3,0.7-1.8l3.5-3.5c0.9-0.9,2.6-0.9,3.5,0l0.9,0.9l2.6-2.6c0.5-0.5,1.4-0.9,2.2-0.9c0.7,0,1.3,0.2,1.7,0.6l3.1,3.1
					l-2.9,2.9c-0.1,0.1-0.1,0.1-0.1,0.1c0,0,0.1,0.1,0.3,0.3l3.1,3.1c0.1,0.1,0.2,0.2,0.3,0.2c0,0,0.1,0,0.1-0.1l2.9-2.9l3.5,3.5
					c0.3,0.3,0.5,0.8,0.5,1.3c0,1-0.8,2-1.1,2.3l-2.5,2.6l1.3,1.3c0.5,0.5,0.7,1.1,0.7,1.7c0,0.7-0.3,1.3-0.7,1.8l-3.5,3.5
					c-0.5,0.5-1.1,0.7-1.7,0.7l0,0c-0.6,0-1.2-0.3-1.7-0.7l-1.3-1.3l-2.2,2.2C542.1-234.1,541.4-233.8,540.8-233.8z M538.6-237.9
					l2.2,2.2c0.1,0,0.3-0.1,0.6-0.4l3.5-3.5l2.6,2.6c0.2,0.2,0.5,0.2,0.8,0l3.5-3.5c0.1-0.1,0.2-0.3,0.2-0.4c0-0.1-0.1-0.3-0.2-0.4
					l-2.6-2.6l3.9-3.9c0.4-0.4,0.6-0.8,0.6-1l-2.1-2.1l-1.5,1.5c-0.4,0.4-0.9,0.7-1.4,0.7c-0.7,0-1.2-0.4-1.6-0.8l-3.1-3.1
					c-1.4-1.4-0.7-2.6-0.2-3.1l1.5-1.5l-1.8-1.8c0,0-0.1-0.1-0.4-0.1c-0.4,0-0.7,0.1-0.9,0.3l-3.9,3.9L536-257
					c-0.2-0.2-0.6-0.3-0.8,0l-3.5,3.5c-0.1,0.1-0.2,0.2-0.2,0.4c0,0.2,0.1,0.3,0.2,0.4l2.2,2.2l-3.5,3.5c-0.3,0.3-0.2,0.8,0.1,1
					l1.8,1.8l0.9-0.9c0.6-0.6,1.6-1,2.4-1c0.6,0,1.1,0.2,1.4,0.6l3.1,3.1c0.5,0.5,0.7,1.3,0.4,2.1c-0.2,0.6-0.5,1.2-1,1.6
					L538.6-237.9z"/>
			</g>
		</g>
		<g>
			<g>
				<path class="st2" d="M529.5-240.2l-2,2l-3.3-3.3c-0.6-0.6-1.8-1.4-2.4-0.8l-3,3l2.4,2.4c0.6,0.6,0.4,0.8-0.1,1.4l-3.1,3.1
					c-0.6,0.6-1,1.1-1.7,0.4l-2.4-2.4l-2.4,2.4c-0.6,0.6-0.1,2,0.6,2.6l3.3,3.3l-1.7,1.7c-0.6,0.6-1,1.6-0.3,2.3l3.5,3.5
					c0.6,0.6,1.9,0.4,2.4-0.1l1.7-1.7l2.7,2.7c0.6,0.6,1.5,0.6,2,0l2.4-2.4l-1.4-1.4c-0.6-0.6-1.1-2.1-0.6-2.7l3.1-3.1
					c0.6-0.6,1.7,0.2,2.4,0.8l1.4,1.4l3-3c0.6-0.6,0.4-1.1-0.3-1.8l-2.7-2.7l2-2c0.6-0.6,0.5-1.6-0.1-2.2l-3.5-3.5
					C530.9-240.9,530.1-240.8,529.5-240.2z"/>
			</g>
		</g>
	</g>
	<g>
		<g>
			<path class="st2" d="M220.9-206.6h-6.4c-0.7,0-1.3-0.3-1.7-0.7s-0.7-1.1-0.7-1.7l0-3c-1.6-0.4-3.2-1.1-4.7-1.9l-2.1,2.1
				c-0.9,0.9-2.5,0.9-3.5,0l-4.5-4.5c-0.5-0.5-0.7-1.1-0.7-1.7c0-0.7,0.3-1.3,0.7-1.7l2.1-2.1c-0.8-1.5-1.5-3-2-4.7h-3
				c-1.3,0-2.4-1.1-2.4-2.4v-6.4c0-1.3,1.1-2.4,2.4-2.4h3c0.4-1.6,1.1-3.2,1.9-4.7l-2.1-2.1c-1-1-1-2.5,0-3.5l4.5-4.5
				c0.9-0.9,2.5-0.9,3.4,0l2.1,2.1c1.5-0.8,3-1.5,4.7-2v-3c0-1.3,1.1-2.4,2.4-2.4h6.4c1.3,0,2.4,1.1,2.4,2.4v3
				c1.6,0.4,3.2,1.1,4.7,1.9l2.1-2.1c0.9-0.9,2.5-0.9,3.4,0l4.5,4.5c1,1,1,2.5,0,3.5l-2.1,2.1c0.8,1.5,1.5,3,2,4.7h3
				c1.3,0,2.4,1.1,2.4,2.4v6.4c0,1.3-1.1,2.4-2.4,2.4h-3c-0.4,1.6-1.1,3.2-1.9,4.7l2.1,2.1c0.5,0.5,0.7,1.1,0.7,1.7
				c0,0.7-0.3,1.3-0.7,1.7l-4.5,4.5c-0.9,0.9-2.5,0.9-3.5,0L228-214c-1.5,0.8-3,1.5-4.7,2v3C223.3-207.7,222.2-206.6,220.9-206.6z
				 M207-216.3l0.6,0.4c1.7,1,3.6,1.8,5.5,2.2l0.7,0.2l0,4.5c0,0.1,0.1,0.3,0.2,0.4c0.1,0.1,0.2,0.2,0.4,0.2h6.4
				c0.3,0,0.5-0.2,0.5-0.5v-4.4l0.7-0.2c1.9-0.5,3.8-1.2,5.5-2.3l0.6-0.4l0.5,0.5l2.7,2.7c0.2,0.2,0.6,0.2,0.8,0l4.5-4.5
				c0.1-0.1,0.2-0.2,0.2-0.4c0-0.1-0.1-0.3-0.2-0.4l-3.1-3.1l0.4-0.6c1-1.7,1.8-3.6,2.2-5.5l0.2-0.7h4.5c0.3,0,0.5-0.2,0.5-0.5v-6.4
				c0-0.3-0.2-0.5-0.5-0.5h-4.4l-0.2-0.7c-0.5-1.9-1.2-3.8-2.3-5.5l-0.4-0.7l0.6-0.5l2.6-2.6c0.2-0.2,0.2-0.6,0-0.8l-4.5-4.5
				c-0.2-0.2-0.6-0.2-0.8,0l-3.1,3.1l-0.6-0.4c-1.7-1-3.6-1.8-5.5-2.2l-0.7-0.2v-4.5c0-0.3-0.2-0.5-0.5-0.5h-6.4
				c-0.3,0-0.5,0.2-0.5,0.5v4.4l-0.7,0.2c-1.9,0.5-3.8,1.2-5.5,2.3l-0.6,0.4l-3.2-3.2c-0.2-0.2-0.6-0.2-0.8,0l-4.5,4.5
				c-0.2,0.2-0.2,0.6,0,0.8l3.1,3.1l-0.4,0.6c-1,1.7-1.8,3.5-2.2,5.5l-0.2,0.7h-4.5c-0.3,0-0.5,0.2-0.5,0.5v6.4
				c0,0.3,0.2,0.5,0.5,0.5h4.4l0.2,0.7c0.5,1.9,1.2,3.8,2.3,5.5l0.4,0.6l-0.5,0.5l-2.6,2.6c-0.2,0.2-0.2,0.5,0,0.8l4.5,4.5
				c0.2,0.2,0.6,0.2,0.8,0L207-216.3z"/>
		</g>
		<g>
			<g>
				<path class="st10" d="M217.6-215.8c9.1,0,16.5-7.4,16.5-16.5c0-9.1-7.4-16.5-16.5-16.5c-9.1,0-16.5,7.4-16.5,16.5
					C201.1-223.1,208.5-215.8,217.6-215.8z"/>
			</g>
		</g>
		<g>
			<g>
				<path class="st2" d="M217.7-218.8l0-1.9h0c0.9,0,1.7-0.1,2.5-0.3l0.4,1.9C219.6-218.9,218.7-218.8,217.7-218.8z M213.7-219.4
					c-1-0.3-1.9-0.7-2.8-1.2l1-1.6c0.7,0.4,1.5,0.8,2.4,1L213.7-219.4z M224.3-220.6l-0.9-1.7c0.7-0.4,1.4-0.9,2.1-1.5l1.3,1.4
					C226-221.7,225.2-221.1,224.3-220.6z M207.8-223.1c-0.7-0.7-1.3-1.6-1.8-2.4l1.6-0.9c0.4,0.7,0.9,1.4,1.5,2.1L207.8-223.1z
					 M229.3-225.5l-1.6-1c0.4-0.7,0.8-1.5,1-2.4l1.8,0.6C230.2-227.3,229.8-226.4,229.3-225.5z M204.5-229.3c-0.2-1-0.3-2-0.3-3
					l1.9,0v0c0,0.9,0.1,1.7,0.3,2.6L204.5-229.3z M229.2-232.2L229.2-232.2c0-0.9-0.1-1.7-0.3-2.6l1.9-0.4c0.2,1,0.3,2,0.3,2.9
					L229.2-232.2z M206.6-235.7l-1.8-0.6c0.3-1,0.7-1.9,1.2-2.8l1.6,1C207.2-237.3,206.9-236.5,206.6-235.7z M227.7-238
					c-0.4-0.7-0.9-1.5-1.5-2.1l1.4-1.3c0.7,0.7,1.3,1.6,1.8,2.4L227.7-238z M209.8-240.7l-1.3-1.4c0.7-0.7,1.6-1.3,2.4-1.8l1,1.6
					C211.1-241.8,210.4-241.3,209.8-240.7z M223.5-242.2c-0.7-0.4-1.5-0.8-2.4-1l0.6-1.8c1,0.3,1.9,0.7,2.8,1.2L223.5-242.2z
					 M215.1-243.5l-0.4-1.9c1-0.2,2-0.3,3-0.3l0.1,1.9h-0.1C216.8-243.8,215.9-243.7,215.1-243.5z"/>
			</g>
		</g>
		<g>
			<g>
				<path class="st2" d="M218.7-225.3h-1.5c-1.8,0-3.3-1.5-3.3-3.3v-0.7h1.9v0.7c0,0.7,0.6,1.4,1.4,1.4h1.5c0.7,0,1.3-0.6,1.3-1.3
					v-1.5c0-0.8-0.6-1.4-1.4-1.4h-2c-1.7,0-3.1-1.4-3.1-3.1v-0.7c0-2.1,1.7-3.8,3.8-3.8h1c1.8,0,3.2,1.4,3.2,3.2v1.2h-1.9v-1.2
					c0-0.7-0.6-1.3-1.3-1.3h-1c-1,0-1.8,0.8-1.8,1.8v0.7c0,0.7,0.5,1.2,1.2,1.2h2c1.8,0,3.3,1.5,3.3,3.3v1.5
					C221.9-226.7,220.5-225.3,218.7-225.3z"/>
			</g>
			<g>
				<rect x="216.7" y="-226.2" class="st2" width="1.9" height="3"/>
			</g>
			<g>
				<rect x="216.7" y="-241.3" class="st2" width="1.9" height="3.4"/>
			</g>
		</g>
	</g>
	<g>
		<g>
			<path class="st2" d="M661.9-222.8h-3c-0.4-1.7-1.1-3.2-1.9-4.6l0,0l2.1-2.1c0.5-0.5,0.5-1.2,0-1.7l-3.6-3.6
				c-0.5-0.5-1.2-0.5-1.7,0l-2.1,2.1c-1.5-0.9-3-1.5-4.6-1.9v0v-3c0-0.7-0.5-1.2-1.2-1.2h-5.1c-0.7,0-1.2,0.5-1.2,1.2v3
				c-1.7,0.4-3.2,1.1-4.6,1.9l0,0l-2.1-2.1c-0.5-0.5-1.2-0.5-1.7,0l-3.6,3.6c-0.5,0.5-0.5,1.2,0,1.7l2.1,2.1c-0.9,1.5-1.5,3-1.9,4.6
				h0h-3c-0.7,0-1.2,0.5-1.2,1.2v5.1c0,0.7,0.5,1.2,1.2,1.2h3c0.4,1.7,1.1,3.2,1.9,4.6l0,0l-2.1,2.1c-0.5,0.5-0.5,1.2,0,1.7l3.6,3.6
				c0.5,0.5,1.2,0.5,1.7,0l2.1-2.1c1.5,0.9,3,1.5,4.6,1.9v0l0,3c0,0.7,0.5,1.2,1.2,1.2h5.1c0.7,0,1.2-0.5,1.2-1.2v-3
				c1.7-0.4,3.2-1.1,4.6-1.9l0,0l2.1,2.1c0.5,0.5,1.2,0.5,1.7,0l3.6-3.6c0.5-0.5,0.5-1.2,0-1.7l-2.1-2.1c0.9-1.5,1.5-3,1.9-4.6h0h3
				c0.7,0,1.2-0.5,1.2-1.2v-5.1C663.1-222.3,662.6-222.8,661.9-222.8z"/>
		</g>
		<g>
			<g>
				<path class="st2" d="M642.8-208.1c-1.1-0.1-2.2-0.3-3.2-0.7l0.7-1.8c0.8,0.3,1.7,0.5,2.6,0.5L642.8-208.1z M647.1-208.7
					l-0.6-1.8c0.8-0.3,1.6-0.7,2.4-1.3l1.1,1.5C649.1-209.6,648.1-209.1,647.1-208.7z M635.9-211c-0.8-0.7-1.5-1.6-2-2.6l1.6-1
					c0.5,0.8,1,1.5,1.7,2.1L635.9-211z M652.8-213.5l-1.6-1c0.5-0.8,0.8-1.6,1-2.5l1.9,0.4C653.8-215.5,653.4-214.5,652.8-213.5z
					 M632.5-217.7c-0.1-0.4-0.1-0.9-0.1-1.3c0-0.6,0.1-1.3,0.2-1.9l1.9,0.3c-0.1,0.5-0.1,1-0.1,1.6c0,0.4,0,0.7,0.1,1.1L632.5-217.7
					z M652.3-220.6c-0.2-0.9-0.4-1.8-0.9-2.6l1.7-0.9c0.5,1,0.8,2,1,3.1L652.3-220.6z M635.7-224l-1.6-1c0.6-0.9,1.3-1.7,2.2-2.4
					l1.2,1.5C636.8-225.4,636.2-224.7,635.7-224z M649.2-226c-0.7-0.6-1.5-1.1-2.3-1.4l0.7-1.8c1,0.4,1.9,1,2.8,1.7L649.2-226z
					 M640.7-227.7l-0.6-1.8c1-0.3,2.1-0.5,3.2-0.5l0,1.9h0C642.4-228.1,641.5-228,640.7-227.7z"/>
			</g>
		</g>
	</g>
	<g>
		<g>
			<path class="st2" d="M332-99.9l-1.4-1.3c0.6-0.7,1.2-1.4,1.8-2.1l1.5,1.2C333.3-101.4,332.7-100.7,332-99.9z M291.9-102.1
				c-0.6-0.8-1.2-1.6-1.7-2.5l1.6-1c0.5,0.8,1,1.5,1.5,2.3L291.9-102.1z M336.1-105.5l-1.7-0.9c0.4-0.8,0.8-1.6,1.2-2.5l1.8,0.7
				C337-107.3,336.5-106.4,336.1-105.5z M288.5-108.1c-0.4-0.9-0.7-1.9-0.9-2.8l1.8-0.5c0.2,0.9,0.5,1.8,0.9,2.6L288.5-108.1z
				 M338.6-111.9l-1.8-0.5c0.2-0.9,0.4-1.8,0.5-2.7l1.9,0.3C339-113.8,338.8-112.9,338.6-111.9z M286.8-114.8c-0.1-1-0.2-2-0.2-2.9
				l1.9,0c0,0.9,0.1,1.8,0.2,2.7L286.8-114.8z M337.5-118.7c0-0.9-0.1-1.8-0.2-2.7l1.9-0.3c0.1,1,0.2,2,0.2,2.9L337.5-118.7z
				 M288.7-121.4l-1.9-0.2c0.1-1,0.3-2,0.5-2.9l1.8,0.5C289-123.2,288.9-122.3,288.7-121.4z M336.5-125c-0.3-0.9-0.6-1.7-0.9-2.6
				l1.8-0.7c0.4,0.9,0.7,1.8,1,2.8L336.5-125z M290.4-127.6l-1.8-0.7c0.4-0.9,0.8-1.8,1.3-2.7l1.7,0.9
				C291.1-129.3,290.7-128.4,290.4-127.6z M333.9-130.9c-0.5-0.8-1-1.5-1.6-2.3l1.5-1.2c0.6,0.8,1.2,1.6,1.7,2.4L333.9-130.9z
				 M293.5-133.1l-1.5-1.2c0.6-0.8,1.2-1.5,1.9-2.3l1.4,1.3C294.7-134.6,294.1-133.9,293.5-133.1z M329.9-135.9
				c-0.7-0.6-1.4-1.2-2.1-1.8l1.2-1.5c0.8,0.6,1.5,1.2,2.2,1.9L329.9-135.9z M298-137.7l-1.2-1.5c0.8-0.6,1.6-1.2,2.4-1.7l1,1.6
				C299.5-138.8,298.8-138.3,298-137.7z M324.8-139.7c-0.8-0.4-1.6-0.8-2.5-1.2l0.7-1.8c0.9,0.4,1.8,0.8,2.7,1.3L324.8-139.7z
				 M303.6-140.9l-0.7-1.8c0.9-0.4,1.8-0.7,2.8-1l0.5,1.8C305.3-141.6,304.4-141.3,303.6-140.9z M318.8-142
				c-0.9-0.2-1.8-0.4-2.7-0.5l0.3-1.9c1,0.1,2,0.3,2.9,0.6L318.8-142z M309.7-142.6l-0.2-1.9c0.5-0.1,1-0.1,1.5-0.1
				c0.5,0,1-0.1,1.5-0.1l0,1.9c-0.5,0-0.9,0-1.4,0.1C310.6-142.7,310.2-142.6,309.7-142.6z"/>
		</g>
		<g>
			<path class="st2" d="M332.7-118.2c0-11.4-9.7-20.6-21.3-19.8c-10.3,0.7-18.3,9.7-18.1,20c0.1,7.3,3.8,13.6,10.1,17
				c2.2,1.2,3.6,3.6,3.6,6.1v0h12.4v0c0-2.6,1.3-5,3.5-6.3C328.6-104.5,332.7-110.9,332.7-118.2z"/>
		</g>
		<g>
			<g>
				<path class="st2" d="M319.6-84.7h-12.8c-1.5,0-2.6-1.2-2.6-2.6V-93c0-1.5,1.2-2.6,2.6-2.6h12.8c1.5,0,2.6,1.2,2.6,2.6v5.7
					C322.3-85.9,321.1-84.7,319.6-84.7z M306.8-93.8c-0.4,0-0.7,0.3-0.7,0.7v5.7c0,0.4,0.3,0.7,0.7,0.7h12.8c0.4,0,0.7-0.3,0.7-0.7
					V-93c0-0.4-0.3-0.7-0.7-0.7H306.8z"/>
			</g>
		</g>
		<g>
			<rect x="312" y="-109.1" class="st2" width="1.9" height="14.3"/>
		</g>
	</g>
	<g>
		<g>
			<rect x="361.2" y="-122.3" class="st2" width="11.4" height="12.7"/>
		</g>
		<g>
			<path class="st2" d="M378.6-94.4c0-2.3-1.6-4.1-3.6-4.1h-2.5v-9h-11.4v9h-2.3c-1.9,0-3.5,1.8-3.6,4.1H378.6z"/>
		</g>
		<g>
			<g>
				<path class="st2" d="M376.1-131.1H370c0.5-0.8,0.7-1.6,0.6-2.5c-0.1-1.5-1.2-2.7-2.6-3.1c-2.4-0.7-4.6,1.2-4.6,3.5
					c0,0.8,0.2,1.4,0.6,2.1h-6.4c0,4.1,2.5,7.6,6,8.6h6.4C373.6-123.5,376.1-127,376.1-131.1z"/>
			</g>
		</g>
		<g>
			<rect x="360.2" y="-109.5" class="st2" width="13.4" height="1.9"/>
		</g>
		<g>
			<rect x="353.1" y="-94.6" class="st2" width="27.6" height="1.9"/>
		</g>
		<g>
			<g>
				<rect x="351" y="-92" class="st2" width="31.7" height="4.8"/>
			</g>
		</g>
		<g>
			<rect x="359.9" y="-123.4" class="st2" width="14" height="1.9"/>
		</g>
	</g>
	<g>
		<g>
			<g>
				<path class="st2" d="M442.5-246.9c-0.6,0-1.1,0-1.7-0.1c-6.1-0.4-11.6-3.2-15.6-7.9c-4-4.6-5.9-10.5-5.5-16.6
					c0.5-6.1,3.3-11.7,7.9-15.7c4.6-3.9,10.5-5.9,16.6-5.5c6.1,0.4,11.6,3.2,15.6,7.9c4,4.6,6,10.5,5.5,16.6
					c-0.2,3.1-1.1,6.1-2.5,8.8c-0.9,1.7-2,3.3-3.3,4.7l-0.7,0.8l0,0c-0.4,0.4-0.9,0.9-1.4,1.3c-0.7,0.6-1.5,1.2-2.3,1.7
					C451.3-248.2,447-246.9,442.5-246.9z M442.4-290.7c-5,0-9.8,1.8-13.6,5.1c-4.3,3.7-6.8,8.8-7.2,14.3c-0.4,5.6,1.4,11,5.1,15.2
					c3.7,4.2,8.8,6.8,14.3,7.2c4.7,0.3,9.2-0.9,13.1-3.4c0.7-0.5,1.4-1,2.1-1.6c0.7-0.6,1.4-1.3,2-1.9l0.3-0.4
					c1-1.2,1.9-2.5,2.7-3.9c1.3-2.5,2.1-5.2,2.3-8.1c0.4-5.6-1.4-11-5-15.2c-3.7-4.2-8.7-6.8-14.3-7.2
					C443.5-290.7,442.9-290.7,442.4-290.7z"/>
			</g>
		</g>
		<g>
			<g>
				<path class="st2" d="M458-262.2l-1.7-0.9c0.9-1.7,1.4-3.5,1.5-5.4l1.9,0.1C459.6-266.2,459-264.2,458-262.2z"/>
			</g>
			<g>
				<path class="st2" d="M451.2-255.5l-0.9-1.7c0.4-0.2,0.9-0.5,1.3-0.8c0.5-0.3,1-0.7,1.4-1.1c0.4-0.3,1.1-1.1,1.3-1.3l1.4,1.3
					c0,0-0.9,1-1.5,1.4c-0.5,0.4-1,0.8-1.6,1.2C452.2-256,451.7-255.7,451.2-255.5z"/>
			</g>
		</g>
		<g>
			
				<rect x="458.4" y="-254.7" transform="matrix(0.7071 -0.7071 0.7071 0.7071 313.0283 250.8747)" class="st2" width="1.9" height="4.5"/>
		</g>
		<g>
			
				<rect x="468.5" y="-255.7" transform="matrix(0.7071 -0.7071 0.7071 0.7071 307.4734 264.2855)" class="st2" width="8.6" height="33.4"/>
		</g>
	</g>
	<g>
		<rect x="46.4" y="-86.6" class="st2" width="342.2" height="1.9"/>
	</g>
	<g>
		<rect x="26.6" y="-86.6" class="st2" width="9.9" height="1.9"/>
	</g>
	<g>
		<rect x="138.8" y="-183.7" class="st2" width="21.7" height="1.9"/>
	</g>
	<g>
		<rect x="652.3" y="-184.5" class="st2" width="21.7" height="1.9"/>
	</g>
	<g>
		<rect x="188.7" y="-282.9" class="st2" width="21.7" height="1.9"/>
	</g>
	<g>
		<rect x="484.9" y="-260.6" class="st2" width="21.7" height="1.9"/>
	</g>
	<g>
		<rect x="609.8" y="-192.7" class="st2" width="21.7" height="1.9"/>
	</g>
	<g>
		<rect x="167.9" y="-193.4" class="st2" width="21.7" height="1.9"/>
	</g>
	<g>
		<rect x="416.4" y="-305.6" class="st2" width="21.7" height="1.9"/>
	</g>
	<g>
		<g>
			
				<rect x="210.4" y="-184.8" transform="matrix(0.7071 -0.7071 0.7071 0.7071 189.7467 96.5178)" class="st2" width="1.9" height="8"/>
		</g>
		<g>
			<g>
				<polygon class="st2" points="206.7,-180.1 204.7,-187.5 212,-185.5 				"/>
			</g>
		</g>
	</g>
	<g>
		<rect x="396.6" y="-86.6" class="st2" width="274.7" height="1.9"/>
	</g>
	<g>
		<g>
			<rect x="127.2" y="-228.6" class="st2" width="1.9" height="22.7"/>
		</g>
		<g>
			<rect x="119.1" y="-223.5" class="st2" width="1.9" height="17.6"/>
		</g>
		<g>
			<rect x="110.9" y="-218.6" class="st2" width="1.9" height="12.7"/>
		</g>
		<g>
			<rect x="102.7" y="-213.8" class="st2" width="1.9" height="7.9"/>
		</g>
	</g>
	<g>
		<g>
			<rect x="684.9" y="-168.3" class="st2" width="1.9" height="22.7"/>
		</g>
		<g>
			<rect x="676.8" y="-163.3" class="st2" width="1.9" height="17.6"/>
		</g>
		<g>
			<rect x="668.6" y="-158.4" class="st2" width="1.9" height="12.7"/>
		</g>
		<g>
			<rect x="660.4" y="-153.6" class="st2" width="1.9" height="7.9"/>
		</g>
	</g>
	<g>
		<g>
			<rect x="61.3" y="-183.7" class="st2" width="21.7" height="1.9"/>
		</g>
		<g>
			<rect x="87.2" y="-183.7" class="st2" width="9.7" height="1.9"/>
		</g>
		<g>
			<path class="st2" d="M105.9-178c-2.6,0-4.7-2.1-4.7-4.7c0-2.6,2.1-4.7,4.7-4.7s4.7,2.1,4.7,4.7C110.6-180.1,108.5-178,105.9-178z
				 M105.9-185.5c-1.5,0-2.8,1.2-2.8,2.8c0,1.5,1.2,2.8,2.8,2.8c1.5,0,2.8-1.2,2.8-2.8C108.7-184.2,107.5-185.5,105.9-185.5z"/>
		</g>
	</g>
	<g>
		<g>
			<rect x="359.4" y="-292.6" class="st2" width="21.7" height="1.9"/>
		</g>
		<g>
			<rect x="385.3" y="-292.6" class="st2" width="9.7" height="1.9"/>
		</g>
		<g>
			<path class="st2" d="M404-287c-2.6,0-4.7-2.1-4.7-4.7s2.1-4.7,4.7-4.7c2.6,0,4.7,2.1,4.7,4.7S406.6-287,404-287z M404-294.5
				c-1.5,0-2.8,1.2-2.8,2.8s1.2,2.8,2.8,2.8c1.5,0,2.8-1.2,2.8-2.8S405.6-294.5,404-294.5z"/>
		</g>
	</g>
	<g>
		<g>
			<rect x="561.3" y="-227" class="st2" width="21.7" height="1.9"/>
		</g>
		<g>
			<rect x="587.1" y="-227" class="st2" width="9.7" height="1.9"/>
		</g>
		<g>
			<path class="st2" d="M605.9-221.4c-2.6,0-4.7-2.1-4.7-4.7c0-2.6,2.1-4.7,4.7-4.7c2.6,0,4.7,2.1,4.7,4.7
				C610.5-223.5,608.4-221.4,605.9-221.4z M605.9-228.8c-1.5,0-2.8,1.2-2.8,2.8s1.2,2.8,2.8,2.8c1.5,0,2.8-1.2,2.8-2.8
				S607.4-228.8,605.9-228.8z"/>
		</g>
	</g>
	<g>
		<path class="st2" d="M230.3-277.3c-2.6,0-4.7-2.1-4.7-4.7s2.1-4.7,4.7-4.7c2.6,0,4.7,2.1,4.7,4.7S232.9-277.3,230.3-277.3z
			 M230.3-284.7c-1.5,0-2.8,1.2-2.8,2.8c0,1.5,1.2,2.8,2.8,2.8c1.5,0,2.8-1.2,2.8-2.8C233.1-283.5,231.8-284.7,230.3-284.7z"/>
	</g>
	<g>
		<polygon class="st2" points="149.6,-245.9 143.2,-253 137.1,-246.1 130.7,-252.5 125.1,-246.8 123.8,-248.2 130.7,-255.2 
			137,-248.9 143.1,-255.8 149.6,-248.8 155.5,-255.9 162.1,-248.8 167.9,-255.8 175.4,-248.2 174.1,-246.9 168,-253 162.2,-245.9 
			155.6,-253 		"/>
	</g>
	<g>
		<path class="st2" d="M484.1-275.5l-1.3-1.3l4-4c0.8-0.8,1.9-1.2,3-1.2c0,0,0,0,0,0c1.1,0,2.2,0.4,3,1.2l1.5,1.5
			c0.5,0.5,1,0.7,1.7,0.7c0.6,0,1.2-0.3,1.7-0.8l1.4-1.6c0.8-0.9,1.9-1.4,3.1-1.4c1.2,0,2.3,0.5,3.1,1.4l1.5,1.6
			c0.4,0.5,1.1,0.8,1.7,0.8c0.7,0,1.3-0.3,1.7-0.8l1.2-1.4c0.8-0.9,1.9-1.5,3.1-1.5c1.2,0,2.4,0.5,3.2,1.3l1.6,1.7
			c0.5,0.5,1.1,0.8,1.8,0.7c0.7,0,1.3-0.3,1.7-0.8l1.1-1.4c0.8-0.9,1.9-1.5,3-1.5c1.2-0.1,2.3,0.4,3.2,1.2l4.3,4.3l-1.3,1.3
			l-4.3-4.3c-0.5-0.5-1.1-0.7-1.7-0.7c-0.7,0-1.3,0.3-1.7,0.8l-1.1,1.4c-0.8,0.9-1.9,1.5-3.1,1.5c-1.2,0.1-2.4-0.4-3.2-1.3l-1.6-1.7
			c-0.5-0.5-1.1-0.7-1.7-0.7c-0.7,0-1.3,0.3-1.7,0.8l-1.2,1.4c-0.8,0.9-1.9,1.5-3.1,1.5c-1.2,0-2.4-0.5-3.2-1.4l-1.5-1.6
			c-0.4-0.5-1.1-0.7-1.7-0.8c-0.7,0-1.3,0.3-1.7,0.8l-1.4,1.6c-0.8,0.9-1.9,1.4-3,1.4c-1.1,0.1-2.3-0.4-3.1-1.2l-1.5-1.5
			c-0.4-0.4-1-0.7-1.6-0.7c0,0,0,0,0,0c-0.6,0-1.2,0.2-1.6,0.7L484.1-275.5z"/>
	</g>
	<g>
		<path class="st2" d="M165-211.9c-0.8,0-1.6-0.3-2.2-0.9l-2.3-2.3c-0.6-0.6-0.9-1.3-0.9-2.2c0-0.8,0.3-1.6,0.9-2.2l2.3-2.3
			c1.2-1.2,3.2-1.2,4.3,0l2.3,2.3c0.6,0.6,0.9,1.3,0.9,2.2c0,0.8-0.3,1.6-0.9,2.2l-2.3,2.3C166.6-212.2,165.9-211.9,165-211.9z
			 M165-220.7c-0.3,0-0.6,0.1-0.8,0.3l-2.3,2.3c-0.2,0.2-0.3,0.5-0.3,0.8s0.1,0.6,0.3,0.8l2.3,2.3c0.4,0.4,1.2,0.4,1.6,0l2.3-2.3
			c0.2-0.2,0.3-0.5,0.3-0.8c0-0.3-0.1-0.6-0.3-0.8l-2.3-2.3C165.6-220.6,165.3-220.7,165-220.7z"/>
	</g>
	<g>
		<path class="st2" d="M536.5-192.6c-0.8,0-1.6-0.3-2.2-0.9l-2.3-2.3c-1.2-1.2-1.2-3.1,0-4.3l2.3-2.3c1.2-1.2,3.2-1.2,4.3,0l2.3,2.3
			c1.2,1.2,1.2,3.1,0,4.3l-2.3,2.3C538.1-192.9,537.3-192.6,536.5-192.6z M536.5-201.4c-0.3,0-0.6,0.1-0.8,0.3l-2.3,2.3
			c-0.5,0.5-0.5,1.2,0,1.6l2.3,2.3c0.4,0.4,1.2,0.4,1.6,0l2.3-2.3c0.5-0.5,0.5-1.2,0-1.6l-2.3-2.3
			C537.1-201.3,536.8-201.4,536.5-201.4z"/>
	</g>
	<g>
		<path class="st2" d="M392.1-115.6c-0.8,0-1.6-0.3-2.2-0.9l-2.3-2.3c-1.2-1.2-1.2-3.1,0-4.3l2.3-2.3c1.2-1.2,3.2-1.2,4.3,0l2.3,2.3
			c1.2,1.2,1.2,3.1,0,4.3l-2.3,2.3C393.6-116,392.9-115.6,392.1-115.6z M392.1-124.5c-0.3,0-0.6,0.1-0.8,0.3l-2.3,2.3
			c-0.5,0.5-0.5,1.2,0,1.6l2.3,2.3c0.4,0.4,1.2,0.4,1.6,0l2.3-2.3c0.5-0.5,0.5-1.2,0-1.6l-2.3-2.3
			C392.7-124.4,392.4-124.5,392.1-124.5z"/>
	</g>
	<g>
		<path class="st2" d="M100.8-154.5c-0.8,0-1.6-0.3-2.2-0.9l-2.3-2.3c-0.6-0.6-0.9-1.3-0.9-2.2c0-0.8,0.3-1.6,0.9-2.2l2.3-2.3
			c1.2-1.2,3.2-1.2,4.3,0l2.3,2.3c0.6,0.6,0.9,1.3,0.9,2.2c0,0.8-0.3,1.6-0.9,2.2l-2.3,2.3C102.3-154.9,101.6-154.5,100.8-154.5z
			 M100.8-163.4c-0.3,0-0.6,0.1-0.8,0.3l-2.3,2.3c-0.2,0.2-0.3,0.5-0.3,0.8s0.1,0.6,0.3,0.8l2.3,2.3c0.4,0.4,1.2,0.4,1.6,0l2.3-2.3
			c0.2-0.2,0.3-0.5,0.3-0.8s-0.1-0.6-0.3-0.8l-2.3-2.3C101.4-163.3,101.1-163.4,100.8-163.4z"/>
	</g>
</g>
<g id="XMLID_328_">
	<path id="XMLID_1421_" class="st11" d="M552.5,110.8h-7.3l0-1.3c0,0-2.5-1.3-3.8-2.2c-0.9-0.6-1.6-0.7-1.6-2.8v-5.1l12.8,1.6
		L552.5,110.8z"/>
	<g id="XMLID_1394_">
		
			<ellipse id="XMLID_1415_" transform="matrix(0.2289 -0.9735 0.9735 0.2289 345.9755 589.2921)" class="st11" cx="544.9" cy="76.3" rx="14.9" ry="14.9"/>
		<rect id="XMLID_1414_" x="536.8" y="86.8" class="st11" width="16.2" height="11.3"/>
		<polygon id="XMLID_1411_" class="st11" points="554.1,98.8 548.7,103.4 540.7,103.4 535.8,98.8 535.8,91.7 554.1,91.7 		"/>
		<path id="XMLID_1410_" class="st11" d="M554.2,93.8h-18.5c-0.4,0-0.7-0.3-0.7-0.7l0,0c0-0.4,0.3-0.7,0.7-0.7h18.5
			c0.4,0,0.7,0.3,0.7,0.7v0C554.9,93.4,554.6,93.8,554.2,93.8z"/>
		<path id="XMLID_1407_" class="st11" d="M554.2,96h-18.5c-0.4,0-0.7-0.3-0.7-0.7l0,0c0-0.4,0.3-0.7,0.7-0.7h18.5
			c0.4,0,0.7,0.3,0.7,0.7v0C554.9,95.7,554.6,96,554.2,96z"/>
		<path id="XMLID_1402_" class="st11" d="M554.2,98.3h-18.5c-0.4,0-0.7-0.3-0.7-0.7l0,0c0-0.4,0.3-0.7,0.7-0.7h18.5
			c0.4,0,0.7,0.3,0.7,0.7v0C554.9,98,554.6,98.3,554.2,98.3z"/>
		<path id="XMLID_1401_" class="st11" d="M546.1,105.8h-3c-1.5,0-2.7-1.2-2.7-2.7l0,0h8.3l0,0C548.8,104.6,547.6,105.8,546.1,105.8z
			"/>
		<path id="XMLID_356_" class="st12" d="M554.9,97.6L554.9,97.6c0-0.4-0.3-0.7-0.7-0.7h-0.1V96h0.1c0.4,0,0.7-0.3,0.7-0.7v0
			c0-0.4-0.3-0.7-0.7-0.7h-0.1v-0.9h0.1c0.4,0,0.7-0.3,0.7-0.7v0c0-0.4-0.3-0.7-0.7-0.7h-0.1v-0.6h-1.1v-3c4.1-2.7,6.7-7.2,6.7-12.4
			c0,0,0-0.1,0-0.1l-7.5-7.5l-14.5,14.5l16,16l0.3-0.3v-0.5h0.1C554.6,98.3,554.9,98,554.9,97.6z"/>
	</g>
	<path id="XMLID_1412_" class="st11" d="M556.2,111.5c0,2.3-0.8,1.7-2.7,1.7l0,0c-3.6,0.1-4.3-3.7-4.3-6v-1.4c0-3.1,3.1-7,5-7l0,0
		c1.9,0,2,1.9,2,4.2L556.2,111.5z"/>
	<rect id="XMLID_1409_" x="542.3" y="110.7" class="st11" width="15.7" height="129.7"/>
	<rect id="XMLID_1408_" x="542.3" y="110.7" class="st11" width="5.2" height="129.7"/>
	<path id="XMLID_1413_" class="st11" d="M556.1,110.5l0.3-13l-2.3-3.7H550c-1,0-1.9,0.8-1.9,1.9l0,0c0,1,0.8,1.8,1.8,1.9
		c1,0,2.1,0.1,2.1,0.1l0.4,1.8L556.1,110.5z"/>
	<line id="XMLID_351_" class="st13" x1="545.2" y1="56" x2="545.2" y2="59.8"/>
	<line id="XMLID_349_" class="st13" x1="551.5" y1="59.1" x2="550.9" y2="60.8"/>
	<line id="XMLID_342_" class="st13" x1="558.2" y1="60.9" x2="555.8" y2="63.8"/>
	<line id="XMLID_341_" class="st13" x1="561" y1="67.3" x2="559.4" y2="68.3"/>
	<line id="XMLID_340_" class="st13" x1="564.9" y1="73.1" x2="561.3" y2="73.7"/>
	<line id="XMLID_339_" class="st13" x1="563.1" y1="79.8" x2="561.2" y2="79.5"/>
	<line id="XMLID_338_" class="st13" x1="562.3" y1="86.7" x2="559.1" y2="84.8"/>
	<line id="XMLID_337_" class="st13" x1="556.4" y1="90.6" x2="555.3" y2="89.1"/>
	<line id="XMLID_336_" class="st13" x1="532.8" y1="90.1" x2="534" y2="88.7"/>
	<line id="XMLID_335_" class="st13" x1="527.2" y1="86" x2="530.4" y2="84.2"/>
	<line id="XMLID_334_" class="st13" x1="526.8" y1="79" x2="528.6" y2="78.7"/>
	<line id="XMLID_332_" class="st13" x1="525.1" y1="72.3" x2="528.8" y2="73"/>
	<line id="XMLID_331_" class="st13" x1="529.3" y1="66.7" x2="530.9" y2="67.6"/>
	<line id="XMLID_329_" class="st13" x1="532.3" y1="60.4" x2="534.7" y2="63.3"/>
	<line id="XMLID_317_" class="st13" x1="539.1" y1="58.8" x2="539.7" y2="60.6"/>
	<path id="XMLID_316_" class="st11" d="M541,103.4h-3.5c-0.9,0-1.6-0.7-1.6-1.6l0,0c0-0.9,0.7-1.6,1.6-1.6h3.5
		c0.9,0,1.6,0.7,1.6,1.6l0,0C542.6,102.6,541.9,103.4,541,103.4z"/>
	<path id="XMLID_291_" class="st11" d="M543.6,99.8h-7.4c-0.9,0-1.6-0.7-1.6-1.6l0,0c0-0.9,0.7-1.6,1.6-1.6h7.4
		c0.9,0,1.6,0.7,1.6,1.6l0,0C545.2,99.1,544.5,99.8,543.6,99.8z"/>
	<path id="XMLID_290_" class="st11" d="M544.7,96.3h-9.3c-0.9,0-1.6-0.7-1.6-1.6l0,0c0-0.9,0.7-1.6,1.6-1.6h9.3
		c0.9,0,1.6,0.7,1.6,1.6l0,0C546.3,95.6,545.6,96.3,544.7,96.3z"/>
	<path id="XMLID_318_" class="st11" d="M543.3,92.8h-7.5c-0.9,0-1.6-0.7-1.6-1.6l0,0c0-0.9,0.7-1.6,1.6-1.6h7.5
		c0.9,0,1.6,0.7,1.6,1.6l0,0C545,92,544.2,92.8,543.3,92.8z"/>
	<g id="XMLID_280_">
		<circle id="XMLID_327_" class="st11" cx="545.2" cy="76.1" r="10.3"/>
		<path id="XMLID_289_" class="st11" d="M554.4,76.1c0,5.1-4.1,9.1-9.1,9.1s-9.1-4.1-9.1-9.1s4.1-9.1,9.1-9.1S554.4,71,554.4,76.1z"
			/>
		<path id="XMLID_288_" class="st11" d="M553.3,76.1c0,4.5-3.6,8.1-8.1,8.1c-4.5,0-8.1-3.6-8.1-8.1s3.6-8.1,8.1-8.1
			C549.7,68,553.3,71.6,553.3,76.1z"/>
		<g id="XMLID_320_">
			<g id="XMLID_284_">
				<path id="XMLID_287_" class="st11" d="M546.3,80.2h-3c-0.7,0-1.2-0.6-1.2-1.2v-0.6h1.8v0.1h2.5c0.5,0,0.9-0.4,0.9-0.9
					c0-0.3-0.3-0.6-0.6-0.6h-2.2c-1.3,0-2.3-1-2.3-2.3v-0.3c0-1.5,1.2-2.6,2.6-2.6h3c0.7,0,1.2,0.6,1.2,1.2v0.7h-1.8v-0.2h-2.5
					c-0.5,0-0.9,0.4-0.9,0.9v0.3c0,0.3,0.3,0.6,0.6,0.6h2.2c1.3,0,2.3,1,2.3,2.3C548.9,79,547.7,80.2,546.3,80.2z"/>
			</g>
			<g id="XMLID_321_">
				<rect id="XMLID_283_" x="544.6" y="70.8" class="st11" width="1.8" height="10.5"/>
			</g>
		</g>
	</g>
</g>
<g id="XMLID_91_">
	<path id="XMLID_149_" class="st11" d="M168.4,188H161V79.9c0-2,1.7-3.7,3.7-3.7l0,0c2,0,3.7,1.7,3.7,3.7V188z"/>
	<path id="XMLID_148_" class="st11" d="M164.7,76.2c-2,0-3.7,1.7-3.7,3.7V188h3.8L164.7,76.2C164.8,76.2,164.8,76.2,164.7,76.2z"/>
	<g id="XMLID_143_">
		<rect id="XMLID_144_" x="138.9" y="90" class="st11" width="51.7" height="5.6"/>
	</g>
	<path id="XMLID_139_" class="st11" d="M172.5,92.3c0,4.3-3.5,7.8-7.8,7.8s-7.8-3.5-7.8-7.8s3.5-7.8,7.8-7.8S172.5,88,172.5,92.3z"
		/>
	<path id="XMLID_135_" class="st11" d="M169,92.3c0,2.3-1.9,4.2-4.2,4.2s-4.2-1.9-4.2-4.2c0-2.3,1.9-4.2,4.2-4.2S169,89.9,169,92.3z
		"/>
	<path id="XMLID_134_" class="st11" d="M161.6,93.2c0-2.3,1.9-4.2,4.2-4.2c0.9,0,1.7,0.3,2.4,0.8c-0.8-1.1-2-1.7-3.4-1.7
		c-2.3,0-4.2,1.9-4.2,4.2c0,1.4,0.7,2.6,1.7,3.4C161.9,94.9,161.6,94.1,161.6,93.2z"/>
	<g id="XMLID_132_">
		
			<rect id="XMLID_133_" x="189.8" y="89.4" transform="matrix(0.9414 -0.3373 0.3373 0.9414 -23.9422 70.5648)" class="st11" width="2.5" height="29.6"/>
	</g>
	<g id="XMLID_130_">
		
			<rect id="XMLID_131_" x="168.5" y="102.9" transform="matrix(0.3619 -0.9322 0.9322 0.3619 19.9067 237.4412)" class="st11" width="29.9" height="2.5"/>
	</g>
	<path id="XMLID_129_" class="st11" d="M199.5,117c0,6.8-5.5,12.4-12.4,12.4c-6.8,0-12.4-5.5-12.4-12.4H199.5z"/>
	<path id="XMLID_128_" class="st11" d="M177.2,117h-2.5c0,6.8,5.5,12.4,12.4,12.4c0.4,0,0.8,0,1.2-0.1
		C182.1,128.7,177.2,123.4,177.2,117z"/>
	<g id="XMLID_126_">
		
			<rect id="XMLID_127_" x="123.7" y="102.9" transform="matrix(0.3372 -0.9414 0.9414 0.3372 -6.3009 199.4076)" class="st11" width="29.6" height="2.5"/>
	</g>
	<g id="XMLID_124_">
		
			<rect id="XMLID_125_" x="144.9" y="89.2" transform="matrix(0.9321 -0.3622 0.3622 0.9321 -27.8099 60.0101)" class="st11" width="2.5" height="29.9"/>
	</g>
	<path id="XMLID_123_" class="st11" d="M130.1,117c0,6.8,5.5,12.4,12.4,12.4s12.4-5.5,12.4-12.4H130.1z"/>
	<path id="XMLID_122_" class="st11" d="M152.3,117c0,6.4-4.9,11.7-11.1,12.3c0.4,0,0.8,0.1,1.2,0.1c6.8,0,12.4-5.5,12.4-12.4H152.3z
		"/>
	<path id="XMLID_121_" class="st11" d="M190.4,92.7c0,1.8-1.5,3.3-3.3,3.3c-1.8,0-3.3-1.5-3.3-3.3c0-1.8,1.5-3.3,3.3-3.3
		C188.9,89.5,190.4,90.9,190.4,92.7z"/>
	<g id="XMLID_117_">
		<path id="XMLID_118_" class="st11" d="M187.1,97.2c-2.5,0-4.5-2-4.5-4.5c0-2.5,2-4.5,4.5-4.5c2.5,0,4.5,2,4.5,4.5
			C191.6,95.2,189.6,97.2,187.1,97.2z M187.1,90.7c-1.1,0-2,0.9-2,2c0,1.1,0.9,2,2,2c1.1,0,2-0.9,2-2
			C189.2,91.6,188.3,90.7,187.1,90.7z"/>
	</g>
	<path id="XMLID_116_" class="st11" d="M145.7,92.7c0,1.8-1.5,3.3-3.3,3.3c-1.8,0-3.3-1.5-3.3-3.3c0-1.8,1.5-3.3,3.3-3.3
		C144.2,89.5,145.7,90.9,145.7,92.7z"/>
	<g id="XMLID_92_">
		<path id="XMLID_93_" class="st11" d="M142.4,97.2c-2.5,0-4.5-2-4.5-4.5c0-2.5,2-4.5,4.5-4.5s4.5,2,4.5,4.5
			C146.9,95.2,144.9,97.2,142.4,97.2z M142.4,90.7c-1.1,0-2,0.9-2,2c0,1.1,0.9,2,2,2s2-0.9,2-2C144.5,91.6,143.6,90.7,142.4,90.7z"
			/>
	</g>
</g>
<polygon class="st12" points="161,188 168.4,188 168.4,152.6 161,157.2 161,188 "/>
<g id="XMLID_84_">
	<rect id="XMLID_175_" x="155.2" y="168.8" class="st11" width="83.5" height="67.2"/>
	<polygon id="XMLID_174_" class="st11" points="238.8,200.5 155.2,229 155.2,170 238.8,170 	"/>
	<g id="XMLID_176_">
		<rect id="XMLID_181_" x="192.2" y="178.8" class="st11" width="10.2" height="47.5"/>
		<rect id="XMLID_90_" x="192.2" y="178.8" class="st11" width="3.6" height="47.5"/>
		<rect id="XMLID_179_" x="198.8" y="178.8" class="st11" width="3.6" height="47.5"/>
		<rect id="XMLID_89_" x="190.6" y="175.3" class="st11" width="13.5" height="4"/>
		<rect id="XMLID_177_" x="190.6" y="225.1" class="st11" width="13.5" height="4"/>
	</g>
	<rect id="XMLID_173_" x="150.2" y="228.9" class="st11" width="95.4" height="3.3"/>
	<path id="XMLID_172_" class="st11" d="M145.1,171.6v2.9c0,0.4,0.3,0.8,0.8,0.8h102.8c0.4,0,0.8-0.3,0.8-0.8v-2.9
		c0-0.3-0.1-0.5-0.4-0.7l-50.4-31.1c-0.9-0.5-1.9-0.5-2.8,0l-50.4,31.1C145.3,171.1,145.1,171.3,145.1,171.6z"/>
	<path id="XMLID_171_" class="st11" d="M161,167.1v2.9h72.6v-2.9l-34.9-22.1c-0.9-0.5-1.9-0.5-2.8,0L161,167.1z"/>
	<circle id="XMLID_88_" class="st11" cx="197.3" cy="158.9" r="6.7"/>
	<path id="XMLID_87_" class="st11" d="M191.8,160c0-3.7,3-6.7,6.7-6.7c1.6,0,3,0.6,4.1,1.4c-1.2-1.6-3.1-2.6-5.2-2.6
		c-3.7,0-6.7,3-6.7,6.7c0,2.1,1,4,2.6,5.2C192.3,163,191.8,161.5,191.8,160z"/>
	<rect id="XMLID_416_" x="148.4" y="230.9" class="st11" width="99.1" height="5"/>
	<rect id="XMLID_409_" x="146.3" y="233.7" class="st11" width="101.9" height="6.7"/>
	<g id="XMLID_166_">
		<rect id="XMLID_408_" x="154" y="178.8" class="st11" width="10.2" height="47.5"/>
		<rect id="XMLID_170_" x="154" y="178.8" class="st11" width="3.6" height="47.5"/>
		<rect id="XMLID_169_" x="160.7" y="178.8" class="st11" width="3.6" height="47.5"/>
		<rect id="XMLID_168_" x="152.4" y="175.3" class="st11" width="13.5" height="4"/>
		<rect id="XMLID_167_" x="152.4" y="225.1" class="st11" width="13.5" height="4"/>
	</g>
	<g id="XMLID_85_">
		<rect id="XMLID_187_" x="230.3" y="178.8" class="st11" width="10.2" height="47.5"/>
		<rect id="XMLID_86_" x="230.3" y="178.8" class="st11" width="3.6" height="47.5"/>
		<rect id="XMLID_185_" x="237" y="178.8" class="st11" width="3.6" height="47.5"/>
		<rect id="XMLID_184_" x="228.7" y="175.3" class="st11" width="13.5" height="4"/>
		<rect id="XMLID_183_" x="228.7" y="225.1" class="st11" width="13.5" height="4"/>
	</g>
</g>
<g id="XMLID_1605_">
	<g id="XMLID_1611_">
		<g id="XMLID_1612_">
			<g id="XMLID_1613_">
				<path class="st11" d="M508,91.1l23.7,23.1v126.6H419.3V100.6c0-5.3,4.3-9.5,9.5-9.5H508z"/>
			</g>
		</g>
	</g>
	<g id="XMLID_1617_" class="st14">
		<g id="XMLID_1618_">
			<g id="XMLID_1619_">
				<polygon class="st11" points="509.4,111.8 531.7,137.3 531.7,114.2 				"/>
			</g>
		</g>
	</g>
	<g id="XMLID_1614_">
		<g id="XMLID_1615_">
			<g id="XMLID_1616_">
				<path class="st11" d="M508,91.1l23.7,23.1h-17.4c-3.5,0-6.3-2.8-6.3-6.3V91.1z"/>
			</g>
		</g>
	</g>
	<g id="XMLID_961_">
		
			<rect x="433.1" y="127.5" transform="matrix(-1 -1.224647e-16 1.224647e-16 -1 950.8947 357.7383)" class="st11" width="84.8" height="102.8"/>
	</g>
	<g id="XMLID_964_">
		
			<rect x="433.1" y="127.5" transform="matrix(-1 -1.224647e-16 1.224647e-16 -1 887.1518 357.7383)" class="st11" width="21" height="102.8"/>
	</g>
	<g id="XMLID_963_">
		
			<rect x="433.1" y="127.5" transform="matrix(-1 -1.224647e-16 1.224647e-16 -1 950.8947 273.7681)" class="st11" width="84.8" height="18.8"/>
	</g>
	<g id="XMLID_966_">
		<path class="st11" d="M514.7,231.8h-78.5c-2.6,0-4.6-2.1-4.6-4.7v-96.5c0-2.6,2.1-4.7,4.6-4.7h78.5c2.6,0,4.7,2.1,4.7,4.7v96.5
			C519.3,229.7,517.2,231.8,514.7,231.8z M436.2,128.9c-0.9,0-1.7,0.8-1.7,1.7v96.5c0,0.9,0.8,1.7,1.7,1.7h78.5
			c0.9,0,1.7-0.8,1.7-1.7v-96.5c0-0.9-0.8-1.7-1.7-1.7H436.2z"/>
	</g>
	<g id="XMLID_970_">
		<rect x="433.1" y="144.8" class="st11" width="84.8" height="3"/>
	</g>
	<g id="XMLID_967_">
		<rect x="433.1" y="155.3" class="st11" width="84.8" height="3"/>
	</g>
	<g id="XMLID_999_">
		<rect x="452.6" y="146.3" class="st11" width="3" height="84"/>
	</g>
	<g id="XMLID_981_">
		<rect x="433.1" y="165.8" class="st11" width="84.8" height="3"/>
	</g>
	<g id="XMLID_982_">
		<rect x="433.1" y="176.3" class="st11" width="84.8" height="3"/>
	</g>
	<g id="XMLID_984_">
		<rect x="433.2" y="186.8" class="st11" width="84.8" height="3"/>
	</g>
	<g id="XMLID_985_">
		<rect x="433.2" y="197.3" class="st11" width="84.8" height="3"/>
	</g>
	<g id="XMLID_986_">
		<rect x="433.2" y="207.8" class="st11" width="84.8" height="3"/>
	</g>
	<g id="XMLID_995_">
		<rect x="433.3" y="218.3" class="st11" width="84.8" height="3"/>
	</g>
	<g id="XMLID_997_">
		<path class="st11" d="M471.7,122.5h-35.4c-1.8,0-3.2-1.4-3.2-3.2l0,0c0-1.8,1.4-3.2,3.2-3.2h35.4c1.8,0,3.2,1.4,3.2,3.2l0,0
			C474.9,121.1,473.5,122.5,471.7,122.5z"/>
	</g>
</g>
<path id="XMLID_491_" class="st11" d="M299.4,84.6c-0.4-5-4.5-9-9.7-9s-15.2,4-15.5,9h0v0.2c0,0.2,0,0.3,0,0.5c0,0.2,0,0.3,0,0.5
	v82.1h35.1c-5.9,0-9.8-4.7-9.8-9.9L299.4,84.6L299.4,84.6z"/>
<path class="st12" d="M453.9,230.5v-6.3h-11.6V101.4c0-1.1-0.9-2.1-2.1-2.1h-20.8c-0.1,0.4-0.1,0.9-0.1,1.3v139.8h10.7
	C438.9,240.4,447.5,236.9,453.9,230.5z"/>
<path class="st12" d="M247.5,233.7v-2.7h-1.9v-2h-3.4v-3.8h-1.7v-45.8h1.7v-4h-3.5v0h9.9c0.4,0,0.8-0.3,0.8-0.8v-2.9
	c0-0.3-0.1-0.5-0.4-0.7l-15.1-9.3v62.6h-11.6v6.3c6.4,6.3,15,9.9,23.9,9.9h2v-6.7H247.5z"/>
<g id="XMLID_29_">
	<g id="XMLID_68_">
		<g id="XMLID_347_">
			<path id="XMLID_71_" class="st11" d="M438.1,224.9H238.2V100.5c0-0.7,0.6-1.3,1.3-1.3h197.4c0.7,0,1.3,0.6,1.3,1.3V224.9z"/>
			<rect id="XMLID_70_" x="248.4" y="110.6" class="st11" width="179.4" height="104.2"/>
			<path id="XMLID_362_" class="st11" d="M449.7,230.5H226.5l0,0c6.4,6.3,15,9.9,23.9,9.9h175.3
				C434.7,240.4,443.3,236.9,449.7,230.5L449.7,230.5z"/>
			<rect id="XMLID_361_" x="226.5" y="224.3" class="st11" width="223.2" height="6.3"/>
			<path id="XMLID_360_" class="st11" d="M351.9,229.1h-27.6c-0.9,0-1.7-0.8-1.7-1.7l0,0c0-0.9,0.8-1.7,1.7-1.7h27.6
				c0.9,0,1.7,0.8,1.7,1.7l0,0C353.6,228.3,352.9,229.1,351.9,229.1z"/>
		</g>
	</g>
	<g id="XMLID_35_">
		<polygon id="XMLID_781_" class="st11" points="247.7,214.8 247.7,184.1 264.6,177.9 264.6,214.8 		"/>
		<polygon id="XMLID_832_" class="st11" points="264.6,214.8 264.6,177.9 281.6,174.8 281.6,214.8 		"/>
		<polygon id="XMLID_846_" class="st11" points="298.5,214.8 298.5,166.9 315.5,162.8 315.5,214.8 		"/>
		<polygon id="XMLID_848_" class="st11" points="332.4,214.8 332.4,147.8 349.4,151.8 349.4,214.8 		"/>
		<polygon id="XMLID_47_" class="st11" points="367.1,214.8 367.1,133.9 384.1,151.8 384.1,214.8 		"/>
		<polygon id="XMLID_46_" class="st11" points="401.9,214.8 401.9,157.4 418.8,151.8 418.8,214.8 		"/>
		<polygon id="XMLID_833_" class="st11" points="281.6,214.8 281.6,174.8 298.5,166.9 298.5,214.8 		"/>
		<polygon id="XMLID_847_" class="st11" points="315.5,214.8 315.5,162.8 332.4,147.9 332.4,214.8 		"/>
		<polygon id="XMLID_850_" class="st11" points="349.3,214.8 349.3,152 367.1,133.9 367.1,214.8 		"/>
		<polygon id="XMLID_45_" class="st11" points="384.1,214.8 384.1,152 401.9,157.5 401.9,214.8 		"/>
		<polygon id="XMLID_43_" class="st11" points="418.8,214.8 418.8,152 427.8,157.5 427.8,214.8 		"/>
	</g>
	<path id="XMLID_34_" class="st12" d="M333.2,99.3c0.1,0.1,0.1,0.3,0.2,0.4c5.4,8.6,13,14.3,21.4,17.5l11,16.1
		c1.1,1.5,3.3,1.5,4.4,0l9.9-14.3c10.6-2.4,20.5-8.8,27.2-19.3c0.1-0.1,0.1-0.3,0.2-0.4H333.2z"/>
	<g id="XMLID_33_">
		<path id="XMLID_854_" class="st11" d="M365.8,128l-11-16.1c-8.3-3.2-15.9-8.9-21.4-17.5c-9.2-14.5-8.9-33.6,0.9-47.7
			C352,21.3,389,21.4,406.5,47c9.6,14,9.9,33,0.8,47.4c-6.7,10.5-16.6,16.9-27.2,19.3l-9.9,14.3C369.2,129.5,366.9,129.5,365.8,128z
			"/>
		<path id="XMLID_871_" class="st11" d="M392.3,49.3c12.2,12.2,12.2,32,0,44.2c-12.2,12.2-32,12.2-44.2,0s-12.2-32,0-44.2
			C360.3,37.1,380.1,37.1,392.3,49.3z"/>
	</g>
	<g id="XMLID_346_">
		<g id="XMLID_32_">
			<path id="XMLID_363_" class="st11" d="M362.1,88.9c-0.4,0-0.7-0.1-1-0.3c-1-0.6-1.4-1.8-0.8-2.8L377.7,55c0.6-1,1.8-1.4,2.8-0.8
				c1,0.6,1.4,1.8,0.8,2.8l-17.5,30.8C363.5,88.5,362.8,88.9,362.1,88.9z"/>
		</g>
		<g id="XMLID_343_">
			<path id="XMLID_354_" class="st11" d="M358.7,75.1c-4.1,0-7.5-4.1-7.5-9.1c0-5,3.4-9.1,7.5-9.1c4.1,0,7.5,4.1,7.5,9.1
				C366.2,71,362.8,75.1,358.7,75.1z M358.7,60.9c-1.9,0-3.5,2.3-3.5,5.1c0,2.8,1.6,5.1,3.5,5.1c1.9,0,3.5-2.3,3.5-5.1
				C362.2,63.3,360.6,60.9,358.7,60.9z"/>
		</g>
		<g id="XMLID_345_">
			<path id="XMLID_30_" class="st11" d="M381.6,86.8c-4.1,0-7.5-4.1-7.5-9.1c0-5,3.4-9.1,7.5-9.1c4.1,0,7.5,4.1,7.5,9.1
				C389.1,82.7,385.8,86.8,381.6,86.8z M381.6,72.6c-1.9,0-3.5,2.3-3.5,5.1c0,2.8,1.6,5.1,3.5,5.1c1.9,0,3.5-2.3,3.5-5.1
				C385.2,75,383.5,72.6,381.6,72.6z"/>
		</g>
	</g>
</g>
<path class="st12" d="M201.6,141.6V209h39v-29.7h1.7v-4h-3.5v0h9.9c0.4,0,0.8-0.3,0.8-0.8v-2.9c0-0.3-0.1-0.5-0.4-0.7L201.6,141.6z"
	/>
<g>
	<g>
		<path id="XMLID_479_" class="st12" d="M283.4,85.4v123.2h-9.2V85.8c0-0.2,0-0.3,0-0.5c0-0.2,0-0.3,0-0.5v-0.2h0
			c0.4-5,10.4-9,15.5-9c0.6,0,1.2,0.1,1.7,0.2C287.5,76.5,283.4,79.8,283.4,85.4z"/>
		<path id="XMLID_490_" class="st11" d="M289.8,75.6h-74.3c-5.4,0-9.8,4.4-9.8,9.8V209H280V85.4C280,79,285.4,75.6,289.8,75.6z"/>
		<g id="XMLID_480_">
			<path id="XMLID_481_" class="st11" d="M280,85.4v1h-74.3v-1c0-5.4,4.4-9.8,9.8-9.8h74.3C285.4,75.6,280,79,280,85.4z"/>
			<path id="XMLID_28_" class="st11" d="M279.9,98.3c0-0.4,0.1-0.8,0.1-1.2V209h-0.1V98.3z"/>
		</g>
		<path id="XMLID_489_" class="st11" d="M272.3,95.7H246c-1.2,0-2.1-1-2.1-2.1v0c0-1.2,1-2.1,2.1-2.1h26.3c1.2,0,2.1,1,2.1,2.1l0,0
			C274.4,94.8,273.4,95.7,272.3,95.7z"/>
		<path id="XMLID_67_" class="st11" d="M272.3,107H246c-1.2,0-2.1-1-2.1-2.1v0c0-1.2,1-2.1,2.1-2.1h26.3c1.2,0,2.1,1,2.1,2.1l0,0
			C274.4,106,273.4,107,272.3,107z"/>
		<path id="XMLID_75_" class="st11" d="M272.3,118.2H245c-1.2,0-2.1-1-2.1-2.1v0c0-1.2,1-2.1,2.1-2.1h27.2c1.2,0,2.1,1,2.1,2.1l0,0
			C274.4,117.3,273.4,118.2,272.3,118.2z"/>
		<path id="XMLID_76_" class="st11" d="M272.3,129.5h-56.8c-1.2,0-2.1-1-2.1-2.1v0c0-1.2,1-2.1,2.1-2.1h56.8c1.2,0,2.1,1,2.1,2.1
			l0,0C274.4,128.5,273.4,129.5,272.3,129.5z"/>
		<path id="XMLID_27_" class="st11" d="M272.3,140.8h-56.8c-1.2,0-2.1-1-2.1-2.1v0c0-1.2,1-2.1,2.1-2.1h56.8c1.2,0,2.1,1,2.1,2.1
			l0,0C274.4,139.8,273.4,140.8,272.3,140.8z"/>
		<path id="XMLID_26_" class="st11" d="M272.3,152h-56.8c-1.2,0-2.1-1-2.1-2.1v0c0-1.2,1-2.1,2.1-2.1h56.8c1.2,0,2.1,1,2.1,2.1l0,0
			C274.4,151.1,273.4,152,272.3,152z"/>
		<path id="XMLID_80_" class="st11" d="M272.3,163.3h-56.8c-1.2,0-2.1-1-2.1-2.1v0c0-1.2,1-2.1,2.1-2.1h56.8c1.2,0,2.1,1,2.1,2.1
			l0,0C274.4,162.3,273.4,163.3,272.3,163.3z"/>
		<path id="XMLID_81_" class="st11" d="M272.3,174.5h-56.8c-1.2,0-2.1-1-2.1-2.1v0c0-1.2,1-2.1,2.1-2.1h56.8c1.2,0,2.1,1,2.1,2.1
			l0,0C274.4,173.6,273.4,174.5,272.3,174.5z"/>
		<path id="XMLID_82_" class="st11" d="M272.3,185.8h-56.8c-1.2,0-2.1-1-2.1-2.1v0c0-1.2,1-2.1,2.1-2.1h56.8c1.2,0,2.1,1,2.1,2.1
			l0,0C274.4,184.8,273.4,185.8,272.3,185.8z"/>
		<path id="XMLID_83_" class="st11" d="M272.3,197.1h-56.8c-1.2,0-2.1-1-2.1-2.1v0c0-1.2,1-2.1,2.1-2.1h56.8c1.2,0,2.1,1,2.1,2.1
			l0,0C274.4,196.1,273.4,197.1,272.3,197.1z"/>
	</g>
	<g id="XMLID_959_">
		<path id="XMLID_1021_" class="st11" d="M228.3,92.3v13.5l0,0l9.5,9.6c2.4-2.4,4-5.8,4-9.5c0,0,0,0,0,0
			C241.8,98.4,235.8,92.3,228.3,92.3z"/>
		<path id="XMLID_1020_" class="st11" d="M216.8,95.6c-2.4,2.4-4,5.8-4,9.5l13.5,0v0V91.7C222.6,91.7,219.3,93.2,216.8,95.6z"/>
		<path id="XMLID_1019_" class="st11" d="M227,107.2L227,107.2l-13.5,0c0,0,0,0,0,0c0,7.5,6,13.5,13.5,13.5c3.7,0,7.1-1.5,9.5-3.9
			L227,107.2z"/>
	</g>
</g>
<g id="XMLID_1129_">
	<path id="XMLID_1148_" class="st11" d="M619.1,240.4h-50.5c-0.6,0-1.1-0.5-1.1-1.1v-69.9c0-0.6,0.5-1.1,1.1-1.1h50.5
		c0.6,0,1.1,0.5,1.1,1.1v69.9C620.2,239.9,619.7,240.4,619.1,240.4z"/>
	<rect id="XMLID_1147_" x="571.3" y="174.9" class="st11" width="45.2" height="12.3"/>
	<path id="XMLID_1146_" class="st11" d="M579.7,200.4h-7.8c-0.3,0-0.6-0.3-0.6-0.6v-7.8c0-0.3,0.3-0.6,0.6-0.6h7.8
		c0.3,0,0.6,0.3,0.6,0.6v7.8C580.2,200.2,580,200.4,579.7,200.4z"/>
	<path id="XMLID_1145_" class="st11" d="M591.7,200.4h-7.8c-0.3,0-0.6-0.3-0.6-0.6v-7.8c0-0.3,0.3-0.6,0.6-0.6h7.8
		c0.3,0,0.6,0.3,0.6,0.6v7.8C592.3,200.2,592,200.4,591.7,200.4z"/>
	<path id="XMLID_1144_" class="st11" d="M603.7,200.4h-7.8c-0.3,0-0.6-0.3-0.6-0.6v-7.8c0-0.3,0.3-0.6,0.6-0.6h7.8
		c0.3,0,0.6,0.3,0.6,0.6v7.8C604.3,200.2,604,200.4,603.7,200.4z"/>
	<path id="XMLID_1143_" class="st11" d="M615.7,200.4H608c-0.3,0-0.6-0.3-0.6-0.6v-7.8c0-0.3,0.3-0.6,0.6-0.6h7.8
		c0.3,0,0.6,0.3,0.6,0.6v7.8C616.3,200.2,616.1,200.4,615.7,200.4z"/>
	<path id="XMLID_1142_" class="st11" d="M579.7,212.3h-7.8c-0.3,0-0.6-0.3-0.6-0.6v-7.8c0-0.3,0.3-0.6,0.6-0.6h7.8
		c0.3,0,0.6,0.3,0.6,0.6v7.8C580.2,212,580,212.3,579.7,212.3z"/>
	<path id="XMLID_1141_" class="st11" d="M591.7,212.3h-7.8c-0.3,0-0.6-0.3-0.6-0.6v-7.8c0-0.3,0.3-0.6,0.6-0.6h7.8
		c0.3,0,0.6,0.3,0.6,0.6v7.8C592.3,212,592,212.3,591.7,212.3z"/>
	<path id="XMLID_1140_" class="st11" d="M603.7,212.3h-7.8c-0.3,0-0.6-0.3-0.6-0.6v-7.8c0-0.3,0.3-0.6,0.6-0.6h7.8
		c0.3,0,0.6,0.3,0.6,0.6v7.8C604.3,212,604,212.3,603.7,212.3z"/>
	<path id="XMLID_1139_" class="st11" d="M615.7,212.3H608c-0.3,0-0.6-0.3-0.6-0.6v-7.8c0-0.3,0.3-0.6,0.6-0.6h7.8
		c0.3,0,0.6,0.3,0.6,0.6v7.8C616.3,212,616.1,212.3,615.7,212.3z"/>
	<path id="XMLID_1138_" class="st11" d="M579.9,235.9h-8.3c-0.2,0-0.3-0.1-0.3-0.3v-20.1c0-0.2,0.1-0.3,0.3-0.3h8.3
		c0.2,0,0.3,0.1,0.3,0.3v20.1C580.2,235.7,580.1,235.9,579.9,235.9z"/>
	<path id="XMLID_1137_" class="st11" d="M591.7,224.1h-7.8c-0.3,0-0.6-0.3-0.6-0.6v-7.8c0-0.3,0.3-0.6,0.6-0.6h7.8
		c0.3,0,0.6,0.3,0.6,0.6v7.8C592.3,223.8,592,224.1,591.7,224.1z"/>
	<path id="XMLID_1136_" class="st11" d="M603.7,224.1h-7.8c-0.3,0-0.6-0.3-0.6-0.6v-7.8c0-0.3,0.3-0.6,0.6-0.6h7.8
		c0.3,0,0.6,0.3,0.6,0.6v7.8C604.3,223.8,604,224.1,603.7,224.1z"/>
	<path id="XMLID_1135_" class="st11" d="M615.7,224.1H608c-0.3,0-0.6-0.3-0.6-0.6v-7.8c0-0.3,0.3-0.6,0.6-0.6h7.8
		c0.3,0,0.6,0.3,0.6,0.6v7.8C616.3,223.8,616.1,224.1,615.7,224.1z"/>
	<path id="XMLID_1134_" class="st11" d="M591.7,235.9h-7.8c-0.3,0-0.6-0.3-0.6-0.6v-7.8c0-0.3,0.3-0.6,0.6-0.6h7.8
		c0.3,0,0.6,0.3,0.6,0.6v7.8C592.3,235.6,592,235.9,591.7,235.9z"/>
	<path id="XMLID_1133_" class="st11" d="M603.7,235.9h-7.8c-0.3,0-0.6-0.3-0.6-0.6v-7.8c0-0.3,0.3-0.6,0.6-0.6h7.8
		c0.3,0,0.6,0.3,0.6,0.6v7.8C604.3,235.6,604,235.9,603.7,235.9z"/>
	<path id="XMLID_1132_" class="st11" d="M615.7,235.9H608c-0.3,0-0.6-0.3-0.6-0.6v-7.8c0-0.3,0.3-0.6,0.6-0.6h7.8
		c0.3,0,0.6,0.3,0.6,0.6v7.8C616.3,235.6,616.1,235.9,615.7,235.9z"/>
	<polygon id="XMLID_1131_" class="st11" points="581.3,174.9 571.5,174.9 583.8,187.3 593.6,187.3 	"/>
	<polygon id="XMLID_1130_" class="st11" points="603,187.3 590.6,174.9 585.1,174.9 597.5,187.3 	"/>
</g>
<g id="XMLID_1573_">
	
		<rect id="XMLID_1572_" x="625.4" y="232.2" transform="matrix(-1 -1.224647e-16 1.224647e-16 -1 1254.6587 472.5605)" class="st11" width="3.9" height="8.3"/>
	<g id="XMLID_1567_">
		<rect id="XMLID_1570_" x="630.4" y="212.6" class="st11" width="3.6" height="11.4"/>
	</g>
	
		<rect id="XMLID_1563_" x="623.4" y="138.6" transform="matrix(-1 -1.224647e-16 1.224647e-16 -1 1254.6582 373.1568)" class="st11" width="7.9" height="96"/>
	
		<rect id="XMLID_1564_" x="628" y="138.6" transform="matrix(-1 -1.224647e-16 1.224647e-16 -1 1259.2462 373.1568)" class="st11" width="3.3" height="96"/>
	<path id="XMLID_1566_" class="st11" d="M628.1,130c-0.4-1.2-1.1-1.2-1.5,0l-3.2,8.6h7.9L628.1,130z"/>
	
		<rect id="XMLID_1565_" x="622.4" y="206.3" transform="matrix(-1 -1.224647e-16 1.224647e-16 -1 1254.5627 434.1902)" class="st11" width="9.9" height="21.6"/>
	
		<rect id="XMLID_1571_" x="628" y="206.3" transform="matrix(-1 -1.224647e-16 1.224647e-16 -1 1260.1968 434.1902)" class="st11" width="4.2" height="21.6"/>
	<g id="XMLID_1568_">
		<rect id="XMLID_1569_" x="634" y="188.8" class="st11" width="2.4" height="41.1"/>
	</g>
</g>
<g class="st7">
	<path class="st11" d="M492.8,240.4H517c0.2,0,0.4,0,0.5-0.1c0,0,0.1,0,0.1,0c0.1,0,0.3-0.1,0.4-0.2c0,0,0,0,0,0
		c0.1-0.1,0.3-0.2,0.4-0.3c0,0,0,0,0,0c0.1-0.1,0.2-0.2,0.3-0.4h0c0.3-0.5,0.5-1.1,0.4-1.7l-3.3-16.3c-0.2-0.9-0.9-1.5-1.8-1.5
		h-14.6h-3.7c-0.2,0-0.4,0-0.6,0.1c-0.2,0.1-0.3,0.2-0.5,0.3c0,0-0.1,0.1-0.1,0.1c-0.1,0.1-0.2,0.2-0.3,0.3c0,0-0.1,0.1-0.1,0.1
		c-0.1,0.2-0.2,0.3-0.2,0.5l-1.6,7.7l-0.5,2.5l-1.2,6c0,0.2,0,0.3,0,0.5c0,0,0,0.1,0,0.1C490.8,239.5,491.7,240.4,492.8,240.4z"/>
	<path class="st11" d="M506,218c0,0.5,0.2,0.9,0.5,1.3c0.1,0.1,0.2,0.2,0.3,0.3c0.4,0.3,0.8,0.5,1.3,0.5h0h23.5v-16.4l-0.5-2.5
		c-0.1-0.7-0.7-1.2-1.3-1.4h1.8v-20.3h-1.9l0,0h-3.7c-0.2,0-0.4,0-0.6,0.1c-0.2,0.1-0.3,0.2-0.5,0.3c0,0-0.1,0.1-0.1,0.1
		c-0.1,0.1-0.2,0.2-0.3,0.3c0,0-0.1,0.1-0.1,0.1c-0.1,0.2-0.2,0.3-0.2,0.5l-1.6,7.7l-1.1,5.6l-0.6,3c0,0.2,0,0.3,0,0.5
		c0,0.2,0,0.3,0.1,0.5c0.2,0.7,0.8,1.3,1.5,1.5h-7.8l0,0h-3.7c-0.2,0-0.4,0-0.6,0.1c-0.2,0.1-0.3,0.2-0.5,0.3c0,0-0.1,0.1-0.1,0.1
		c-0.1,0.1-0.2,0.2-0.3,0.3c0,0-0.1,0.1-0.1,0.1c-0.1,0.2-0.2,0.3-0.2,0.5l-3.3,16.3C506,217.6,506,217.8,506,218z"/>
	<path class="st11" d="M531.7,220.1h-1.5h-3.7c-0.2,0-0.4,0-0.6,0.1c-0.2,0.1-0.3,0.2-0.5,0.3c0,0-0.1,0.1-0.1,0.1
		c-0.1,0.1-0.2,0.2-0.3,0.3c0,0-0.1,0.1-0.1,0.1c-0.1,0.2-0.2,0.3-0.2,0.5l-3.3,16.3c0,0.2,0,0.3,0,0.5c0,0,0,0.1,0,0.1
		c0,0.2,0.1,0.4,0.2,0.6c0.1,0.1,0.1,0.3,0.2,0.4c0,0,0.1,0.1,0.1,0.1c0,0,0,0,0,0c0.4,0.5,1,0.8,1.7,0.8h8.2V220.1z"/>
</g>
<g id="XMLID_1428_">
	<g id="XMLID_1426_">
		<g id="XMLID_1474_">
			<path id="XMLID_1476_" class="st11" d="M520.3,240.4h-24.2c-1.4,0-2.4-1.3-2.1-2.6l3.3-16.3c0.2-0.9,0.9-1.5,1.8-1.5h18.3
				c0.9,0,1.6,0.6,1.8,1.5l3.3,16.3C522.7,239.2,521.7,240.4,520.3,240.4z"/>
		</g>
		<path id="XMLID_827_" class="st11" d="M522.1,239.5l-19.3-19.4h-3.7c-0.2,0-0.4,0-0.6,0.1c-0.6,0.2-1,0.7-1.2,1.4l-1.6,7.7
			l-1.7,8.6c-0.3,1.3,0.8,2.6,2.1,2.6h24.2C521.1,240.4,521.7,240,522.1,239.5z"/>
	</g>
	<g id="XMLID_821_">
		<g id="XMLID_826_">
			<path id="XMLID_828_" class="st11" d="M551,240.4h-24.2c-1.4,0-2.4-1.3-2.1-2.6l3.3-16.3c0.2-0.9,0.9-1.5,1.8-1.5h18.3
				c0.9,0,1.6,0.6,1.8,1.5l3.3,16.3C553.4,239.2,552.4,240.4,551,240.4z"/>
		</g>
		<path id="XMLID_822_" class="st11" d="M552.8,239.5l-19.3-19.4h-3.7c-0.2,0-0.4,0-0.6,0.1c-0.6,0.2-1,0.7-1.2,1.4l-1.6,7.7
			l-1.7,8.6c-0.3,1.3,0.8,2.6,2.1,2.6H551C551.8,240.4,552.4,240,552.8,239.5z"/>
	</g>
	<g id="XMLID_794_">
		<g id="XMLID_25_">
			<path id="XMLID_65_" class="st11" d="M550.7,199.8h-24.2c-1.4,0-2.4-1.3-2.1-2.6l3.3-16.3c0.2-0.9,0.9-1.5,1.8-1.5h18.3
				c0.9,0,1.6,0.6,1.8,1.5l3.3,16.3C553.1,198.6,552.1,199.8,550.7,199.8z"/>
		</g>
		<path id="XMLID_795_" class="st11" d="M552.4,198.9l-19.3-19.4h-3.7c-0.2,0-0.4,0-0.6,0.1c-0.6,0.2-1,0.7-1.2,1.4l-1.6,7.7
			l-1.7,8.6c-0.3,1.3,0.8,2.6,2.1,2.6h24.2C551.4,199.8,552.1,199.5,552.4,198.9z"/>
	</g>
	<g id="XMLID_829_">
		<g id="XMLID_24_">
			<path id="XMLID_835_" class="st11" d="M581.7,240.4h-24.2c-1.4,0-2.4-1.3-2.1-2.6l3.3-16.3c0.2-0.9,0.9-1.5,1.8-1.5h18.3
				c0.9,0,1.6,0.6,1.8,1.5l3.3,16.3C584.1,239.2,583.1,240.4,581.7,240.4z"/>
		</g>
		<path id="XMLID_830_" class="st11" d="M583.5,239.5l-19.3-19.4h-3.7c-0.2,0-0.4,0-0.6,0.1c-0.6,0.2-1,0.7-1.2,1.4l-1.6,7.7
			l-1.7,8.6c-0.3,1.3,0.8,2.6,2.1,2.6h24.2C582.5,240.4,583.1,240,583.5,239.5z"/>
	</g>
	<g id="XMLID_776_">
		<g id="XMLID_23_">
			<path id="XMLID_793_" class="st11" d="M535.7,220.1h-24.2c-1.4,0-2.4-1.3-2.1-2.6l3.3-16.3c0.2-0.9,0.9-1.5,1.8-1.5h18.3
				c0.9,0,1.6,0.6,1.8,1.5l3.3,16.3C538.1,218.8,537.1,220.1,535.7,220.1z"/>
		</g>
		<path id="XMLID_777_" class="st11" d="M537.4,219.2l-19.3-19.4h-3.7c-0.2,0-0.4,0-0.6,0.1c-0.6,0.2-1,0.7-1.2,1.4l-1.6,7.7
			l-1.7,8.6c-0.3,1.3,0.8,2.6,2.1,2.6h24.2C536.4,220.1,537.1,219.7,537.4,219.2z"/>
	</g>
	<g id="XMLID_770_">
		<g id="XMLID_773_">
			<path id="XMLID_774_" class="st11" d="M566.4,220.1h-24.2c-1.4,0-2.4-1.3-2.1-2.6l3.3-16.3c0.2-0.9,0.9-1.5,1.8-1.5h18.3
				c0.9,0,1.6,0.6,1.8,1.5l3.3,16.3C568.8,218.8,567.7,220.1,566.4,220.1z"/>
		</g>
		<path id="XMLID_771_" class="st11" d="M568.1,219.2l-19.3-19.4h-3.7c-0.2,0-0.4,0-0.6,0.1c-0.6,0.2-1,0.7-1.2,1.4l-1.6,7.7
			l-1.7,8.6c-0.3,1.3,0.8,2.6,2.1,2.6h24.2C567.1,220.1,567.7,219.7,568.1,219.2z"/>
	</g>
	<line id="XMLID_22_" class="st13" x1="538.7" y1="170.4" x2="538.7" y2="174.2"/>
	<line id="XMLID_21_" class="st13" x1="546" y1="167.6" x2="544.1" y2="174.9"/>
	<line id="XMLID_816_" class="st13" x1="551" y1="173.7" x2="549.1" y2="176.9"/>
	<line id="XMLID_817_" class="st13" x1="558.7" y1="174.9" x2="553.4" y2="180.2"/>
	<line id="XMLID_818_" class="st13" x1="559.9" y1="182.6" x2="556.7" y2="184.5"/>
	<line id="XMLID_819_" class="st13" x1="566" y1="187.6" x2="558.8" y2="189.5"/>
	<line id="XMLID_820_" class="st13" x1="563.2" y1="194.9" x2="559.5" y2="194.9"/>
	<line id="XMLID_851_" class="st13" x1="514.2" y1="195" x2="518" y2="195"/>
	<line id="XMLID_852_" class="st13" x1="511.4" y1="187.7" x2="518.7" y2="189.6"/>
	<line id="XMLID_853_" class="st13" x1="517.3" y1="182.6" x2="520.7" y2="184.6"/>
	<line id="XMLID_855_" class="st13" x1="518.7" y1="175" x2="524" y2="180.3"/>
	<line id="XMLID_856_" class="st13" x1="526.4" y1="173.7" x2="528.3" y2="177"/>
	<line id="XMLID_857_" class="st13" x1="531.3" y1="167.7" x2="533.3" y2="174.9"/>
</g>
<g id="XMLID_1062_">
	<g id="XMLID_1083_">
		<path id="XMLID_1084_" class="st11" d="M643.6,227.8h-1.9c0-2.4-2-4.4-4.4-4.4c-2.4,0-4.4,2-4.4,4.4h-1.9c0-3.5,2.8-6.3,6.3-6.3
			C640.8,221.5,643.6,224.3,643.6,227.8z"/>
	</g>
	<g id="XMLID_1081_">
		
			<rect id="XMLID_1082_" x="635.5" y="208.9" transform="matrix(0.125 -0.9922 0.9922 0.125 325.9946 835.0042)" class="st11" width="1.9" height="47.5"/>
	</g>
	<g id="XMLID_1079_">
		
			<rect id="XMLID_1080_" x="614.3" y="231.7" transform="matrix(0.9921 -0.1251 0.1251 0.9921 -24.0921 81.643)" class="st11" width="47.5" height="1.9"/>
	</g>
	<g id="XMLID_1067_">
		<path id="XMLID_1068_" class="st11" d="M622.6,240.4c-5.9,0-10.7-4.8-10.7-10.7s4.8-10.7,10.7-10.7c5.9,0,10.7,4.8,10.7,10.7
			S628.5,240.4,622.6,240.4z M622.6,220.9c-4.9,0-8.9,4-8.9,8.9c0,4.9,4,8.9,8.9,8.9c4.9,0,8.9-4,8.9-8.9
			C631.5,224.8,627.5,220.9,622.6,220.9z"/>
	</g>
	<g id="XMLID_1063_">
		<path id="XMLID_1064_" class="st11" d="M652.3,240.4c-5.9,0-10.7-4.8-10.7-10.7s4.8-10.7,10.7-10.7c5.9,0,10.7,4.8,10.7,10.7
			S658.2,240.4,652.3,240.4z M652.3,220.9c-4.9,0-8.9,4-8.9,8.9c0,4.9,4,8.9,8.9,8.9c4.9,0,8.9-4,8.9-8.9
			C661.1,224.8,657.1,220.9,652.3,220.9z"/>
	</g>
</g>
<g id="XMLID_190_">
	<g id="XMLID_1367_">
		<path id="XMLID_743_" class="st11" d="M61,234.7v-26.5c0-1.4,0.9-3.3,2-4.2l8.9-7c1.1-0.9,1.1-2.3,0-3.2l-8.9-7
			c-1.1-0.9-2-2.8-2-4.2v-25.3h40.4v25.3c0,1.4-0.9,3.3-2,4.2l-8.9,7c-1.1,0.9-1.1,2.3,0,3.2l8.9,7c1.1,0.9,2,2.8,2,4.2v26.5H61z"/>
		<path id="XMLID_1397_" class="st11" d="M67.6,204l8.9-7c1.1-0.9,1.1-2.3,0-3.2l-8.9-7c-1.1-0.9-2-2.8-2-4.2v-25.3H61v25.3
			c0,1.4,0.9,3.3,2,4.2l8.9,7c1.1,0.9,1.1,2.3,0,3.2l-8.9,7c-1.1,0.9-2,2.8-2,4.2v26.5h4.5v-26.5C65.5,206.7,66.4,204.9,67.6,204z"
			/>
		<path id="XMLID_1396_" class="st15" d="M99.4,186.8c1.1-0.9,2-2.8,2-4.2v-25.3H96v25.3c0,1.4-0.9,3.3-2,4.2l-8.9,7
			c-1.1,0.9-1.1,2.3,0,3.2l8.9,7c1.1,0.9,2,2.8,2,4.2v26.5h5.4v-26.5c0-1.4-0.9-3.3-2-4.2l-8.9-7c-1.1-0.9-1.1-2.3,0-3.2L99.4,186.8
			z"/>
		<path id="XMLID_1371_" class="st11" d="M65.6,232h30.8v-12.1c0-2.5-1.4-4.9-3.7-6l-8.8-4.5c-2.1-1.1-4.5-1-6.6,0.1l-8.2,4.4
			c-2.2,1.2-3.5,3.5-3.5,6V232z"/>
		<rect id="XMLID_1379_" x="61" y="157.3" class="st12" width="40.4" height="6.6"/>
		<path id="XMLID_1317_" class="st11" d="M103.4,160.8H58.8c-0.3,0-0.5-0.2-0.5-0.5v-8.1c0-0.3,0.2-0.5,0.5-0.5h44.6
			c0.3,0,0.5,0.2,0.5,0.5v8.1C103.9,160.5,103.6,160.8,103.4,160.8z"/>
		<path id="XMLID_200_" class="st11" d="M102.7,151.6H59.4c-0.6,0-1.2,0.5-1.2,1.2v1.9h45.6v-1.9
			C103.9,152.2,103.4,151.6,102.7,151.6z"/>
		<rect id="XMLID_1381_" x="61" y="228.6" class="st12" width="40.4" height="6.1"/>
		<path id="XMLID_1357_" class="st11" d="M103.5,240.4H59c-0.3,0-0.5-0.2-0.5-0.5v-8.1c0-0.3,0.2-0.5,0.5-0.5h44.6
			c0.3,0,0.5,0.2,0.5,0.5v8.1C104,240.2,103.8,240.4,103.5,240.4z"/>
		<path id="XMLID_1398_" class="st11" d="M58.4,237.5v1.7c0,0.6,0.5,1.2,1.2,1.2h43.3c0.6,0,1.2-0.5,1.2-1.2v-1.7H58.4z"/>
		<path id="XMLID_199_" class="st11" d="M81.6,203.1h-2.3c-0.4,0-0.7-0.3-0.7-0.7V198c0-0.4,0.3-0.7,0.7-0.7h2.3
			c0.4,0,0.7,0.3,0.7,0.7v4.3C82.3,202.8,82,203.1,81.6,203.1z"/>
		<path id="XMLID_772_" class="st11" d="M80.8,179.9c-6,0-11.3-2.5-15.2-6.5v6c0,2.6,1.4,5.1,3.7,6.4l7.6,4.2c1,0.6,1.6,1.6,1.6,2.8
			v1.8c0,1,0.8,1.9,1.9,1.9c1,0,1.9-0.8,1.9-1.9v-1.7c0-1.2,0.7-2.3,1.7-2.8l8.4-4.3c2.4-1.2,4-3.8,4-6.5v-6.3
			C92.6,177.2,87,179.9,80.8,179.9z"/>
	</g>
	<path id="XMLID_775_" class="st12" d="M63.6,161.6c0,9.5,7.7,17.2,17.2,17.2c9.5,0,17.2-7.7,17.2-17.2c0-3.7-1.2-7.1-3.2-9.9H66.8
		C64.8,154.4,63.6,157.9,63.6,161.6z"/>
	<g id="XMLID_197_">
		<circle id="XMLID_758_" class="st11" cx="80.8" cy="160.3" r="17.2"/>
		<circle id="XMLID_19_" class="st11" cx="80.8" cy="160.3" r="15.3"/>
		
			<ellipse id="XMLID_755_" transform="matrix(0.9239 -0.3827 0.3827 0.9239 -55.1824 43.1273)" class="st11" cx="80.8" cy="160.3" rx="13.5" ry="13.5"/>
		<g id="XMLID_198_">
			<g id="XMLID_753_">
				<path id="XMLID_18_" class="st11" d="M82.6,167.2h-5c-1.2,0-2.1-0.9-2.1-2.1V164h3v0.2h4.1c0.8,0,1.4-0.6,1.4-1.4
					c0-0.5-0.4-0.9-0.9-0.9h-3.7c-2.2,0-3.9-1.8-3.9-3.9v-0.5c0-2.4,2-4.4,4.4-4.4h5c1.2,0,2.1,0.9,2.1,2.1v1.2h-3v-0.3h-4.1
					c-0.8,0-1.4,0.6-1.4,1.4v0.5c0,0.5,0.4,0.9,0.9,0.9h3.7c2.2,0,3.9,1.8,3.9,3.9C87,165.2,85,167.2,82.6,167.2z"/>
			</g>
			<g id="XMLID_748_">
				<rect id="XMLID_749_" x="79.7" y="151.5" class="st11" width="3" height="17.5"/>
			</g>
		</g>
	</g>
	<g id="XMLID_778_">
		<line id="XMLID_17_" class="st13" x1="40.5" y1="193.4" x2="43" y2="193.4"/>
		<line id="XMLID_787_" class="st13" x1="39.1" y1="185.1" x2="43.9" y2="186.3"/>
		<line id="XMLID_786_" class="st13" x1="44.5" y1="178.6" x2="46.6" y2="179.8"/>
		<line id="XMLID_785_" class="st13" x1="47.4" y1="170.7" x2="50.9" y2="174.2"/>
		<line id="XMLID_784_" class="st13" x1="55.3" y1="167.7" x2="56.5" y2="169.9"/>
		<line id="XMLID_783_" class="st13" x1="55.3" y1="219" x2="56.5" y2="216.9"/>
		<line id="XMLID_782_" class="st13" x1="47.4" y1="216.1" x2="50.9" y2="212.5"/>
		<line id="XMLID_780_" class="st13" x1="44.5" y1="208.2" x2="46.6" y2="206.9"/>
		<line id="XMLID_779_" class="st13" x1="39.1" y1="201.7" x2="43.9" y2="200.4"/>
	</g>
	<g id="XMLID_8_">
		<line id="XMLID_196_" class="st13" x1="122.2" y1="193.4" x2="119.7" y2="193.4"/>
		<line id="XMLID_195_" class="st13" x1="123.6" y1="201.7" x2="118.8" y2="200.4"/>
		<line id="XMLID_194_" class="st13" x1="118.2" y1="208.2" x2="116.1" y2="206.9"/>
		<line id="XMLID_193_" class="st13" x1="115.3" y1="216.1" x2="111.8" y2="212.5"/>
		<line id="XMLID_192_" class="st13" x1="107.4" y1="219" x2="106.2" y2="216.9"/>
		<line id="XMLID_191_" class="st13" x1="107.4" y1="167.7" x2="106.2" y2="169.9"/>
		<line id="XMLID_16_" class="st13" x1="115.3" y1="170.7" x2="111.8" y2="174.2"/>
		<line id="XMLID_796_" class="st13" x1="118.2" y1="178.6" x2="116.1" y2="179.8"/>
		<line id="XMLID_13_" class="st13" x1="123.6" y1="185.1" x2="118.8" y2="186.3"/>
	</g>
</g>
<path class="st12" d="M173.4,200.9h-67.7c-1.9,0-3.5,1.6-3.5,3.5v32.6c0,1.9,1.6,3.5,3.5,3.5h67.7c1.9,0,3.5-1.6,3.5-3.5v-32.6
	C176.9,202.4,175.4,200.9,173.4,200.9z"/>
<g id="XMLID_3_">
	<path id="XMLID_695_" class="st11" d="M101,200.9h70.5c1.2,0,2.1,0.9,2.1,2.1v35.4c0,1.2-0.9,2.1-2.1,2.1H101
		c-1.2,0-2.1-0.9-2.1-2.1v-35.4C99,201.8,99.9,200.9,101,200.9z"/>
	<path id="XMLID_694_" class="st11" d="M106.1,212.2v17.3c3.2,0,5.7,2.6,5.7,5.7h48.4c0-3.2,2.6-5.7,5.7-5.7c0.2,0,0.4,0,0.5,0.1
		v-17.4c-3.2,0-5.7-2.6-5.7-5.7h-49C111.8,209.6,109.2,212.2,106.1,212.2z"/>
	<path id="XMLID_693_" class="st11" d="M124.5,220.9c0-6.5,5.3-11.8,11.8-11.8c6.5,0,11.8,5.3,11.8,11.8c0,6.5-5.3,11.8-11.8,11.8
		C129.8,232.7,124.5,227.4,124.5,220.9z"/>
	<path id="XMLID_692_" class="st11" d="M154.8,220.9c0-1.7,1.4-3.1,3.1-3.1c1.7,0,3.1,1.4,3.1,3.1c0,1.7-1.4,3.1-3.1,3.1
		C156.3,224,154.8,222.6,154.8,220.9z"/>
	<path id="XMLID_691_" class="st11" d="M111.5,220.9c0-1.7,1.4-3.1,3.1-3.1c1.7,0,3.1,1.4,3.1,3.1c0,1.7-1.4,3.1-3.1,3.1
		C112.9,224,111.5,222.6,111.5,220.9z"/>
	<g id="XMLID_4_">
		<g id="XMLID_689_">
			<path id="XMLID_690_" class="st11" d="M134.9,213.5h5.4c1.2,0,2.2,1,2.2,2.2v1.1h-3.2v-0.2h-4.4c-0.8,0-1.5,0.7-1.5,1.5
				c0,0.6,0.4,1,1,1h4c2.3,0,4.2,1.9,4.2,4.2v0.6c0,2.6-2.1,4.7-4.7,4.7h-5.4c-1.2,0-2.2-1-2.2-2.2v-1.3h3.2v0.4h4.4
				c0.8,0,1.5-0.7,1.5-1.5v-0.6c0-0.6-0.4-1-1-1h-4c-2.3,0-4.2-1.9-4.2-4.2C130.2,215.6,132.3,213.5,134.9,213.5z"/>
		</g>
		<g id="XMLID_6_">
			<rect id="XMLID_7_" x="134.7" y="211.5" class="st11" width="3.2" height="18.8"/>
		</g>
	</g>
</g>
<g id="XMLID_201_">
	<g id="XMLID_255_">
		<path id="XMLID_274_" class="st11" d="M457.9,217.8h-18c-0.2,0-0.4-0.2-0.4-0.4v-0.7c0-0.2,0.2-0.4,0.4-0.4h18
			c0.2,0,0.4,0.2,0.4,0.4v0.7C458.3,217.7,458.2,217.8,457.9,217.8z"/>
		<path id="XMLID_273_" class="st11" d="M472.1,223h-18c-0.2,0-0.4-0.2-0.4-0.4V222c0-0.2,0.2-0.4,0.4-0.4h18c0.2,0,0.4,0.2,0.4,0.4
			v0.7C472.4,222.9,472.3,223,472.1,223z"/>
		<path id="XMLID_272_" class="st11" d="M472.1,237.6h-18c-0.2,0-0.4-0.2-0.4-0.4v-0.7c0-0.2,0.2-0.4,0.4-0.4h18
			c0.2,0,0.4,0.2,0.4,0.4v0.7C472.4,237.4,472.3,237.6,472.1,237.6z"/>
		<path id="XMLID_262_" class="st11" d="M474.7,227.9h-18c-0.2,0-0.4-0.2-0.4-0.4v-0.7c0-0.2,0.2-0.4,0.4-0.4h18
			c0.2,0,0.4,0.2,0.4,0.4v0.7C475.1,227.8,474.9,227.9,474.7,227.9z"/>
		<path id="XMLID_258_" class="st11" d="M455.1,227.9h-18c-0.2,0-0.4-0.2-0.4-0.4v-0.7c0-0.2,0.2-0.4,0.4-0.4h18
			c0.2,0,0.4,0.2,0.4,0.4v0.7C455.5,227.8,455.3,227.9,455.1,227.9z"/>
		<path id="XMLID_257_" class="st11" d="M446.4,234.2h8.4c0.2,0,0.4-0.2,0.4-0.4v-0.7c0-0.2-0.2-0.4-0.4-0.4h-8.4
			c-0.2,0-0.4,0.2-0.4,0.4v0.7C446.1,234.1,446.2,234.2,446.4,234.2z"/>
		<path id="XMLID_256_" class="st11" d="M456.6,234.2h2.2c0.2,0,0.4-0.2,0.4-0.4v-0.7c0-0.2-0.2-0.4-0.4-0.4h-2.2
			c-0.2,0-0.4,0.2-0.4,0.4v0.7C456.3,234.1,456.4,234.2,456.6,234.2z"/>
		<path id="XMLID_254_" class="st11" d="M449.5,237.6h3.1c0.2,0,0.4-0.2,0.4-0.4v-0.7c0-0.2-0.2-0.4-0.4-0.4h-3.1
			c-0.2,0-0.4,0.2-0.4,0.4v0.7C449.2,237.4,449.3,237.6,449.5,237.6z"/>
		<path id="XMLID_252_" class="st11" d="M459.4,217.8h2.5c0.2,0,0.4-0.2,0.4-0.4v-0.7c0-0.2-0.2-0.4-0.4-0.4h-2.5
			c-0.2,0-0.4,0.2-0.4,0.4v0.7C459,217.7,459.2,217.8,459.4,217.8z"/>
		<g id="XMLID_231_">
			<path id="XMLID_270_" class="st11" d="M451.3,227.2c0,7.3-5.9,13.2-13.2,13.2c-7.3,0-13.2-5.9-13.2-13.2
				c0-7.3,5.9-13.2,13.2-13.2C445.4,214,451.3,219.9,451.3,227.2z"/>
			<path id="XMLID_269_" class="st11" d="M449.8,227.2c0,6.5-5.3,11.8-11.8,11.8c-6.5,0-11.8-5.3-11.8-11.8
				c0-6.5,5.3-11.8,11.8-11.8C444.6,215.5,449.8,220.7,449.8,227.2z"/>
			<path id="XMLID_268_" class="st11" d="M448.4,227.2c0,5.7-4.6,10.4-10.4,10.4c-5.7,0-10.4-4.6-10.4-10.4
				c0-5.7,4.6-10.4,10.4-10.4C443.8,216.8,448.4,221.5,448.4,227.2z"/>
			<g id="XMLID_263_">
				<g id="XMLID_246_">
					<path id="XMLID_247_" class="st11" d="M439.4,232.5h-3.8c-0.9,0-1.6-0.7-1.6-1.6v-0.8h2.3v0.1h3.2c0.6,0,1.1-0.5,1.1-1.1
						c0-0.4-0.3-0.7-0.7-0.7H437c-1.7,0-3-1.3-3-3V225c0-1.9,1.5-3.4,3.4-3.4h3.8c0.9,0,1.6,0.7,1.6,1.6v0.9h-2.3v-0.3h-3.2
						c-0.6,0-1.1,0.5-1.1,1.1v0.4c0,0.4,0.3,0.7,0.7,0.7h2.8c1.7,0,3,1.3,3,3C442.8,231,441.3,232.5,439.4,232.5z"/>
				</g>
				<g id="XMLID_264_">
					<rect id="XMLID_265_" x="437.2" y="220.5" class="st11" width="2.3" height="13.5"/>
				</g>
			</g>
		</g>
		<circle id="XMLID_208_" class="st11" cx="472.4" cy="227.5" r="13.2"/>
		<path id="XMLID_250_" class="st11" d="M484.2,227.5c0,6.5-5.3,11.8-11.8,11.8c-6.5,0-11.8-5.3-11.8-11.8c0-6.5,5.3-11.8,11.8-11.8
			C478.9,215.7,484.2,221,484.2,227.5z"/>
		<circle id="XMLID_207_" class="st11" cx="472.4" cy="227.5" r="10.4"/>
		<g id="XMLID_202_">
			<g id="XMLID_245_">
				<path id="XMLID_206_" class="st11" d="M473.9,234c-1.7,0-3.4-0.7-4.6-1.9c-1.2-1.2-1.9-2.9-1.9-4.6c0-1.7,0.7-3.4,1.9-4.6
					c1.2-1.2,2.9-1.9,4.6-1.9c1.7,0,3.4,0.7,4.6,1.9c0.4,0.4,0.4,1.1,0,1.6c-0.4,0.4-1.1,0.4-1.6,0c-0.8-0.8-1.9-1.3-3-1.3
					c-1.1,0-2.2,0.4-3,1.3c-0.8,0.8-1.3,1.9-1.3,3c0,1.1,0.4,2.2,1.3,3c0.8,0.8,1.9,1.3,3,1.3c1.1,0,2.2-0.4,3-1.3
					c0.4-0.4,1.1-0.4,1.6,0c0.4,0.4,0.4,1.1,0,1.6C477.3,233.4,475.6,234,473.9,234z"/>
			</g>
			<g id="XMLID_242_">
				<path id="XMLID_205_" class="st11" d="M473.1,226.7h-5.9c-0.6,0-1.1-0.5-1.1-1.1s0.5-1.1,1.1-1.1h5.9c0.6,0,1.1,0.5,1.1,1.1
					S473.7,226.7,473.1,226.7z"/>
			</g>
			<g id="XMLID_203_">
				<path id="XMLID_204_" class="st11" d="M473.1,230h-5.9c-0.6,0-1.1-0.5-1.1-1.1c0-0.6,0.5-1.1,1.1-1.1h5.9c0.6,0,1.1,0.5,1.1,1.1
					C474.2,229.5,473.7,230,473.1,230z"/>
			</g>
		</g>
	</g>
</g>
<g id="XMLID_277_">
	<g id="XMLID_604_">
		
			<ellipse id="XMLID_617_" transform="matrix(0.1606 -0.987 0.987 0.1606 356.6704 698.7975)" class="st11" cx="589.2" cy="139.7" rx="14.9" ry="14.9"/>
		<circle id="XMLID_616_" class="st11" cx="589.2" cy="139.7" r="13.3"/>
		<path id="XMLID_615_" class="st11" d="M600.9,139.7c0,6.5-5.2,11.7-11.7,11.7s-11.7-5.2-11.7-11.7s5.2-11.7,11.7-11.7
			S600.9,133.2,600.9,139.7z"/>
		<g id="XMLID_605_">
			<g id="XMLID_610_">
				<path id="XMLID_614_" class="st11" d="M590.7,145.7h-4.3c-1,0-1.8-0.8-1.8-1.8v-0.9h2.6v0.2h3.6c0.7,0,1.2-0.6,1.2-1.2
					c0-0.4-0.4-0.8-0.8-0.8H588c-1.9,0-3.4-1.5-3.4-3.4v-0.5c0-2.1,1.7-3.8,3.8-3.8h4.3c1,0,1.8,0.8,1.8,1.8v1.1H592v-0.3h-3.6
					c-0.7,0-1.2,0.6-1.2,1.2v0.5c0,0.4,0.4,0.8,0.8,0.8h3.2c1.9,0,3.4,1.5,3.4,3.4C594.5,144,592.8,145.7,590.7,145.7z"/>
			</g>
			<g id="XMLID_607_">
				<rect id="XMLID_608_" x="588.3" y="132.1" class="st11" width="2.6" height="15.2"/>
			</g>
		</g>
	</g>
	<g id="XMLID_595_">
		<path id="XMLID_279_" class="st11" d="M569.2,141c-0.6,0-1-0.4-1.1-1c0-0.4,0-0.9,0-1.3c0-0.6,0.5-1.1,1.1-1.1s1.1,0.5,1.1,1.1
			c0,0.4,0,0.8,0,1.2C570.3,140.4,569.9,140.9,569.2,141C569.3,141,569.2,141,569.2,141z"/>
	</g>
	<g id="XMLID_618_">
		<path id="XMLID_278_" class="st11" d="M569.6,144.7c-0.5,0-0.9-0.4-1-0.9c-0.1-0.3-0.1-0.6-0.2-1c-0.1-0.6,0.3-1.1,0.9-1.2
			c0.6-0.1,1.1,0.3,1.2,0.9c0,0.3,0.1,0.6,0.2,0.9c0.1,0.6-0.3,1.1-0.8,1.3C569.7,144.7,569.6,144.7,569.6,144.7z"/>
	</g>
	<g id="XMLID_603_">
		<path id="XMLID_621_" class="st11" d="M589.3,160.9c-9.2,0-17.3-5.8-20.1-14.5c-0.2-0.6,0.1-1.2,0.7-1.4c0.6-0.2,1.2,0.1,1.4,0.7
			c2.6,7.8,9.9,13.1,18.1,13.1c10.5,0,19.1-8.6,19.1-19.1c0-10.5-8.6-19.1-19.1-19.1c-0.6,0-1.1-0.5-1.1-1.1c0-0.6,0.5-1.1,1.1-1.1
			c11.7,0,21.2,9.5,21.2,21.2S601,160.9,589.3,160.9z"/>
	</g>
	<g id="XMLID_598_">
		<path id="XMLID_620_" class="st11" d="M589.1,122.9c-0.3,0-0.5-0.1-0.8-0.3l-2.7-2.7c-0.2-0.2-0.2-0.5,0-0.7l2.7-2.7
			c0.4-0.4,1.1-0.4,1.5,0s0.4,1.1,0,1.5l-1.5,1.5l1.5,1.5c0.4,0.4,0.4,1.1,0,1.5C589.7,122.8,589.4,122.9,589.1,122.9z"/>
	</g>
</g>
<g id="XMLID_471_">
	
		<rect id="XMLID_66_" x="222.1" y="200.2" transform="matrix(6.123234e-17 -1 1 6.123234e-17 -9.2564 462.1127)" class="st11" width="8.6" height="71"/>
	<path id="XMLID_461_" class="st11" d="M264,231.4v8.6h3.2c0.6,0,1.2-0.5,1.2-1.2v-6.3c0-0.6-0.5-1.2-1.2-1.2H264z"/>
	
		<rect id="XMLID_459_" x="258.7" y="234.7" transform="matrix(6.123234e-17 -1 1 6.123234e-17 27.2555 498.6245)" class="st11" width="8.6" height="2.1"/>
	
		<rect id="XMLID_2_" x="224.3" y="202.3" transform="matrix(6.123234e-17 -1 1 6.123234e-17 -11.3964 464.2527)" class="st11" width="4.3" height="71"/>
	<path id="XMLID_1_" class="st11" d="M181,236l9.9,3.9v-8.6l-9.9,3.9C180.7,235.5,180.7,235.9,181,236z"/>
	<path id="XMLID_465_" class="st11" d="M180.4,235.8l2.7,1.1v-2.3l-2.7,1.1C180.3,235.6,180.3,235.7,180.4,235.8z"/>
</g>
</svg>
