<?xml version="1.0" encoding="utf-8"?>
<!-- Generator: Adobe Illustrator 22.1.0, SVG Export Plug-In . SVG Version: 6.00 Build 0)  -->
<svg version="1.1" id="Layer_1" xmlns="http://www.w3.org/2000/svg" xmlns:xlink="http://www.w3.org/1999/xlink" x="0px" y="0px"
	 viewBox="0 0 693 270" style="enable-background:new 0 0 693 270;" xml:space="preserve">
<style type="text/css">
	.st0{fill:#D2E9F7;}
	.st1{fill:#9ECFEF;}
	.st2{fill:#5FB0E5;}
	.st3{fill:none;stroke:#0686D8;stroke-width:1.5;stroke-miterlimit:10;}
	.st4{fill:#FFFFFF;}
	.st5{fill:#C5E2F5;}
	.st6{opacity:0.3;fill:#03436C;}
	.st7{opacity:0.3;}
	.st8{fill:#03436C;}
	.st9{fill:#7FC0EA;}
	.st10{fill:#BFDFF5;}
</style>
<g>
	<g id="XMLID_36_">
		<g id="XMLID_784_">
			<polygon id="XMLID_796_" class="st0" points="411.8,39.6 402.3,39.6 392.9,39.6 383.4,39.6 378.7,47.8 397.6,69.4 416.5,47.8 			
				"/>
			<polygon id="XMLID_58_" class="st1" points="388.1,47.8 383.4,39.6 379.1,47.9 			"/>
			<polygon id="XMLID_57_" class="st1" points="397.4,47.6 392.9,39.6 388.3,47.6 			"/>
			<polygon id="XMLID_56_" class="st1" points="407.1,47.8 402.2,39.9 398,47.9 			"/>
			<polygon id="XMLID_55_" class="st1" points="397.6,47.8 397.6,67.9 406.8,47.8 			"/>
			<polygon id="XMLID_54_" class="st2" points="379.1,47.8 379.1,48 397.2,68.4 387.7,47.8 			"/>
			<polygon id="XMLID_53_" class="st2" points="415.8,47.8 415.8,48 397.7,68.4 407.1,47.8 			"/>
			<polyline id="XMLID_52_" class="st3" points="404.1,39.6 392.9,39.6 383.4,39.6 378.7,47.8 397.6,69.4 416.5,47.8 411.8,39.6 
				409.9,39.6 			"/>
			<line id="XMLID_51_" class="st3" x1="408.4" y1="39.6" x2="405.3" y2="39.6"/>
			<line id="XMLID_794_" class="st3" x1="378.7" y1="47.8" x2="416.5" y2="47.8"/>
			<line id="XMLID_50_" class="st3" x1="397.6" y1="69.4" x2="388.1" y2="47.8"/>
			<line id="XMLID_49_" class="st3" x1="397.6" y1="68.9" x2="407" y2="47.3"/>
			<line id="XMLID_791_" class="st3" x1="397.6" y1="47.8" x2="397.6" y2="68.9"/>
			<line id="XMLID_477_" class="st3" x1="383.4" y1="39.6" x2="388.1" y2="47.8"/>
			<line id="XMLID_48_" class="st3" x1="392.9" y1="39.6" x2="397.6" y2="47.8"/>
			<line id="XMLID_788_" class="st3" x1="402.3" y1="39.6" x2="407.1" y2="47.8"/>
			<line id="XMLID_787_" class="st3" x1="411.8" y1="39.6" x2="407" y2="47.8"/>
			<line id="XMLID_786_" class="st3" x1="402.3" y1="39.6" x2="397.6" y2="47.8"/>
			<line id="XMLID_785_" class="st3" x1="392.9" y1="39.6" x2="388.1" y2="47.8"/>
		</g>
		<path id="XMLID_979_" class="st4" d="M404.8,71.6l6.9-7.4c1.7-2.2,5.2,0.1,3.3,2.1l-5.5,7.7l2.7,0l6.4-6.8c0,0,0.6-4.3,0.8-4.9
			l0.2-5.5c-0.4-0.9,0-2,0.9-2.5c0.9-0.4,2,0,2.5,0.9l0,6.2c0.2,0.5,0.2,7.8,0.2,7.8l-7.7,15.9h-11.7l0-11.4
			C403.8,73.1,404.3,72.1,404.8,71.6z"/>
		<path id="XMLID_978_" class="st3" d="M404.8,71.6l6.9-7.4c1.7-2.2,5.2,0.1,3.3,2.1l-5.5,7.7l2.7,0l6.7-7.1c0,0,0.4-4.3,0.6-4.9
			l-0.1-5.4c0.1-1.1,0-2,0.9-2.5c0.9-0.4,2,0,2.5,0.9l0.2,6.4c0.2,0.5,0.2,7.8,0.2,7.8l-7.7,15.9h-11.7l0-11.4
			C403.8,73.1,404.3,72.1,404.8,71.6z"/>
		<path id="XMLID_977_" class="st5" d="M418.1,243.2V87.2c0-0.7-0.6-1.4-1.4-1.4h-15.6c-0.7,0-1.4,0.6-1.4,1.4v155.9H418.1z"/>
		<path id="XMLID_40_" class="st4" d="M390,71.6l-6.9-7.4c-1.7-2.2-5.2,0.1-3.3,2.1l5.5,7.7l-2.7,0l-6.4-6.8c0,0-0.6-4.3-0.8-4.9
			l-0.2-5.5c0.4-0.9,0-2-0.9-2.5c-0.9-0.4-2,0-2.5,0.9l0,6.2c-0.2,0.5-0.2,7.8-0.2,7.8l7.7,15.9H391l0-11.4
			C390.9,73.1,390.4,72.1,390,71.6z"/>
		<path id="XMLID_39_" class="st3" d="M390,71.6l-6.9-7.4c-1.7-2.2-5.2,0.1-3.3,2.1l5.5,7.7l-2.7,0l-6.7-7.1c0,0-0.4-4.3-0.6-4.9
			l0.1-5.4c-0.1-1.1,0-2-0.9-2.5c-0.9-0.4-2,0-2.5,0.9l-0.2,6.4c-0.2,0.5-0.2,7.8-0.2,7.8l7.7,15.9H391l0-11.4
			C390.9,73.1,390.4,72.1,390,71.6z"/>
		<path id="XMLID_38_" class="st5" d="M376.7,243.2V87.2c0-0.7,0.6-1.4,1.4-1.4h15.6c0.7,0,1.4,0.6,1.4,1.4v155.9H376.7z"/>
		<path id="XMLID_37_" class="st3" d="M418.1,164.4V87.2c0-0.7-0.6-1.4-1.4-1.4h-15.6c-0.7,0-1.4,0.6-1.4,1.4v121.1"/>
		<path id="XMLID_467_" class="st3" d="M376.7,126.6V87.2c0-0.7,0.6-1.4,1.4-1.4h15.6c0.7,0,1.4,0.6,1.4,1.4v121.1"/>
	</g>
	<path class="st6" d="M399.9,243.2h18.1v-77.7H407c-2,0-3.7,1.7-3.7,3.7v43.3h1.1v22.8h-4.7v7.6C399.8,242.9,399.9,243,399.9,243.2z
		"/>
	<g id="XMLID_9_">
		<g id="XMLID_10_">
			<path id="XMLID_336_" class="st2" d="M509.6,240.7H408.4c-0.6,0-1-0.5-1-1v-72.2c0-0.6,0.4-1,1-1h101.2c0.5,0,1,0.4,1,1v72.2
				C510.6,240.3,510.2,240.7,509.6,240.7z"/>
			<line id="XMLID_335_" class="st3" x1="457.8" y1="166.6" x2="468" y2="166.6"/>
			<path id="XMLID_294_" class="st3" d="M407.4,212.4v-43.3c0-1.4,1.2-2.6,2.6-2.6h43.7"/>
			<line id="XMLID_297_" class="st3" x1="510.6" y1="223.7" x2="510.6" y2="238.2"/>
			<path id="XMLID_292_" class="st3" d="M473.1,166.6H508c1.4,0,2.6,1.2,2.6,2.6v16"/>
			<rect id="XMLID_333_" x="412.4" y="172.4" class="st4" width="92.6" height="60.2"/>
			<path id="XMLID_332_" class="st4" d="M508.8,244.9H408.1c-2.4,0-4.5-1.8-4.9-4.1l-0.7-4.4h46.7l1.8,2.6h12.9l1.9-2.6H515
				l-0.6,3.8C513.9,242.9,511.5,244.9,508.8,244.9z"/>
			<path id="XMLID_105_" class="st3" d="M508.8,244.9H408.1c-2.4,0-4.5-1.8-4.9-4.1l-0.7-4.4h46.7l1.8,2.6h12.9l1.9-2.6H515
				l-0.6,3.8C513.9,242.9,511.5,244.9,508.8,244.9z"/>
			<polyline id="XMLID_20_" class="st3" points="419.2,179 419.2,227.5 492.7,227.5 			"/>
			<polyline id="XMLID_15_" class="st3" points="419.2,211.3 425.4,211.3 432.5,203.6 440.2,211.3 456.4,197.6 469.7,211.3 
				495.2,189.9 			"/>
			<polyline id="XMLID_14_" class="st3" points="488.5,188.9 496.2,188.9 496.2,197 			"/>
			<line id="XMLID_12_" class="st3" x1="427" y1="181.7" x2="446.8" y2="181.7"/>
			<line id="XMLID_11_" class="st3" x1="427" y1="189.9" x2="436.9" y2="189.9"/>
		</g>
	</g>
	<g id="XMLID_358_">
		<g id="XMLID_315_">
			<path id="XMLID_348_" class="st0" d="M185,176v66.2c0,1.1-0.9,1.9-1.9,1.9h-33c-1.1,0-1.9-0.9-1.9-1.9V176c0-1.1,0.9-1.9,1.9-1.9
				h33C184.1,174.1,185,174.9,185,176z"/>
			<path id="XMLID_318_" class="st3" d="M152.1,174.1c-2.2,0-4,1.8-4,4v37.8v18.7v5.6c0,2.2,1.8,4,4,4"/>
		</g>
		<g id="XMLID_325_">
			<path id="XMLID_344_" class="st0" d="M190.9,176v66.2c0,1.1-0.9,1.9-1.9,1.9h-33c-1.1,0-1.9-0.9-1.9-1.9V176
				c0-1.1,0.9-1.9,1.9-1.9h33C190,174.1,190.9,174.9,190.9,176z"/>
			<path id="XMLID_319_" class="st3" d="M168.6,174.1H158c-2.2,0-4,1.8-4,4v37.8v18.7v5.6c0,2.2,1.8,4,4,4h10.6"/>
			<path id="XMLID_342_" class="st4" d="M184.7,209.2c-0.1,6.9-5.8,12.3-12.7,12.2c-6.9-0.1-12.3-5.8-12.2-12.7
				c0.1-6.9,5.8-12.3,12.7-12.2C179.4,196.7,184.9,202.4,184.7,209.2z"/>
			<path id="XMLID_341_" class="st4" d="M175.3,189.7c0,1.8-1.6,3.3-3.4,3.3c-1.8,0-3.3-1.6-3.3-3.4c0-1.8,1.6-3.3,3.4-3.3
				C173.9,186.3,175.3,187.8,175.3,189.7z"/>
			<path id="XMLID_340_" class="st4" d="M175.3,229.2c0,1.8-1.6,3.3-3.4,3.3c-1.8,0-3.3-1.6-3.3-3.4c0-1.8,1.6-3.3,3.4-3.3
				C173.9,225.8,175.3,227.3,175.3,229.2z"/>
			<path id="XMLID_320_" class="st3" d="M163.4,217.6c-2.2-2.3-3.5-5.4-3.5-8.9c0.1-4.1,2.1-7.7,5.2-9.9"/>
			<g id="XMLID_328_">
				<path id="XMLID_330_" class="st3" d="M167.6,204v6.1c0,1.3,1.1,2.4,2.4,2.4l0,0c1.3,0,2.4-1.1,2.4-2.4v-2.5
					c0-1.3,1.1-2.4,2.4-2.4l0,0c1.3,0,2.4,1.1,2.4,2.4v6.3"/>
				<line id="XMLID_329_" class="st3" x1="163.7" y1="209" x2="180.9" y2="209"/>
			</g>
			<path id="XMLID_322_" class="st3" d="M169,179.4c0,0-2,0-4,0c-0.3,0-0.5,0.2-0.6,0.6c-0.3,3.2-2.9,5.8-6.1,6.1
				c-0.3,0-0.5,0.2-0.5,0.5v5.4"/>
			<path id="XMLID_326_" class="st3" d="M168.8,239.3c-2,0-2,0-4,0c-0.3,0-0.5-0.2-0.6-0.6c-0.3-3.2-2.9-5.8-6.1-6.1
				c-0.3,0-0.5-0.2-0.5-0.5v-5.4"/>
		</g>
		<path id="XMLID_306_" class="st4" d="M224.8,173.1V243c0,1.1-0.9,1.9-1.9,1.9h-49.6c-1.1,0-1.9-0.9-1.9-1.9v-69.8
			c0-1.1,0.9-1.9,1.9-1.9h49.6C223.9,171.2,224.8,172.1,224.8,173.1z"/>
		<path id="XMLID_293_" class="st3" d="M221.9,244.9h-47.7c-1.6,0-2.9-1.3-2.9-2.9v-67.9c0-1.6,1.3-2.9,2.9-2.9h38.6"/>
		<path id="XMLID_309_" class="st0" d="M204.8,195.4v-24.2h-13.5v24.2c0,1.3,1.1,2.4,2.4,2.4h8.6
			C203.7,197.8,204.8,196.8,204.8,195.4z"/>
		<path id="XMLID_304_" class="st3" d="M204.8,195.4v-24.2h-13.5v24.2c0,1.3,1.1,2.4,2.4,2.4h8.6
			C203.7,197.8,204.8,196.8,204.8,195.4z"/>
		<path id="XMLID_313_" class="st2" d="M198,186.7c1.8,0,3.3,1.5,3.3,3.3c0,1.8-1.5,3.3-3.3,3.3c-1.8,0-3.3-1.5-3.3-3.3
			C194.8,188.2,196.2,186.7,198,186.7z"/>
		<path id="XMLID_305_" class="st3" d="M198,186.7c1.8,0,3.3,1.5,3.3,3.3c0,1.8-1.5,3.3-3.3,3.3c-1.8,0-3.3-1.5-3.3-3.3
			C194.8,188.2,196.2,186.7,198,186.7z"/>
		<line id="XMLID_323_" class="st3" x1="177" y1="175.6" x2="177" y2="179.4"/>
		<line id="XMLID_321_" class="st3" x1="177" y1="184.5" x2="177" y2="188.3"/>
		<line id="XMLID_324_" class="st3" x1="177" y1="193.5" x2="177" y2="197.3"/>
		<line id="XMLID_327_" class="st3" x1="177" y1="202.4" x2="177" y2="206.2"/>
		<line id="XMLID_331_" class="st3" x1="177" y1="211.3" x2="177" y2="215.1"/>
		<line id="XMLID_343_" class="st3" x1="177" y1="220.2" x2="177" y2="224"/>
		<line id="XMLID_345_" class="st3" x1="177" y1="229.1" x2="177" y2="232.9"/>
		<line id="XMLID_346_" class="st3" x1="177" y1="238.1" x2="177" y2="241.9"/>
		<line id="XMLID_357_" class="st3" x1="218.5" y1="175.6" x2="218.5" y2="179.4"/>
		<line id="XMLID_356_" class="st3" x1="218.5" y1="184.5" x2="218.5" y2="188.3"/>
		<line id="XMLID_355_" class="st3" x1="218.5" y1="193.5" x2="218.5" y2="197.3"/>
		<line id="XMLID_352_" class="st3" x1="218.5" y1="202.4" x2="218.5" y2="206.2"/>
		<line id="XMLID_351_" class="st3" x1="218.5" y1="211.3" x2="218.5" y2="215.1"/>
		<line id="XMLID_350_" class="st3" x1="218.5" y1="220.2" x2="218.5" y2="224"/>
		<line id="XMLID_349_" class="st3" x1="218.5" y1="229.1" x2="218.5" y2="232.9"/>
		<line id="XMLID_347_" class="st3" x1="218.5" y1="238.1" x2="218.5" y2="241.9"/>
	</g>
	<path class="st6" d="M224.8,242v-67.9c0-1.6-1.3-2.9-2.9-2.9h-9.1v-1.1h-1.6v74.8h2.3l0,0h8.4C223.5,244.9,224.8,243.6,224.8,242z"
		/>
	<g>
		<path id="XMLID_110_" class="st1" d="M312.2,244.9h-35.4v-163h33.4c1.1,0,2,0.9,2,2V244.9z"/>
		<path id="XMLID_109_" class="st3" d="M284.6,81.9h23.3c2.4,0,4.4,2,4.4,4.4v39"/>
		<path id="XMLID_108_" class="st2" d="M215.4,244.9h27.3V58.5h-25.1c-1.2,0-2.2,1-2.2,2.2V244.9z"/>
		<path id="XMLID_104_" class="st3" d="M229,58.5h-9.1c-2.5,0-4.5,2-4.5,4.5v181.9"/>
		<rect id="XMLID_103_" x="243.7" y="35.5" class="st4" width="25.5" height="15.6"/>
		<rect id="XMLID_102_" x="243.7" y="35.5" class="st3" width="25.5" height="15.6"/>
		<path id="XMLID_101_" class="st4" d="M276.8,244.9h-40.4V45.7c0-0.8,0.6-1.4,1.4-1.4h37.6c0.8,0,1.4,0.6,1.4,1.4V244.9z"/>
		<path id="XMLID_100_" class="st3" d="M236.4,244.9V47.2c0-1.6,1.3-2.9,2.9-2.9h34.7c1.6,0,2.9,1.3,2.9,2.9v78.1"/>
		<line id="XMLID_99_" class="st3" x1="256.6" y1="21.7" x2="256.6" y2="34.4"/>
		<line id="XMLID_98_" class="st3" x1="245.8" y1="54.7" x2="245.8" y2="227.5"/>
		<line id="XMLID_97_" class="st3" x1="256.6" y1="54.7" x2="256.6" y2="227.5"/>
		<line id="XMLID_96_" class="st3" x1="267.4" y1="54.7" x2="267.4" y2="227.5"/>
		<line id="XMLID_95_" class="st3" x1="222.2" y1="71.1" x2="230.9" y2="71.1"/>
		<line id="XMLID_94_" class="st3" x1="222.2" y1="78.6" x2="230.9" y2="78.6"/>
		<line id="XMLID_93_" class="st3" x1="222.2" y1="86" x2="230.9" y2="86"/>
		<line id="XMLID_92_" class="st3" x1="222.2" y1="93.4" x2="230.9" y2="93.4"/>
		<line id="XMLID_90_" class="st3" x1="222.2" y1="100.8" x2="230.9" y2="100.8"/>
		<line id="XMLID_89_" class="st3" x1="222.2" y1="108.3" x2="230.9" y2="108.3"/>
		<line id="XMLID_87_" class="st3" x1="222.2" y1="115.7" x2="230.9" y2="115.7"/>
		<line id="XMLID_84_" class="st3" x1="222.2" y1="123.1" x2="230.9" y2="123.1"/>
		<line id="XMLID_41_" class="st3" x1="222.2" y1="131" x2="230.9" y2="131"/>
		<line id="XMLID_106_" class="st3" x1="222.2" y1="138.8" x2="230.9" y2="138.8"/>
		<line id="XMLID_107_" class="st3" x1="222.2" y1="146.6" x2="230.9" y2="146.6"/>
		<line id="XMLID_111_" class="st3" x1="222.2" y1="154.5" x2="230.9" y2="154.5"/>
		<line id="XMLID_112_" class="st3" x1="222.2" y1="162.3" x2="230.9" y2="162.3"/>
		<line id="XMLID_113_" class="st3" x1="222.2" y1="170.2" x2="230.9" y2="170.2"/>
		<line id="XMLID_114_" class="st3" x1="222.2" y1="178" x2="230.9" y2="178"/>
		<line id="XMLID_115_" class="st3" x1="222.2" y1="185.9" x2="230.9" y2="185.9"/>
		<line id="XMLID_116_" class="st3" x1="222.2" y1="193.7" x2="230.9" y2="193.7"/>
		<line id="XMLID_117_" class="st3" x1="222.2" y1="201.5" x2="230.9" y2="201.5"/>
		<line id="XMLID_118_" class="st3" x1="222.2" y1="209.4" x2="230.9" y2="209.4"/>
		<line id="XMLID_119_" class="st3" x1="222.2" y1="217.2" x2="230.9" y2="217.2"/>
		<line id="XMLID_120_" class="st3" x1="222.2" y1="225.1" x2="230.9" y2="225.1"/>
		<line id="XMLID_121_" class="st3" x1="222.2" y1="232.9" x2="230.9" y2="232.9"/>
		<g id="XMLID_79_">
			<line id="XMLID_82_" class="st3" x1="281.9" y1="93.4" x2="287.3" y2="93.4"/>
			<line id="XMLID_81_" class="st3" x1="291.8" y1="93.4" x2="297.2" y2="93.4"/>
			<line id="XMLID_80_" class="st3" x1="301.7" y1="93.4" x2="307.2" y2="93.4"/>
		</g>
		<g id="XMLID_74_">
			<line id="XMLID_78_" class="st3" x1="281.9" y1="101.8" x2="287.3" y2="101.8"/>
			<line id="XMLID_77_" class="st3" x1="291.8" y1="101.8" x2="297.2" y2="101.8"/>
			<line id="XMLID_76_" class="st3" x1="301.7" y1="101.8" x2="307.2" y2="101.8"/>
		</g>
		<g id="XMLID_67_">
			<line id="XMLID_73_" class="st3" x1="281.9" y1="110.2" x2="287.3" y2="110.2"/>
			<line id="XMLID_72_" class="st3" x1="291.8" y1="110.2" x2="297.2" y2="110.2"/>
			<line id="XMLID_69_" class="st3" x1="301.7" y1="110.2" x2="307.2" y2="110.2"/>
		</g>
		<g id="XMLID_61_">
			<line id="XMLID_64_" class="st3" x1="281.9" y1="118.6" x2="287.3" y2="118.6"/>
			<line id="XMLID_63_" class="st3" x1="291.8" y1="118.6" x2="297.2" y2="118.6"/>
			<line id="XMLID_62_" class="st3" x1="301.7" y1="118.6" x2="307.2" y2="118.6"/>
		</g>
		<g id="XMLID_42_">
			<line id="XMLID_60_" class="st3" x1="281.9" y1="127" x2="287.3" y2="127"/>
			<line id="XMLID_59_" class="st3" x1="291.8" y1="127" x2="297.2" y2="127"/>
			<line id="XMLID_44_" class="st3" x1="301.7" y1="127" x2="307.2" y2="127"/>
		</g>
		<g id="XMLID_124_">
			<line id="XMLID_138_" class="st3" x1="281.9" y1="134.9" x2="287.3" y2="134.9"/>
			<line id="XMLID_137_" class="st3" x1="291.8" y1="134.9" x2="297.2" y2="134.9"/>
			<line id="XMLID_136_" class="st3" x1="301.7" y1="134.9" x2="307.2" y2="134.9"/>
		</g>
		<g id="XMLID_140_">
			<line id="XMLID_145_" class="st3" x1="281.9" y1="142.8" x2="287.3" y2="142.8"/>
			<line id="XMLID_142_" class="st3" x1="291.8" y1="142.8" x2="297.2" y2="142.8"/>
			<line id="XMLID_141_" class="st3" x1="301.7" y1="142.8" x2="307.2" y2="142.8"/>
		</g>
		<g id="XMLID_146_">
			<line id="XMLID_151_" class="st3" x1="281.9" y1="150.7" x2="287.3" y2="150.7"/>
			<line id="XMLID_150_" class="st3" x1="291.8" y1="150.7" x2="297.2" y2="150.7"/>
			<line id="XMLID_147_" class="st3" x1="301.7" y1="150.7" x2="307.2" y2="150.7"/>
		</g>
		<g id="XMLID_152_">
			<line id="XMLID_159_" class="st3" x1="281.9" y1="158.7" x2="287.3" y2="158.7"/>
			<line id="XMLID_156_" class="st3" x1="291.8" y1="158.7" x2="297.2" y2="158.7"/>
			<line id="XMLID_155_" class="st3" x1="301.7" y1="158.7" x2="307.2" y2="158.7"/>
		</g>
		<g id="XMLID_178_">
			<line id="XMLID_186_" class="st3" x1="281.9" y1="166.6" x2="287.3" y2="166.6"/>
			<line id="XMLID_182_" class="st3" x1="291.8" y1="166.6" x2="297.2" y2="166.6"/>
			<line id="XMLID_180_" class="st3" x1="301.7" y1="166.6" x2="307.2" y2="166.6"/>
		</g>
		<g id="XMLID_203_">
			<line id="XMLID_242_" class="st3" x1="281.9" y1="174.5" x2="287.3" y2="174.5"/>
			<line id="XMLID_241_" class="st3" x1="291.8" y1="174.5" x2="297.2" y2="174.5"/>
			<line id="XMLID_216_" class="st3" x1="301.7" y1="174.5" x2="307.2" y2="174.5"/>
		</g>
	</g>
	<path class="st6" d="M312.2,128.5h-35.6c-1.5,0-2.9,0.4-4.1,1.2c-1.4,0.1-2.5,1.2-2.6,2.6c-0.7,1.2-1.2,2.6-1.2,4.1v96
		c0,1.5,0.4,2.9,1.2,4.1c0.1,1.4,1.2,2.5,2.6,2.6c1.2,0.7,2.6,1.2,4.1,1.2h6v4.6h16.5v-4.6h13.2V128.5z M296.8,243.7h-11.9v-3.5
		h11.9V243.7z"/>
	<g class="st7">
		<path class="st8" d="M401.3,243.2h16.8v-16.4h-6.3l-3-14.8c-0.3-1.2-1.3-2.1-2.6-2.1h-6.4v19.2h4.4L401.3,243.2z"/>
		<path class="st8" d="M395,208.3h0.5l-2.7-13.2c-0.3-1.2-1.3-2.1-2.6-2.1h-4.9v-4.9h1.1v-51.7c0-1.5-0.4-2.9-1.2-4.1
			c-0.1-1.4-1.2-2.5-2.6-2.7c-1.2-0.7-2.6-1.2-4.1-1.2h-2v114.7H395v-3.7l-2.1-10.4h2.1V208.3z M385.4,226.4v-14.2h2.9L385.4,226.4z
			"/>
	</g>
	<g id="XMLID_295_">
		<rect id="XMLID_394_" x="349.3" y="234" class="st3" width="14.2" height="10.9"/>
		<rect id="XMLID_392_" x="286.8" y="234" class="st3" width="14.2" height="10.9"/>
		<path id="XMLID_391_" class="st9" d="M380.4,239.1H274.9c-1.1,0-1.9-0.9-1.9-1.9V131.6c0-1.1,0.9-1.9,1.9-1.9h105.6
			c1.1,0,1.9,0.9,1.9,1.9v105.6C382.4,238.2,381.5,239.1,380.4,239.1z"/>
		<path id="XMLID_390_" class="st10" d="M371.4,229.8h-87.5c-0.9,0-1.6-0.7-1.6-1.6v-87.5c0-0.9,0.7-1.6,1.6-1.6h87.5
			c0.9,0,1.6,0.7,1.6,1.6v87.5C373,229,372.3,229.8,371.4,229.8z"/>
		<path id="XMLID_389_" class="st3" d="M334.4,229.8h-48.6c-2,0-3.6-1.6-3.6-3.6v-83.7c0-2,1.6-3.6,3.6-3.6h83.7
			c2,0,3.6,1.6,3.6,3.6v48.6"/>
		<path id="XMLID_388_" class="st3" d="M332,239.1h-52.3c-3.7,0-6.7-3-6.7-6.7v-96c0-3.7,3-6.7,6.7-6.7h96c3.7,0,6.7,3,6.7,6.7v54.8
			"/>
		<g id="XMLID_381_">
			<path id="XMLID_387_" class="st2" d="M284.6,166.9h-4.5c-0.5,0-0.9-0.4-0.9-0.9v-13.2c0-0.5,0.4-0.9,0.9-0.9h4.5
				c0.5,0,0.9,0.4,0.9,0.9V166C285.5,166.5,285.1,166.9,284.6,166.9z"/>
			<path id="XMLID_382_" class="st3" d="M284.6,166.9h-4.5c-0.5,0-0.9-0.4-0.9-0.9v-13.2c0-0.5,0.4-0.9,0.9-0.9h4.5
				c0.5,0,0.9,0.4,0.9,0.9V166C285.5,166.5,285.1,166.9,284.6,166.9z"/>
		</g>
		<g id="XMLID_362_">
			<path id="XMLID_380_" class="st2" d="M284.6,212.1h-4.5c-0.5,0-0.9-0.4-0.9-0.9V198c0-0.5,0.4-0.9,0.9-0.9h4.5
				c0.5,0,0.9,0.4,0.9,0.9v13.2C285.5,211.7,285.1,212.1,284.6,212.1z"/>
			<path id="XMLID_367_" class="st3" d="M284.6,212.1h-4.5c-0.5,0-0.9-0.4-0.9-0.9V198c0-0.5,0.4-0.9,0.9-0.9h4.5
				c0.5,0,0.9,0.4,0.9,0.9v13.2C285.5,211.7,285.1,212.1,284.6,212.1z"/>
		</g>
		
			<ellipse id="XMLID_354_" transform="matrix(0.7071 -0.7071 0.7071 0.7071 -34.401 285.6898)" class="st2" cx="327.7" cy="184.4" rx="12.8" ry="12.8"/>
		
			<ellipse id="XMLID_353_" transform="matrix(0.7071 -0.7071 0.7071 0.7071 -34.401 285.6898)" class="st3" cx="327.7" cy="184.4" rx="12.8" ry="12.8"/>
		<path id="XMLID_339_" class="st3" d="M331.4,184.4c0,2.1-1.7,3.8-3.8,3.8c-2.1,0-3.8-1.7-3.8-3.8c0-2.1,1.7-3.8,3.8-3.8
			C329.7,180.6,331.4,182.3,331.4,184.4z"/>
		<g id="XMLID_298_">
			<path id="XMLID_338_" class="st4" d="M360.2,244.9h-24.5l3.2-15.7c0.1-0.7,0.8-1.2,1.5-1.2h15.2c0.7,0,1.4,0.5,1.5,1.2
				L360.2,244.9z"/>
			<path id="XMLID_337_" class="st4" d="M391.9,244.9h-24.5l3.2-15.7c0.1-0.7,0.8-1.2,1.5-1.2h15.2c0.7,0,1.4,0.5,1.5,1.2
				L391.9,244.9z"/>
			<path id="XMLID_334_" class="st4" d="M423.6,244.9h-24.5l3.2-15.7c0.1-0.7,0.8-1.2,1.5-1.2h15.2c0.7,0,1.4,0.5,1.5,1.2
				L423.6,244.9z"/>
			<path id="XMLID_317_" class="st4" d="M376.1,228h-24.5l3.2-15.7c0.1-0.7,0.8-1.2,1.5-1.2h15.2c0.7,0,1.4,0.5,1.5,1.2L376.1,228z"
				/>
			<path id="XMLID_316_" class="st4" d="M407.7,228h-24.5l3.2-15.7c0.1-0.7,0.8-1.2,1.5-1.2h15.2c0.7,0,1.4,0.5,1.5,1.2L407.7,228z"
				/>
			<path id="XMLID_314_" class="st4" d="M391.9,211h-24.5l3.2-15.7c0.1-0.7,0.8-1.2,1.5-1.2h15.2c0.7,0,1.4,0.5,1.5,1.2L391.9,211z"
				/>
			<path id="XMLID_312_" class="st3" d="M360.2,244.9h-24.5l3.2-15.7c0.1-0.7,0.8-1.2,1.5-1.2h15.2c0.7,0,1.4,0.5,1.5,1.2
				L360.2,244.9z"/>
			<path id="XMLID_311_" class="st3" d="M391.9,244.9h-24.5l3.2-15.7c0.1-0.7,0.8-1.2,1.5-1.2h15.2c0.7,0,1.4,0.5,1.5,1.2
				L391.9,244.9z"/>
			<path id="XMLID_310_" class="st3" d="M423.6,244.9h-24.5l3.2-15.7c0.1-0.7,0.8-1.2,1.5-1.2h15.2c0.7,0,1.4,0.5,1.5,1.2
				L423.6,244.9z"/>
			<path id="XMLID_308_" class="st3" d="M376.1,228h-24.5l3.2-15.7c0.1-0.7,0.8-1.2,1.5-1.2h15.2c0.7,0,1.4,0.5,1.5,1.2L376.1,228z"
				/>
			<path id="XMLID_307_" class="st3" d="M407.7,228h-24.5l3.2-15.7c0.1-0.7,0.8-1.2,1.5-1.2h15.2c0.7,0,1.4,0.5,1.5,1.2L407.7,228z"
				/>
			<path id="XMLID_303_" class="st3" d="M391.9,211h-24.5l3.2-15.7c0.1-0.7,0.8-1.2,1.5-1.2h15.2c0.7,0,1.4,0.5,1.5,1.2L391.9,211z"
				/>
		</g>
	</g>
	<g id="XMLID_650_">
		<line id="XMLID_671_" class="st3" x1="531.6" y1="227.4" x2="531.6" y2="237.4"/>
		<path id="XMLID_668_" class="st1" d="M531.6,179.9c-13.3,0-24.1,10.8-24.1,24.1c0,13.3,10.8,24.1,24.1,24.1
			c13.3,0,24.1-10.8,24.1-24.1C555.7,190.7,544.9,179.9,531.6,179.9z M531.6,222.3c-10.1,0-18.3-8.2-18.3-18.3
			c0-10.1,8.2-18.3,18.3-18.3c10.1,0,18.3,8.2,18.3,18.3C549.9,214.1,541.7,222.3,531.6,222.3z"/>
		<rect id="XMLID_666_" x="526.8" y="234.4" class="st1" width="9.5" height="10.5"/>
		<polyline id="XMLID_665_" class="st3" points="536.4,244.8 536.4,234.4 526.8,234.4 526.9,244.8 		"/>
		<line id="XMLID_664_" class="st3" x1="526.6" y1="241.3" x2="536.6" y2="241.3"/>
		<polygon id="XMLID_675_" class="st4" points="521.3,221.3 514.5,217.1 514.5,185.7 521.3,185.7 		"/>
		<rect id="XMLID_674_" x="521.3" y="175" class="st2" width="6.9" height="48.7"/>
		<rect id="XMLID_672_" x="528.2" y="179.3" class="st4" width="6.9" height="44.4"/>
		<rect id="XMLID_667_" x="535" y="174.2" class="st2" width="6.9" height="49.4"/>
		<polygon id="XMLID_655_" class="st4" points="548.7,219 541.9,222.3 541.9,168 548.7,168 		"/>
		<polygon id="XMLID_244_" class="st3" points="521.3,221.3 514.5,217.1 514.5,185.7 521.3,185.7 		"/>
		<rect id="XMLID_243_" x="521.3" y="175" class="st3" width="6.9" height="48.7"/>
		<rect id="XMLID_644_" x="528.2" y="179.3" class="st3" width="6.9" height="44.4"/>
		<rect id="XMLID_646_" x="535" y="174.2" class="st3" width="6.9" height="49.4"/>
		<polygon id="XMLID_647_" class="st3" points="548.7,217.3 541.9,222.3 541.9,168 548.7,168 		"/>
		<path id="XMLID_649_" class="st1" d="M549.9,204c0,10.1-8.2,18.3-18.3,18.3c-10.1,0-18.3-8.2-18.3-18.3l-5.8,0
			c0,13.3,10.8,24.1,24.1,24.1c13.3,0,24.1-10.8,24.1-24.1L549.9,204z"/>
		<path id="XMLID_627_" class="st3" d="M510.1,215c4,7.8,12.1,13.1,21.5,13.1c13.3,0,24.1-10.8,24.1-24.1c0-4.7-1.4-9.2-3.7-12.9
			 M507.6,206.2c0.2,2,0.6,4,1.3,5.9 M511.3,191c-2.4,3.8-3.8,8.2-3.8,13"/>
	</g>
	<g id="XMLID_245_">
		<g id="XMLID_246_">
			<path id="XMLID_264_" class="st4" d="M141,244.3h-6.2v-124c0-1.7,1.4-3.1,3.1-3.1l0,0c1.7,0,3.1,1.4,3.1,3.1V244.3z"/>
			<path id="XMLID_263_" class="st3" d="M134.8,244.3V120c0-1.6,1.3-2.8,2.8-2.8h0.5c1.6,0,2.8,1.3,2.8,2.8v124.3"/>
			<line id="XMLID_262_" class="st3" x1="116.2" y1="131" x2="159.6" y2="131"/>
			<path id="XMLID_261_" class="st2" d="M144.4,130.6c0,3.6-2.9,6.5-6.5,6.5c-3.6,0-6.5-2.9-6.5-6.5c0-3.6,2.9-6.5,6.5-6.5
				C141.5,124.2,144.4,127.1,144.4,130.6z"/>
			<path id="XMLID_260_" class="st3" d="M144.4,130.6c0,3.6-2.9,6.5-6.5,6.5c-3.6,0-6.5-2.9-6.5-6.5c0-3.6,2.9-6.5,6.5-6.5
				C141.5,124.2,144.4,127.1,144.4,130.6z"/>
			<line id="XMLID_259_" class="st3" x1="164.2" y1="152.3" x2="155.8" y2="129"/>
			<line id="XMLID_258_" class="st3" x1="149" y1="152.3" x2="158.1" y2="129"/>
			<path id="XMLID_257_" class="st1" d="M167,151.4c0,5.7-4.6,10.4-10.4,10.4c-5.7,0-10.4-4.6-10.4-10.4H167z"/>
			<line id="XMLID_256_" class="st3" x1="111.7" y1="152.3" x2="120.1" y2="129"/>
			<line id="XMLID_255_" class="st3" x1="126.9" y1="152.3" x2="117.8" y2="129"/>
			<path id="XMLID_254_" class="st1" d="M108.8,151.4c0,5.7,4.6,10.4,10.4,10.4s10.4-4.6,10.4-10.4H108.8z"/>
			<path id="XMLID_253_" class="st3" d="M166,155.9c-0.4,0.8-0.9,1.6-1.5,2.3"/>
			<path id="XMLID_252_" class="st3" d="M162.6,159.9c-1,0.7-2.1,1.2-3.2,1.5c-0.9,0.2-1.8,0.4-2.7,0.4c-5.7,0-10.4-4.6-10.4-10.4
				H167c0,1.3-0.2,2.5-0.7,3.7"/>
			<path id="XMLID_251_" class="st3" d="M108.8,151.4c0,5.7,4.6,10.4,10.4,10.4s10.4-4.6,10.4-10.4H108.8z"/>
			<path id="XMLID_250_" class="st2" d="M159.4,131c0,1.5-1.2,2.7-2.7,2.7s-2.7-1.2-2.7-2.7c0-1.5,1.2-2.7,2.7-2.7
				S159.4,129.5,159.4,131z"/>
			<path id="XMLID_249_" class="st3" d="M159.4,131c0,1.5-1.2,2.7-2.7,2.7s-2.7-1.2-2.7-2.7c0-1.5,1.2-2.7,2.7-2.7
				S159.4,129.5,159.4,131z"/>
			<path id="XMLID_248_" class="st2" d="M121.9,131c0,1.5-1.2,2.7-2.7,2.7c-1.5,0-2.7-1.2-2.7-2.7c0-1.5,1.2-2.7,2.7-2.7
				C120.7,128.3,121.9,129.5,121.9,131z"/>
			<path id="XMLID_247_" class="st3" d="M121.9,131c0,1.5-1.2,2.7-2.7,2.7c-1.5,0-2.7-1.2-2.7-2.7c0-1.5,1.2-2.7,2.7-2.7
				C120.7,128.3,121.9,129.5,121.9,131z"/>
		</g>
	</g>
	<g id="XMLID_384_">
		<g id="XMLID_383_">
			<path id="XMLID_385_" class="st4" d="M107.7,202.7c-9.4,0.2-17,8-16.8,17.5c0.2,9.4,8,17,17.5,16.8c9.4-0.2,17-8,16.8-17.5
				C125,210,117.1,202.5,107.7,202.7z"/>
			<path id="XMLID_370_" class="st3" d="M124.9,216.9c-1.4-8.2-8.6-14.3-17.2-14.2c-1.5,0-2.9,0.2-4.2,0.6"/>
			<path id="XMLID_371_" class="st3" d="M93.8,210.3c-1.4,2.1-2.4,4.6-2.8,7.2"/>
			<path id="XMLID_369_" class="st3" d="M100.9,204.3c-1.9,0.9-3.6,2.1-5.1,3.6"/>
			<g id="XMLID_377_">
				<path id="XMLID_268_" class="st3" d="M112.5,213.3H107c-1.2,0-2.1,0.9-2.1,2.1l0,0c0,1.2,0.9,2.1,2.1,2.1h2.3
					c1.2,0,2.1,0.9,2.1,2.1l0,0c0,1.2-0.9,2.1-2.1,2.1h-5.6"/>
				<line id="XMLID_378_" class="st3" x1="108" y1="209.8" x2="108" y2="225.1"/>
			</g>
			<path id="XMLID_366_" class="st2" d="M115.7,220c0,4.2-3.4,7.7-7.7,7.7c-4.2,0-7.7-3.4-7.7-7.7l-15.3,0.2l0,1.1
				c0,1.3,1.1,2.4,2.4,2.4l3.7,0c0.4,1.9,1.2,3.8,2.2,5.4l-2.7,2.6c-0.9,0.9-0.9,2.5,0,3.4l2,2c0.9,1,2.5,1,3.4,0l2.6-2.6
				c1.6,1,3.4,1.8,5.4,2.3l0,3.7c0,1.3,1.1,2.4,2.4,2.4l2.8,0c1.3,0,2.4-1.1,2.4-2.4l0-3.7c1.9-0.4,3.8-1.2,5.4-2.2l2.6,2.7
				c0.9,0.9,2.5,0.9,3.4,0l2-2c0.9-0.9,1-2.5,0-3.4l-2.6-2.6c1-1.6,1.8-3.4,2.2-5.4l3.7,0c1.3,0,2.4-1.1,2.4-2.4v-1.6L115.7,220z"/>
			<path id="XMLID_364_" class="st3" d="M115.7,220c0,4.2-3.4,7.7-7.7,7.7c-4.2,0-7.7-3.4-7.7-7.7l-15.3,0.2l0,1.1
				c0,1.3,1.1,2.4,2.4,2.4l3.7,0c0.4,1.9,1.2,3.8,2.2,5.4l-2.7,2.6c-0.9,0.9-0.9,2.5,0,3.4l2,2c0.9,1,2.5,1,3.4,0l2.6-2.6
				c1.6,1,3.4,1.8,5.4,2.3l0,3.7c0,1.3,1.1,2.4,2.4,2.4l2.8,0c1.3,0,2.4-1.1,2.4-2.4l0-3.7c1.9-0.4,3.8-1.2,5.4-2.2l2.6,2.7
				c0.9,0.9,2.5,0.9,3.4,0l2-2c0.9-0.9,1-2.5,0-3.4l-2.6-2.6c1-1.6,1.8-3.4,2.2-5.4l3.7,0c1.3,0,2.4-1.1,2.4-2.4v-1.6L115.7,220z"/>
			<line id="XMLID_373_" class="st3" x1="107.6" y1="197.6" x2="107.6" y2="200"/>
			<line id="XMLID_372_" class="st3" x1="116.4" y1="195.6" x2="114.4" y2="201"/>
			<line id="XMLID_374_" class="st3" x1="122.3" y1="202.2" x2="120.4" y2="204.4"/>
			<line id="XMLID_375_" class="st3" x1="130" y1="206.7" x2="125" y2="209.6"/>
			<line id="XMLID_376_" class="st3" x1="130.3" y1="215.5" x2="127.5" y2="216"/>
			<line id="XMLID_267_" class="st3" x1="85.6" y1="216.2" x2="88.4" y2="216.7"/>
			<line id="XMLID_266_" class="st3" x1="85.7" y1="207.3" x2="90.7" y2="210.2"/>
			<line id="XMLID_406_" class="st3" x1="93.3" y1="202.7" x2="95" y2="204.8"/>
			<line id="XMLID_265_" class="st3" x1="99" y1="195.9" x2="101" y2="201.3"/>
		</g>
	</g>
	<g>
		<path id="XMLID_272_" class="st4" d="M468.3,127c-6.6,0.1-11.8,5.6-11.7,12.1c0.1,6.6,5.6,11.8,12.1,11.7
			c6.6-0.1,11.8-5.6,11.7-12.1C480.3,132.1,474.9,126.9,468.3,127z"/>
		<path id="XMLID_423_" class="st3" d="M474.7,149.1c-1.9,1.1-4,1.7-6.4,1.7c-6.6-0.1-11.8-5.6-11.7-12.1
			c0.1-6.6,5.6-11.8,12.1-11.7c6.6,0.1,11.8,5.6,11.7,12.1c0,1.3-0.3,2.5-0.6,3.6"/>
		<path id="XMLID_422_" class="st3" d="M478.8,144.9c-0.5,0.8-1,1.6-1.7,2.2"/>
		<g id="XMLID_419_">
			<path id="XMLID_421_" class="st3" d="M473.3,134.4h-5.9c-1.2,0-2.3,1-2.3,2.3l0,0c0,1.2,1,2.3,2.3,2.3h2.4c1.2,0,2.3,1,2.3,2.3
				l0,0c0,1.2-1,2.3-2.3,2.3h-6.1"/>
			<line id="XMLID_420_" class="st3" x1="468.6" y1="130.7" x2="468.6" y2="147.1"/>
		</g>
		<path id="XMLID_1000_" class="st0" d="M475.8,90.7c-0.1,1.7-1.6,3-3.3,3L460,93c-1.7-0.1-3-1.5-3-3.3l0,0c0.1-1.7,1.5-3,3.3-3
			l12.5,0.6C474.6,87.5,475.9,88.9,475.8,90.7L475.8,90.7z"/>
		<path id="XMLID_999_" class="st0" d="M461.4,88c1,1.1,1,2.7-0.1,3.8l-6.3,6.2c-1.1,1-2.7,1-3.8-0.1l0,0c-1-1.1-1-2.7,0.1-3.8
			l6.3-6.2C458.7,86.9,460.4,86.9,461.4,88L461.4,88z"/>
		<path id="XMLID_998_" class="st0" d="M449.8,108.2l0.9-12.9l4.2,2c0,0,0.9,5.9,0,7.3C454.2,105.6,449.8,108.2,449.8,108.2z"/>
		<path id="XMLID_1008_" class="st3" d="M457.9,87.7c-0.1,0.1-0.2,0.1-0.2,0.2l-6.3,6.2c-0.7,0.6-0.9,1.6-0.8,2.4l-0.8,11
			c0,0.3,0.3,0.5,0.5,0.3c1.2-0.7,4-2.4,4.5-3.3c0.7-1.1,0.3-4.9,0.1-6.5c0,0,0,0,0.1-0.1l5-4.9l12.3,0.6c1.6,0.1,3-0.9,3.4-2.4
			c0.4-1.9-1-3.7-2.9-3.8l-12.5-0.6C459.4,86.7,458.5,87.1,457.9,87.7z"/>
		<path id="XMLID_1002_" class="st4" d="M495,107.9l-9.9,6.1l-10.9,0.8c0,0-0.8-4,2.3-5.1l6-1.1c0,0,0.4-6.5,0.4-7
			c0-1.3-9.1-6.5-10.4-6.4c-0.8,0.1-11,0.9-11,0.9l-2.1,7.8c0,0,0,3.8,0.7,5.3c2.2,5-2.9,4.8-2.9,4.8l-3.4-10.8l2.6-11.7l15.4-5.3
			l23.2,4.8V107.9z"/>
		<path id="XMLID_997_" class="st3" d="M495,107.9l-9.9,6.1l-10.9,0.8c0,0-0.8-4,2.3-5.1l6-1.1c0,0,0.4-6.5,0.4-7
			c0-1.3-9.1-6.5-10.4-6.4c-0.8,0.1-11,0.9-11,0.9l-2.1,7.8c0,0,0,3.8,0.7,5.3c2.2,5-2.9,4.8-2.9,4.8l-3.4-10.8l2.6-11.7l15.4-5.3
			l23.2,4.8V107.9z"/>
		<path id="XMLID_269_" class="st2" d="M589.4,244.8v-122c0-19.1-15.5-34.7-34.7-34.7h-43h-16c-1.2,0-2.1,0.9-2.1,2.1v19.4
			c0,1.2,0.9,2.1,2.1,2.1h16l37.2,0.2c7.5,0,13.5,6.1,13.5,13.6v119.4"/>
		<path id="XMLID_273_" class="st3" d="M589.4,175.1v-52.4c0-19.1-15.5-34.7-34.7-34.7h-43h-16c-1.2,0-2.1,0.9-2.1,2.1v19.4
			c0,1.2,0.9,2.1,2.1,2.1h16l37.2,0.2c7.5,0,13.5,6.1,13.5,13.6v119.4"/>
		<line id="XMLID_398_" class="st3" x1="464.6" y1="111.9" x2="464.6" y2="123.8"/>
		<line id="XMLID_271_" class="st3" x1="470.9" y1="108.3" x2="470.9" y2="120.2"/>
		<line id="XMLID_400_" class="st3" x1="477.1" y1="118.4" x2="477.1" y2="126"/>
		<line id="XMLID_270_" class="st3" x1="458.4" y1="120" x2="458.4" y2="127.6"/>
	</g>
	<line id="XMLID_5_" class="st3" x1="15.7" y1="244.9" x2="678" y2="244.9"/>
	<g class="st7">
		<path class="st8" d="M589.4,203.4c-0.8-0.1-1.7-0.1-2.6-0.1c-3.8,0-7.3,0.9-10.4,2.5l-4.6-3.1c-1.8-1.2-4.1-1.4-6.1-0.5
			c-2,1-3.3,2.9-3.5,5.1l-0.5,7.2c0,0.6,0.3,1.3,0.8,1.6c0.3,0.2,0.7,0.3,1,0.3c0.3,0,0.5-0.1,0.8-0.2l3.2-1.6
			c-1.2,2.4-1.9,5.1-1.9,7.9c0,6.3,3.3,11.9,8.4,15.4l0.5,6.7h8.8v-3.1c1.1,0.2,2.3,0.3,3.5,0.3c0.9,0,1.7-0.1,2.6-0.2V203.4z"/>
		<path class="st8" d="M574.3,189.7c0.1,6.7,5.6,12.1,12.3,12.1c0.1,0,0.2,0,0.2,0c0.9,0,1.7-0.1,2.5-0.3v-24c-1-0.2-2-0.3-3-0.3
			c-3.3,0.1-6.4,1.4-8.6,3.8C575.4,183.3,574.2,186.4,574.3,189.7z"/>
	</g>
	<g id="XMLID_274_">
		<path id="XMLID_302_" class="st0" d="M611.8,207.4l0.5,7.2c0,0.5-0.5,0.9-1,0.7l-13.4-6.5c-0.4-0.2-0.4-0.8-0.1-1l6.1-4.2
			C607.2,201.4,611.5,203.5,611.8,207.4z"/>
		<path id="XMLID_301_" class="st3" d="M611.8,207.4l0.5,7.2c0,0.5-0.5,0.9-1,0.7l-13.4-6.5c-0.4-0.2-0.4-0.8-0.1-1l6.1-4.2
			C607.2,201.4,611.5,203.5,611.8,207.4z"/>
		<path id="XMLID_300_" class="st0" d="M566.4,207.4l-0.5,7.2c0,0.5,0.5,0.9,1,0.7l13.4-6.5c0.4-0.2,0.4-0.8,0.1-1l-6.1-4.2
			C571,201.4,566.7,203.5,566.4,207.4z"/>
		<path id="XMLID_299_" class="st3" d="M566.4,207.4l-0.5,7.2c0,0.5,0.5,0.9,1,0.7l13.4-6.5c0.4-0.2,0.4-0.8,0.1-1l-6.1-4.2
			C571,201.4,566.7,203.5,566.4,207.4z"/>
		<path id="XMLID_291_" class="st4" d="M589.4,178.3c-6.2,0.1-11.1,5.2-10.9,11.4c0.1,6.2,5.2,11.1,11.4,10.9
			c6.2-0.1,11.1-5.2,10.9-11.4C600.7,183,595.6,178.1,589.4,178.3z"/>
		<path id="XMLID_290_" class="st3" d="M595.4,179.8c-1.7-1.1-3.8-1.6-6-1.6c-6.2,0.1-11.1,5.2-10.9,11.4
			c0.1,6.2,5.2,11.1,11.4,10.9c6.2-0.1,11.1-5.2,10.9-11.4c0-1.2-0.2-2.3-0.6-3.4"/>
		<path id="XMLID_289_" class="st3" d="M599.3,183.8c-0.4-0.8-1-1.5-1.6-2.1"/>
		<g id="XMLID_286_">
			<path id="XMLID_288_" class="st3" d="M594.1,185.2h-5.5c-1.2,0-2.1,0.9-2.1,2.1l0,0c0,1.2,0.9,2.1,2.1,2.1h2.3
				c1.2,0,2.1,0.9,2.1,2.1l0,0c0,1.2-0.9,2.1-2.1,2.1h-5.7"/>
			<line id="XMLID_287_" class="st3" x1="589.6" y1="181.7" x2="589.6" y2="197.1"/>
		</g>
		<polygon id="XMLID_632_" class="st1" points="585.2,244.9 578.7,244.9 578,235.2 585.2,235.2 		"/>
		<polygon id="XMLID_606_" class="st1" points="594.3,244.9 600.8,244.9 601.5,235.2 594.3,235.2 		"/>
		<polygon id="XMLID_575_" class="st3" points="585.2,244.9 578.7,244.9 578,235.2 585.2,235.2 		"/>
		<polygon id="XMLID_524_" class="st3" points="594.3,244.9 600.8,244.9 601.5,235.2 594.3,235.2 		"/>
		<ellipse id="XMLID_285_" class="st4" cx="589.8" cy="222.6" rx="20" ry="18.2"/>
		<path id="XMLID_284_" class="st0" d="M595.5,226.7c0,3.3-2.6,5.9-5.9,5.9c-3.3,0-5.9-2.6-5.9-5.9c0-3.3,2.6-5.9,5.9-5.9
			C592.9,220.8,595.5,223.5,595.5,226.7z"/>
		<ellipse id="XMLID_283_" class="st3" cx="589.8" cy="222.6" rx="20" ry="18.2"/>
		<path id="XMLID_282_" class="st3" d="M595.5,234.2c-1.5,1.5-3.6,2.4-5.9,2.4c-2.3,0-4.4-0.9-5.9-2.4"/>
		<path id="XMLID_281_" class="st3" d="M595.5,226.7c0,3.3-2.6,5.9-5.9,5.9c-3.3,0-5.9-2.6-5.9-5.9c0-3.3,2.6-5.9,5.9-5.9
			C592.9,220.8,595.5,223.5,595.5,226.7z"/>
		<g id="XMLID_278_">
			<path id="XMLID_280_" class="st3" d="M580.4,218.5c0-1.5,1.3-2.8,2.8-2.8c1.5,0,2.8,1.3,2.8,2.8"/>
			<path id="XMLID_279_" class="st3" d="M593.3,218.5c0-1.5,1.2-2.8,2.8-2.8c1.5,0,2.8,1.3,2.8,2.8"/>
		</g>
		<line id="XMLID_277_" class="st3" x1="586.5" y1="227" x2="588.3" y2="227"/>
		<line id="XMLID_275_" class="st3" x1="591.2" y1="227" x2="593.1" y2="227"/>
	</g>
</g>
</svg>
