<?xml version="1.0" encoding="utf-8"?>
<!-- Generator: Adobe Illustrator 22.1.0, SVG Export Plug-In . SVG Version: 6.00 Build 0)  -->
<svg version="1.1" id="Layer_1" xmlns="http://www.w3.org/2000/svg" xmlns:xlink="http://www.w3.org/1999/xlink" x="0px" y="0px"
	 viewBox="0 0 693 270" style="enable-background:new 0 0 693 270;" xml:space="preserve">
<style type="text/css">
	.st0{fill:#FFFFFF;}
	.st1{fill:#5FB0E5;}
	.st2{fill:none;stroke:#0686D8;stroke-width:1.5;stroke-miterlimit:10;}
	.st3{fill:#D2E9F7;}
	.st4{fill:#FFFFFE;}
	.st5{fill:#9ECFEF;}
	.st6{opacity:0.3;fill:#03436C;enable-background:new    ;}
	.st7{opacity:0.3;}
	.st8{fill:#03436C;}
	.st9{fill:#0686D8;}
	.st10{opacity:0.3;fill:none;stroke:#0686D8;stroke-width:1.5;stroke-miterlimit:10;}
</style>
<g>
	<g id="XMLID_721_">
		<g id="XMLID_688_">
			<g id="XMLID_635_">
				<path id="XMLID_660_" class="st0" d="M588.9,476.4h-7.5c-0.3,0-0.5-0.2-0.5-0.5v-54.5c0-0.1,0-0.2,0-0.2l3.7-6.1
					c0.2-0.4,0.8-0.4,1,0l3.7,6.1c0,0.1,0,0.1,0,0.2v54.5C589.4,476.2,589.2,476.4,588.9,476.4z"/>
				<rect id="XMLID_659_" x="580.9" y="423.2" class="st1" width="8.5" height="47.7"/>
				<path id="XMLID_658_" class="st2" d="M589.4,476.4h-8.5v-55.1l4-6.6c0.1-0.3,0.5-0.3,0.6,0l4,6.6L589.4,476.4L589.4,476.4z"/>
				<line id="XMLID_657_" class="st2" x1="580.7" y1="423.2" x2="589.4" y2="423.2"/>
				<line id="XMLID_656_" class="st2" x1="580.5" y1="470.9" x2="589.8" y2="470.9"/>
			</g>
			<g id="XMLID_663_">
				<path id="XMLID_686_" class="st2" d="M592.3,422.6c10.6,3,18.4,12.8,18.4,24.5c0,11.9-8.2,21.9-19.3,24.7"/>
				<path id="XMLID_670_" class="st2" d="M578.8,471.7c-10.9-2.9-19-12.8-19-24.6c0-11.7,8-21.6,18.8-24.5"/>
				<path id="XMLID_669_" class="st2" d="M594.2,423.3c3.9,6.2,6.2,14.6,6.2,23.7c0,9.3-2.4,17.7-6.3,23.9"/>
				<path id="XMLID_668_" class="st2" d="M577,423.3c-3.8,6.2-6.2,14.6-6.2,23.7c0,9.3,2.4,17.7,6.3,23.9"/>
				<line id="XMLID_666_" class="st2" x1="592.3" y1="447.1" x2="610.7" y2="447.1"/>
				<line id="XMLID_665_" class="st2" x1="593.7" y1="435" x2="608.3" y2="435"/>
				<line id="XMLID_687_" class="st2" x1="559.9" y1="447.1" x2="578.4" y2="447.1"/>
				<line id="XMLID_685_" class="st2" x1="562" y1="435" x2="577.3" y2="435"/>
				<line id="XMLID_664_" class="st2" x1="593.4" y1="459.2" x2="606.9" y2="459.2"/>
				<line id="XMLID_667_" class="st2" x1="563.5" y1="459.2" x2="577" y2="459.2"/>
			</g>
		</g>
	</g>
	<g>
		<path class="st0" d="M114.9,475.2H18.1v-170c0-1.7,1.4-3,3-3h90.7c1.7,0,3,1.4,3,3v170H114.9z"/>
		<path class="st1" d="M114.9,320.9H18.1v-13c0-3.2,2.6-5.8,5.8-5.8h85.2c3.2,0,5.8,2.6,5.8,5.8L114.9,320.9L114.9,320.9z"/>
		<path class="st2" d="M18.1,390.8v-82.9c0-3.2,2.6-5.8,5.8-5.8h85.2c3.2,0,5.8,2.6,5.8,5.8v68.2"/>
		<line class="st2" x1="18.1" y1="475.2" x2="18.1" y2="416"/>
		<line class="st2" x1="18.8" y1="321.3" x2="114.9" y2="321.3"/>
		<rect x="32.6" y="376.5" class="st3" width="67.3" height="14.4"/>
		<rect x="32.6" y="400.7" class="st3" width="67.3" height="14.4"/>
		<line class="st2" x1="27.8" y1="309.6" x2="30.7" y2="309.6"/>
		<line class="st2" x1="42.1" y1="383.7" x2="86" y2="383.7"/>
		<line class="st2" x1="40.7" y1="407.8" x2="42.9" y2="407.8"/>
		<line class="st2" x1="47.7" y1="407.8" x2="49.9" y2="407.8"/>
		<line class="st2" x1="54.7" y1="407.8" x2="56.9" y2="407.8"/>
		<line class="st2" x1="61.7" y1="407.8" x2="63.9" y2="407.8"/>
		<line class="st2" x1="68.7" y1="407.8" x2="70.9" y2="407.8"/>
		<line class="st2" x1="75.7" y1="407.8" x2="77.9" y2="407.8"/>
		<line class="st2" x1="82.7" y1="407.8" x2="84.9" y2="407.8"/>
		<line class="st2" x1="34.9" y1="309.6" x2="37.8" y2="309.6"/>
		<line class="st2" x1="42" y1="309.6" x2="44.9" y2="309.6"/>
		<g id="XMLID_69_">
			<path id="XMLID_79_" class="st2" d="M70.8,340.5c0,2.8-2.2,5-5,5s-5-2.2-5-5s2.2-5,5-5S70.8,337.8,70.8,340.5z"/>
			<path id="XMLID_77_" class="st2" d="M58.1,362.2v-4.7c0-4.5,3.6-8.1,8.1-8.1l0,0c4.5,0,8.1,3.6,8.1,8.1v4.7"/>
		</g>
		<circle class="st2" cx="66.2" cy="348.9" r="18.7"/>
	</g>
	<g id="XMLID_147_">
		<g id="XMLID_12_">
			<path id="XMLID_152_" class="st3" d="M459.9,463.4h-25.5c-0.7,0-1.4-0.6-1.4-1.4v-90.5c0-0.7,0.6-1.4,1.4-1.4h25.5
				c0.7,0,1.4,0.6,1.4,1.4V462C461.3,462.8,460.7,463.4,459.9,463.4z"/>
			<path id="XMLID_151_" class="st1" d="M483.9,463.4h-13.1c-0.7,0-1.4-0.6-1.4-1.4V358.6c0-0.7,0.6-1.4,1.4-1.4h13.1
				c0.7,0,1.4,0.6,1.4,1.4V462C485.3,462.8,484.7,463.4,483.9,463.4z"/>
			<rect id="XMLID_150_" x="475" y="378.4" class="st4" width="5.5" height="67.1"/>
			<path id="XMLID_42_" class="st3" d="M516.7,463.4H495c-0.7,0-1.4-0.6-1.4-1.4v-93.8c0-0.7,0.6-1.4,1.4-1.4h21.7
				c0.7,0,1.4,0.6,1.4,1.4V462C518,462.8,517.5,463.4,516.7,463.4z"/>
			<path id="XMLID_146_" class="st2" d="M433,382.8v-7.5c0-2.8,2.3-5,5-5h18.2c2.8,0,5,2.3,5,5v40.2"/>
			<path id="XMLID_145_" class="st2" d="M469.5,412.2v-49.9c0-2.8,2.3-5,5-5h5.3c3,0,5.4,2.4,5.4,5.4v49.5"/>
			<path id="XMLID_41_" class="st2" d="M493.5,415.5v-43.6c0-2.8,2.3-5,5-5H513c2.8,0,5,2.3,5,5v25.9"/>
			<line id="XMLID_40_" class="st2" x1="439.9" y1="381.3" x2="454.4" y2="381.3"/>
			<line id="XMLID_142_" class="st2" x1="439.9" y1="392.9" x2="454.4" y2="392.9"/>
			<line id="XMLID_141_" class="st2" x1="439.9" y1="404.4" x2="454.4" y2="404.4"/>
			<line id="XMLID_140_" class="st2" x1="439.9" y1="416" x2="454.4" y2="416"/>
			<line id="XMLID_39_" class="st2" x1="439.9" y1="427.5" x2="447.8" y2="427.5"/>
			<line id="XMLID_138_" class="st2" x1="439.9" y1="439.1" x2="454.4" y2="439.1"/>
			<line id="XMLID_137_" class="st2" x1="439.9" y1="450.6" x2="454.4" y2="450.6"/>
			<path id="XMLID_136_" class="st1" d="M514.5,384.2c0,4.8-3.9,8.7-8.7,8.7s-8.7-3.9-8.7-8.7c0-4.8,3.9-8.7,8.7-8.7
				C510.7,375.5,514.5,379.4,514.5,384.2z"/>
			<path id="XMLID_38_" class="st1" d="M514.5,442c0,4.8-3.9,8.7-8.7,8.7s-8.7-3.9-8.7-8.7s3.9-8.7,8.7-8.7
				C510.7,433.3,514.5,437.2,514.5,442z"/>
			<g id="XMLID_14_">
				<path id="XMLID_535_" class="st3" d="M529,449.3h-0.5c-2.3-7.8-9.4-13.4-17.9-13.4c-3.7,0-7.1,1.1-10.1,3
					c-1.9-12.2-12.4-21.6-25.2-21.6c-11.4,0-21.1,7.5-24.4,17.9c-1.5-0.4-3-0.6-4.6-0.6c-8.7,0-16,6.4-17.3,14.8h-2.9
					c-7.2,0-13.1,5.9-13.1,13.1v1c0,7.2,5.9,13.1,13.1,13.1h102.7c7.2,0,13.1-5.9,13.1-13.1v-1C542,455.2,536.3,449.3,529,449.3z"/>
				<path id="XMLID_37_" class="st0" d="M517,452.5h-0.5c-2-6.8-8.3-11.8-15.8-11.8c-3.3,0-6.3,1-8.9,2.6c-1.7-10.8-10.9-19-22.2-19
					c-10.1,0-18.6,6.7-21.5,15.8c-1.3-0.3-2.6-0.5-4-0.5c-7.7,0-14.1,5.6-15.2,13h-2.5c-6.3,0-11.5,5.2-11.5,11.5v0.8
					c0,6.3,5.2,11.5,11.5,11.5H517c6.3,0,11.5-5.2,11.5-11.5v-0.8C528.5,457.7,523.4,452.5,517,452.5z"/>
				<path id="XMLID_533_" class="st2" d="M492,436.8c-3.8-5.8-10.3-9.7-17.8-9.7c-4,0-7.7,1.1-10.8,3"/>
				<path id="XMLID_531_" class="st2" d="M446.9,434.5c5,0,9.1,4.1,9.1,9.1"/>
				<path id="XMLID_59_" class="st2" d="M426.4,449.3c-7.2,0-13.1,5.9-13.1,13.1v1c0,7.2,5.9,13.1,13.1,13.1H529
					c7.2,0,13.1-5.9,13.1-13.1v-1c0-7.2-5.9-13.1-13.1-13.1h-0.5c-2.3-7.8-9.4-13.4-17.9-13.4c-3.7,0-7.1,1.1-10.1,3
					c-1.9-12.2-12.4-21.6-25.2-21.6c-11.4,0-21.1,7.5-24.4,17.9c-1.5-0.4-3-0.6-4.6-0.6"/>
			</g>
		</g>
	</g>
	<g id="XMLID_74_">
		<g id="XMLID_78_">
			<path id="XMLID_186_" class="st1" d="M389.9,427.3H209.2V324.6c0-2.7,2.2-4.8,4.8-4.8h171.1c2.7,0,4.8,2.2,4.8,4.8V427.3z"/>
			<path id="XMLID_51_" class="st2" d="M209.2,377.9v-49c0-5,4-9,9-9h12.2h16.8"/>
			<path id="XMLID_48_" class="st2" d="M287.3,319.8h93.6c5,0,9,4,9,9v54.1"/>
			<line id="XMLID_55_" class="st2" x1="255.2" y1="319.8" x2="275.2" y2="319.8"/>
			<rect id="XMLID_36_" x="219" y="330.3" class="st0" width="161.3" height="84.9"/>
			<rect id="XMLID_20_" x="272.4" y="443.6" class="st3" width="54.4" height="32.2"/>
			<rect id="XMLID_182_" x="272.4" y="443.6" class="st5" width="54.4" height="16.1"/>
			<rect id="XMLID_15_" x="272.4" y="443.6" class="st2" width="54.4" height="32.2"/>
			<path id="XMLID_180_" class="st0" d="M389.9,423.4H209.2v18.5c0,3.2,2.6,5.9,5.9,5.9H384c3.2,0,5.9-2.6,5.9-5.9V423.4z"/>
			<line id="XMLID_54_" class="st2" x1="238.3" y1="447.8" x2="368.2" y2="447.8"/>
			<line id="XMLID_53_" class="st2" x1="366.2" y1="423.4" x2="238.5" y2="423.4"/>
			<line id="XMLID_178_" class="st2" x1="261.8" y1="476.4" x2="338.1" y2="476.4"/>
		</g>
		<path id="XMLID_58_" class="st3" d="M298.9,385.3h-67.3c-0.6,0-1.1-0.5-1.1-1.1v-40.1c0-0.6,0.5-1.1,1.1-1.1h67.3
			c0.6,0,1.1,0.5,1.1,1.1v40.1C299.9,384.8,299.5,385.3,298.9,385.3z"/>
		<path id="XMLID_56_" class="st2" d="M298.9,385.3h-67.3c-0.6,0-1.1-0.5-1.1-1.1v-40.1c0-0.6,0.5-1.1,1.1-1.1h67.3
			c0.6,0,1.1,0.5,1.1,1.1v40.1C299.9,384.8,299.5,385.3,298.9,385.3z"/>
		<path id="XMLID_812_" class="st1" d="M274.4,365.5l-16.8,9.7c-1.1,0.6-2.4-0.2-2.4-1.4v-19.3c0-1.2,1.3-2,2.4-1.4l16.8,9.7
			C275.4,363.4,275.4,364.9,274.4,365.5z"/>
		<path id="XMLID_811_" class="st2" d="M274.4,365.5l-16.8,9.7c-1.1,0.6-2.4-0.2-2.4-1.4v-19.3c0-1.2,1.3-2,2.4-1.4l16.8,9.7
			C275.4,363.4,275.4,364.9,274.4,365.5z"/>
		<line id="XMLID_61_" class="st2" x1="230.5" y1="396.8" x2="264" y2="396.8"/>
		<line id="XMLID_11_" class="st2" x1="342.5" y1="349.5" x2="376" y2="349.5"/>
		<line id="XMLID_10_" class="st2" x1="342.5" y1="359.9" x2="359.2" y2="359.9"/>
		<line id="XMLID_73_" class="st2" x1="342.5" y1="380.1" x2="376" y2="380.1"/>
		<line id="XMLID_72_" class="st2" x1="342.5" y1="390.4" x2="359.2" y2="390.4"/>
		<line id="XMLID_9_" class="st2" x1="342.5" y1="410.7" x2="376" y2="410.7"/>
		<line id="XMLID_60_" class="st2" x1="228.3" y1="405.9" x2="302.8" y2="405.9"/>
		<rect id="XMLID_62_" x="315.5" y="343.3" class="st1" width="22.6" height="22.6"/>
		<rect id="XMLID_63_" x="315.5" y="374" class="st1" width="22.6" height="22.6"/>
		<rect id="XMLID_64_" x="315.5" y="404.7" class="st1" width="22.6" height="11.3"/>
	</g>
	<path class="st6" d="M391.3,437v-8.3V422v-38.7h-2v-1.4h-7.7v1.4h-5.3v-1.4H372c-3.1,0-5.7,2.5-5.7,5.7v61.5h12.8
		C385.9,449.1,391.3,443.7,391.3,437z"/>
	<path class="st6" d="M445.7,472.1v-80.9c0-3.1-2.5-5.7-5.7-5.7h-2.1h-6.3v50.2h1.4v3c-2.4,2.5-4.2,5.6-4.9,9.1h-1.7
		c-8,0-14.5,6.5-14.5,14.5v1c0,8,6.5,14.5,14.5,14.5H440C443.2,477.8,445.7,475.3,445.7,472.1z"/>
	<g id="XMLID_113_">
		<path id="XMLID_99_" class="st0" d="M438.9,476.4h-65.7c-1,0-1.8-0.8-1.8-1.8v-85.9c0-1,0.8-1.8,1.8-1.8h65.7c1,0,1.8,0.8,1.8,1.8
			v85.9C440.7,475.6,439.9,476.4,438.9,476.4z"/>
		<path id="XMLID_112_" class="st2" d="M397.2,387h39.1c2.4,0,4.3,1.9,4.3,4.3v80.9c0,2.4-1.9,4.3-4.3,4.3h-60.7
			c-2.4,0-4.3-1.9-4.3-4.3v-80.9c0-2.4,1.9-4.3,4.3-4.3h4.2"/>
		<line id="XMLID_98_" class="st2" x1="385.3" y1="387" x2="393" y2="387"/>
		<rect id="XMLID_100_" x="377.9" y="396.1" class="st3" width="56.2" height="71.8"/>
		<line id="XMLID_102_" class="st2" x1="398.2" y1="391.7" x2="413.9" y2="391.7"/>
		<polygon id="XMLID_103_" class="st1" points="432.9,438.4 425.9,436 419,438.4 419,387 432.9,387 		"/>
		<polygon id="XMLID_101_" class="st2" points="432.9,438.4 425.9,436 419,438.4 419,387 432.9,387 		"/>
		<line id="XMLID_105_" class="st2" x1="382.1" y1="403.5" x2="414.9" y2="403.5"/>
		<line id="XMLID_104_" class="st2" x1="382.1" y1="411.9" x2="414.9" y2="411.9"/>
		<line id="XMLID_106_" class="st2" x1="382.1" y1="420.2" x2="414.9" y2="420.2"/>
		<line id="XMLID_107_" class="st2" x1="382.1" y1="428.6" x2="414.9" y2="428.6"/>
		<line id="XMLID_108_" class="st2" x1="382.1" y1="437" x2="414.9" y2="437"/>
		<line id="XMLID_109_" class="st2" x1="382.1" y1="445.4" x2="429.7" y2="445.4"/>
		<line id="XMLID_110_" class="st2" x1="382.1" y1="453.8" x2="429.7" y2="453.8"/>
		<line id="XMLID_111_" class="st2" x1="382.1" y1="462.1" x2="429.7" y2="462.1"/>
		<line id="XMLID_115_" class="st2" x1="403.3" y1="471.5" x2="408.8" y2="471.5"/>
	</g>
	<line id="XMLID_5_" class="st2" x1="-104.5" y1="476.4" x2="696" y2="476.4"/>
	<path class="st6" d="M233.1,376h-25.2v46v6.7v8.3c0,6.7,5.4,12.1,12.1,12.1h17.6v-68.6C237.6,378,235.6,376,233.1,376z"/>
	<path class="st6" d="M114.9,379.7h-8.6c-2.5,0-4.5,2-4.5,4.5v80.5h-6.2l1.1,6.9c0.2,1.4,0.8,2.6,1.7,3.6h16.5V379.7z"/>
	<g>
		<g id="XMLID_49_">
			<path id="XMLID_802_" class="st1" d="M231.5,471.4H107.8c-0.6,0-1-0.4-1-1V382c0-0.5,0.4-1,1-1h123.7c0.5,0,1,0.5,1,1v88.4
				C232.5,471,232.1,471.4,231.5,471.4z"/>
			<path id="XMLID_57_" class="st2" d="M106.8,411.5v-27.4c0-1.7,1.4-3.1,3.1-3.1h21.3"/>
			<path id="XMLID_52_" class="st2" d="M203.6,381h25.8c1.7,0,3.1,1.4,3.1,3.1v84.1c0,1.7-1.4,3.1-3.1,3.1"/>
			<rect id="XMLID_799_" x="112.9" y="388.2" class="st0" width="112.8" height="73.3"/>
			<path id="XMLID_798_" class="st0" d="M230.3,476.4H107.6c-2.9,0-5.5-2.1-5.9-5l-0.9-5.3h56.9l2.2,3.1h15.7l2.4-3.1h59.9l-0.8,4.6
				C236.6,474,233.7,476.4,230.3,476.4z"/>
			<path id="XMLID_797_" class="st2" d="M230.3,476.4H107.6c-2.9,0-5.5-2.1-5.9-5l-0.9-5.3h56.9l2.2,3.1h15.7l2.4-3.1h59.9l-0.8,4.6
				C236.6,474,233.7,476.4,230.3,476.4z"/>
		</g>
		<path id="XMLID_757_" class="st3" d="M136,366.1v30c0,1.4,1.1,2.5,2.5,2.5h2v5.9v11.2c0,0.6,0.8,0.9,1.2,0.4l14.7-17.6H198
			c1.4,0,2.5-1.1,2.5-2.5v-30c0-1.4-1.1-2.5-2.5-2.5h-59.4C137.1,363.6,136,364.7,136,366.1z"/>
		<path id="XMLID_756_" class="st2" d="M177.5,363.6h-39c-1.4,0-2.5,1.1-2.5,2.5v30c0,1.4,1.1,2.5,2.5,2.5h2v5.9v11.2
			c0,0.6,0.8,0.9,1.2,0.4l14.7-17.6H198c1.4,0,2.5-1.1,2.5-2.5v-30c0-1.4-1.1-2.5-2.5-2.5h-5.4h-3.3"/>
		<line id="XMLID_754_" class="st2" x1="187.4" y1="363.6" x2="181.5" y2="363.6"/>
		<g id="XMLID_724_">
			<path id="XMLID_726_" class="st2" d="M146,429.8c0,2.8-2.2,5-5,5s-5-2.2-5-5c0-2.8,2.2-5,5-5C143.7,424.8,146,427.1,146,429.8z"
				/>
			<path id="XMLID_725_" class="st2" d="M133.2,451.5v-4.7c0-4.5,3.6-8.1,8.1-8.1l0,0c4.5,0,8.1,3.6,8.1,8.1v4.7"/>
		</g>
		<polyline id="XMLID_712_" class="st2" points="133.2,415.1 120.9,415.1 120.9,451.5 161,451.5 161,415.1 149.5,415.1 		"/>
		<path id="XMLID_713_" class="st2" d="M156.7,382.1c0,2.5-2.1,4.6-4.6,4.6s-4.6-2.1-4.6-4.6s2.1-4.6,4.6-4.6
			C154.7,377.5,156.7,379.5,156.7,382.1z"/>
		<path id="XMLID_788_" class="st2" d="M174.4,382.1c0,2.5-2.1,4.6-4.6,4.6s-4.6-2.1-4.6-4.6s2.1-4.6,4.6-4.6
			C172.3,377.5,174.4,379.5,174.4,382.1z"/>
		<path id="XMLID_789_" class="st2" d="M192,382.1c0,2.5-2.1,4.6-4.6,4.6s-4.6-2.1-4.6-4.6s2.1-4.6,4.6-4.6
			C190,377.5,192,379.5,192,382.1z"/>
		<line id="XMLID_791_" class="st2" x1="172.1" y1="416.4" x2="217.5" y2="416.4"/>
		<line id="XMLID_790_" class="st2" x1="172.6" y1="429.8" x2="218" y2="429.8"/>
		<line id="XMLID_792_" class="st2" x1="173" y1="443.2" x2="195.7" y2="443.2"/>
	</g>
	<path class="st6" d="M120.2,472.7v-49.6c0-2.5-2-4.6-4.6-4.6h-7v-5.4h-2.7v5.4h-0.5v46.2h-6.2l1.1,6.9c0.4,2.6,2.2,4.7,4.5,5.6
		h10.8C118.2,477.2,120.2,475.2,120.2,472.7z"/>
	<g id="XMLID_464_">
		<path id="XMLID_530_" class="st0" d="M113.4,475.9H50.5c-1,0-1.8-0.8-1.8-1.8v-52.4c0-1,0.8-1.8,1.8-1.8h62.9c1,0,1.8,0.8,1.8,1.8
			v52.4C115.2,475.1,114.4,475.9,113.4,475.9z"/>
		<path id="XMLID_467_" class="st5" d="M112,419.9H51.8c-1.8,0-3.2,1.4-3.2,3.2v8.5h66.6v-8.5C115.2,421.3,113.8,419.9,112,419.9z"
			/>
		<line id="XMLID_488_" class="st2" x1="59.3" y1="413.1" x2="59.3" y2="423.8"/>
		<line id="XMLID_487_" class="st2" x1="66.7" y1="413.1" x2="66.7" y2="423.8"/>
		<line id="XMLID_486_" class="st2" x1="74.1" y1="413.1" x2="74.1" y2="423.8"/>
		<line id="XMLID_485_" class="st2" x1="81.5" y1="413.1" x2="81.5" y2="423.8"/>
		<line id="XMLID_484_" class="st2" x1="88.9" y1="413.1" x2="88.9" y2="423.8"/>
		<line id="XMLID_483_" class="st2" x1="96.2" y1="413.1" x2="96.2" y2="423.8"/>
		<line id="XMLID_482_" class="st2" x1="103.6" y1="413.1" x2="103.6" y2="423.8"/>
		<circle id="XMLID_458_" class="st3" cx="81.5" cy="454.6" r="17.1"/>
		<path id="XMLID_462_" class="st0" d="M91.8,454.6c0,5.7-4.6,10.3-10.3,10.3s-10.3-4.6-10.3-10.3s4.6-10.3,10.3-10.3
			C87.2,444.2,91.8,448.8,91.8,454.6z"/>
		<path id="XMLID_44_" class="st2" d="M74.6,470.3c-1.9-0.8-3.7-2-5.1-3.5"/>
		<path id="XMLID_422_" class="st2" d="M67.8,464.9c-2.2-2.9-3.5-6.5-3.5-10.4c0-9.5,7.7-17.1,17.1-17.1c9.5,0,17.1,7.7,17.1,17.1
			c0,9.5-7.7,17.1-17.1,17.1c-1.4,0-2.8-0.2-4.2-0.5"/>
		<polyline id="XMLID_423_" class="st2" points="89.2,448.6 79.2,458.6 73.7,453.1 		"/>
		<line id="XMLID_463_" class="st2" x1="48.8" y1="431.6" x2="115.2" y2="431.6"/>
		<path id="XMLID_50_" class="st2" d="M99.8,475.9H112c1.8,0,3.2-1.4,3.2-3.2v-49.6c0-1.8-1.4-3.2-3.2-3.2H51.8
			c-1.8,0-3.2,1.4-3.2,3.2v49.6c0,1.8,1.4,3.2,3.2,3.2h10.9L99.8,475.9L99.8,475.9z"/>
	</g>
	<g>
		<path id="XMLID_426_" class="st5" d="M407,360.7l2.9-15.8c-1.7-3.7-2.6-7.9-2.6-12.2c0-16.6,13.4-30,30-30c16.6,0,30,13.4,30,30
			c0,16.6-13.4,30-30,30c-5.9,0-11.3-1.7-15.9-4.6L407,360.7z"/>
		<path id="XMLID_425_" class="st2" d="M425.3,305.1c3.7-1.6,7.7-2.5,12-2.5c16.6,0,30,13.4,30,30s-13.4,30-30,30
			c-5.9,0-11.3-1.7-15.9-4.6l-14.4,2.6l2.9-15.8c-1.7-3.7-2.6-7.9-2.6-12.2c0-7.2,2.5-13.7,6.7-18.9"/>
		<path id="XMLID_424_" class="st2" d="M416,311.5c1.9-1.9,4-3.5,6.3-4.9"/>
		<ellipse id="XMLID_96_" class="st0" cx="437.2" cy="332.6" rx="23.2" ry="22.6"/>
		<path id="XMLID_97_" class="st2" d="M446.3,333.6l-11.8,6.8c-0.7,0.4-1.7-0.1-1.7-1v-13.6c0-0.9,0.9-1.4,1.7-1l11.8,6.8
			C447,332.1,447,333.2,446.3,333.6z"/>
	</g>
	<g class="st7">
		<path class="st8" d="M529.5,447.9c-1.9-5.5-6.2-9.9-11.5-12v-3.4h1.4v-32c-0.6,0.6-1.2,1.2-1.7,1.8l-1.1-0.9
			c-3.9,4.6-6,10.5-6,16.6c0,8.9,4.7,17.2,12.2,21.9v5.3h-2.3v2.7h2.3v2.8h-2.3v2.7h2.3v2.8h-2.3v2.7h2.3v2.8h-2.3v2.7h2.8l3.5,6.5
			h4.3v1.7c0,1.8,1.4,3.2,3.2,3.2h1.8c2.1-1.2,3.8-2.8,5.1-4.8v-0.1l0,0c1.4-2.2,2.3-4.9,2.3-7.7v-1
			C543.5,454.6,537.3,448.2,529.5,447.9z"/>
		<path class="st8" d="M519.5,399.2v-0.5c-0.1,0.1-0.2,0.2-0.3,0.3L519.5,399.2z"/>
	</g>
	<g id="XMLID_602_">
		<path id="XMLID_647_" class="st1" d="M542.5,474.6h-5.3c-0.5,0-1-0.4-1-1v-9.2c0-0.6,0.5-1,1-1h5.3c0.5,0,1,0.4,1,1v9.2
			C543.5,474.1,543,474.6,542.5,474.6z"/>
		<path id="XMLID_646_" class="st2" d="M542.5,474.6h-5.3c-0.5,0-1-0.4-1-1v-9.2c0-0.6,0.5-1,1-1h5.3c0.5,0,1,0.4,1,1v9.2
			C543.5,474.1,543,474.6,542.5,474.6z"/>
		<path id="XMLID_645_" class="st0" d="M564.4,418c0-13.5-10.9-24.4-24.4-24.4s-24.4,10.9-24.4,24.4c0,9,4.9,16.9,12.2,21.1v24
			l3.5,6.5H548l4.1-6.5v-24C559.5,434.9,564.4,427.1,564.4,418z"/>
		<polygon id="XMLID_644_" class="st5" points="527.9,445.8 527.9,464.6 531.4,469.7 548,469.7 552.2,464.6 552.2,445.8 		"/>
		<polygon id="XMLID_643_" class="st1" points="552.2,463.2 548,469.7 531.4,469.7 527.9,463.2 		"/>
		<path id="XMLID_642_" class="st2" d="M521.4,402.3c-3.6,4.2-5.7,9.7-5.7,15.7c0,9,4.9,16.9,12.2,21.1v24l3.5,6.5h16.7l4.1-6.5v-24
			c7.3-4.2,12.2-12.1,12.2-21.1c0-13.5-10.9-24.4-24.4-24.4c-3.2,0-6.3,0.6-9.2,1.8"/>
		<path id="XMLID_641_" class="st2" d="M527.9,396.9c-1.9,1.1-2.5,1.4-4.1,2.9"/>
		<line id="XMLID_640_" class="st2" x1="524.2" y1="446.6" x2="555.9" y2="446.6"/>
		<line id="XMLID_639_" class="st2" x1="524.2" y1="452.1" x2="555.9" y2="452.1"/>
		<line id="XMLID_638_" class="st2" x1="524.2" y1="457.6" x2="555.9" y2="457.6"/>
		<line id="XMLID_637_" class="st2" x1="524.2" y1="463.2" x2="555.9" y2="463.2"/>
		<path id="XMLID_625_" class="st5" d="M552.9,418c0,7.1-5.7,12.8-12.8,12.8s-12.8-5.7-12.8-12.8s5.7-12.8,12.8-12.8
			C547,405.2,552.9,411,552.9,418z"/>
		<g id="XMLID_626_">
			<g id="XMLID_95_">
				<polygon class="st9" points="543.3,402 535.9,417.8 534.7,415.8 545,415.8 547.3,415.8 546.3,417.8 537.3,434.6 536.2,434.1 
					543.8,416.6 545,418.5 534.7,418.5 532.4,418.5 533.5,416.6 541.9,401.4 				"/>
			</g>
		</g>
	</g>
</g>
<path id="XMLID_613_" class="st2" d="M368.3,74c-1.6,0.4-2,0.8-2.4,2.4c-0.4-1.6-0.8-2-2.4-2.4c1.6-0.4,2-0.8,2.4-2.4
	C366.3,73.2,366.7,73.5,368.3,74z"/>
<path id="XMLID_612_" class="st2" d="M249.1,32.7c-1.6,0.4-2,0.8-2.4,2.4c-0.4-1.6-0.8-2-2.4-2.4c1.6-0.4,2-0.8,2.4-2.4
	C247.1,31.9,247.4,32.2,249.1,32.7z"/>
<path id="XMLID_611_" class="st2" d="M592.8,168.4c-1.6,0.4-2,0.8-2.4,2.4c-0.4-1.6-0.8-2-2.4-2.4c1.6-0.4,2-0.8,2.4-2.4
	C590.8,167.6,591.1,167.9,592.8,168.4z"/>
<path id="XMLID_610_" class="st2" d="M599.7,113.2c-2.1,0.6-2.6,1-3.2,3.2c-0.6-2.1-1-2.6-3.2-3.2c2.1-0.6,2.6-1,3.2-3.2
	C597.1,112.2,597.6,112.7,599.7,113.2z"/>
<path id="XMLID_609_" class="st2" d="M555.3,107c-1.6,0.4-2,0.8-2.4,2.4c-0.4-1.6-0.8-2-2.4-2.4c1.6-0.4,2-0.8,2.4-2.4
	C553.3,106.3,553.7,106.6,555.3,107z"/>
<path id="XMLID_607_" class="st2" d="M524,51.5c-1.6,0.4-2,0.8-2.4,2.4c-0.4-1.6-0.8-2-2.4-2.4c1.6-0.4,2-0.8,2.4-2.4
	C522,50.8,522.4,51.1,524,51.5z"/>
<path id="XMLID_601_" class="st2" d="M583,59.6c-1.3,0.4-1.6,0.6-2,2c-0.4-1.3-0.6-1.6-2-2c1.3-0.4,1.6-0.6,2-2
	C581.3,58.9,581.6,59.2,583,59.6z"/>
<path id="XMLID_600_" class="st2" d="M560.5,36.1c-2.7,0.7-3.2,1.3-3.9,3.9c-0.7-2.7-1.3-3.2-3.9-3.9c2.7-0.7,3.2-1.3,3.9-3.9
	C557.3,34.8,557.9,35.4,560.5,36.1z"/>
<path id="XMLID_599_" class="st2" d="M479.2,15.8c-1.7,0.4-2,0.8-2.5,2.5c-0.4-1.7-0.8-2-2.5-2.5c1.7-0.4,2-0.8,2.5-2.5
	C477.2,15,477.5,15.3,479.2,15.8z"/>
<path id="XMLID_598_" class="st2" d="M307,78.5c-2.7,0.7-3.2,1.3-3.9,3.9c-0.7-2.7-1.3-3.2-3.9-3.9c2.7-0.7,3.2-1.3,3.9-3.9
	C303.8,77.2,304.4,77.8,307,78.5z"/>
<path id="XMLID_593_" class="st2" d="M396.8,112c-2.8,0.7-3.3,1.3-4.1,4.1c-0.7-2.8-1.3-3.3-4.1-4.1c2.8-0.7,3.3-1.3,4.1-4.1
	C393.5,110.7,394.1,111.3,396.8,112z"/>
<path id="XMLID_190_" class="st2" d="M487,147.5c0-1.7,1.4-3.1,3.1-3.1h0.7c0.3-2,2-3.5,4.1-3.5c0.4,0,0.7,0.1,1.1,0.1
	c0.8-2.4,3-4.2,5.7-4.2c3,0,5.5,2.2,5.9,5.1c0.7-0.4,1.5-0.7,2.4-0.7c2,0,3.7,1.3,4.2,3.2h0.1c1.7,0,3.1,1.4,3.1,3.1h10.2"/>
<path id="XMLID_189_" class="st2" d="M244.3,82.6c0-1.3-1.1-2.4-2.4-2.4h-0.5c-0.2-1.5-1.5-2.7-3.1-2.7c-0.3,0-0.6,0-0.8,0.1
	c-0.6-1.9-2.3-3.2-4.4-3.2c-2.3,0-4.2,1.7-4.5,3.9c-0.5-0.3-1.1-0.5-1.8-0.5c-1.5,0-2.8,1-3.2,2.4h-0.1c-1.3,0-2.4,1.1-2.4,2.4h-7.8
	"/>
<path id="XMLID_188_" class="st2" d="M269,146.1c0-1.6-1.3-2.8-2.8-2.8h-0.6c-0.3-1.8-1.8-3.2-3.7-3.2c-0.3,0-0.7,0-1,0.1
	c-0.7-2.2-2.8-3.9-5.3-3.9c-2.8,0-5,2-5.4,4.7c-0.6-0.4-1.4-0.6-2.2-0.6c-1.8,0-3.4,1.2-3.9,2.9H244c-1.6,0-2.8,1.3-2.8,2.8h-9.4"/>
<g id="XMLID_177_">
	<path id="XMLID_187_" class="st2" d="M580.4,257.4h-47.6c-1.4,0-2.6-1.1-2.6-2.6v-47.6c0-1.4,1.1-2.6,2.6-2.6h47.6
		c1.4,0,2.6,1.1,2.6,2.6v47.6C583,256.2,581.8,257.4,580.4,257.4z"/>
	<polygon id="XMLID_185_" class="st2" points="583,240.3 568.2,226.9 556.6,235.8 543.5,222.1 530.2,237.1 530.2,244.9 583,244.9 	
		"/>
	<line id="XMLID_184_" class="st2" x1="541.3" y1="244.9" x2="583" y2="244.9"/>
	<polyline id="XMLID_183_" class="st2" points="541.3,224.6 543.5,222.1 556.6,235.8 568.2,226.9 583,240.3 	"/>
	<path id="XMLID_181_" class="st2" d="M568,215.1c0,2.3-1.9,4.2-4.2,4.2c-2.3,0-4.2-1.9-4.2-4.2c0-2.3,1.9-4.2,4.2-4.2
		C566.1,210.8,568,212.7,568,215.1z"/>
	<path id="XMLID_179_" class="st2" d="M541.3,204.6h39.1c1.4,0,2.6,1.1,2.6,2.6v47.6c0,1.4-1.1,2.6-2.6,2.6h-38.6"/>
</g>
<path id="XMLID_176_" class="st2" d="M537.9,257.4h1.9c0.5-0.5,0.9-1.2,0.9-2v-50.8h-7.9c-1.4,0-2.6,1.1-2.6,2.6v29.9v7.8v9.9
	c0,1.4,1.1,2.6,2.6,2.6H537.9L537.9,257.4L537.9,257.4z"/>
<g id="XMLID_662_">
	<g id="XMLID_132_">
		<path id="XMLID_175_" class="st2" d="M535.9,257.4h-62.8c-1.1,0-2-0.9-2-2v-86c0-1.1,0.9-2,2-2h62.8c1.1,0,2,0.9,2,2v86
			C537.9,256.5,537,257.4,535.9,257.4z"/>
		<path id="XMLID_174_" class="st2" d="M471.1,201.4v-32c0-1.1,0.9-2,2-2h62.8c1.1,0,2,0.9,2,2v86c0,1.1-0.9,2-2,2"/>
		<line id="XMLID_173_" class="st2" x1="496.2" y1="174.2" x2="512.9" y2="174.2"/>
		<path id="XMLID_148_" class="st2" d="M507.2,250c0,1.5-1.2,2.7-2.7,2.7c-1.5,0-2.7-1.2-2.7-2.7c0-1.5,1.2-2.7,2.7-2.7
			C506,247.3,507.2,248.5,507.2,250z"/>
		<rect id="XMLID_134_" x="476.8" y="180.4" class="st2" width="55.5" height="63.7"/>
		<polygon id="XMLID_133_" class="st2" points="476.8,236 532.3,180.5 532.3,180.4 476.8,180.4 		"/>
	</g>
	<polygon id="XMLID_131_" class="st2" points="513,213.2 497,204 497,222.5 513,213.2 497,204 497,222.5 	"/>
</g>
<g id="XMLID_82_">
	<path id="XMLID_172_" class="st2" d="M414.2,177.9V35.2l15.6-16c0.4-0.4,1.1-0.1,1.1,0.4v135.3"/>
	<line id="XMLID_171_" class="st2" x1="414.2" y1="35" x2="430.9" y2="51.8"/>
	<line id="XMLID_170_" class="st2" x1="414.2" y1="168.7" x2="417.9" y2="168.7"/>
	<line id="XMLID_169_" class="st2" x1="414.2" y1="152" x2="430.9" y2="152"/>
	<line id="XMLID_168_" class="st2" x1="414.2" y1="152" x2="424.6" y2="162.4"/>
	<line id="XMLID_167_" class="st2" x1="414.2" y1="135.2" x2="430.9" y2="135.2"/>
	<line id="XMLID_166_" class="st2" x1="414.2" y1="135.2" x2="430.9" y2="152"/>
	<line id="XMLID_165_" class="st2" x1="414.2" y1="118.5" x2="430.9" y2="118.5"/>
	<line id="XMLID_163_" class="st2" x1="414.2" y1="118.5" x2="430.9" y2="135.2"/>
	<line id="XMLID_161_" class="st2" x1="414.2" y1="101.7" x2="430.9" y2="101.7"/>
	<line id="XMLID_160_" class="st2" x1="414.2" y1="101.7" x2="430.9" y2="118.5"/>
	<line id="XMLID_159_" class="st2" x1="414.2" y1="85" x2="430.9" y2="85"/>
	<line id="XMLID_158_" class="st2" x1="414.2" y1="85" x2="430.9" y2="101.7"/>
	<line id="XMLID_157_" class="st2" x1="414.2" y1="68.3" x2="430.9" y2="68.3"/>
	<line id="XMLID_156_" class="st2" x1="414.2" y1="68.3" x2="430.9" y2="85"/>
	<line id="XMLID_155_" class="st2" x1="414.2" y1="51.5" x2="430.9" y2="68.3"/>
	<line id="XMLID_154_" class="st2" x1="414.2" y1="51.8" x2="414.2" y2="35.1"/>
	<polygon id="XMLID_153_" class="st2" points="481.3,35.6 497.9,52.3 297.6,52.3 314.3,35.6 	"/>
	<line id="XMLID_149_" class="st2" x1="478.4" y1="83.5" x2="478.4" y2="35.6"/>
	<line id="XMLID_129_" class="st2" x1="464.5" y1="83.5" x2="464.5" y2="35.6"/>
	<line id="XMLID_144_" class="st2" x1="464.5" y1="52.3" x2="481.2" y2="35.6"/>
	<line id="XMLID_143_" class="st2" x1="447.7" y1="52.3" x2="447.7" y2="35.6"/>
	<line id="XMLID_128_" class="st2" x1="447.7" y1="52.3" x2="464.5" y2="35.6"/>
	<line id="XMLID_127_" class="st2" x1="431" y1="52.3" x2="447.7" y2="35.6"/>
	<line id="XMLID_126_" class="st2" x1="397.5" y1="52.3" x2="397.5" y2="35.6"/>
	<line id="XMLID_139_" class="st2" x1="397.5" y1="52.3" x2="414.2" y2="35.6"/>
	<line id="XMLID_125_" class="st2" x1="380.8" y1="52.3" x2="380.8" y2="35.6"/>
	<line id="XMLID_124_" class="st2" x1="380.8" y1="52.3" x2="397.5" y2="35.6"/>
	<line id="XMLID_123_" class="st2" x1="364" y1="52.3" x2="364" y2="35.6"/>
	<line id="XMLID_135_" class="st2" x1="364" y1="52.3" x2="380.8" y2="35.6"/>
	<line id="XMLID_122_" class="st2" x1="347.3" y1="52.3" x2="347.3" y2="35.6"/>
	<line id="XMLID_121_" class="st2" x1="347.3" y1="52.3" x2="364" y2="35.6"/>
	<line id="XMLID_117_" class="st2" x1="330.6" y1="52.3" x2="330.6" y2="35.6"/>
	<line id="XMLID_116_" class="st2" x1="330.6" y1="52.3" x2="347.3" y2="35.6"/>
	<line id="XMLID_130_" class="st2" x1="313.8" y1="52.3" x2="313.8" y2="35.6"/>
	<line id="XMLID_120_" class="st2" x1="313.8" y1="52.3" x2="330.6" y2="35.6"/>
	<path id="XMLID_119_" class="st2" d="M430.9,85h-26.4c-3.9,0-7-3.1-7-7V52.9h33.4V85z"/>
	<path id="XMLID_118_" class="st2" d="M400.5,79V52.9h-3V79c0,3.3,2.7,6,6,6h3C403.2,85,400.5,82.3,400.5,79z"/>
	<path id="XMLID_114_" class="st2" d="M430.9,85h-26.4c-3.9,0-7-3.1-7-7V52.9h33.4V85z"/>
	<path id="XMLID_94_" class="st2" d="M425.8,72.1l-6.6,2.1c-0.3,0.1-0.5,0.1-0.8,0.1h-14.2c-1.5,0-2.7-1.2-2.7-2.7V60.7
		c0-1.5,1.2-2.7,2.7-2.7H425c1.5,0,2.7,1.2,2.7,2.7v8.8C427.7,70.7,426.9,71.8,425.8,72.1z"/>
	<path id="XMLID_93_" class="st2" d="M407,58l-5.6,6.3v7.3c0,1.5,1.2,2.7,2.7,2.7L418.6,58H407z"/>
	<polygon id="XMLID_92_" class="st2" points="424.6,58 421.2,58 406.8,74.4 410.2,74.4 	"/>
	<path id="XMLID_385_" class="st2" d="M425.8,72.1l-6.6,2.1c-0.3,0.1-0.5,0.1-0.8,0.1h-14.2c-1.5,0-2.7-1.2-2.7-2.7V60.7
		c0-1.5,1.2-2.7,2.7-2.7H425c1.5,0,2.7,1.2,2.7,2.7v8.8C427.7,70.7,426.9,71.8,425.8,72.1z"/>
	<polyline id="XMLID_91_" class="st2" points="337.2,35.6 430.8,18.3 473.4,35.6 	"/>
	<g id="XMLID_87_">
		<path id="XMLID_90_" class="st2" d="M491.6,64.8h-36.3c-1.5,0-2.8-1.2-2.8-2.8v-3.5c0-1.5,1.2-2.8,2.8-2.8h36.3
			c1.5,0,2.8,1.2,2.8,2.8v3.5C494.4,63.6,493.1,64.8,491.6,64.8z"/>
		<path id="XMLID_89_" class="st2" d="M492.3,61.9h-37.7c-1.1,0-2.1-0.9-2.1-2.1v3c0,1.1,0.9,2.1,2.1,2.1h37.7
			c1.1,0,2.1-0.9,2.1-2.1v-3C494.4,60.9,493.5,61.9,492.3,61.9z"/>
		<path id="XMLID_88_" class="st2" d="M491.6,64.8h-36.3c-1.5,0-2.8-1.2-2.8-2.8v-3.5c0-1.5,1.2-2.8,2.8-2.8h36.3
			c1.5,0,2.8,1.2,2.8,2.8v3.5C494.4,63.6,493.1,64.8,491.6,64.8z"/>
	</g>
	<g id="XMLID_83_">
		<path id="XMLID_86_" class="st2" d="M491.6,78.5h-36.3c-1.5,0-2.8-1.2-2.8-2.8v-3.5c0-1.5,1.2-2.8,2.8-2.8h36.3
			c1.5,0,2.8,1.2,2.8,2.8v3.5C494.4,77.3,493.1,78.5,491.6,78.5z"/>
		<path id="XMLID_85_" class="st2" d="M492.3,75.5h-37.7c-1.1,0-2.1-0.9-2.1-2.1v3c0,1.1,0.9,2.1,2.1,2.1h37.7
			c1.1,0,2.1-0.9,2.1-2.1v-3C494.4,74.6,493.5,75.5,492.3,75.5z"/>
		<path id="XMLID_84_" class="st2" d="M491.6,78.5h-36.3c-1.5,0-2.8-1.2-2.8-2.8v-3.5c0-1.5,1.2-2.8,2.8-2.8h36.3
			c1.5,0,2.8,1.2,2.8,2.8v3.5C494.4,77.3,493.1,78.5,491.6,78.5z"/>
	</g>
</g>
<path id="XMLID_81_" class="st2" d="M495.5,203.9h-24.4v51.5c0,0.5,0.2,0.9,0.4,1.2h25.2v0h1.5v-50
	C498.3,205.1,497,203.9,495.5,203.9z"/>
<g id="XMLID_66_">
	<path id="XMLID_565_" class="st2" d="M495.5,256.6H460v-52h33.5c1.1,0,2,0.9,2,2V256.6z"/>
	<path id="XMLID_564_" class="st2" d="M463.1,204.6h30.5c1.1,0,2,0.9,2,2v50"/>
	<path id="XMLID_563_" class="st2" d="M398.3,256.6h27.4v-75.5h-25.2c-1.2,0-2.2,1-2.2,2.2V256.6z"/>
	<line id="XMLID_562_" class="st2" x1="417.1" y1="181.1" x2="406.9" y2="181.1"/>
	<rect id="XMLID_561_" x="426.8" y="158.1" class="st2" width="25.5" height="15.6"/>
	<rect id="XMLID_560_" x="426.8" y="158.1" class="st2" width="25.5" height="15.6"/>
	<rect id="XMLID_80_" x="460" y="204.6" class="st10" width="4" height="52"/>
	<rect id="XMLID_75_" x="416.5" y="181.1" class="st10" width="9.3" height="75.5"/>
	<path id="XMLID_559_" class="st2" d="M460,256.6h-40.5v-88.3c0-0.8,0.6-1.4,1.4-1.4h37.8c0.8,0,1.4,0.6,1.4,1.4V256.6z"/>
	<path id="XMLID_558_" class="st2" d="M419.5,256.6v-86.8c0-1.6,1.3-2.9,2.9-2.9h34.8c1.6,0,2.9,1.3,2.9,2.9v86.8"/>
	<line id="XMLID_557_" class="st2" x1="439.7" y1="144.3" x2="439.7" y2="157"/>
	<line id="XMLID_556_" class="st2" x1="428.9" y1="177.4" x2="428.9" y2="251"/>
	<line id="XMLID_555_" class="st2" x1="439.7" y1="177.4" x2="439.7" y2="251"/>
	<line id="XMLID_554_" class="st2" x1="450.5" y1="177.4" x2="450.5" y2="251"/>
	<line id="XMLID_553_" class="st2" x1="405.2" y1="193.9" x2="413.9" y2="193.9"/>
	<line id="XMLID_552_" class="st2" x1="405.2" y1="201.3" x2="413.9" y2="201.3"/>
	<line id="XMLID_551_" class="st2" x1="405.2" y1="208.8" x2="413.9" y2="208.8"/>
	<line id="XMLID_550_" class="st2" x1="405.2" y1="216.2" x2="413.9" y2="216.2"/>
	<line id="XMLID_549_" class="st2" x1="405.2" y1="223.7" x2="413.9" y2="223.7"/>
	<line id="XMLID_548_" class="st2" x1="405.2" y1="231.1" x2="413.9" y2="231.1"/>
	<line id="XMLID_547_" class="st2" x1="405.2" y1="238.5" x2="413.9" y2="238.5"/>
	<line id="XMLID_546_" class="st2" x1="405.2" y1="246" x2="413.9" y2="246"/>
	<g id="XMLID_542_">
		<line id="XMLID_545_" class="st2" x1="465.1" y1="216.2" x2="470.5" y2="216.2"/>
		<line id="XMLID_544_" class="st2" x1="475" y1="216.2" x2="480.5" y2="216.2"/>
		<line id="XMLID_543_" class="st2" x1="485" y1="216.2" x2="490.5" y2="216.2"/>
	</g>
	<g id="XMLID_538_">
		<line id="XMLID_541_" class="st2" x1="465.1" y1="224.6" x2="470.5" y2="224.6"/>
		<line id="XMLID_540_" class="st2" x1="475" y1="224.6" x2="480.5" y2="224.6"/>
		<line id="XMLID_539_" class="st2" x1="485" y1="224.6" x2="490.5" y2="224.6"/>
	</g>
	<g id="XMLID_493_">
		<line id="XMLID_537_" class="st2" x1="465.1" y1="233" x2="470.5" y2="233"/>
		<line id="XMLID_495_" class="st2" x1="475" y1="233" x2="480.5" y2="233"/>
		<line id="XMLID_494_" class="st2" x1="485" y1="233" x2="490.5" y2="233"/>
	</g>
	<g id="XMLID_489_">
		<line id="XMLID_492_" class="st2" x1="465.1" y1="241.5" x2="470.5" y2="241.5"/>
		<line id="XMLID_491_" class="st2" x1="475" y1="241.5" x2="480.5" y2="241.5"/>
		<line id="XMLID_490_" class="st2" x1="485" y1="241.5" x2="490.5" y2="241.5"/>
	</g>
	<g id="XMLID_67_">
		<line id="XMLID_71_" class="st2" x1="465.1" y1="249.9" x2="470.5" y2="249.9"/>
		<line id="XMLID_70_" class="st2" x1="475" y1="249.9" x2="480.5" y2="249.9"/>
		<line id="XMLID_68_" class="st2" x1="485" y1="249.9" x2="490.5" y2="249.9"/>
	</g>
</g>
<g id="XMLID_677_">
	<g id="XMLID_679_">
		<line id="XMLID_694_" class="st2" x1="262.8" y1="236.8" x2="262.8" y2="184.7"/>
		<line id="XMLID_693_" class="st2" x1="262.8" y1="256.9" x2="262.8" y2="247.3"/>
		<line id="XMLID_692_" class="st2" x1="279.5" y1="184.5" x2="279.5" y2="257.4"/>
		<line id="XMLID_691_" class="st2" x1="267.2" y1="240.7" x2="279.5" y2="240.7"/>
		<line id="XMLID_690_" class="st2" x1="267.2" y1="245" x2="279.5" y2="257.4"/>
		<line id="XMLID_689_" class="st2" x1="262.8" y1="223.9" x2="279.5" y2="223.9"/>
		<line id="XMLID_65_" class="st2" x1="262.8" y1="223.9" x2="279.5" y2="240.7"/>
		<line id="XMLID_47_" class="st2" x1="262.8" y1="207.2" x2="279.5" y2="207.2"/>
		<line id="XMLID_46_" class="st2" x1="262.8" y1="207.2" x2="279.5" y2="223.9"/>
		<line id="XMLID_45_" class="st2" x1="262.8" y1="190.5" x2="279.5" y2="190.5"/>
		<line id="XMLID_684_" class="st2" x1="262.8" y1="190.5" x2="279.5" y2="207.2"/>
		<line id="XMLID_683_" class="st2" x1="279.5" y1="240.7" x2="262.8" y2="257.4"/>
		<line id="XMLID_682_" class="st2" x1="279.5" y1="223.9" x2="265.2" y2="238.3"/>
		<line id="XMLID_681_" class="st2" x1="279.5" y1="207.2" x2="262.8" y2="223.9"/>
		<line id="XMLID_680_" class="st2" x1="279.5" y1="190.5" x2="262.8" y2="207.2"/>
	</g>
	<line id="XMLID_678_" class="st2" x1="254.2" y1="184.5" x2="282.9" y2="184.5"/>
</g>
<g id="XMLID_25_">
	<g id="XMLID_30_">
		<line id="XMLID_43_" class="st2" x1="282.1" y1="182.5" x2="282.1" y2="133.3"/>
		<line id="XMLID_34_" class="st2" x1="298.8" y1="133.1" x2="298.8" y2="156.5"/>
		<line id="XMLID_33_" class="st2" x1="282.1" y1="139" x2="298.8" y2="139"/>
		<line id="XMLID_31_" class="st2" x1="282.1" y1="139" x2="298.8" y2="155.3"/>
		<line id="XMLID_32_" class="st2" x1="298.8" y1="139" x2="282.1" y2="155.8"/>
	</g>
	<line id="XMLID_29_" class="st2" x1="273.5" y1="133.1" x2="323.3" y2="133.1"/>
</g>
<g id="XMLID_3_">
	<path id="XMLID_28_" class="st2" d="M284.7,257.5v-95.7c0-2,1.6-3.7,3.7-3.7h53.4c2,0,3.7,1.6,3.7,3.7v95.7H284.7z"/>
	<path id="XMLID_6_" class="st2" d="M284.7,257.1v-93.8c0-2.8,2.3-5.2,5.2-5.2h35.4"/>
	<line id="XMLID_26_" class="st2" x1="306.1" y1="164.1" x2="323.9" y2="164.1"/>
	<rect id="XMLID_24_" x="287.9" y="169.2" class="st2" width="53.5" height="88.1"/>
</g>
<path id="XMLID_16_" class="st2" d="M406.4,181.1h-5.8c-1.2,0-2.2,1-2.2,2.2v73.2h8.1V181.1z"/>
<path id="XMLID_21_" class="st2" d="M341.7,158.2h-16.5v-0.8h-1.3v100.1h0.7h0.8h19.9v-95.7C345.3,159.8,343.7,158.2,341.7,158.2z"
	/>
<g id="XMLID_8_">
	<path id="XMLID_250_" class="st2" d="M327.2,257.5V136.9c0-2.6,2.1-4.6,4.6-4.6h67.3c2.6,0,4.6,2.1,4.6,4.6v120.6H327.2z"/>
	<path id="XMLID_164_" class="st2" d="M350.7,132.2h46.5c3.6,0,6.5,2.9,6.5,6.5v118.7"/>
	<path id="XMLID_162_" class="st2" d="M327.2,257.5V138.7c0-3.6,2.9-6.5,6.5-6.5h9.9"/>
	<line id="XMLID_247_" class="st2" x1="354.1" y1="139.7" x2="376.7" y2="139.7"/>
	<line id="XMLID_13_" class="st2" x1="378.7" y1="139.7" x2="381.1" y2="139.7"/>
	<rect id="XMLID_245_" x="331.2" y="146.2" class="st2" width="67.4" height="111.1"/>
	<rect id="XMLID_244_" x="340.7" y="237.2" class="st2" width="12.9" height="12.9"/>
	<rect id="XMLID_243_" x="360.3" y="237.2" class="st2" width="12.9" height="12.9"/>
	<rect id="XMLID_242_" x="379.9" y="237.2" class="st2" width="12.9" height="12.9"/>
	<rect id="XMLID_241_" x="379.9" y="217" class="st2" width="12.9" height="12.9"/>
	<rect id="XMLID_240_" x="360.3" y="217" class="st2" width="12.9" height="12.9"/>
	<rect id="XMLID_7_" x="340.9" y="217" class="st2" width="12.9" height="12.9"/>
</g>
<g id="XMLID_216_">
	<path id="XMLID_363_" class="st2" d="M138.2,229.9c0.2-0.7,1-1.3,1.8-1.3h11.3v17.8c-3.3,0-6,2.7-6,6h-10.7v-11.9L138.2,229.9z"/>
	<path id="XMLID_362_" class="st2" d="M147.3,239.2h-9.8c-0.4,0-1,0.1-1.3,0.2l-1.6,0.5l3.6-10c0,0,0.4-1.8,3.5-1.3h7v9.3
		C148.6,238.6,148,239.2,147.3,239.2z"/>
	<path id="XMLID_361_" class="st2" d="M172.3,253.4c0,2.3,1.9,4.2,4.2,4.2c2.3,0,4.2-1.9,4.2-4.2c0-2.3-1.9-4.2-4.2-4.2
		C174.2,249.2,172.3,251.1,172.3,253.4z"/>
	<path id="XMLID_360_" class="st2" d="M172.3,253.4c0,2.3,1.9,4.2,4.2,4.2c2.3,0,4.2-1.9,4.2-4.2c0-2.3-1.9-4.2-4.2-4.2
		C174.2,249.2,172.3,251.1,172.3,253.4z"/>
	<path id="XMLID_359_" class="st2" d="M174.8,253.4c0,0.9,0.7,1.7,1.7,1.7c0.9,0,1.7-0.7,1.7-1.7c0-0.9-0.7-1.7-1.7-1.7
		C175.6,251.7,174.8,252.5,174.8,253.4z"/>
	<path id="XMLID_358_" class="st2" d="M148,253.4c0,2.3,1.9,4.2,4.2,4.2c2.3,0,4.2-1.9,4.2-4.2c0-2.3-1.9-4.2-4.2-4.2
		C149.8,249.2,148,251.1,148,253.4z"/>
	<path id="XMLID_357_" class="st2" d="M148,253.4c0,2.3,1.9,4.2,4.2,4.2c2.3,0,4.2-1.9,4.2-4.2c0-2.3-1.9-4.2-4.2-4.2
		C149.8,249.2,148,251.1,148,253.4z"/>
	<path id="XMLID_356_" class="st2" d="M150.5,253.4c0,0.9,0.7,1.7,1.7,1.7c0.9,0,1.7-0.7,1.7-1.7c0-0.9-0.7-1.7-1.7-1.7
		C151.3,251.7,150.5,252.5,150.5,253.4z"/>
	<path id="XMLID_355_" class="st2" d="M183.4,253.4c0,2.3,1.9,4.2,4.2,4.2c2.3,0,4.2-1.9,4.2-4.2c0-2.3-1.9-4.2-4.2-4.2
		C185.3,249.2,183.4,251.1,183.4,253.4z"/>
	<path id="XMLID_354_" class="st2" d="M183.4,253.4c0,2.3,1.9,4.2,4.2,4.2c2.3,0,4.2-1.9,4.2-4.2c0-2.3-1.9-4.2-4.2-4.2
		C185.3,249.2,183.4,251.1,183.4,253.4z"/>
	<path id="XMLID_353_" class="st2" d="M186,253.4c0,0.9,0.7,1.7,1.7,1.7c0.9,0,1.7-0.7,1.7-1.7c0-0.9-0.7-1.7-1.7-1.7
		C186.7,251.7,186,252.5,186,253.4z"/>
	<line id="XMLID_352_" class="st2" x1="154.9" y1="249.9" x2="169.9" y2="249.9"/>
	<path id="XMLID_351_" class="st2" d="M194.3,251.8L194.3,251.8c0-2.8-2.3-5.1-5.1-5.1H175c-2.8,0-5.1,2.3-5.1,5.1v1.1"/>
	<path id="XMLID_349_" class="st2" d="M233.7,253.4c0,2.3,1.9,4.2,4.2,4.2c2.3,0,4.2-1.9,4.2-4.2c0-2.3-1.9-4.2-4.2-4.2
		C235.6,249.2,233.7,251.1,233.7,253.4z"/>
	<path id="XMLID_346_" class="st2" d="M233.7,253.4c0,2.3,1.9,4.2,4.2,4.2c2.3,0,4.2-1.9,4.2-4.2c0-2.3-1.9-4.2-4.2-4.2
		C235.6,249.2,233.7,251.1,233.7,253.4z"/>
	<path id="XMLID_345_" class="st2" d="M236.3,253.4c0,0.9,0.7,1.7,1.7,1.7c0.9,0,1.7-0.7,1.7-1.7c0-0.9-0.7-1.7-1.7-1.7
		C237,251.7,236.3,252.5,236.3,253.4z"/>
	<path id="XMLID_344_" class="st2" d="M244.9,253.4c0,2.3,1.9,4.2,4.2,4.2c2.3,0,4.2-1.9,4.2-4.2c0-2.3-1.9-4.2-4.2-4.2
		C246.8,249.2,244.9,251.1,244.9,253.4z"/>
	<path id="XMLID_343_" class="st2" d="M244.9,253.4c0,2.3,1.9,4.2,4.2,4.2c2.3,0,4.2-1.9,4.2-4.2c0-2.3-1.9-4.2-4.2-4.2
		C246.8,249.2,244.9,251.1,244.9,253.4z"/>
	<path id="XMLID_342_" class="st2" d="M247.4,253.4c0,0.9,0.7,1.7,1.7,1.7c0.9,0,1.7-0.7,1.7-1.7c0-0.9-0.7-1.7-1.7-1.7
		C248.2,251.7,247.4,252.5,247.4,253.4z"/>
	<path id="XMLID_341_" class="st2" d="M255.7,251.8L255.7,251.8c0-2.8-2.3-5.1-5.1-5.1h-14.2c-2.8,0-5.1,2.3-5.1,5.1v1.1"/>
	<line id="XMLID_340_" class="st2" x1="140.4" y1="228.4" x2="150" y2="220.4"/>
	<line id="XMLID_339_" class="st2" x1="146.9" y1="223.2" x2="146.9" y2="227.6"/>
	<path id="XMLID_338_" class="st2" d="M138.2,229.9c0.2-0.7,1-1.3,1.8-1.3h11.3v17.8c-3.3,0-6,2.7-6,6h-10.7v-11.9L138.2,229.9z"/>
	<path id="XMLID_337_" class="st2" d="M133.5,252.3c0,0.3,0.2,0.5,0.5,0.5h4.8c0.3,0,0.5-0.2,0.5-0.5v-2.7c0-0.3-0.2-0.5-0.5-0.5
		H134c-0.3,0-0.5,0.2-0.5,0.5V252.3z"/>
	<path id="XMLID_336_" class="st2" d="M133.5,252.3c0,0.3,0.2,0.5,0.5,0.5h4.8c0.3,0,0.5-0.2,0.5-0.5v-2.7c0-0.3-0.2-0.5-0.5-0.5
		H134c-0.3,0-0.5,0.2-0.5,0.5V252.3z"/>
	<rect id="XMLID_335_" x="155.9" y="240.6" class="st2" width="109.1" height="4.5"/>
	<rect id="XMLID_334_" x="155.9" y="240.6" class="st2" width="109.1" height="4.5"/>
	<line id="XMLID_333_" class="st2" x1="158.9" y1="241.9" x2="158.9" y2="243.7"/>
	<line id="XMLID_332_" class="st2" x1="162.4" y1="241.9" x2="162.4" y2="243.7"/>
	<line id="XMLID_331_" class="st2" x1="165.9" y1="241.9" x2="165.9" y2="243.7"/>
	<line id="XMLID_329_" class="st2" x1="169.4" y1="241.9" x2="169.4" y2="243.7"/>
	<line id="XMLID_328_" class="st2" x1="172.9" y1="241.9" x2="172.9" y2="243.7"/>
	<line id="XMLID_327_" class="st2" x1="176.3" y1="241.9" x2="176.3" y2="243.7"/>
	<line id="XMLID_326_" class="st2" x1="179.8" y1="241.9" x2="179.8" y2="243.7"/>
	<line id="XMLID_325_" class="st2" x1="183.3" y1="241.9" x2="183.3" y2="243.7"/>
	<line id="XMLID_324_" class="st2" x1="186.8" y1="241.9" x2="186.8" y2="243.7"/>
	<line id="XMLID_319_" class="st2" x1="190.3" y1="241.9" x2="190.3" y2="243.7"/>
	<line id="XMLID_316_" class="st2" x1="193.8" y1="241.9" x2="193.8" y2="243.7"/>
	<line id="XMLID_310_" class="st2" x1="197.3" y1="241.9" x2="197.3" y2="243.7"/>
	<line id="XMLID_309_" class="st2" x1="200.8" y1="241.9" x2="200.8" y2="243.7"/>
	<line id="XMLID_308_" class="st2" x1="204.3" y1="241.9" x2="204.3" y2="243.7"/>
	<line id="XMLID_307_" class="st2" x1="207.7" y1="241.9" x2="207.7" y2="243.7"/>
	<line id="XMLID_306_" class="st2" x1="211.2" y1="241.9" x2="211.2" y2="243.7"/>
	<line id="XMLID_305_" class="st2" x1="214.7" y1="241.9" x2="214.7" y2="243.7"/>
	<line id="XMLID_304_" class="st2" x1="218.2" y1="241.9" x2="218.2" y2="243.7"/>
	<line id="XMLID_262_" class="st2" x1="221.7" y1="241.9" x2="221.7" y2="243.7"/>
	<line id="XMLID_228_" class="st2" x1="225.2" y1="241.9" x2="225.2" y2="243.7"/>
	<line id="XMLID_226_" class="st2" x1="228.7" y1="241.9" x2="228.7" y2="243.7"/>
	<line id="XMLID_225_" class="st2" x1="232.2" y1="241.9" x2="232.2" y2="243.7"/>
	<line id="XMLID_224_" class="st2" x1="235.7" y1="241.9" x2="235.7" y2="243.7"/>
	<line id="XMLID_223_" class="st2" x1="239.1" y1="241.9" x2="239.1" y2="243.7"/>
	<line id="XMLID_222_" class="st2" x1="242.6" y1="241.9" x2="242.6" y2="243.7"/>
	<line id="XMLID_221_" class="st2" x1="246.1" y1="241.9" x2="246.1" y2="243.7"/>
	<line id="XMLID_220_" class="st2" x1="249.6" y1="241.9" x2="249.6" y2="243.7"/>
	<line id="XMLID_219_" class="st2" x1="253.1" y1="241.9" x2="253.1" y2="243.7"/>
	<line id="XMLID_218_" class="st2" x1="256.6" y1="241.9" x2="256.6" y2="243.7"/>
	<line id="XMLID_217_" class="st2" x1="260.1" y1="241.9" x2="260.1" y2="243.7"/>
</g>
<g id="XMLID_249_">
	<path id="XMLID_450_" class="st2" d="M296.2,98.5h-10.3L281,89c-0.4-0.7,0.2-1.6,1-1.6h3.6c0.3,0,0.6,0.1,0.8,0.3L296.2,98.5z"/>
	<path id="XMLID_258_" class="st2" d="M296.2,98.5h-10.3L281,89c-0.4-0.7,0.2-1.6,1-1.6h3.6c0.3,0,0.6,0.1,0.8,0.3L296.2,98.5z"/>
	<path id="XMLID_257_" class="st2" d="M283.1,87.5H282c-0.8,0-1.3,0.9-1,1.6l4.8,9.4h4l-6.6-10.6C283.2,87.8,283.1,87.6,283.1,87.5z
		"/>
	<path id="XMLID_449_" class="st2" d="M296.2,98.5h-10.3L281,89c-0.4-0.7,0.2-1.6,1-1.6h3.6c0.3,0,0.6,0.1,0.8,0.3L296.2,98.5z"/>
	<path id="XMLID_459_" class="st2" d="M332.1,99.8c1.7,0,3-1.4,3-3v-0.2c0-1.7-1.4-3-3-3H332c-0.5-1.8-2.2-3.1-4.1-3.1
		c-0.9,0-1.7,0.3-2.3,0.7c-0.4-2.8-2.9-5-5.8-5c-2.7,0-4.9,1.7-5.6,4.2c-0.3-0.1-0.7-0.1-1.1-0.1c-2,0-3.7,1.5-4,3.4h-0.7
		c-1.1,0-2.1,0.6-2.6,1.5"/>
	<path id="XMLID_480_" class="st2" d="M323.6,90.6c-0.9-1.4-2.4-2.2-4.1-2.2c-0.9,0-1.8,0.3-2.5,0.7"/>
	<path id="XMLID_479_" class="st2" d="M313.1,90.1c1.2,0,2.1,0.9,2.1,2.1"/>
	<path id="XMLID_442_" class="st2" d="M332,102.1h-1c-0.9-2.4-3.2-4.1-5.9-4.1h-42.1c0,5.8,4.7,10.5,10.5,10.5h26.5h11.4h0.6
		c1.6,0,2.9-1.3,2.9-2.9V105C334.9,103.4,333.6,102.1,332,102.1z"/>
	<path id="XMLID_460_" class="st2" d="M332,106.1h-0.6h-11.4h-26.5c-5,0-9.1-3.4-10.2-8h-0.3c0,5.8,4.7,10.5,10.5,10.5h26.5h11.4
		h0.6c1.6,0,2.9-1.3,2.9-2.9V105c0-0.3-0.1-0.6-0.2-0.9C334.4,105.2,333.3,106.1,332,106.1z"/>
	<path id="XMLID_256_" class="st2" d="M332,102.1h-1c-0.9-2.4-3.2-4.1-5.9-4.1h-42.1c0,5.8,4.7,10.5,10.5,10.5h26.5h11.4h0.6
		c1.6,0,2.9-1.3,2.9-2.9V105C334.9,103.4,333.6,102.1,332,102.1z"/>
	<path id="XMLID_255_" class="st2" d="M295.4,101.4h-12.7c-0.6,0-1.2-0.5-1.2-1.2v-1c0-0.6,0.5-1.2,1.2-1.2h12.7
		c0.6,0,1.2,0.5,1.2,1.2v1C296.6,100.8,296,101.4,295.4,101.4z"/>
	<path id="XMLID_254_" class="st2" d="M319.1,109.8h-15.4c-0.6,0-1.2-0.5-1.2-1.2V107c0-0.6,0.5-1.2,1.2-1.2h15.4
		c0.6,0,1.2,0.5,1.2,1.2v1.6C320.2,109.2,319.7,109.8,319.1,109.8z"/>
	<path id="XMLID_253_" class="st2" d="M295.4,101.4h-12.7c-0.6,0-1.2-0.5-1.2-1.2v-1c0-0.6,0.5-1.2,1.2-1.2h12.7
		c0.6,0,1.2,0.5,1.2,1.2v1C296.6,100.8,296,101.4,295.4,101.4z"/>
	<path id="XMLID_252_" class="st2" d="M319.1,109.8h-15.4c-0.6,0-1.2-0.5-1.2-1.2V107c0-0.6,0.5-1.2,1.2-1.2h15.4
		c0.6,0,1.2,0.5,1.2,1.2v1.6C320.2,109.2,319.7,109.8,319.1,109.8z"/>
	<line id="XMLID_452_" class="st2" x1="322.6" y1="101.4" x2="327.8" y2="101.4"/>
	<line id="XMLID_451_" class="st2" x1="316.4" y1="101.4" x2="319" y2="101.4"/>
	<line id="XMLID_453_" class="st2" x1="312.2" y1="101.4" x2="314.8" y2="101.4"/>
	<line id="XMLID_454_" class="st2" x1="307.9" y1="101.4" x2="310.5" y2="101.4"/>
	<line id="XMLID_455_" class="st2" x1="303.7" y1="101.4" x2="306.3" y2="101.4"/>
	<line id="XMLID_456_" class="st2" x1="299.4" y1="101.4" x2="302.1" y2="101.4"/>
</g>
<polygon id="XMLID_27_" class="st2" points="326.4,172 326.4,181.8 388.8,191.7 394.1,158.2 330.2,148 "/>
<rect id="XMLID_2_" x="329.6" y="150" transform="matrix(0.9655 0.2603 -0.2603 0.9655 55.9248 -88.4578)" class="st2" width="64.7" height="33.9"/>
<line id="XMLID_76_" class="st2" x1="347.3" y1="52.3" x2="347.3" y2="147.3"/>
<g id="XMLID_263_">
	<path id="XMLID_303_" class="st2" d="M477.2,126.4c6.7-6.7,6.7-17.5,0-24.2c-6.7-6.7-17.5-6.7-24.2,0c-5.8,5.8-6.6,14.7-2.4,21.3
		l-4.9,10.1c-0.1,0.3,0.2,0.5,0.4,0.4l10-5C462.7,132.9,471.5,132.1,477.2,126.4z"/>
	<path id="XMLID_302_" class="st2" d="M477.2,126.4c6.7-6.7,6.7-17.5,0-24.2c-6.7-6.7-17.5-6.7-24.2,0c-5.8,5.8-6.6,14.7-2.4,21.3
		l-4.9,10.1c-0.1,0.3,0.2,0.5,0.4,0.4l10-5C462.7,132.9,471.5,132.1,477.2,126.4z"/>
	<g id="XMLID_290_">
		<path id="XMLID_300_" class="st2" d="M469.8,117.6v-1.7l3.7-1.8l-3.7-1.7v-1.7l5.6,2.6v1.6L469.8,117.6z"/>
		<path id="XMLID_298_" class="st2" d="M468.7,120.1H467l-4.9-10.6h1.6L468.7,120.1z"/>
		<path id="XMLID_296_" class="st2" d="M461,110.8v1.7l-3.7,1.7l3.7,1.8v1.7l-5.6-2.6v-1.6L461,110.8z"/>
	</g>
	<line id="XMLID_289_" class="st2" x1="465.5" y1="91.6" x2="465.5" y2="95.6"/>
	<line id="XMLID_288_" class="st2" x1="470.8" y1="94.4" x2="470.3" y2="96.4"/>
	<line id="XMLID_287_" class="st2" x1="476.7" y1="94.9" x2="474.7" y2="98.3"/>
	<line id="XMLID_286_" class="st2" x1="479.9" y1="100" x2="478.5" y2="101.4"/>
	<line id="XMLID_284_" class="st2" x1="484.9" y1="103.3" x2="481.4" y2="105.3"/>
	<line id="XMLID_283_" class="st2" x1="485.1" y1="109.3" x2="483.2" y2="109.8"/>
	<line id="XMLID_282_" class="st2" x1="487.7" y1="114.7" x2="483.7" y2="114.7"/>
	<line id="XMLID_281_" class="st2" x1="484.9" y1="120" x2="483" y2="119.5"/>
	<line id="XMLID_280_" class="st2" x1="484.5" y1="126" x2="481" y2="124"/>
	<line id="XMLID_279_" class="st2" x1="479.4" y1="129.2" x2="478" y2="127.8"/>
	<line id="XMLID_276_" class="st2" x1="476" y1="134.1" x2="474" y2="130.6"/>
	<line id="XMLID_275_" class="st2" x1="470" y1="134.3" x2="469.5" y2="132.4"/>
	<line id="XMLID_274_" class="st2" x1="464.6" y1="136.9" x2="464.7" y2="132.9"/>
	<line id="XMLID_273_" class="st2" x1="459.3" y1="134.1" x2="459.8" y2="132.2"/>
	<line id="XMLID_271_" class="st2" x1="445" y1="119.2" x2="446.9" y2="118.7"/>
	<line id="XMLID_270_" class="st2" x1="442.4" y1="113.9" x2="446.4" y2="113.9"/>
	<line id="XMLID_269_" class="st2" x1="445.2" y1="108.5" x2="447.2" y2="109.1"/>
	<line id="XMLID_268_" class="st2" x1="445.7" y1="102.6" x2="449.1" y2="104.6"/>
	<line id="XMLID_267_" class="st2" x1="450.8" y1="99.4" x2="452.2" y2="100.8"/>
	<line id="XMLID_266_" class="st2" x1="454.1" y1="94.5" x2="456.1" y2="97.9"/>
	<line id="XMLID_264_" class="st2" x1="460.1" y1="94.2" x2="460.6" y2="96.2"/>
</g>
<g id="XMLID_17_">
	<line id="XMLID_1_" class="st2" x1="123.5" y1="257.4" x2="607.6" y2="257.4"/>
	<line id="XMLID_19_" class="st2" x1="612" y1="257.4" x2="619.1" y2="257.4"/>
	<line id="XMLID_18_" class="st2" x1="117.8" y1="257.4" x2="105.8" y2="257.4"/>
</g>
</svg>
