<?xml version="1.0" encoding="utf-8"?>
<!-- Generator: Adobe Illustrator 22.1.0, SVG Export Plug-In . SVG Version: 6.00 Build 0)  -->
<svg version="1.1" id="Layer_1" xmlns="http://www.w3.org/2000/svg" xmlns:xlink="http://www.w3.org/1999/xlink" x="0px" y="0px"
	 viewBox="0 0 693 270" style="enable-background:new 0 0 693 270;" xml:space="preserve">
<style type="text/css">
	.st0{fill:#FFFFFF;}
	.st1{fill:#5FB0E5;}
	.st2{fill:none;stroke:#0686D8;stroke-width:1.5;stroke-miterlimit:10;}
	.st3{fill:#D2E9F7;}
	.st4{fill:#FFFFFE;}
	.st5{fill:#9ECFEF;}
	.st6{opacity:0.3;fill:#03436C;enable-background:new    ;}
	.st7{opacity:0.3;}
	.st8{fill:#03436C;}
	.st9{fill:#0686D8;}
	.st10{fill-rule:evenodd;clip-rule:evenodd;fill:none;stroke:#0686D8;stroke-width:1.5;stroke-miterlimit:10;}
</style>
<g>
	<g id="XMLID_721_">
		<g id="XMLID_688_">
			<g id="XMLID_635_">
				<path id="XMLID_660_" class="st0" d="M519.9,545.5h-7.5c-0.3,0-0.5-0.2-0.5-0.5v-54.5c0-0.1,0-0.2,0-0.2l3.7-6.1
					c0.2-0.4,0.8-0.4,1,0l3.7,6.1c0,0.1,0,0.1,0,0.2V545C520.4,545.3,520.2,545.5,519.9,545.5z"/>
				<rect id="XMLID_659_" x="511.9" y="492.3" class="st1" width="8.5" height="47.7"/>
				<path id="XMLID_658_" class="st2" d="M520.4,545.5h-8.5v-55.1l4-6.6c0.1-0.3,0.5-0.3,0.6,0l4,6.6L520.4,545.5L520.4,545.5z"/>
				<line id="XMLID_657_" class="st2" x1="511.7" y1="492.3" x2="520.4" y2="492.3"/>
				<line id="XMLID_656_" class="st2" x1="511.5" y1="540" x2="520.8" y2="540"/>
			</g>
			<g id="XMLID_663_">
				<path id="XMLID_686_" class="st2" d="M523.3,491.7c10.6,3,18.4,12.8,18.4,24.5c0,11.9-8.2,21.9-19.3,24.7"/>
				<path id="XMLID_670_" class="st2" d="M509.8,540.8c-10.9-2.9-19-12.8-19-24.6c0-11.7,8-21.6,18.8-24.5"/>
				<path id="XMLID_669_" class="st2" d="M525.2,492.4c3.9,6.2,6.2,14.6,6.2,23.7c0,9.3-2.4,17.7-6.3,23.9"/>
				<path id="XMLID_668_" class="st2" d="M508,492.4c-3.8,6.2-6.2,14.6-6.2,23.7c0,9.3,2.4,17.7,6.3,23.9"/>
				<line id="XMLID_666_" class="st2" x1="523.3" y1="516.2" x2="541.7" y2="516.2"/>
				<line id="XMLID_665_" class="st2" x1="524.7" y1="504.1" x2="539.3" y2="504.1"/>
				<line id="XMLID_687_" class="st2" x1="490.9" y1="516.2" x2="509.4" y2="516.2"/>
				<line id="XMLID_685_" class="st2" x1="493" y1="504.1" x2="508.3" y2="504.1"/>
				<line id="XMLID_664_" class="st2" x1="524.4" y1="528.3" x2="537.9" y2="528.3"/>
				<line id="XMLID_667_" class="st2" x1="494.5" y1="528.3" x2="508" y2="528.3"/>
			</g>
		</g>
	</g>
	<g>
		<path class="st0" d="M45.8,544.3H-51v-170c0-1.7,1.4-3,3-3h90.7c1.7,0,3,1.4,3,3v170H45.8z"/>
		<path class="st1" d="M45.8,390H-51v-13c0-3.2,2.6-5.8,5.8-5.8h85.2c3.2,0,5.8,2.6,5.8,5.8L45.8,390L45.8,390z"/>
		<path class="st2" d="M-51,459.9V377c0-3.2,2.6-5.8,5.8-5.8h85.2c3.2,0,5.8,2.6,5.8,5.8v68.2"/>
		<line class="st2" x1="-51" y1="544.3" x2="-51" y2="485.1"/>
		<line class="st2" x1="-50.3" y1="390.4" x2="45.8" y2="390.4"/>
		<rect x="-36.5" y="445.6" class="st3" width="67.3" height="14.4"/>
		<rect x="-36.5" y="469.8" class="st3" width="67.3" height="14.4"/>
		<line class="st2" x1="-41.3" y1="378.7" x2="-38.4" y2="378.7"/>
		<line class="st2" x1="-27" y1="452.8" x2="16.9" y2="452.8"/>
		<line class="st2" x1="-28.4" y1="476.9" x2="-26.2" y2="476.9"/>
		<line class="st2" x1="-21.4" y1="476.9" x2="-19.2" y2="476.9"/>
		<line class="st2" x1="-14.4" y1="476.9" x2="-12.2" y2="476.9"/>
		<line class="st2" x1="-7.4" y1="476.9" x2="-5.2" y2="476.9"/>
		<line class="st2" x1="-0.4" y1="476.9" x2="1.8" y2="476.9"/>
		<line class="st2" x1="6.6" y1="476.9" x2="8.8" y2="476.9"/>
		<line class="st2" x1="13.6" y1="476.9" x2="15.8" y2="476.9"/>
		<line class="st2" x1="-34.2" y1="378.7" x2="-31.3" y2="378.7"/>
		<line class="st2" x1="-27.1" y1="378.7" x2="-24.2" y2="378.7"/>
		<g id="XMLID_69_">
			<path id="XMLID_79_" class="st2" d="M1.8,409.6c0,2.8-2.2,5-5,5s-5-2.2-5-5s2.2-5,5-5S1.8,406.9,1.8,409.6z"/>
			<path id="XMLID_77_" class="st2" d="M-10.9,431.3v-4.7c0-4.5,3.6-8.1,8.1-8.1l0,0c4.5,0,8.1,3.6,8.1,8.1v4.7"/>
		</g>
		<circle class="st2" cx="-2.9" cy="418" r="18.7"/>
	</g>
	<g id="XMLID_147_">
		<g id="XMLID_12_">
			<path id="XMLID_152_" class="st3" d="M390.9,532.5h-25.5c-0.7,0-1.4-0.6-1.4-1.4v-90.5c0-0.7,0.6-1.4,1.4-1.4h25.5
				c0.7,0,1.4,0.6,1.4,1.4v90.5C392.3,531.9,391.7,532.5,390.9,532.5z"/>
			<path id="XMLID_151_" class="st1" d="M414.9,532.5h-13.1c-0.7,0-1.4-0.6-1.4-1.4V427.7c0-0.7,0.6-1.4,1.4-1.4h13.1
				c0.7,0,1.4,0.6,1.4,1.4v103.4C416.3,531.9,415.7,532.5,414.9,532.5z"/>
			<rect id="XMLID_150_" x="406" y="447.5" class="st4" width="5.5" height="67.1"/>
			<path id="XMLID_42_" class="st3" d="M447.7,532.5H426c-0.7,0-1.4-0.6-1.4-1.4v-93.8c0-0.7,0.6-1.4,1.4-1.4h21.7
				c0.7,0,1.4,0.6,1.4,1.4v93.8C449,531.9,448.5,532.5,447.7,532.5z"/>
			<path id="XMLID_146_" class="st2" d="M364,451.9v-7.5c0-2.8,2.3-5,5-5h18.2c2.8,0,5,2.3,5,5v40.2"/>
			<path id="XMLID_145_" class="st2" d="M400.5,481.3v-49.9c0-2.8,2.3-5,5-5h5.3c3,0,5.4,2.4,5.4,5.4v49.5"/>
			<path id="XMLID_41_" class="st2" d="M424.5,484.6V441c0-2.8,2.3-5,5-5H444c2.8,0,5,2.3,5,5v25.9"/>
			<line id="XMLID_40_" class="st2" x1="370.8" y1="450.4" x2="385.4" y2="450.4"/>
			<line id="XMLID_142_" class="st2" x1="370.8" y1="462" x2="385.4" y2="462"/>
			<line id="XMLID_141_" class="st2" x1="370.8" y1="473.5" x2="385.4" y2="473.5"/>
			<line id="XMLID_140_" class="st2" x1="370.8" y1="485.1" x2="385.4" y2="485.1"/>
			<line id="XMLID_39_" class="st2" x1="370.8" y1="496.6" x2="378.8" y2="496.6"/>
			<line id="XMLID_138_" class="st2" x1="370.8" y1="508.2" x2="385.4" y2="508.2"/>
			<line id="XMLID_137_" class="st2" x1="370.8" y1="519.7" x2="385.4" y2="519.7"/>
			<path id="XMLID_136_" class="st1" d="M445.5,453.3c0,4.8-3.9,8.7-8.7,8.7s-8.7-3.9-8.7-8.7c0-4.8,3.9-8.7,8.7-8.7
				C441.7,444.6,445.5,448.5,445.5,453.3z"/>
			<path id="XMLID_38_" class="st1" d="M445.5,511.1c0,4.8-3.9,8.7-8.7,8.7s-8.7-3.9-8.7-8.7s3.9-8.7,8.7-8.7
				C441.7,502.4,445.5,506.3,445.5,511.1z"/>
			<g id="XMLID_14_">
				<path id="XMLID_535_" class="st3" d="M460,518.4h-0.5c-2.3-7.8-9.4-13.4-17.9-13.4c-3.7,0-7.1,1.1-10.1,3
					c-1.9-12.2-12.4-21.6-25.2-21.6c-11.4,0-21.1,7.5-24.4,17.9c-1.5-0.4-3-0.6-4.6-0.6c-8.7,0-16,6.4-17.3,14.8h-2.9
					c-7.2,0-13.1,5.9-13.1,13.1v1c0,7.2,5.9,13.1,13.1,13.1h102.7c7.2,0,13.1-5.9,13.1-13.1v-1C473,524.3,467.3,518.4,460,518.4z"/>
				<path id="XMLID_37_" class="st0" d="M448,521.6h-0.5c-2-6.8-8.3-11.8-15.8-11.8c-3.3,0-6.3,1-8.9,2.6c-1.7-10.8-10.9-19-22.2-19
					c-10.1,0-18.6,6.7-21.5,15.8c-1.3-0.3-2.6-0.5-4-0.5c-7.7,0-14.1,5.6-15.2,13h-2.5c-6.3,0-11.5,5.2-11.5,11.5v0.8
					c0,6.3,5.2,11.5,11.5,11.5H448c6.3,0,11.5-5.2,11.5-11.5v-0.8C459.5,526.8,454.4,521.6,448,521.6z"/>
				<path id="XMLID_533_" class="st2" d="M423,505.9c-3.8-5.8-10.3-9.7-17.8-9.7c-4,0-7.7,1.1-10.8,3"/>
				<path id="XMLID_531_" class="st2" d="M377.9,503.6c5,0,9.1,4.1,9.1,9.1"/>
				<path id="XMLID_59_" class="st2" d="M357.3,518.4c-7.2,0-13.1,5.9-13.1,13.1v1c0,7.2,5.9,13.1,13.1,13.1H460
					c7.2,0,13.1-5.9,13.1-13.1v-1c0-7.2-5.9-13.1-13.1-13.1h-0.5c-2.3-7.8-9.4-13.4-17.9-13.4c-3.7,0-7.1,1.1-10.1,3
					c-1.9-12.2-12.4-21.6-25.2-21.6c-11.4,0-21.1,7.5-24.4,17.9c-1.5-0.4-3-0.6-4.6-0.6"/>
			</g>
		</g>
	</g>
	<g id="XMLID_74_">
		<g id="XMLID_78_">
			<path id="XMLID_186_" class="st1" d="M320.8,496.4H140.2V393.7c0-2.7,2.2-4.8,4.8-4.8H316c2.7,0,4.8,2.2,4.8,4.8V496.4z"/>
			<path id="XMLID_51_" class="st2" d="M140.2,447v-49c0-5,4-9,9-9h12.2h16.8"/>
			<path id="XMLID_48_" class="st2" d="M218.2,388.9h93.6c5,0,9,4,9,9V452"/>
			<line id="XMLID_55_" class="st2" x1="186.2" y1="388.9" x2="206.2" y2="388.9"/>
			<rect id="XMLID_36_" x="149.9" y="399.4" class="st0" width="161.3" height="84.9"/>
			<rect id="XMLID_20_" x="203.3" y="512.7" class="st3" width="54.4" height="32.2"/>
			<rect id="XMLID_182_" x="203.3" y="512.7" class="st5" width="54.4" height="16.1"/>
			<rect id="XMLID_15_" x="203.3" y="512.7" class="st2" width="54.4" height="32.2"/>
			<path id="XMLID_180_" class="st0" d="M320.8,492.5H140.2V511c0,3.2,2.6,5.9,5.9,5.9H315c3.2,0,5.9-2.6,5.9-5.9V492.5z"/>
			<line id="XMLID_54_" class="st2" x1="169.2" y1="516.9" x2="299.2" y2="516.9"/>
			<line id="XMLID_53_" class="st2" x1="297.2" y1="492.5" x2="169.4" y2="492.5"/>
			<line id="XMLID_178_" class="st2" x1="192.7" y1="545.5" x2="269" y2="545.5"/>
		</g>
		<path id="XMLID_58_" class="st3" d="M229.8,454.4h-67.3c-0.6,0-1.1-0.5-1.1-1.1v-40.1c0-0.6,0.5-1.1,1.1-1.1h67.3
			c0.6,0,1.1,0.5,1.1,1.1v40.1C230.8,453.9,230.4,454.4,229.8,454.4z"/>
		<path id="XMLID_56_" class="st2" d="M229.8,454.4h-67.3c-0.6,0-1.1-0.5-1.1-1.1v-40.1c0-0.6,0.5-1.1,1.1-1.1h67.3
			c0.6,0,1.1,0.5,1.1,1.1v40.1C230.8,453.9,230.4,454.4,229.8,454.4z"/>
		<path id="XMLID_812_" class="st1" d="M205.3,434.6l-16.8,9.7c-1.1,0.6-2.4-0.2-2.4-1.4v-19.3c0-1.2,1.3-2,2.4-1.4l16.8,9.7
			C206.3,432.5,206.3,434,205.3,434.6z"/>
		<path id="XMLID_811_" class="st2" d="M205.3,434.6l-16.8,9.7c-1.1,0.6-2.4-0.2-2.4-1.4v-19.3c0-1.2,1.3-2,2.4-1.4l16.8,9.7
			C206.3,432.5,206.3,434,205.3,434.6z"/>
		<line id="XMLID_61_" class="st2" x1="161.4" y1="465.9" x2="194.9" y2="465.9"/>
		<line id="XMLID_11_" class="st2" x1="273.5" y1="418.6" x2="307" y2="418.6"/>
		<line id="XMLID_10_" class="st2" x1="273.5" y1="429" x2="290.2" y2="429"/>
		<line id="XMLID_73_" class="st2" x1="273.5" y1="449.2" x2="307" y2="449.2"/>
		<line id="XMLID_72_" class="st2" x1="273.5" y1="459.5" x2="290.2" y2="459.5"/>
		<line id="XMLID_9_" class="st2" x1="273.5" y1="479.8" x2="307" y2="479.8"/>
		<line id="XMLID_60_" class="st2" x1="159.2" y1="475" x2="233.7" y2="475"/>
		<rect id="XMLID_62_" x="246.4" y="412.4" class="st1" width="22.6" height="22.6"/>
		<rect id="XMLID_63_" x="246.4" y="443.1" class="st1" width="22.6" height="22.6"/>
		<rect id="XMLID_64_" x="246.4" y="473.8" class="st1" width="22.6" height="11.3"/>
	</g>
	<path class="st6" d="M322.3,506.1v-8.3v-6.7v-38.7h-2V451h-7.7v1.4h-5.3V451H303c-3.1,0-5.7,2.5-5.7,5.7v61.5h12.8
		C316.8,518.2,322.3,512.8,322.3,506.1z"/>
	<path class="st6" d="M376.7,541.2v-80.9c0-3.1-2.5-5.7-5.7-5.7h-2.1h-6.3v50.2h1.4v3c-2.4,2.5-4.2,5.6-4.9,9.1h-1.7
		c-8,0-14.5,6.5-14.5,14.5v1c0,8,6.5,14.5,14.5,14.5H371C374.2,546.9,376.7,544.4,376.7,541.2z"/>
	<g id="XMLID_113_">
		<path id="XMLID_99_" class="st0" d="M369.8,545.5h-65.7c-1,0-1.8-0.8-1.8-1.8v-85.9c0-1,0.8-1.8,1.8-1.8h65.7c1,0,1.8,0.8,1.8,1.8
			v85.9C371.7,544.7,370.8,545.5,369.8,545.5z"/>
		<path id="XMLID_112_" class="st2" d="M328.2,456.1h39.1c2.4,0,4.3,1.9,4.3,4.3v80.9c0,2.4-1.9,4.3-4.3,4.3h-60.7
			c-2.4,0-4.3-1.9-4.3-4.3v-80.9c0-2.4,1.9-4.3,4.3-4.3h4.2"/>
		<line id="XMLID_98_" class="st2" x1="316.3" y1="456.1" x2="324" y2="456.1"/>
		<rect id="XMLID_100_" x="308.8" y="465.2" class="st3" width="56.2" height="71.8"/>
		<line id="XMLID_102_" class="st2" x1="329.2" y1="460.8" x2="344.8" y2="460.8"/>
		<polygon id="XMLID_103_" class="st1" points="363.8,507.5 356.8,505.1 350,507.5 350,456.1 363.8,456.1 		"/>
		<polygon id="XMLID_101_" class="st2" points="363.8,507.5 356.8,505.1 350,507.5 350,456.1 363.8,456.1 		"/>
		<line id="XMLID_105_" class="st2" x1="313" y1="472.6" x2="345.8" y2="472.6"/>
		<line id="XMLID_104_" class="st2" x1="313" y1="481" x2="345.8" y2="481"/>
		<line id="XMLID_106_" class="st2" x1="313" y1="489.3" x2="345.8" y2="489.3"/>
		<line id="XMLID_107_" class="st2" x1="313" y1="497.7" x2="345.8" y2="497.7"/>
		<line id="XMLID_108_" class="st2" x1="313" y1="506.1" x2="345.8" y2="506.1"/>
		<line id="XMLID_109_" class="st2" x1="313" y1="514.5" x2="360.7" y2="514.5"/>
		<line id="XMLID_110_" class="st2" x1="313" y1="522.9" x2="360.7" y2="522.9"/>
		<line id="XMLID_111_" class="st2" x1="313" y1="531.2" x2="360.7" y2="531.2"/>
		<line id="XMLID_115_" class="st2" x1="334.3" y1="540.6" x2="339.8" y2="540.6"/>
	</g>
	<line id="XMLID_5_" class="st2" x1="-173.6" y1="545.5" x2="627" y2="545.5"/>
	<path class="st6" d="M164.1,445.1h-25.2v46v6.7v8.3c0,6.7,5.4,12.1,12.1,12.1h17.6v-68.6C168.6,447.1,166.6,445.1,164.1,445.1z"/>
	<path class="st6" d="M45.8,448.8h-8.6c-2.5,0-4.5,2-4.5,4.5v80.5h-6.2l1.1,6.9c0.2,1.4,0.8,2.6,1.7,3.6h16.5V448.8z"/>
	<g>
		<g id="XMLID_49_">
			<path id="XMLID_802_" class="st1" d="M162.4,540.5H38.8c-0.6,0-1-0.4-1-1v-88.4c0-0.5,0.4-1,1-1h123.7c0.5,0,1,0.5,1,1v88.4
				C163.4,540.1,163.1,540.5,162.4,540.5z"/>
			<path id="XMLID_57_" class="st2" d="M37.8,480.6v-27.4c0-1.7,1.4-3.1,3.1-3.1h21.3"/>
			<path id="XMLID_52_" class="st2" d="M134.6,450.1h25.8c1.7,0,3.1,1.4,3.1,3.1v84.1c0,1.7-1.4,3.1-3.1,3.1"/>
			<rect id="XMLID_799_" x="43.8" y="457.3" class="st0" width="112.8" height="73.3"/>
			<path id="XMLID_798_" class="st0" d="M161.2,545.5H38.6c-2.9,0-5.5-2.1-5.9-5l-0.9-5.3h56.9l2.2,3.1h15.7l2.4-3.1h59.9l-0.8,4.6
				C167.6,543.1,164.7,545.5,161.2,545.5z"/>
			<path id="XMLID_797_" class="st2" d="M161.2,545.5H38.6c-2.9,0-5.5-2.1-5.9-5l-0.9-5.3h56.9l2.2,3.1h15.7l2.4-3.1h59.9l-0.8,4.6
				C167.6,543.1,164.7,545.5,161.2,545.5z"/>
		</g>
		<path id="XMLID_757_" class="st3" d="M66.9,435.2v30c0,1.4,1.1,2.5,2.5,2.5h2v5.9v11.2c0,0.6,0.8,0.9,1.2,0.4l14.7-17.6h41.6
			c1.4,0,2.5-1.1,2.5-2.5v-30c0-1.4-1.1-2.5-2.5-2.5H69.6C68.1,432.7,66.9,433.8,66.9,435.2z"/>
		<path id="XMLID_756_" class="st2" d="M108.4,432.7h-39c-1.4,0-2.5,1.1-2.5,2.5v30c0,1.4,1.1,2.5,2.5,2.5h2v5.9v11.2
			c0,0.6,0.8,0.9,1.2,0.4l14.7-17.6h41.6c1.4,0,2.5-1.1,2.5-2.5v-30c0-1.4-1.1-2.5-2.5-2.5h-5.4h-3.3"/>
		<line id="XMLID_754_" class="st2" x1="118.3" y1="432.7" x2="112.4" y2="432.7"/>
		<g id="XMLID_724_">
			<path id="XMLID_726_" class="st2" d="M76.9,498.9c0,2.8-2.2,5-5,5s-5-2.2-5-5c0-2.8,2.2-5,5-5C74.6,493.9,76.9,496.2,76.9,498.9z
				"/>
			<path id="XMLID_725_" class="st2" d="M64.1,520.6v-4.7c0-4.5,3.6-8.1,8.1-8.1l0,0c4.5,0,8.1,3.6,8.1,8.1v4.7"/>
		</g>
		<polyline id="XMLID_712_" class="st2" points="64.1,484.2 51.8,484.2 51.8,520.6 91.9,520.6 91.9,484.2 80.4,484.2 		"/>
		<path id="XMLID_713_" class="st2" d="M87.6,451.2c0,2.5-2.1,4.6-4.6,4.6s-4.6-2.1-4.6-4.6s2.1-4.6,4.6-4.6
			C85.6,446.6,87.6,448.6,87.6,451.2z"/>
		<path id="XMLID_788_" class="st2" d="M105.3,451.2c0,2.5-2.1,4.6-4.6,4.6s-4.6-2.1-4.6-4.6s2.1-4.6,4.6-4.6
			C103.3,446.6,105.3,448.6,105.3,451.2z"/>
		<path id="XMLID_789_" class="st2" d="M122.9,451.2c0,2.5-2.1,4.6-4.6,4.6s-4.6-2.1-4.6-4.6s2.1-4.6,4.6-4.6
			C120.9,446.6,122.9,448.6,122.9,451.2z"/>
		<line id="XMLID_791_" class="st2" x1="103.1" y1="485.5" x2="148.4" y2="485.5"/>
		<line id="XMLID_790_" class="st2" x1="103.6" y1="498.9" x2="148.9" y2="498.9"/>
		<line id="XMLID_792_" class="st2" x1="103.9" y1="512.3" x2="126.7" y2="512.3"/>
	</g>
	<path class="st6" d="M51.1,541.8v-49.6c0-2.5-2-4.6-4.6-4.6h-7v-5.4h-2.7v5.4h-0.5v46.2h-6.2l1.1,6.9c0.4,2.6,2.2,4.7,4.5,5.6h10.8
		C49.1,546.3,51.1,544.3,51.1,541.8z"/>
	<g id="XMLID_464_">
		<path id="XMLID_530_" class="st0" d="M44.3,545h-62.9c-1,0-1.8-0.8-1.8-1.8v-52.4c0-1,0.8-1.8,1.8-1.8h62.9c1,0,1.8,0.8,1.8,1.8
			v52.4C46.1,544.2,45.3,545,44.3,545z"/>
		<path id="XMLID_467_" class="st5" d="M42.9,489h-60.2c-1.8,0-3.2,1.4-3.2,3.2v8.5h66.6v-8.5C46.1,490.4,44.8,489,42.9,489z"/>
		<line id="XMLID_488_" class="st2" x1="-9.8" y1="482.2" x2="-9.8" y2="492.9"/>
		<line id="XMLID_487_" class="st2" x1="-2.4" y1="482.2" x2="-2.4" y2="492.9"/>
		<line id="XMLID_486_" class="st2" x1="5.1" y1="482.2" x2="5.1" y2="492.9"/>
		<line id="XMLID_485_" class="st2" x1="12.4" y1="482.2" x2="12.4" y2="492.9"/>
		<line id="XMLID_484_" class="st2" x1="19.8" y1="482.2" x2="19.8" y2="492.9"/>
		<line id="XMLID_483_" class="st2" x1="27.1" y1="482.2" x2="27.1" y2="492.9"/>
		<line id="XMLID_482_" class="st2" x1="34.6" y1="482.2" x2="34.6" y2="492.9"/>
		<circle id="XMLID_458_" class="st3" cx="12.4" cy="523.7" r="17.1"/>
		<path id="XMLID_462_" class="st0" d="M22.8,523.7c0,5.7-4.6,10.3-10.3,10.3s-10.3-4.6-10.3-10.3s4.6-10.3,10.3-10.3
			C18.1,513.3,22.8,517.9,22.8,523.7z"/>
		<path id="XMLID_44_" class="st2" d="M5.6,539.4c-1.9-0.8-3.7-2-5.1-3.5"/>
		<path id="XMLID_422_" class="st2" d="M-1.3,534c-2.2-2.9-3.5-6.5-3.5-10.4c0-9.5,7.7-17.1,17.1-17.1c9.5,0,17.1,7.7,17.1,17.1
			c0,9.5-7.7,17.1-17.1,17.1c-1.4,0-2.8-0.2-4.2-0.5"/>
		<polyline id="XMLID_423_" class="st2" points="20.1,517.7 10.1,527.7 4.6,522.2 		"/>
		<line id="XMLID_463_" class="st2" x1="-20.3" y1="500.7" x2="46.1" y2="500.7"/>
		<path id="XMLID_50_" class="st2" d="M30.8,545h12.2c1.8,0,3.2-1.4,3.2-3.2v-49.6c0-1.8-1.4-3.2-3.2-3.2h-60.2
			c-1.8,0-3.2,1.4-3.2,3.2v49.6c0,1.8,1.4,3.2,3.2,3.2h10.9H30.8L30.8,545z"/>
	</g>
	<g>
		<path id="XMLID_426_" class="st5" d="M338,429.8l2.9-15.8c-1.7-3.7-2.6-7.9-2.6-12.2c0-16.6,13.4-30,30-30c16.6,0,30,13.4,30,30
			c0,16.6-13.4,30-30,30c-5.9,0-11.3-1.7-15.9-4.6L338,429.8z"/>
		<path id="XMLID_425_" class="st2" d="M356.3,374.2c3.7-1.6,7.7-2.5,12-2.5c16.6,0,30,13.4,30,30c0,16.6-13.4,30-30,30
			c-5.9,0-11.3-1.7-15.9-4.6l-14.4,2.6l2.9-15.8c-1.7-3.7-2.6-7.9-2.6-12.2c0-7.2,2.5-13.7,6.7-18.9"/>
		<path id="XMLID_424_" class="st2" d="M347,380.6c1.9-1.9,4-3.5,6.3-4.9"/>
		<ellipse id="XMLID_96_" class="st0" cx="368.2" cy="401.7" rx="23.2" ry="22.6"/>
		<path id="XMLID_97_" class="st2" d="M377.3,402.7l-11.8,6.8c-0.7,0.4-1.7-0.1-1.7-1v-13.6c0-0.9,0.9-1.4,1.7-1l11.8,6.8
			C378,401.2,378,402.3,377.3,402.7z"/>
	</g>
	<g class="st7">
		<path class="st8" d="M460.5,517c-1.9-5.5-6.2-9.9-11.5-12v-3.4h1.4v-32c-0.6,0.6-1.2,1.2-1.7,1.8l-1.1-0.9c-3.9,4.6-6,10.5-6,16.6
			c0,8.9,4.7,17.2,12.2,21.9v5.3h-2.3v2.7h2.3v2.8h-2.3v2.7h2.3v2.8h-2.3v2.7h2.3v2.8h-2.3v2.7h2.8l3.5,6.5h4.3v1.7
			c0,1.8,1.4,3.2,3.2,3.2h1.8c2.1-1.2,3.8-2.8,5.1-4.8V540l0,0c1.4-2.2,2.3-4.9,2.3-7.7v-1C474.5,523.7,468.3,517.3,460.5,517z"/>
		<path class="st8" d="M450.5,468.3v-0.5c-0.1,0.1-0.2,0.2-0.3,0.3L450.5,468.3z"/>
	</g>
	<g id="XMLID_602_">
		<path id="XMLID_647_" class="st1" d="M473.5,543.7h-5.3c-0.5,0-1-0.4-1-1v-9.2c0-0.6,0.5-1,1-1h5.3c0.5,0,1,0.4,1,1v9.2
			C474.5,543.2,474,543.7,473.5,543.7z"/>
		<path id="XMLID_646_" class="st2" d="M473.5,543.7h-5.3c-0.5,0-1-0.4-1-1v-9.2c0-0.6,0.5-1,1-1h5.3c0.5,0,1,0.4,1,1v9.2
			C474.5,543.2,474,543.7,473.5,543.7z"/>
		<path id="XMLID_645_" class="st0" d="M495.4,487.1c0-13.5-10.9-24.4-24.4-24.4s-24.4,10.9-24.4,24.4c0,9,4.9,16.9,12.2,21.1v24
			l3.5,6.5H479l4.1-6.5v-24C490.5,504,495.4,496.2,495.4,487.1z"/>
		<polygon id="XMLID_644_" class="st5" points="458.9,514.9 458.9,533.7 462.4,538.8 479,538.8 483.2,533.7 483.2,514.9 		"/>
		<polygon id="XMLID_643_" class="st1" points="483.2,532.3 479,538.8 462.4,538.8 458.9,532.3 		"/>
		<path id="XMLID_642_" class="st2" d="M452.4,471.4c-3.6,4.2-5.7,9.7-5.7,15.7c0,9,4.9,16.9,12.2,21.1v24l3.5,6.5h16.7l4.1-6.5v-24
			c7.3-4.2,12.2-12.1,12.2-21.1c0-13.5-10.9-24.4-24.4-24.4c-3.2,0-6.3,0.6-9.2,1.8"/>
		<path id="XMLID_641_" class="st2" d="M458.9,466c-1.9,1.1-2.5,1.4-4.1,2.9"/>
		<line id="XMLID_640_" class="st2" x1="455.2" y1="515.7" x2="486.9" y2="515.7"/>
		<line id="XMLID_639_" class="st2" x1="455.2" y1="521.2" x2="486.9" y2="521.2"/>
		<line id="XMLID_638_" class="st2" x1="455.2" y1="526.7" x2="486.9" y2="526.7"/>
		<line id="XMLID_637_" class="st2" x1="455.2" y1="532.3" x2="486.9" y2="532.3"/>
		<path id="XMLID_625_" class="st5" d="M483.9,487.1c0,7.1-5.7,12.8-12.8,12.8s-12.8-5.7-12.8-12.8s5.7-12.8,12.8-12.8
			C478,474.3,483.9,480.1,483.9,487.1z"/>
		<g id="XMLID_626_">
			<g id="XMLID_95_">
				<polygon class="st9" points="474.3,471.1 466.9,486.9 465.7,484.9 476,484.9 478.3,484.9 477.3,486.9 468.3,503.7 467.2,503.2 
					474.8,485.7 476,487.6 465.7,487.6 463.4,487.6 464.5,485.7 472.9,470.5 				"/>
			</g>
		</g>
	</g>
</g>
<g>
	<g>
		<rect x="122.3" y="204.1" class="st2" width="19" height="2"/>
	</g>
	<g>
		<g>
			<path class="st2" d="M234.2,156.3h-7.9c-0.8,0-1.5-0.3-2-0.8c-0.5-0.5-0.8-1.2-0.8-2l0-3.8c-2.1-0.6-4.1-1.4-5.9-2.4l-2.7,2.7
				c-1.1,1.1-2.9,1.1-4,0l-5.6-5.6c-1.1-1.1-1.1-2.9,0-4l2.7-2.7c-1.1-1.9-1.9-3.8-2.5-5.9h-3.8c-1.6,0-2.8-1.3-2.8-2.8v-7.9
				c0-1.6,1.3-2.8,2.8-2.8h3.8c0.6-2.1,1.4-4.1,2.4-5.9l-2.7-2.7c-1.1-1.1-1.1-2.9,0-4l5.6-5.6c1.1-1.1,2.9-1.1,4,0l2.7,2.7
				c1.9-1.1,3.8-1.9,5.9-2.5v-3.8c0-1.6,1.3-2.8,2.8-2.8h7.9c1.6,0,2.8,1.3,2.8,2.8v3.8c2.1,0.6,4.1,1.4,5.9,2.4l2.7-2.7
				c1.1-1.1,2.9-1.1,4,0l5.6,5.6c1.1,1.1,1.1,2.9,0,4l-2.7,2.7c1.1,1.9,1.9,3.8,2.5,5.9h3.8c1.6,0,2.8,1.3,2.8,2.8v7.9
				c0,1.6-1.3,2.8-2.8,2.8H255c-0.6,2.1-1.4,4.1-2.4,5.9l2.7,2.7c0.5,0.5,0.8,1.2,0.8,2c0,0.8-0.3,1.5-0.8,2l-5.6,5.6
				c-1.1,1.1-2.9,1.1-4,0l-2.7-2.7c-1.9,1.1-3.8,1.9-5.9,2.5v3.8C237.1,155,235.8,156.3,234.2,156.3z M217.3,144.8l0.7,0.4
				c2.1,1.3,4.4,2.2,6.8,2.8l0.8,0.2l0,5.3c0,0.2,0.1,0.4,0.2,0.6c0.2,0.2,0.4,0.2,0.6,0.2h7.9c0.5,0,0.8-0.4,0.8-0.8v-5.3l0.8-0.2
				c2.4-0.6,4.7-1.5,6.8-2.8l0.7-0.4l3.8,3.8c0.3,0.3,0.9,0.3,1.2,0l5.6-5.6c0.2-0.2,0.2-0.4,0.2-0.6c0-0.2-0.1-0.4-0.2-0.6L250,138
				l0.4-0.7c1.3-2.1,2.2-4.4,2.8-6.8l0.2-0.8h5.3c0.5,0,0.8-0.4,0.8-0.8v-7.9c0-0.5-0.4-0.8-0.8-0.8h-5.3l-0.2-0.8
				c-0.6-2.4-1.5-4.7-2.8-6.8L250,112l3.8-3.8c0.3-0.3,0.3-0.8,0-1.2l-5.6-5.6c-0.3-0.3-0.9-0.3-1.2,0l-3.8,3.8l-0.7-0.4
				c-2.1-1.3-4.4-2.2-6.8-2.8l-0.8-0.2v-5.3c0-0.5-0.4-0.8-0.8-0.8h-7.9c-0.5,0-0.8,0.4-0.8,0.8v5.3l-0.8,0.2
				c-2.4,0.6-4.7,1.5-6.8,2.8l-0.7,0.4l-0.6-0.5l-3.2-3.2c-0.3-0.3-0.9-0.3-1.2,0l-5.6,5.6c-0.3,0.3-0.3,0.8,0,1.2l3.8,3.8l-0.4,0.7
				c-1.3,2.1-2.2,4.4-2.8,6.8l-0.2,0.8h-5.3c-0.5,0-0.8,0.4-0.8,0.8v7.9c0,0.5,0.4,0.8,0.8,0.8h5.3l0.2,0.8c0.6,2.4,1.5,4.7,2.8,6.8
				l0.4,0.7l-3.8,3.8c-0.3,0.3-0.3,0.8,0,1.2l5.6,5.6c0.3,0.3,0.9,0.3,1.2,0L217.3,144.8z"/>
		</g>
		<g>
			<path class="st10" d="M230.3,145.2c11.2,0,20.2-9.1,20.2-20.2c0-11.2-9.1-20.2-20.2-20.2c-11.2,0-20.2,9.1-20.2,20.2
				C210,136.2,219.1,145.2,230.3,145.2z"/>
		</g>
		<g>
			<g>
				<path class="st2" d="M230.3,141.3l0-2h0c0.9,0,1.8-0.1,2.7-0.3l0.4,2C232.4,141.2,231.3,141.3,230.3,141.3z M226.1,140.8
					c-1-0.3-2-0.6-2.9-1.1l0.9-1.8c0.8,0.4,1.7,0.7,2.6,1L226.1,140.8z M237.3,139.7l-0.9-1.8c0.8-0.4,1.6-0.9,2.4-1.4l1.2,1.6
					C239.2,138.7,238.3,139.3,237.3,139.7z M219.7,137.4c-0.8-0.7-1.5-1.4-2.2-2.3l1.6-1.2c0.6,0.7,1.2,1.4,1.9,2L219.7,137.4z
					 M243,135.2l-1.6-1.3c0.6-0.7,1.1-1.5,1.5-2.3l1.8,0.9C244.3,133.5,243.7,134.4,243,135.2z M215.3,131.6c-0.4-1-0.8-2-1-3l2-0.4
					c0.2,0.9,0.5,1.8,0.9,2.6L215.3,131.6z M246.2,128.7l-1.9-0.4c0.2-0.9,0.3-1.8,0.4-2.7l2,0.1
					C246.6,126.6,246.4,127.7,246.2,128.7z M216,124.5l-2-0.1c0-1,0.2-2.1,0.4-3.1l2,0.4C216.1,122.7,216,123.6,216,124.5z
					 M244.3,121.9c-0.2-0.9-0.5-1.8-0.9-2.6l1.8-0.8c0.4,1,0.7,2,1,3L244.3,121.9z M217.6,118.4l-1.8-0.9c0.5-0.9,1.1-1.8,1.7-2.6
					l1.6,1.2C218.5,116.8,218,117.6,217.6,118.4z M241.5,116.1c-0.6-0.7-1.2-1.4-1.9-2l1.3-1.5c0.8,0.7,1.5,1.4,2.2,2.3L241.5,116.1
					z M221.7,113.5l-1.2-1.6c0.8-0.6,1.7-1.2,2.7-1.6l0.9,1.8C223.2,112.5,222.5,113,221.7,113.5z M236.5,112.1
					c-0.8-0.4-1.7-0.7-2.6-1l0.5-1.9c1,0.3,2,0.6,2.9,1.1L236.5,112.1z M227.5,111l-0.4-2c1-0.2,2.1-0.3,3.1-0.3l0.1,2h-0.1
					C229.4,110.7,228.4,110.8,227.5,111z"/>
			</g>
		</g>
	</g>
	<g>
		<path class="st2" d="M611.2,66.4v-2.9c0-1.3,0.3-2.6,0.9-3.7c2.2-4,6.4-3.7,6.4-3.7s4.2-0.3,6.4,3.7c0.6,1.1,0.9,2.4,0.9,3.7v2.9
			h4.1v-2.2c0-0.6,0-1.3-0.1-1.9c-0.1-0.5-0.1-0.9-0.2-1.4c-0.1-0.3-0.1-0.6-0.2-0.9c-0.2-0.6-0.4-1.2-0.7-1.8
			c-0.2-0.4-0.4-0.8-0.7-1.2c-1.6-2.6-4.6-5.1-9.5-5.1c-4.9-0.1-7.8,2.5-9.5,5.1c-0.3,0.4-0.5,0.8-0.7,1.2c-0.3,0.6-0.5,1.2-0.7,1.8
			c-0.1,0.3-0.2,0.6-0.3,0.9c-0.1,0.5-0.2,0.9-0.2,1.4c-0.1,0.6-0.1,1.3-0.1,1.9v2.2H611.2z"/>
		<g>
			<path class="st2" d="M630.1,95.4h-22.6c-3.8,0-6.9-3.1-6.9-6.9V72.2c0-3.8,3.1-6.9,6.9-6.9h22.6c3.8,0,6.9,3.1,6.9,6.9v16.3
				C636.9,92.3,633.8,95.4,630.1,95.4z M607.5,67.3c-2.7,0-4.9,2.2-4.9,4.9v16.3c0,2.7,2.2,4.9,4.9,4.9h22.6c2.7,0,4.9-2.2,4.9-4.9
				V72.2c0-2.7-2.2-4.9-4.9-4.9H607.5z"/>
		</g>
		<path class="st2" d="M621.2,81v6.4c0,1.3-1.1,2.4-2.4,2.4c-1.3,0-2.4-1.1-2.4-2.4V81c-1.8-0.9-3-2.7-3-4.8c0-2.9,2.3-5.3,5.3-5.3
			s5.4,2.4,5.4,5.3C624.1,78.3,622.8,80.1,621.2,81z"/>
	</g>
	<g>
		<path class="st10" d="M66.2,167.4h33.7c4.3,0,7.8,3.5,7.8,7.8v70.4c0,4.3-3.5,7.8-7.8,7.8H66.2c-4.3,0-7.8-3.5-7.8-7.8v-70.4
			C58.4,170.9,61.9,167.4,66.2,167.4z"/>
		<g>
			<path class="st2" d="M99.9,254.4H66.2c-4.8,0-8.8-3.9-8.8-8.8v-70.4c0-4.8,3.9-8.8,8.8-8.8h33.7c4.8,0,8.8,3.9,8.8,8.8v70.4
				C108.6,250.4,104.7,254.4,99.9,254.4z M66.2,168.4c-3.7,0-6.8,3-6.8,6.8v70.4c0,3.7,3,6.8,6.8,6.8h33.7c3.7,0,6.8-3,6.8-6.8
				v-70.4c0-3.7-3-6.8-6.8-6.8H66.2z"/>
		</g>
		<rect x="61" y="177.1" class="st10" width="44" height="67.3"/>
		<path class="st10" d="M97.6,193.5h-9c-3.1,0-5.6-2.5-5.6-5.6l0,0c0-3.1,2.5-5.6,5.6-5.6h9c3.1,0,5.6,2.5,5.6,5.6l0,0
			C103.2,191,100.7,193.5,97.6,193.5z"/>
		<path class="st10" d="M77.2,216.3h-9c-3.1,0-5.6-2.5-5.6-5.6l0,0c0-3.1,2.5-5.6,5.6-5.6h9c3.1,0,5.6,2.5,5.6,5.6l0,0
			C82.8,213.8,80.2,216.3,77.2,216.3z"/>
		<path class="st10" d="M97.6,238h-9c-3.1,0-5.6-2.5-5.6-5.6l0,0c0-3.1,2.5-5.6,5.6-5.6h9c3.1,0,5.6,2.5,5.6,5.6l0,0
			C103.2,235.5,100.7,238,97.6,238z"/>
		<g>
			<rect x="81.4" y="169.5" class="st2" width="3.2" height="2"/>
		</g>
		<g>
			<path class="st2" d="M84.6,250.9h-3.2c-1.4,0-2.5-1.1-2.5-2.5c0-1.4,1.1-2.5,2.5-2.5h3.2c1.4,0,2.5,1.1,2.5,2.5
				C87.1,249.8,86,250.9,84.6,250.9z"/>
		</g>
		<g>
			<rect x="74.9" y="172.9" class="st2" width="16.3" height="2"/>
		</g>
		<g>
			<path class="st10" d="M97.7,232.7c0,0.8,0.6,1.4,1.4,1.4s1.4-0.6,1.4-1.4c0-0.8-0.6-1.4-1.4-1.4S97.7,231.9,97.7,232.7z"/>
			<path class="st10" d="M91.7,232.7c0,0.8,0.6,1.4,1.4,1.4s1.4-0.6,1.4-1.4c0-0.8-0.6-1.4-1.4-1.4S91.7,231.9,91.7,232.7z"/>
			<path class="st10" d="M85.8,232.7c0,0.8,0.6,1.4,1.4,1.4s1.4-0.6,1.4-1.4c0-0.8-0.6-1.4-1.4-1.4S85.8,231.9,85.8,232.7z"/>
		</g>
		<g>
			<path class="st10" d="M97.7,187.9c0,0.8,0.6,1.4,1.4,1.4s1.4-0.6,1.4-1.4c0-0.8-0.6-1.4-1.4-1.4S97.7,187.1,97.7,187.9z"/>
			<path class="st10" d="M91.7,187.9c0,0.8,0.6,1.4,1.4,1.4s1.4-0.6,1.4-1.4c0-0.8-0.6-1.4-1.4-1.4S91.7,187.1,91.7,187.9z"/>
			<path class="st10" d="M85.8,187.9c0,0.8,0.6,1.4,1.4,1.4s1.4-0.6,1.4-1.4c0-0.8-0.6-1.4-1.4-1.4S85.8,187.1,85.8,187.9z"/>
		</g>
		<g>
			<path class="st10" d="M77.2,210.7c0,0.8,0.6,1.4,1.4,1.4s1.4-0.6,1.4-1.4c0-0.8-0.6-1.4-1.4-1.4S77.2,210,77.2,210.7z"/>
			<path class="st10" d="M71.3,210.7c0,0.8,0.6,1.4,1.4,1.4s1.4-0.6,1.4-1.4c0-0.8-0.6-1.4-1.4-1.4S71.3,210,71.3,210.7z"/>
			<path class="st10" d="M65.3,210.7c0,0.8,0.6,1.4,1.4,1.4s1.4-0.6,1.4-1.4c0-0.8-0.6-1.4-1.4-1.4S65.3,210,65.3,210.7z"/>
		</g>
	</g>
	<g>
		<g>
			<path class="st2" d="M623.9,123.2c-3.6,0-6.9,1.1-9.6,2.9c-1.9-2.1-4.4-3.6-7.3-4.1c0.1-0.8,0.2-1.6,0.2-2.5
				c0-9.3-7.6-16.9-16.9-16.9c-9.3,0-16.9,7.6-16.9,16.9c0,1.4,0.2,2.7,0.5,4c-1.3-0.3-2.6-0.4-3.9-0.4c-9.3,0-16.9,7.8-16.9,17
				h87.8C640.8,131,633.3,123.2,623.9,123.2z"/>
		</g>
		<g>
			<g>
				<path class="st2" d="M583.2,141.3H552v-1c0-9.9,8-18,17.9-18v2c-8.4,0-15.4,6.7-15.9,15h29.1V141.3z"/>
			</g>
			<g>
				<path class="st2" d="M578.5,108.9l-1.5-1.3c1.6-1.8,3.5-3.2,5.7-4.2l0.8,1.8C581.7,106,580,107.3,578.5,108.9z"/>
			</g>
			<g>
				<path class="st2" d="M604.3,112c-1.9-3.5-5.1-6.2-8.9-7.5l0.6-1.9c4.3,1.4,7.8,4.4,10,8.4L604.3,112z"/>
			</g>
			<g>
				<path class="st2" d="M641.8,141.3H611v-2h28.8c-0.5-8.4-7.5-15-15.9-15c-3.3,0-6.4,1-9,2.8l-0.7,0.5l-0.6-0.7
					c-0.9-1-1.9-1.8-3-2.4l1-1.7c1.1,0.6,2,1.4,2.9,2.2c2.8-1.7,6-2.6,9.4-2.6c9.9,0,17.9,8.1,17.9,18V141.3z"/>
			</g>
			<g>
				<rect x="595.7" y="139.3" class="st2" width="10.5" height="2"/>
			</g>
		</g>
	</g>
	<g>
		<g>
			<path class="st2" d="M94.2,141c3.1,0,5.9,0.9,8.3,2.5c1.6-1.8,3.8-3.1,6.3-3.5c-0.1-0.7-0.2-1.4-0.2-2.2
				c0-8.1,6.6-14.7,14.6-14.7c8.1,0,14.6,6.6,14.6,14.6c0,1.2-0.1,2.4-0.4,3.5c1.1-0.3,2.2-0.3,3.4-0.3c8.1,0,14.6,6.7,14.6,14.7
				h-76C79.5,147.8,86.1,141,94.2,141z"/>
		</g>
		<g>
			<g>
				<path class="st2" d="M156.5,156.8h-27.1v-2h25.1c-0.5-7.1-6.4-12.7-13.6-12.7v-2c8.6,0,15.6,7.1,15.6,15.7V156.8z"/>
			</g>
			<g>
				<path class="st2" d="M133.4,128.7c-1.2-1.3-2.7-2.4-4.3-3.2l0.8-1.8c1.9,0.9,3.6,2.1,5,3.6L133.4,128.7z"/>
			</g>
			<g>
				<path class="st2" d="M111.3,131.4l-1.8-1c1.9-3.5,5-6.1,8.7-7.4l0.6,1.9C115.7,126.1,112.9,128.3,111.3,131.4z"/>
			</g>
			<g>
				<path class="st2" d="M105.3,156.8H78.5v-1c0-8.7,7-15.7,15.6-15.7c2.9,0,5.7,0.8,8.2,2.3c0.7-0.7,1.6-1.4,2.5-1.9l1,1.7
					c-1,0.5-1.8,1.2-2.6,2.1l-0.6,0.7l-0.7-0.5c-2.2-1.5-4.9-2.4-7.7-2.4c-7.2,0-13.1,5.6-13.6,12.7h24.8V156.8z"/>
			</g>
			<g>
				<rect x="109.5" y="154.8" class="st2" width="9.1" height="2"/>
			</g>
		</g>
	</g>
	<g>
		<g>
			<path class="st2" d="M254.8,54.5c5.1,0,9.9,1.5,13.8,4.2c2.7-3,6.3-5.2,10.5-5.9c-0.2-1.2-0.3-2.4-0.3-3.6
				c0-13.5,10.9-24.4,24.4-24.4c13.5,0,24.4,10.9,24.4,24.4c0,2-0.2,3.9-0.7,5.8c1.8-0.4,3.7-0.5,5.6-0.5
				c13.5,0,24.4,11.2,24.4,24.5H230.4C230.4,65.7,241.3,54.5,254.8,54.5z"/>
		</g>
		<g>
			<g>
				<path class="st2" d="M358,80h-44.5v-2H356c-0.5-12.5-10.8-22.5-23.4-22.5v-2c14,0,25.4,11.5,25.4,25.5V80z"/>
			</g>
			<g>
				<path class="st2" d="M320.5,33.5c-2.1-2.3-4.6-4.1-7.4-5.4l0.8-1.8c3.1,1.4,5.8,3.4,8.1,5.9L320.5,33.5z"/>
			</g>
			<g>
				<path class="st2" d="M282.7,38.1l-1.8-1c3.1-5.6,8.1-9.9,14.2-11.9l0.6,1.9C290.2,29,285.6,32.9,282.7,38.1z"/>
			</g>
			<g>
				<path class="st2" d="M273.4,80h-44v-1c0-14.1,11.4-25.5,25.4-25.5c4.9,0,9.7,1.4,13.7,3.9c1.3-1.3,2.7-2.5,4.4-3.4l1,1.7
					c-1.7,0.9-3.2,2.2-4.4,3.6l-0.6,0.7l-0.7-0.5c-3.8-2.7-8.4-4.1-13.3-4.1c-12.6,0-22.9,10-23.4,22.5h42V80z"/>
			</g>
			<g>
				<rect x="280.4" y="78" class="st2" width="15.1" height="2"/>
			</g>
		</g>
	</g>
	<g>
		<path class="st2" d="M517.9,48.3c2.1,0,4.1,0.6,5.7,1.8c1.1-1.3,2.6-2.1,4.3-2.4c-0.1-0.5-0.1-1-0.1-1.5c0-5.6,4.5-10.1,10.1-10.1
			c5.6,0,10.1,4.5,10.1,10.1c0,0.8-0.1,1.6-0.3,2.4c0.7-0.2,1.5-0.2,2.3-0.2c5.6,0,10.1,4.6,10.1,10.2h-52.4
			C507.8,53,512.3,48.3,517.9,48.3z"/>
	</g>
	<g>
		<path class="st2" d="M23.4,231.1c1.5,0,3,0.5,4.1,1.3c0.8-0.9,1.9-1.5,3.1-1.8c-0.1-0.3-0.1-0.7-0.1-1.1c0-4,3.3-7.3,7.3-7.3
			s7.3,3.3,7.3,7.3c0,0.6-0.1,1.2-0.2,1.7c0.5-0.1,1.1-0.2,1.7-0.2c4,0,7.3,3.3,7.3,7.3H16.1C16.1,234.4,19.4,231.1,23.4,231.1z"/>
	</g>
	<g>
		<g>
			<rect x="681.7" y="253.5" class="st2" width="14.2" height="2"/>
		</g>
		<g>
			<rect x="17.8" y="253.5" class="st2" width="359.7" height="2"/>
		</g>
		<g>
			<rect x="-3" y="253.5" class="st2" width="10.4" height="2"/>
		</g>
		<g>
			<rect x="385.9" y="253.5" class="st2" width="288.7" height="2"/>
		</g>
	</g>
	<g>
		<g>
			<g>
				<path class="st2" d="M306.6,245V143.8c0-5.6-4.5-10.2-10-10.2h-155c-5.5,0-10,4.6-10,10.2V245H306.6z"/>
			</g>
		</g>
		<g>
			<g>
				<rect x="186.4" y="132.6" class="st2" width="68.6" height="2"/>
			</g>
			<g>
				<rect x="264.2" y="132.6" class="st2" width="11.1" height="2"/>
			</g>
			<g>
				<path class="st2" d="M307.6,246H130.7V143.8c0-6.2,4.9-11.2,11-11.2h28v2h-28c-4.9,0-9,4.1-9,9.2V244h172.9V143.8
					c0-5.1-4-9.2-9-9.2h-12.8v-2h12.8c6,0,11,5,11,11.2V246z"/>
			</g>
		</g>
		<g>
			<g>
				<path class="st2" d="M122.8,245v4.8c0,2.6,2.1,4.8,4.7,4.8h183.4c2.6,0,4.7-2.1,4.7-4.8V245H122.8z"/>
			</g>
		</g>
		<g>
			<g>
				<g>
					<path class="st2" d="M310.9,255.5H127.4c-3.1,0-5.7-2.6-5.7-5.8V244h194.8v5.8C316.6,253,314,255.5,310.9,255.5z M123.8,246
						v3.8c0,2.1,1.6,3.8,3.7,3.8h183.4c2,0,3.7-1.7,3.7-3.8V246H123.8z"/>
				</g>
			</g>
		</g>
		<g>
			<g>
				<rect x="140.4" y="143.2" class="st2" width="157.6" height="93.9"/>
			</g>
		</g>
		<g>
			<rect x="158.4" y="227.6" class="st2" width="2" height="5.5"/>
		</g>
		<g>
			<rect x="149.4" y="229.3" class="st2" width="139.5" height="2"/>
		</g>
		<g>
			<path class="st2" d="M233.5,214.6h-28.7c-14.9,0-27.1-12.2-27.1-27.1l0,0c0-14.9,12.2-27.1,27.1-27.1h28.7
				c14.9,0,27.1,12.2,27.1,27.1l0,0C260.6,202.5,248.4,214.6,233.5,214.6z"/>
			<polygon class="st2" points="237.6,188.2 208.6,204.9 208.6,171.4 			"/>
			<g>
				<path class="st2" d="M207.6,206.6v-36.9l32,18.5L207.6,206.6z M209.6,173.2v30l26-15L209.6,173.2z"/>
			</g>
		</g>
	</g>
	<g>
		<g>
			<rect x="271.3" y="95.5" transform="matrix(0.707 -0.7072 0.7072 0.707 10.0969 221.4376)" class="st2" width="2" height="6"/>
		</g>
		<g>
			<polygon class="st2" points="268.2,100.1 266.1,92.3 273.8,94.4 			"/>
		</g>
	</g>
	<g>
		<path class="st2" d="M597.6,158.1l-1.4-1.4l3.5-3.5c0.7-0.7,1.7-1.1,2.7-1.1c0,0,0,0,0,0c1,0,2,0.4,2.7,1.1l1.3,1.3
			c0.4,0.4,0.8,0.6,1.4,0.5c0.5,0,1-0.2,1.3-0.6l1.3-1.4c0.7-0.8,1.8-1.3,2.9-1.3c1.1,0,2.1,0.4,2.9,1.3l1.3,1.4
			c0.4,0.4,0.9,0.6,1.4,0.6c0.5,0,1-0.2,1.4-0.7l1.1-1.3c0.7-0.8,1.7-1.3,2.8-1.4c1.1,0,2.2,0.4,2.9,1.2l1.4,1.5
			c0.4,0.4,0.9,0.6,1.4,0.6c0.5,0,1-0.3,1.4-0.7l1-1.2c0.7-0.8,1.7-1.3,2.8-1.4c1.1-0.1,2.1,0.4,2.9,1.1l3.7,3.7l-1.4,1.4l-3.7-3.7
			c-0.4-0.4-0.9-0.6-1.4-0.5c-0.5,0-1,0.3-1.3,0.7l-1,1.2c-0.7,0.9-1.7,1.4-2.9,1.4c-1.1,0-2.2-0.4-2.9-1.2l-1.4-1.5
			c-0.4-0.4-0.9-0.6-1.4-0.6c-0.5,0-1,0.3-1.4,0.7l-1.1,1.3c-0.7,0.8-1.8,1.4-2.9,1.4c-1.1,0-2.2-0.4-2.9-1.3l-1.3-1.4
			c-0.4-0.4-0.9-0.6-1.4-0.6c-0.5,0-1,0.2-1.4,0.6l-1.3,1.4c-0.7,0.8-1.7,1.3-2.8,1.3c-1.1,0-2.1-0.4-2.8-1.1l-1.3-1.3
			c-0.4-0.4-0.8-0.6-1.3-0.5c-0.5,0-1,0.2-1.3,0.5L597.6,158.1z"/>
	</g>
	<g>
		<path class="st2" d="M92.7,118.5h-2.1c-0.3-1.2-0.8-2.3-1.4-3.3l0,0l1.5-1.5c0.3-0.3,0.3-0.9,0-1.2l-2.6-2.6
			c-0.3-0.3-0.9-0.3-1.2,0l-1.5,1.5c-1-0.6-2.1-1.1-3.3-1.3v0V108c0-0.5-0.4-0.8-0.8-0.8h-3.6c-0.5,0-0.8,0.4-0.8,0.8v2.1
			c-1.2,0.3-2.3,0.8-3.3,1.4l0,0l-1.5-1.5c-0.3-0.3-0.9-0.3-1.2,0l-2.6,2.6c-0.3,0.3-0.3,0.9,0,1.2l1.5,1.5c-0.6,1-1.1,2.1-1.3,3.3
			h0h-2.1c-0.5,0-0.8,0.4-0.8,0.8v3.6c0,0.5,0.4,0.8,0.8,0.8h2.1c0.3,1.2,0.8,2.3,1.4,3.3l0,0l-1.5,1.5c-0.3,0.3-0.3,0.9,0,1.2
			l2.6,2.6c0.3,0.3,0.9,0.3,1.2,0l1.5-1.5c1,0.6,2.1,1.1,3.3,1.3v0v2.1c0,0.5,0.4,0.8,0.8,0.8h3.6c0.5,0,0.8-0.4,0.8-0.8v-2.1
			c1.2-0.3,2.3-0.8,3.3-1.4l0,0l1.5,1.5c0.3,0.3,0.9,0.3,1.2,0l2.6-2.6c0.3-0.3,0.3-0.9,0-1.2l-1.5-1.5c0.6-1,1.1-2.1,1.3-3.3h0h2.1
			c0.5,0,0.8-0.4,0.8-0.8v-3.6C93.5,118.9,93.1,118.5,92.7,118.5z"/>
		<g>
			<g>
				<path class="st2" d="M79.5,129.3l0-2h0c0.9,0,1.8-0.2,2.6-0.6l0.9,1.8C81.9,129,80.7,129.3,79.5,129.3z M74.9,127.9
					c-1-0.7-1.8-1.6-2.4-2.6l1.7-1c0.5,0.8,1.1,1.5,1.8,2L74.9,127.9z M86.5,125.3l-1.7-1c0.5-0.8,0.7-1.7,0.8-2.6l2,0.2
					C87.5,123.1,87.1,124.2,86.5,125.3z M73.5,120.7l-2-0.2c0.1-1.2,0.5-2.4,1.1-3.4l1.7,1C73.8,118.9,73.5,119.8,73.5,120.7z
					 M84.8,118.2c-0.4-0.8-1.1-1.5-1.8-2l1.1-1.6c1,0.7,1.8,1.6,2.4,2.7L84.8,118.2z M76.9,115.7l-0.9-1.8c1.1-0.5,2.3-0.8,3.5-0.8
					l0.1,1l-0.1,1C78.6,115.1,77.7,115.3,76.9,115.7z"/>
			</g>
		</g>
	</g>
	<g>
		<path class="st2" d="M693,221h-2.1c-0.3-1.2-0.8-2.3-1.4-3.3l0,0l1.5-1.5c0.3-0.3,0.3-0.9,0-1.2l-2.6-2.6c-0.3-0.3-0.9-0.3-1.2,0
			l-1.5,1.5c-1-0.6-2.1-1.1-3.3-1.3v0v-2.1c0-0.5-0.4-0.8-0.8-0.8H678c-0.5,0-0.8,0.4-0.8,0.8v2.1c-1.2,0.3-2.3,0.8-3.3,1.4l0,0
			l-1.5-1.5c-0.3-0.3-0.9-0.3-1.2,0l-2.6,2.6c-0.3,0.3-0.3,0.9,0,1.2l1.5,1.5c-0.6,1-1.1,2.1-1.3,3.3h0h-2.1c-0.5,0-0.8,0.4-0.8,0.8
			v3.6c0,0.5,0.4,0.8,0.8,0.8h2.1c0.3,1.2,0.8,2.3,1.4,3.3l0,0l-1.5,1.5c-0.3,0.3-0.3,0.9,0,1.2l2.6,2.6c0.3,0.3,0.9,0.3,1.2,0
			l1.5-1.5c1,0.6,2.1,1.1,3.3,1.3v0v2.1c0,0.5,0.4,0.8,0.8,0.8h3.6c0.5,0,0.8-0.4,0.8-0.8v-2.1c1.2-0.3,2.3-0.8,3.3-1.4l0,0l1.5,1.5
			c0.3,0.3,0.9,0.3,1.2,0l2.6-2.6c0.3-0.3,0.3-0.9,0-1.2l-1.5-1.5c0.6-1,1.1-2.1,1.3-3.3h0h2.1c0.5,0,0.8-0.4,0.8-0.8v-3.6
			C693.8,221.3,693.4,221,693,221z"/>
		<g>
			<g>
				<path class="st2" d="M679.8,231.7l0-2h0c0.9,0,1.8-0.2,2.6-0.6l0.9,1.8C682.2,231.5,681,231.7,679.8,231.7z M675.2,230.3
					c-1-0.7-1.8-1.6-2.4-2.6l1.7-1c0.5,0.8,1.1,1.5,1.8,2L675.2,230.3z M686.8,227.7l-1.7-1c0.5-0.8,0.7-1.7,0.8-2.6l2,0.2
					C687.8,225.5,687.4,226.7,686.8,227.7z M673.7,223.2l-2-0.2c0.1-1.2,0.5-2.4,1.1-3.4l1.7,1C674.1,221.4,673.8,222.3,673.7,223.2
					z M685.1,220.7c-0.4-0.8-1.1-1.5-1.8-2l1.1-1.6c1,0.7,1.8,1.6,2.4,2.7L685.1,220.7z M677.2,218.2l-0.9-1.8
					c1.1-0.5,2.3-0.8,3.5-0.8l0.1,1l-0.1,1C678.9,217.6,678,217.8,677.2,218.2z"/>
			</g>
		</g>
	</g>
	<g>
		<g id="XMLID_3_">
			<g>
				<rect x="422.5" y="215.4" class="st10" width="63.6" height="31.1"/>
			</g>
		</g>
		<g>
			<rect x="378.2" y="241.6" class="st2" width="152" height="12"/>
		</g>
		<g id="XMLID_2_">
			<g>
				<path class="st10" d="M338.8,66h231c6.5,0,11.8,5.3,11.8,11.8v125.7c0,6.5-5.3,11.8-11.8,11.8h-231c-6.5,0-11.8-5.3-11.8-11.8
					V77.9C327,71.4,332.3,66,338.8,66z"/>
			</g>
		</g>
		<g>
			<rect x="442.5" y="201.5" class="st2" width="23.7" height="2"/>
		</g>
		<rect x="336.5" y="76.1" class="st10" width="235.6" height="115.1"/>
		<g>
			<g>
				
					<rect x="404.4" y="227.2" transform="matrix(0.7071 -0.7071 0.7071 0.7071 -44.6437 354.3027)" class="st2" width="2" height="7.6"/>
			</g>
			<g>
				<polygon class="st2" points="400.7,232 398.6,224.3 406.3,226.3 				"/>
			</g>
		</g>
		<g>
			<rect x="378.2" y="239.8" class="st2" width="78.5" height="2"/>
		</g>
		<g>
			<rect x="480" y="239.8" class="st2" width="12.1" height="2"/>
		</g>
		<g id="XMLID_1_">
			<g>
				<g>
					<path class="st2" d="M569.8,216.4H480v-2h89.8c6,0,10.8-4.9,10.8-10.8V77.9c0-6-4.9-10.8-10.8-10.8h-231
						c-6,0-10.8,4.9-10.8,10.8v125.7c0,6,4.9,10.8,10.8,10.8h101.4v2H338.8c-7.1,0-12.8-5.8-12.8-12.8V77.9
						c0-7.1,5.8-12.8,12.8-12.8h231c7.1,0,12.8,5.8,12.8,12.8v125.7C582.6,210.7,576.9,216.4,569.8,216.4z"/>
				</g>
			</g>
			<g>
				<rect x="455.7" y="214.4" class="st2" width="16.8" height="2"/>
			</g>
		</g>
	</g>
	<g>
		<path class="st10" d="M454.3,18.5c-11,0-22.9,8.5-22.9,22.7c0,21.6,23,44.3,23,44.3s23-23.2,23-44.3
			C477.3,26.9,464.6,18.5,454.3,18.5z M460,50.8c-1.5,0.9-3.4,1.5-5.6,1.5c-3.1,0-5.6-1.1-7.3-2.8c-6.4-6-4-19.8,7.4-19.8
			C466.7,29.8,468.5,45.9,460,50.8z"/>
		<g>
			<path class="st2" d="M454.4,59.4L454.4,59.4c-1,0-2.1-0.1-3.1-0.3l0.3-2c0.9,0.2,1.8,0.2,2.7,0.2L454.4,59.4z M458.5,59l-0.4-2
				c0.9-0.2,1.8-0.5,2.6-0.8l0.8,1.8C460.5,58.4,459.5,58.8,458.5,59z M447.3,58.1c-1-0.4-1.9-0.9-2.8-1.4l1.1-1.7
				c0.8,0.5,1.6,0.9,2.5,1.3L447.3,58.1z M465,56l-1.2-1.6c0.7-0.5,1.5-1.1,2.1-1.8l1.4,1.4C466.7,54.8,465.9,55.4,465,56z
				 M441.4,54.1c-0.7-0.7-1.4-1.5-2-2.4l1.6-1.2c0.5,0.7,1.1,1.5,1.8,2.1L441.4,54.1z M470,50.8l-1.7-1.1c0.5-0.8,0.9-1.6,1.3-2.4
				l1.8,0.8C471,49,470.5,49.9,470,50.8z M437.4,48.1c-0.4-0.9-0.7-1.9-0.9-2.9l1.9-0.4c0.2,0.9,0.5,1.8,0.8,2.6L437.4,48.1z
				 M472.5,44.1l-2-0.3c0.2-0.9,0.2-1.8,0.2-2.7l1.5-0.1l0.5,0C472.8,42.1,472.7,43.1,472.5,44.1z M436,41.1L436,41.1
				c0-1.1,0.1-2.1,0.3-3.1l2,0.3c-0.1,0.9-0.2,1.8-0.2,2.7L436,41.1z M470.4,37.3c-0.2-0.9-0.5-1.8-0.8-2.6l1.8-0.8
				c0.4,0.9,0.7,1.9,1,2.9L470.4,37.3z M439.2,34.8l-1.8-0.8c0.4-1,0.9-1.9,1.4-2.8l1.7,1.1C440,33.1,439.5,33.9,439.2,34.8z
				 M467.7,31.5c-0.5-0.7-1.1-1.5-1.8-2.1l1.4-1.4c0.7,0.7,1.4,1.5,2,2.4L467.7,31.5z M442.7,29.4l-1.4-1.4c0.7-0.7,1.5-1.4,2.4-2
				l1.2,1.6C444.1,28.2,443.4,28.8,442.7,29.4z M463.1,27.1c-0.8-0.5-1.6-0.9-2.5-1.3l0.8-1.8c0.9,0.4,1.9,0.9,2.8,1.4L463.1,27.1z
				 M448,25.9l-0.8-1.8c1-0.4,1.9-0.7,2.9-0.9l0.4,1.9C449.8,25.2,448.9,25.5,448,25.9z M457.1,24.8c-0.9-0.1-1.8-0.2-2.7-0.2
				l-0.1-2h0.1c1,0,2,0.1,3,0.2L457.1,24.8z"/>
		</g>
	</g>
	<g>
		<polygon class="st2" points="413,126.2 454.3,88.7 495.6,125.8 495.6,177 413.1,177 		"/>
		<g>
			<polygon class="st2" points="413.7,126.9 412.3,125.4 454.3,87.3 496.3,125.1 494.9,126.6 454.3,90 			"/>
		</g>
		<rect x="423.2" y="106.8" class="st2" width="62.6" height="60.9"/>
		<polygon class="st2" points="413.1,184.5 495.6,184.5 466.4,157.1 442.3,157.1 		"/>
		<polygon class="st2" points="413.1,184.5 413.1,127.7 442.4,157.1 		"/>
		<polygon class="st2" points="495.6,184.5 495.6,127.7 466.4,157.1 		"/>
		<g>
			<path class="st2" d="M413.1,185.5c-0.4,0-0.8-0.3-0.9-0.6c-0.2-0.4-0.1-0.8,0.2-1.1l29.3-27.4c0.2-0.2,0.4-0.3,0.7-0.3h24.1
				c0.3,0,0.5,0.1,0.7,0.3l29.2,27.4c0.3,0.3,0.4,0.7,0.2,1.1c-0.2,0.4-0.5,0.6-0.9,0.6L413.1,185.5z M442.7,158.1l-27.2,25.4
				l77.5,0L466,158.1H442.7z"/>
		</g>
		<g>
			
				<rect x="434.7" y="141.6" transform="matrix(0.7071 -0.7071 0.7071 0.7071 21.0774 352.2251)" class="st2" width="2" height="18.1"/>
		</g>
		<g>
			
				<rect x="463.7" y="149.7" transform="matrix(0.7071 -0.7071 0.7071 0.7071 31.9436 378.4585)" class="st2" width="18.1" height="2"/>
		</g>
		<g>
			<rect x="412" y="137.2" class="st2" width="2" height="18.1"/>
		</g>
		<g>
			<g>
				<rect x="455.4" y="116" class="st2" width="3.6" height="2"/>
			</g>
			<g>
				<rect x="445.4" y="116" class="st2" width="3.6" height="2"/>
			</g>
			<g>
				<rect x="435.4" y="116" class="st2" width="3.6" height="2"/>
			</g>
			<g>
				<rect x="435.4" y="122.3" class="st2" width="38.2" height="2"/>
			</g>
			<g>
				<rect x="435.4" y="128.5" class="st2" width="38.2" height="2"/>
			</g>
			<g>
				<rect x="435.4" y="134.7" class="st2" width="14.6" height="2"/>
			</g>
		</g>
	</g>
	<g>
		<g>
			<path class="st2" d="M244.9,236.1l-1.8-0.8c0.4-0.9,0.9-1.9,1.3-2.8l1.8,0.9C245.7,234.3,245.3,235.2,244.9,236.1z M248.1,230.1
				l-1.7-1.1c0.5-0.9,1.1-1.7,1.7-2.5l1.6,1.2C249.2,228.4,248.7,229.3,248.1,230.1z M252.2,224.6l-1.5-1.3c0.7-0.8,1.4-1.5,2.1-2.2
				l1.4,1.4C253.6,223.2,252.9,223.9,252.2,224.6z M257.1,219.8l-1.3-1.5c0.8-0.7,1.6-1.3,2.4-1.9l1.2,1.6
				C258.6,218.6,257.9,219.2,257.1,219.8z M262.7,215.8l-1-1.7c0.9-0.5,1.8-1,2.7-1.5l0.9,1.8C264.3,214.8,263.5,215.3,262.7,215.8z
				 M304.9,213.1l-0.5-0.2c-0.7-0.3-1.5-0.6-2.2-0.9l0.7-1.9c0.6,0.2,1.2,0.5,1.8,0.7c0,0,0,0,0,0l0,0c0.2,0.1,0.3,0.1,0.5,0.2
				l-0.1,0.3l0.7,1.1L304.9,213.1z M268.7,212.7l-0.8-1.8c0.9-0.4,1.9-0.8,2.9-1.1l0.7,1.9C270.6,211.9,269.6,212.3,268.7,212.7z
				 M298.4,210.7c-0.9-0.3-1.9-0.5-2.9-0.7l0.4-2c1,0.2,2,0.4,3,0.7L298.4,210.7z M275.2,210.5l-0.5-1.9c1-0.2,2-0.5,3-0.7l0.4,2
				C277.1,210,276.2,210.2,275.2,210.5z M309.1,210.5l-0.9-1.8c0.3-0.2,0.7-0.3,1-0.5c0-0.3,0-0.5,0.1-0.8l2,0.2
				c0,0.4-0.1,0.9-0.1,1.3l0,0.6l-0.5,0.3C310.1,210,309.6,210.2,309.1,210.5z M291.7,209.4c-1-0.1-1.9-0.2-2.9-0.3l0.1-2
				c1,0.1,2,0.1,3.1,0.3L291.7,209.4z M282,209.3l-0.2-2c1-0.1,2-0.2,3.1-0.2l0.1,2C283.9,209.2,282.9,209.2,282,209.3z
				 M311.8,203.7l-2-0.3c0.2-1,0.4-2,0.6-3l1.9,0.5C312.1,201.8,311.9,202.7,311.8,203.7z M313.4,197.1l-1.9-0.6
				c0.3-1,0.7-1.9,1.1-2.9l1.8,0.8C314.1,195.2,313.8,196.2,313.4,197.1z M399.1,196.9c-0.3-0.9-0.7-1.8-1-2.7l1.8-0.8
				c0.4,0.9,0.8,1.9,1.1,2.9L399.1,196.9z M316.1,190.8l-1.8-0.9c0.5-0.9,1-1.8,1.5-2.7l1.7,1C317.1,189.1,316.6,189.9,316.1,190.8z
				 M396.4,190.6c-0.5-0.9-0.9-1.7-1.4-2.6l1.7-1c0.5,0.9,1,1.8,1.5,2.7L396.4,190.6z M319.7,185l-1.6-1.2c0.6-0.8,1.2-1.6,1.9-2.4
				l1.5,1.3C320.9,183.4,320.3,184.2,319.7,185z M392.8,184.8c-0.6-0.8-1.2-1.6-1.8-2.3l1.5-1.3c0.7,0.8,1.3,1.6,1.9,2.4
				L392.8,184.8z M324.2,179.7l-1.4-1.4c0.7-0.7,1.5-1.4,2.2-2.1l1.3,1.5C325.5,178.4,324.8,179.1,324.2,179.7z M388.3,179.6
				c-0.7-0.7-1.4-1.4-2.1-2l1.3-1.5c0.8,0.7,1.5,1.4,2.2,2.1L388.3,179.6z M329.3,175.2l-1.2-1.6c0.8-0.6,1.7-1.2,2.5-1.8l1.1,1.7
				C330.9,174.1,330.1,174.7,329.3,175.2z M383.2,175.1c-0.8-0.6-1.6-1.1-2.4-1.7l1.1-1.7c0.9,0.6,1.7,1.1,2.5,1.7L383.2,175.1z
				 M335.1,171.6l-0.9-1.8c0.9-0.5,1.8-0.9,2.7-1.4l0.8,1.8C336.8,170.7,335.9,171.1,335.1,171.6z M377.4,171.5
				c-0.9-0.5-1.8-0.9-2.6-1.3l0.8-1.8c0.9,0.4,1.9,0.9,2.8,1.3L377.4,171.5z M341.3,168.8l-0.7-1.9c1-0.3,1.9-0.6,2.9-0.9l0.5,1.9
				C343.2,168.2,342.3,168.5,341.3,168.8z M371.1,168.8c-0.9-0.3-1.9-0.6-2.8-0.9l0.5-1.9c1,0.3,2,0.6,2.9,0.9L371.1,168.8z
				 M347.9,167.1l-0.4-2c1-0.2,2-0.3,3-0.5l0.2,2C349.9,166.7,348.9,166.9,347.9,167.1z M364.5,167c-1-0.2-1.9-0.3-2.9-0.4l0.2-2
				c1,0.1,2,0.3,3,0.5L364.5,167z M354.7,166.3l-0.1-2c0.5,0,1.1,0,1.6,0c0.5,0,1,0,1.4,0l-0.1,2c-0.5,0-0.9,0-1.4,0
				C355.8,166.3,355.2,166.3,354.7,166.3z"/>
		</g>
		<path class="st2" d="M286.2,219.1c7.4,0,14.3,2.2,20,6.1c3.9-4.4,9.2-7.5,15.2-8.5c-0.3-1.7-0.4-3.4-0.4-5.2
			c0-19.5,15.8-35.3,35.3-35.3c19.5,0,35.3,15.8,35.3,35.3c0,2.9-0.4,5.7-1,8.3c2.6-0.6,5.3-0.7,8.1-0.7c19.5,0,35.3,16.2,35.3,35.5
			H251C251,235.3,266.8,219.1,286.2,219.1z"/>
		<g>
			<g>
				<path class="st2" d="M435,255.5h-63.9v-2h61.8c-0.5-18.5-15.7-33.5-34.2-33.5v-2c20,0,36.3,16.4,36.3,36.5V255.5z"/>
			</g>
			<g>
				<path class="st2" d="M381.6,188.4c-3.1-3.4-6.8-6.1-10.9-8l0.8-1.8c4.4,2,8.3,4.9,11.5,8.4L381.6,188.4z"/>
			</g>
			<g>
				<path class="st2" d="M326.2,195.1l-1.8-1c4.4-8.1,11.6-14.1,20.3-17l0.6,1.9C337.2,181.8,330.4,187.5,326.2,195.1z"/>
			</g>
			<g>
				<path class="st2" d="M376.7,255.5H250v-1c0-20.1,16.3-36.5,36.3-36.5c7.2,0,14,2,19.8,5.8c1.9-2,4.1-3.7,6.4-5.1l1,1.7
					c-2.4,1.4-4.6,3.2-6.5,5.3l-0.6,0.7l-0.7-0.5c-5.6-3.9-12.4-5.9-19.4-5.9c-18.6,0-33.7,14.9-34.3,33.5h124.7V255.5z"/>
			</g>
		</g>
	</g>
	<g>
		<rect x="61.2" y="95.4" class="st2" width="19" height="2"/>
	</g>
	<g>
		<rect x="24.5" y="188.3" class="st2" width="19" height="2"/>
	</g>
	<g>
		<rect x="104.5" y="109.7" class="st2" width="19" height="2"/>
	</g>
	<g>
		<rect x="34" y="164.3" class="st2" width="19" height="2"/>
	</g>
	<g>
		<rect x="188.1" y="68.4" class="st2" width="19" height="2"/>
	</g>
	<g>
		<rect x="374.5" y="36.6" class="st2" width="19" height="2"/>
	</g>
	<g>
		<rect x="483.4" y="51.4" class="st2" width="16.2" height="2"/>
	</g>
	<g>
		<rect x="385.2" y="15.7" class="st2" width="33.6" height="2"/>
	</g>
	<g>
		<rect x="281.8" y="117.5" class="st2" width="19" height="2"/>
	</g>
	<g>
		<rect x="626.4" y="109.7" class="st2" width="19" height="2"/>
	</g>
	<g>
		<rect x="660.1" y="190.1" class="st2" width="19" height="2"/>
	</g>
	<g>
		<g>
			<rect x="149.2" y="72.6" class="st2" width="2" height="19.9"/>
		</g>
		<g>
			<rect x="142" y="77" class="st2" width="2" height="15.5"/>
		</g>
		<g>
			<rect x="134.9" y="81.3" class="st2" width="2" height="11.1"/>
		</g>
		<g>
			<rect x="127.7" y="85.5" class="st2" width="2" height="7"/>
		</g>
	</g>
	<g>
		<g>
			<rect x="24.5" y="145.1" class="st2" width="19" height="2"/>
		</g>
		<g>
			<rect x="47.1" y="145.1" class="st2" width="8.5" height="2"/>
		</g>
		<g>
			<path class="st2" d="M63.5,150.3c-2.3,0-4.3-1.9-4.3-4.3c0-2.3,1.9-4.3,4.3-4.3c2.3,0,4.3,1.9,4.3,4.3
				C67.8,148.4,65.9,150.3,63.5,150.3z M63.5,143.8c-1.2,0-2.3,1-2.3,2.3c0,1.2,1,2.3,2.3,2.3c1.2,0,2.3-1,2.3-2.3
				C65.8,144.8,64.8,143.8,63.5,143.8z"/>
		</g>
	</g>
	<g>
		<g>
			<rect x="138.2" y="116.9" class="st2" width="19" height="2"/>
		</g>
		<g>
			<rect x="160.9" y="116.9" class="st2" width="8.5" height="2"/>
		</g>
		<g>
			<path class="st2" d="M177.3,122.2c-2.3,0-4.3-1.9-4.3-4.3c0-2.3,1.9-4.3,4.3-4.3c2.3,0,4.3,1.9,4.3,4.3
				C181.5,120.3,179.6,122.2,177.3,122.2z M177.3,115.7c-1.2,0-2.3,1-2.3,2.3c0,1.2,1,2.3,2.3,2.3s2.3-1,2.3-2.3
				C179.5,116.7,178.5,115.7,177.3,115.7z"/>
		</g>
	</g>
	<g>
		<g>
			<rect x="394.6" y="53.5" class="st2" width="19" height="2"/>
		</g>
		<g>
			<rect x="382.4" y="53.5" class="st2" width="8.5" height="2"/>
		</g>
		<g>
			<path class="st2" d="M374.5,58.8c-2.3,0-4.3-1.9-4.3-4.3c0-2.3,1.9-4.3,4.3-4.3c2.3,0,4.3,1.9,4.3,4.3
				C378.8,56.9,376.9,58.8,374.5,58.8z M374.5,52.2c-1.2,0-2.3,1-2.3,2.3c0,1.2,1,2.3,2.3,2.3c1.2,0,2.3-1,2.3-2.3
				C376.8,53.3,375.8,52.2,374.5,52.2z"/>
		</g>
	</g>
	<g>
		<g>
			<rect x="575.7" y="31.8" class="st2" width="19" height="2"/>
		</g>
		<g>
			<rect x="598.4" y="31.8" class="st2" width="8.5" height="2"/>
		</g>
		<g>
			<path class="st2" d="M614.8,37.1c-2.3,0-4.3-1.9-4.3-4.3c0-2.3,1.9-4.3,4.3-4.3c2.3,0,4.3,1.9,4.3,4.3
				C619.1,35.1,617.2,37.1,614.8,37.1z M614.8,30.5c-1.2,0-2.3,1-2.3,2.3c0,1.2,1,2.3,2.3,2.3s2.3-1,2.3-2.3
				C617.1,31.5,616.1,30.5,614.8,30.5z"/>
		</g>
	</g>
	<g>
		<polygon class="st2" points="202.5,48.6 195.2,42.4 188.3,48.4 181.1,42.9 174.6,47.9 173.4,46.3 181.1,40.4 188.2,45.8 
			195.2,39.8 202.4,45.9 209.2,39.7 216.7,45.9 223.2,39.8 231.6,46.3 230.3,47.9 223.3,42.4 216.8,48.6 209.2,42.4 		"/>
	</g>
	<g>
		<path class="st2" d="M117.5,70.4c-0.8,0-1.5-0.3-2-0.8l-2-2c-1.1-1.1-1.1-2.9,0-4l2-2c1.1-1.1,3-1.1,4,0l2,2c1.1,1.1,1.1,2.9,0,4
			l-2,2C119,70.1,118.3,70.4,117.5,70.4z M117.5,62.6c-0.2,0-0.4,0.1-0.6,0.2l-2,2c-0.3,0.3-0.3,0.9,0,1.2l2,2
			c0.3,0.3,0.9,0.3,1.2,0l2-2c0.3-0.3,0.3-0.9,0-1.2l-2-2C118,62.7,117.8,62.6,117.5,62.6z"/>
	</g>
	<g>
		<path class="st2" d="M119.6,178.1c-0.8,0-1.5-0.3-2-0.8l-2-2c-1.1-1.1-1.1-2.9,0-4l2-2c1.1-1.1,3-1.1,4,0l2,2c1.1,1.1,1.1,2.9,0,4
			l-2,2C121,177.8,120.3,178.1,119.6,178.1z M119.6,170.3c-0.2,0-0.4,0.1-0.6,0.2l-2,2c-0.3,0.3-0.3,0.9,0,1.2l2,2
			c0.3,0.3,0.9,0.3,1.2,0l2-2c0.3-0.3,0.3-0.9,0-1.2l-2-2C120,170.4,119.8,170.3,119.6,170.3z"/>
	</g>
	<g>
		<path class="st2" d="M297.4,107.6c-0.8,0-1.5-0.3-2-0.8l-2-2c-1.1-1.1-1.1-2.9,0-4l2-2c1.1-1.1,3-1.1,4,0l2,2c1.1,1.1,1.1,2.9,0,4
			l-2,2C298.9,107.3,298.2,107.6,297.4,107.6z M297.4,99.8c-0.2,0-0.4,0.1-0.6,0.2l-2,2c-0.3,0.3-0.3,0.9,0,1.2l2,2
			c0.3,0.3,0.9,0.3,1.2,0l2-2c0.3-0.3,0.3-0.9,0-1.2l-2-2C297.9,99.9,297.7,99.8,297.4,99.8z"/>
	</g>
	<g>
		<path class="st2" d="M656.3,153.3c-0.8,0-1.5-0.3-2-0.8l-2-2c-1.1-1.1-1.1-2.9,0-4l2-2c1.1-1.1,3-1.1,4,0l2,2c1.1,1.1,1.1,2.9,0,4
			l-2,2C657.7,153,657,153.3,656.3,153.3z M656.3,145.5c-0.2,0-0.4,0.1-0.6,0.2l-2,2c-0.3,0.3-0.3,0.9,0,1.2l2,2
			c0.3,0.3,0.9,0.3,1.2,0l2-2c0.3-0.3,0.3-0.9,0-1.2l-2-2C656.7,145.6,656.5,145.5,656.3,145.5z"/>
	</g>
	<g>
		<path class="st2" d="M580.5,56.8c-0.8,0-1.5-0.3-2-0.8l-2-2c-1.1-1.1-1.1-2.9,0-4l2-2c1.1-1.1,3-1.1,4,0l2,2c1.1,1.1,1.1,2.9,0,4
			l-2,2C581.9,56.5,581.2,56.8,580.5,56.8z M580.5,49.1c-0.2,0-0.4,0.1-0.6,0.2l-2,2c-0.3,0.3-0.3,0.9,0,1.2l2,2
			c0.3,0.3,0.9,0.3,1.2,0l2-2c0.3-0.3,0.3-0.9,0-1.2l-2-2C580.9,49.2,580.7,49.1,580.5,49.1z"/>
	</g>
	<g>
		<path class="st2" d="M498.6,40.1c-0.8,0-1.5-0.3-2-0.8l-2-2c-1.1-1.1-1.1-2.9,0-4l2-2c1.1-1.1,3-1.1,4,0l2,2c1.1,1.1,1.1,2.9,0,4
			l-2,2C500.1,39.8,499.4,40.1,498.6,40.1z M498.6,32.4c-0.2,0-0.4,0.1-0.6,0.2l-2,2c-0.3,0.3-0.3,0.9,0,1.2l2,2
			c0.3,0.3,0.9,0.3,1.2,0l2-2c0.3-0.3,0.3-0.9,0-1.2l-2-2C499,32.5,498.8,32.4,498.6,32.4z"/>
	</g>
	<g>
		<path class="st2" d="M186.4,93.3c-0.8,0-1.5-0.3-2-0.8l-2-2c-0.5-0.5-0.8-1.3-0.8-2c0-0.8,0.3-1.5,0.8-2l2-2c1.1-1.1,3-1.1,4,0
			l2,2c1.1,1.1,1.1,2.9,0,4l-2,2C187.9,93.1,187.2,93.3,186.4,93.3z M186.4,85.6c-0.2,0-0.4,0.1-0.6,0.2l-2,2
			c-0.2,0.2-0.2,0.4-0.2,0.6c0,0.2,0.1,0.4,0.2,0.6l2,2c0.3,0.3,0.9,0.3,1.2,0l2-2c0.3-0.3,0.3-0.9,0-1.2l-2-2
			C186.8,85.7,186.6,85.6,186.4,85.6z"/>
	</g>
	<g>
		<path class="st2" d="M348.4,40.1c-0.8,0-1.5-0.3-2-0.8l-2-2c-1.1-1.1-1.1-2.9,0-4l2-2c1.1-1.1,3-1.1,4,0l2,2c1.1,1.1,1.1,2.9,0,4
			l-2,2C349.9,39.8,349.2,40.1,348.4,40.1z M348.4,32.4c-0.2,0-0.4,0.1-0.6,0.2l-2,2c-0.3,0.3-0.3,0.9,0,1.2l2,2
			c0.3,0.3,0.9,0.3,1.2,0l2-2c0.3-0.3,0.3-0.9,0-1.2l-2-2C348.9,32.5,348.7,32.4,348.4,32.4z"/>
	</g>
	<g>
		<path class="st2" d="M31.1,213.7c-0.8,0-1.5-0.3-2-0.8l-2-2c-1.1-1.1-1.1-2.9,0-4l2-2c1.1-1.1,3-1.1,4,0l2,2c1.1,1.1,1.1,2.9,0,4
			l-2,2C32.6,213.4,31.9,213.7,31.1,213.7z M31.1,205.9c-0.2,0-0.4,0.1-0.6,0.2l-2,2c-0.3,0.3-0.3,0.9,0,1.2l2,2
			c0.3,0.3,0.9,0.3,1.2,0l2-2c0.3-0.3,0.3-0.9,0-1.2l-2-2C31.6,206,31.3,205.9,31.1,205.9z"/>
	</g>
	<g>
		<path class="st10" d="M521.3,244.3v-67.4c0-5.6,4.6-10.2,10.2-10.2h110.8c5.6,0,10.2,4.6,10.2,10.2v67.4c0,5.6-4.6,10.2-10.2,10.2
			H531.4C525.9,254.4,521.3,249.8,521.3,244.3z"/>
		<g>
			<path class="st2" d="M642.2,255.4H531.4c-6.2,0-11.2-5-11.2-11.2v-67.4c0-6.2,5-11.2,11.2-11.2h110.8c6.2,0,11.2,5,11.2,11.2
				v67.4C653.4,250.4,648.4,255.4,642.2,255.4z M531.4,167.7c-5,0-9.2,4.1-9.2,9.2v67.4c0,5,4.1,9.2,9.2,9.2h110.8
				c5,0,9.2-4.1,9.2-9.2v-67.4c0-5-4.1-9.2-9.2-9.2H531.4z"/>
		</g>
		<g>
			<path class="st2" d="M641.6,250.8H533v-80.4h108.7V250.8z M535,248.8h104.7v-76.4H535V248.8z"/>
		</g>
		<g>
			<rect x="553" y="212.9" class="st2" width="10.9" height="30.3"/>
			<rect x="572.2" y="201.6" class="st2" width="10.9" height="41.5"/>
			<rect x="591.5" y="189.8" class="st2" width="10.9" height="53.3"/>
			<rect x="610.7" y="178" class="st2" width="10.9" height="65.2"/>
		</g>
		<path class="st10" d="M646.4,218.6L646.4,218.6c1.6,0,2.9-1.3,2.9-2.9v-9c0-1.6-1.3-2.9-2.9-2.9l0,0c-1.6,0-2.9,1.3-2.9,2.9v9
			C643.5,217.3,644.8,218.6,646.4,218.6z"/>
		<path class="st10" d="M527.4,215.5L527.4,215.5c1.2,0,2.2-1,2.2-2.2v-4.3c0-1.2-1-2.2-2.2-2.2l0,0c-1.2,0-2.2,1-2.2,2.2v4.3
			C525.2,214.5,526.2,215.5,527.4,215.5z"/>
	</g>
</g>
</svg>
