<?xml version="1.0" encoding="utf-8"?>
<!-- Generator: Adobe Illustrator 22.1.0, SVG Export Plug-In . SVG Version: 6.00 Build 0)  -->
<svg version="1.1" id="Layer_1" xmlns="http://www.w3.org/2000/svg" xmlns:xlink="http://www.w3.org/1999/xlink" x="0px" y="0px"
	 viewBox="0 0 693 270" style="enable-background:new 0 0 693 270;" xml:space="preserve">
<style type="text/css">
	.st0{fill:#9ECFEF;}
	.st1{fill:#FFFFFF;}
	.st2{fill:none;stroke:#0686D8;stroke-width:2;stroke-miterlimit:10;}
	.st3{fill:#D2E9F7;}
	.st4{fill:none;stroke:#0686D8;stroke-width:2;stroke-linecap:round;stroke-miterlimit:10;}
	.st5{fill:#0686D8;}
	.st6{opacity:0.3;fill:#0686D8;}
	.st7{fill:#5FB0E5;}
	.st8{opacity:0.3;}
</style>
<g id="XMLID_304_">
	<g id="XMLID_110_">
		<g id="XMLID_117_">
			<path id="XMLID_132_" class="st0" d="M625.6,250.4V57.3c0-5.2-4.3-9.5-9.5-9.5H475.8c-5.2,0-9.5,4.3-9.5,9.5v193.1L625.6,250.4z"
				/>
			<path id="XMLID_131_" class="st1" d="M612.6,250.4V57.3c0-5.2-3.6-9.5-8.1-9.5h-119c-4.4,0-8.1,4.3-8.1,9.5v193.1L612.6,250.4z"
				/>
			<path id="XMLID_130_" class="st0" d="M466.3,72.4V55.8c0-4.4,3.6-8,8-8h143.4c4.4,0,8,3.6,8,8v16.6H466.3z"/>
			<path id="XMLID_129_" class="st2" d="M466.3,75.5V55.8c0-4.4,3.6-8,8-8H491h4.5"/>
			<path id="XMLID_128_" class="st2" d="M523.1,47.8h94.5c4.4,0,8,3.6,8,8v194.7"/>
			<line id="XMLID_127_" class="st2" x1="503.2" y1="47.8" x2="514.1" y2="47.8"/>
			<line id="XMLID_126_" class="st2" x1="466.3" y1="72.8" x2="625.6" y2="72.8"/>
			<line id="XMLID_125_" class="st2" x1="484.6" y1="61.4" x2="488.3" y2="61.4"/>
			<line id="XMLID_124_" class="st2" x1="495.3" y1="61.4" x2="499.1" y2="61.4"/>
			<line id="XMLID_53_" class="st2" x1="506.1" y1="61.4" x2="509.8" y2="61.4"/>
			<rect id="XMLID_122_" x="487.6" y="91.2" class="st3" width="116.7" height="46"/>
			<rect id="XMLID_121_" x="487.6" y="166.4" class="st3" width="35.5" height="46"/>
			<rect id="XMLID_120_" x="528.2" y="166.4" class="st3" width="35.5" height="46"/>
			<rect id="XMLID_119_" x="568.8" y="166.4" class="st3" width="35.5" height="46"/>
		</g>
	</g>
	<g id="XMLID_29_">
		<line id="XMLID_31_" class="st4" x1="633.6" y1="88.7" x2="644.2" y2="88.7"/>
		<line id="XMLID_30_" class="st4" x1="638.9" y1="94" x2="638.9" y2="83.5"/>
	</g>
	<g id="XMLID_16_">
		<line id="XMLID_44_" class="st4" x1="316.5" y1="6.5" x2="327.1" y2="6.5"/>
		<line id="XMLID_17_" class="st4" x1="321.8" y1="11.8" x2="321.8" y2="1.3"/>
	</g>
	<g id="XMLID_21_">
		<line id="XMLID_23_" class="st4" x1="484.2" y1="25.5" x2="491.6" y2="18.1"/>
		<line id="XMLID_22_" class="st4" x1="491.6" y1="25.5" x2="484.2" y2="18.1"/>
	</g>
	<g id="XMLID_7_">
		<line id="XMLID_9_" class="st4" x1="223.1" y1="139.5" x2="230.5" y2="132"/>
		<line id="XMLID_8_" class="st4" x1="230.5" y1="139.5" x2="223.1" y2="132"/>
	</g>
	<line id="XMLID_26_" class="st2" x1="653.9" y1="88.7" x2="696.8" y2="88.7"/>
	<line id="XMLID_3_" class="st2" x1="237.3" y1="135.7" x2="288.4" y2="135.7"/>
	<line id="XMLID_123_" class="st2" x1="376" y1="21.8" x2="476.5" y2="21.8"/>
	<line id="XMLID_36_" class="st2" x1="709.3" y1="88.7" x2="700.5" y2="88.7"/>
	<line id="XMLID_5_" class="st2" x1="399.9" y1="6.5" x2="356.9" y2="6.5"/>
	<line id="XMLID_4_" class="st2" x1="344.4" y1="6.5" x2="353.2" y2="6.5"/>
	<path id="XMLID_118_" class="st5" d="M257.7,185.7c0,1.7-1.4,3.2-3.2,3.2c-1.7,0-3.2-1.4-3.2-3.2s1.4-3.2,3.2-3.2
		C256.3,182.6,257.7,184,257.7,185.7z"/>
	<path id="XMLID_11_" class="st5" d="M432.3,68.5c0,1.2-1,2.3-2.3,2.3c-1.2,0-2.3-1-2.3-2.3c0-1.2,1-2.3,2.3-2.3
		C431.3,66.2,432.3,67.2,432.3,68.5z"/>
	<path id="XMLID_303_" class="st5" d="M537.5,6.5c0,1.2-1,2.3-2.3,2.3c-1.2,0-2.3-1-2.3-2.3c0-1.2,1-2.3,2.3-2.3
		C536.5,4.3,537.5,5.3,537.5,6.5z"/>
	<path id="XMLID_14_" class="st5" d="M669.5,139.5c0,1.2-1,2.3-2.3,2.3c-1.2,0-2.3-1-2.3-2.3c0-1.2,1-2.3,2.3-2.3
		C668.5,137.2,669.5,138.2,669.5,139.5z"/>
	<path id="XMLID_12_" class="st5" d="M283.3,18.1c0,1.7-1.4,3-3,3c-1.7,0-3-1.4-3-3c0-1.7,1.4-3,3-3C282,15,283.3,16.4,283.3,18.1z"
		/>
	<path id="XMLID_13_" class="st5" d="M641.9,179.2c0,1.7-1.4,3-3,3c-1.7,0-3-1.4-3-3c0-1.7,1.4-3,3-3
		C640.6,176.2,641.9,177.6,641.9,179.2z"/>
	<path id="XMLID_295_" class="st6" d="M534,79.9c-1.9-1.5-4.3-2.5-7-2.5h-60.7v172.9h11.2h2.4v-1.8h-10.5V221h52.3v-1.9h9.9
		c2.7,0,4.9-2.2,4.9-4.9v-17.4v-4.3v-58h1.9V88.9c0-2.6-0.9-5.1-2.5-7C535.5,81.1,534.8,80.4,534,79.9z"/>
	<g id="XMLID_18_">
		<path id="XMLID_701_" class="st7" d="M531.6,196.8H334.1V81.3c0-1.1,0.9-2,2-2h193.5c1.1,0,2,0.9,2,2V196.8z"/>
		<line id="XMLID_205_" class="st2" x1="334.1" y1="144.9" x2="334.1" y2="123.4"/>
		<path id="XMLID_197_" class="st2" d="M376,79.3h146c5.3,0,9.5,4.3,9.5,9.5v45.6"/>
		<rect id="XMLID_697_" x="344.9" y="90.8" class="st1" width="176.2" height="92.8"/>
		<rect id="XMLID_684_" x="403.1" y="214.6" class="st3" width="59.5" height="35.2"/>
		<rect id="XMLID_683_" x="403.1" y="214.6" class="st0" width="59.5" height="17.6"/>
		<rect id="XMLID_682_" x="403.1" y="214.6" class="st2" width="59.5" height="35.2"/>
		<path id="XMLID_681_" class="st1" d="M531.6,192.5H334.1v24.7c0,1.1,0.9,2,2,2h193.4c1.1,0,2-0.9,2-2V192.5z"/>
		<line id="XMLID_222_" class="st2" x1="362.5" y1="219.1" x2="516.8" y2="219.1"/>
		<line id="XMLID_219_" class="st2" x1="500.7" y1="192.5" x2="362.5" y2="192.5"/>
		<line id="XMLID_679_" class="st2" x1="391.6" y1="250.5" x2="475" y2="250.5"/>
	</g>
	<g id="XMLID_50_">
		<rect id="XMLID_60_" x="567.1" y="157.3" class="st3" width="5.1" height="44.9"/>
		<path id="XMLID_59_" class="st1" d="M574.9,250.5l-10.4,0c-1.4,0-2.6-1.1-2.6-2.6v-45.4l15.6,0v45.4
			C577.5,249.3,576.3,250.5,574.9,250.5z"/>
		<path id="XMLID_57_" class="st2" d="M574.9,250.5l-10.4,0c-1.4,0-2.6-1.1-2.6-2.6v-45.4l15.6,0v45.4
			C577.5,249.3,576.3,250.5,574.9,250.5z"/>
		<line id="XMLID_56_" class="st2" x1="557.2" y1="202.5" x2="582.1" y2="202.5"/>
		<polygon id="XMLID_54_" class="st3" points="574,158 565.3,158 566.4,142.7 573,142.7 		"/>
		<polygon id="XMLID_51_" class="st2" points="567.1,202.2 572.2,202.2 572.2,158 574,158 573,142.7 566.4,142.7 565.3,158 
			567.1,158 		"/>
	</g>
	<g id="XMLID_45_">
		<path id="XMLID_49_" class="st0" d="M623.2,164.2c0-8-4.6-15-11.4-18.3v17.7l-9,5.2l-9-5.2v-17.7c-6.7,3.3-11.4,10.3-11.4,18.3
			c0,8.4,5.1,15.6,12.3,18.8l0.1,59.4c0,4.5,3.6,8.1,8.1,8.1c4.5,0,8.1-3.6,8.1-8.1l-0.1-59.4C618.2,179.8,623.2,172.6,623.2,164.2z
			"/>
		<path id="XMLID_48_" class="st2" d="M623.2,164.2c0-8-4.6-15-11.4-18.3v17.7l-9,5.2l-9-5.2v-17.7c-6.7,3.3-11.4,10.3-11.4,18.3
			c0,8.4,5.1,15.6,12.3,18.8l0.1,59.4c0,4.5,3.6,8.1,8.1,8.1c4.5,0,8.1-3.6,8.1-8.1l-0.1-59.4C618.2,179.8,623.2,172.6,623.2,164.2z
			"/>
	</g>
	<path id="XMLID_301_" class="st6" d="M356.3,146.9h-22.1v45.6v4.3v17.4c0,2.7,2.2,4.9,4.9,4.9h23.4v1.9h2.8v-65
		C365.4,151,361.3,146.9,356.3,146.9z"/>
	<g id="XMLID_19_">
		<path id="XMLID_35_" class="st1" d="M275.4,250.5h83.2v-99.5c0-1.2-1-2.2-2.2-2.2h-78.8c-1.2,0-2.2,1-2.2,2.2V250.5z"/>
		<path id="XMLID_34_" class="st2" d="M293,148.7h-10.4c-4,0-7.2,3.2-7.2,7.2v83.4"/>
		<line id="XMLID_33_" class="st2" x1="312.1" y1="148.7" x2="300" y2="148.7"/>
		<path id="XMLID_340_" class="st2" d="M358.6,239.4V156c0-4-3.2-7.2-7.2-7.2h-36.2"/>
		<rect id="XMLID_339_" x="282.2" y="164" class="st3" width="69.5" height="86.5"/>
		<line id="XMLID_32_" class="st2" x1="308.2" y1="157.8" x2="325.8" y2="157.8"/>
		<path id="XMLID_27_" class="st7" d="M363.3,250.5v-2.7c0-2.7-2.2-4.8-4.8-4.8l-7.5,0c-0.9-3.9-2.4-7.6-4.5-10.9l5.3-5.3
			c1.9-1.9,1.9-5,0-6.9l-4-4c-1.9-1.9-5-1.9-6.9,0l-5.3,5.3c-3.3-2.1-6.9-3.6-10.8-4.5v-7.5c0-2.7-2.2-4.9-4.9-4.9h-5.6
			c-2.7,0-4.9,2.2-4.9,4.9v7.5c-3.8,0.9-7.4,2.4-10.7,4.4l-5.3-5.3c-1.9-1.9-5-1.9-6.9,0l-4,4c-1.9,1.9-1.9,5,0,6.9l5.3,5.4
			c-2.1,3.3-3.6,6.9-4.5,10.8l-7.5,0c-2.7,0-4.9,2.2-4.9,4.9l0,3h30.8c0-8.5,6.9-15.4,15.5-15.4c8.5,0,15.4,6.9,15.4,15.4H363.3z"/>
		<path id="XMLID_20_" class="st2" d="M363.3,250.5v-2.7c0-2.7-2.2-4.8-4.8-4.8l-7.5,0c-0.9-3.9-2.4-7.6-4.5-10.9l5.3-5.3
			c1.9-1.9,1.9-5,0-6.9l-4-4c-1.9-1.9-5-1.9-6.9,0l-5.3,5.3c-3.3-2.1-6.9-3.6-10.8-4.5v-7.5c0-2.7-2.2-4.9-4.9-4.9h-5.6
			c-2.7,0-4.9,2.2-4.9,4.9v7.5c-3.8,0.9-7.4,2.4-10.7,4.4l-5.3-5.3c-1.9-1.9-5-1.9-6.9,0l-4,4c-1.9,1.9-1.9,5,0,6.9l5.3,5.4
			c-2.1,3.3-3.6,6.9-4.5,10.8l-7.5,0c-2.7,0-4.9,2.2-4.9,4.9l0,3 M301.5,250.5c0-8.5,6.9-15.4,15.5-15.4c8.5,0,15.4,6.9,15.4,15.4"
			/>
	</g>
	<g id="XMLID_37_">
		<line id="XMLID_767_" class="st2" x1="528.8" y1="200.6" x2="528.8" y2="213.4"/>
		<path id="XMLID_764_" class="st0" d="M528.8,140.5c-17,0-30.9,13.8-30.9,30.9c0,17,13.8,30.9,30.9,30.9c17,0,30.8-13.8,30.9-30.9
			C559.7,154.3,545.9,140.5,528.8,140.5z M528.8,194.8c-12.9,0-23.4-10.5-23.4-23.4c0-12.9,10.5-23.4,23.4-23.4
			c12.9,0,23.4,10.5,23.4,23.4C552.3,184.3,541.8,194.8,528.8,194.8z"/>
		<path id="XMLID_114_" class="st2" d="M546.2,145.8c-4.9-3.4-10.9-5.3-17.3-5.3c-17,0-30.9,13.8-30.9,30.9
			c0,17,13.8,30.9,30.9,30.9c17,0,30.8-13.8,30.9-30.9"/>
		<path id="XMLID_113_" class="st2" d="M558.9,164.4c-1.3-5.5-3.9-10.4-7.7-14.3"/>
		<path id="XMLID_762_" class="st2" d="M525.9,151.7c11.7,0,21.2,9.5,21.2,21.2"/>
		<path id="XMLID_761_" class="st7" d="M522.7,209.6l0,37.3c0,2,1.6,3.6,3.6,3.6l5.1,0c2,0,3.6-1.6,3.6-3.6v-37.3L522.7,209.6z"/>
		<path id="XMLID_40_" class="st2" d="M522.7,209.6l0,37.3c0,2,1.6,3.6,3.6,3.6l5.1,0c2,0,3.6-1.6,3.6-3.6v-37.3L522.7,209.6z"/>
		<line id="XMLID_758_" class="st2" x1="522.4" y1="218.4" x2="535.2" y2="218.4"/>
		<line id="XMLID_39_" class="st2" x1="522.4" y1="224.8" x2="535.2" y2="224.8"/>
	</g>
	<g id="XMLID_198_" class="st8">
		<path id="XMLID_289_" class="st5" d="M373.6,125.3c1,0.4,2.2,0,2.9-0.8c0.7-0.9,0.7-2.1,0.1-3l-13.5-20.8c3-6.9,4-14.3,3.1-21.4
			H339c-2.7,0-4.9,2.2-4.9,4.9v39.2h-1.9v1.5c6.4-1.1,12.5-3.7,18-7.8L373.6,125.3z"/>
	</g>
	<g id="XMLID_61_">
		<path id="XMLID_88_" class="st1" d="M297.4,111.6c-17.2-13.4-20.3-38.2-7-55.4c13.4-17.2,38.2-20.3,55.4-7
			c14.9,11.5,19.2,31.6,11.5,47.9l14,21.6c0.4,0.6-0.2,1.3-0.8,1l-24.3-8.6C332.3,122.4,312.1,123,297.4,111.6z"/>
		<path id="XMLID_83_" class="st2" d="M307.2,43.7c12.5-4.9,27.2-3.3,38.6,5.6c14.9,11.5,19.2,31.6,11.5,47.9l14,21.6
			c0.4,0.6-0.2,1.3-0.8,1l-24.3-8.6c-13.9,11.1-34.1,11.7-48.8,0.3c-16.4-12.8-20-35.9-8.7-53"/>
		<path id="XMLID_78_" class="st2" d="M292,54.4c0.7-0.8,1.3-1.5,2-2.2c2.4-2.4,5.1-4.4,7.9-6"/>
		<path id="XMLID_77_" class="st7" d="M294,80.5c0,15.3,12.4,27.8,27.8,27.8c15.3,0,27.8-12.4,27.8-27.8s-12.4-27.8-27.8-27.8
			C306.5,52.7,294,65.1,294,80.5z"/>
		<g id="XMLID_107_">
			<g>
				<path id="XMLID_74_" class="st1" d="M325.8,86.3h-6.7V83c0-1.2,0.2-2.1,0.5-2.7c0.3-0.6,1-1.4,2-2.4l3-3.1
					c0.4-0.5,0.7-1.2,0.7-2c0-0.8-0.2-1.5-0.7-2.1c-0.5-0.6-1.1-0.8-1.8-0.8c-0.8,0-1.4,0.3-1.9,1c-0.5,0.7-0.8,1.5-0.9,2.6h-7
					c0.3-2.9,1.4-5.2,3.2-6.9c1.8-1.7,4.1-2.5,6.8-2.5c2.7,0,5,0.7,6.7,2.2c1.7,1.5,2.6,3.6,2.6,6.2c0,1.2-0.1,2-0.4,2.6
					c-0.3,0.6-0.5,1-0.6,1.2s-0.4,0.6-0.8,1.1c-0.4,0.5-0.7,0.8-0.9,1c-0.7,0.7-1.4,1.4-2,2c-0.6,0.6-1.1,1.1-1.3,1.5
					c-0.2,0.4-0.3,1-0.3,1.8V86.3z M319.8,94.7c-0.7-0.7-1.1-1.7-1.1-2.7s0.4-2,1.1-2.8c0.7-0.7,1.7-1.1,2.8-1.1
					c1.1,0,2,0.4,2.7,1.1c0.7,0.7,1.1,1.7,1.1,2.8s-0.4,2-1.1,2.7c-0.7,0.7-1.7,1.1-2.7,1.1C321.5,95.8,320.5,95.4,319.8,94.7z"/>
			</g>
		</g>
		<line id="XMLID_160_" class="st2" x1="322" y1="33" x2="321.8" y2="37.6"/>
		<line id="XMLID_62_" class="st2" x1="335.3" y1="30.1" x2="332.9" y2="39"/>
		<line id="XMLID_165_" class="st2" x1="345.7" y1="39" x2="343.2" y2="43.3"/>
		<line id="XMLID_168_" class="st2" x1="358.6" y1="43.6" x2="352.1" y2="50.1"/>
		<line id="XMLID_194_" class="st2" x1="363.3" y1="56.5" x2="358.9" y2="59"/>
		<line id="XMLID_195_" class="st2" x1="372.1" y1="66.9" x2="363.2" y2="69.3"/>
		<line id="XMLID_196_" class="st2" x1="368.8" y1="80.3" x2="364.7" y2="80.4"/>
		<line id="XMLID_225_" class="st2" x1="321.8" y1="128" x2="322" y2="123.4"/>
		<line id="XMLID_228_" class="st2" x1="308.6" y1="130.9" x2="311" y2="122"/>
		<line id="XMLID_273_" class="st2" x1="298.3" y1="122" x2="300.6" y2="117.7"/>
		<line id="XMLID_274_" class="st2" x1="285.2" y1="117.6" x2="291.7" y2="111"/>
		<line id="XMLID_275_" class="st2" x1="281" y1="104.4" x2="284.8" y2="102.2"/>
		<line id="XMLID_276_" class="st2" x1="271.6" y1="94.3" x2="280.5" y2="91.9"/>
		<line id="XMLID_277_" class="st2" x1="274.3" y1="80.4" x2="278.9" y2="80.8"/>
		<line id="XMLID_280_" class="st2" x1="271.4" y1="67.4" x2="280.3" y2="69.7"/>
		<line id="XMLID_281_" class="st2" x1="280.3" y1="57.1" x2="284.5" y2="59.3"/>
		<line id="XMLID_283_" class="st2" x1="284.6" y1="43.9" x2="291.2" y2="50.4"/>
		<line id="XMLID_284_" class="st2" x1="297.7" y1="39.6" x2="300" y2="43.5"/>
		<line id="XMLID_286_" class="st2" x1="307.8" y1="30.3" x2="310.3" y2="39.2"/>
	</g>
	<g id="XMLID_481_">
		<line id="XMLID_38_" class="st2" x1="230.5" y1="250.5" x2="237.3" y2="250.5"/>
		<line id="XMLID_41_" class="st2" x1="650" y1="250.5" x2="665" y2="250.5"/>
		<line id="XMLID_42_" class="st2" x1="241.8" y1="250.5" x2="646.2" y2="250.5"/>
	</g>
</g>
</svg>
