<?xml version="1.0" encoding="utf-8"?>
<!-- Generator: Adobe Illustrator 22.1.0, SVG Export Plug-In . SVG Version: 6.00 Build 0)  -->
<svg version="1.1" id="Layer_1" xmlns="http://www.w3.org/2000/svg" xmlns:xlink="http://www.w3.org/1999/xlink" x="0px" y="0px"
	 viewBox="0 0 693 270" style="enable-background:new 0 0 693 270;" xml:space="preserve">
<style type="text/css">
	.st0{fill:#FFFFFF;}
	.st1{fill:#5FB0E5;}
	.st2{fill:none;stroke:#0686D8;stroke-width:1.5;stroke-miterlimit:10;}
	.st3{fill:none;stroke:#0686D8;stroke-miterlimit:10;}
	.st4{fill:#9ECFEF;}
	.st5{fill:#D2E9F7;}
	.st6{opacity:0.3;}
	.st7{fill:#0565A2;}
	.st8{opacity:0.3;fill:#0565A2;enable-background:new    ;}
	.st9{fill:none;stroke:#0686D8;stroke-width:1.5;stroke-miterlimit:10;stroke-dasharray:1.9423,1.9423;}
</style>
<g>
	<g id="XMLID_320_">
		<path id="XMLID_450_" class="st0" d="M120,93.8h17.1l8-15.7c0.7-1.2-0.3-2.6-1.6-2.6h-5.9c-0.5,0-0.9,0.3-1.3,0.5L120,93.8z"/>
		<path id="XMLID_318_" class="st0" d="M120,93.8h17.1l8-15.7c0.7-1.2-0.3-2.6-1.6-2.6h-5.9c-0.5,0-0.9,0.3-1.3,0.5L120,93.8z"/>
		<path id="XMLID_330_" class="st1" d="M141.7,75.5h1.8c1.3,0,2.2,1.4,1.6,2.6l-8,15.7h-6.7l11-17.5C141.6,76,141.7,75.8,141.7,75.5
			z"/>
		<path id="XMLID_449_" class="st2" d="M120,93.8h17.1l8-15.7c0.7-1.2-0.3-2.6-1.6-2.6h-5.9c-0.5,0-0.9,0.3-1.3,0.5L120,93.8z"/>
		<path id="XMLID_482_" class="st0" d="M60.2,85.6h0.3c0.9-3,3.7-5.2,6.9-5.2c1.4,0,2.7,0.4,3.9,1.2c0.8-4.7,4.8-8.2,9.7-8.2
			c4.4,0,8.1,2.9,9.4,6.9c0.5-0.1,1.2-0.3,1.7-0.3c3.4,0,6.1,2.5,6.7,5.6h1c2.7,0,5,2.2,5,5v0.4c0,2.7-2.2,5-5,5H60.4
			c-2.7,0-5-2.2-5-5v-0.4C55.3,87.9,57.5,85.6,60.2,85.6z"/>
		<path id="XMLID_459_" class="st2" d="M60.2,96c-2.7,0-5-2.2-5-5v-0.4c0-2.7,2.2-5,5-5h0.3c0.9-3,3.7-5.2,6.9-5.2
			c1.4,0,2.7,0.4,3.9,1.2c0.8-4.7,4.8-8.2,9.7-8.2c4.4,0,8.1,2.9,9.4,6.9c0.5-0.1,1.2-0.3,1.7-0.3c3.4,0,6.1,2.5,6.7,5.6h1
			c1.8,0,3.4,1,4.3,2.5"/>
		<path id="XMLID_480_" class="st2" d="M74.5,80.7c1.4-2.2,3.9-3.7,6.8-3.7c1.6,0,3,0.4,4.2,1.2"/>
		<path id="XMLID_479_" class="st2" d="M91.9,79.9c-2,0-3.5,1.6-3.5,3.5"/>
		<g id="XMLID_95_">
			<path id="XMLID_98_" class="st0" d="M103.1,125.8h0.1c0.7-2.5,3-4.2,5.6-4.2c1.2,0,2.2,0.4,3.1,0.9c0.7-3.8,3.9-6.8,8-6.8
				c3.7,0,6.7,2.4,7.7,5.6c0.5-0.1,0.9-0.1,1.4-0.1c2.7,0,5,2,5.5,4.7h0.9c2.2,0,4.2,1.8,4.2,4.2v0.3c0,2.2-1.8,4.2-4.2,4.2h-32.3
				c-2.2,0-4.2-1.8-4.2-4.2v-0.3C99.1,127.7,100.9,125.8,103.1,125.8z"/>
			<path id="XMLID_97_" class="st0" d="M129.7,134.4h5.8c2.2,0,4.2-1.8,4.2-4.2v-0.3c0-2.2-1.8-4.2-4.2-4.2h-0.8
				c-0.4-2.6-2.7-4.7-5.5-4.7c-0.5,0-0.9,0.1-1.4,0.1c-1-3.3-4.1-5.6-7.7-5.6c-4.1,0-7.3,3-8,6.8c-0.9-0.5-2-0.9-3.1-0.9
				c-2.6,0-5,1.8-5.6,4.2h-0.1c-2.2,0-4.2,1.8-4.2,4.2v0.3c0,2.2,1.8,4.2,4.2,4.2h6.3h20.3V134.4z"/>
		</g>
		<g id="XMLID_458_">
			<path id="XMLID_463_" class="st3" d="M103.1,125.8h0.1c0.7-2.5,3-4.2,5.6-4.2c1.2,0,2.2,0.4,3.1,0.9c0.7-3.8,3.9-6.8,8-6.8
				c3.7,0,6.7,2.4,7.7,5.6c0.5-0.1,0.9-0.1,1.4-0.1c2.7,0,5,2,5.5,4.7h0.9c2.2,0,4.2,1.8,4.2,4.2v0.3c0,2.2-1.8,4.2-4.2,4.2h-32.3
				c-2.2,0-4.2-1.8-4.2-4.2v-0.3C99.1,127.7,100.9,125.8,103.1,125.8z"/>
			<path id="XMLID_462_" class="st2" d="M129.7,134.4h5.8c2.2,0,4.2-1.8,4.2-4.2v-0.3c0-2.2-1.8-4.2-4.2-4.2h-0.8
				c-0.4-2.6-2.7-4.7-5.5-4.7c-0.5,0-0.9,0.1-1.4,0.1c-1-3.3-4.1-5.6-7.7-5.6c-4.1,0-7.3,3-8,6.8c-0.9-0.5-2-0.9-3.1-0.9
				c-2.6,0-5,1.8-5.6,4.2h-0.1c-2.2,0-4.2,1.8-4.2,4.2v0.3c0,2.2,1.8,4.2,4.2,4.2h6.3h20.3V134.4z"/>
		</g>
		<path id="XMLID_465_" class="st0" d="M107.4,67.9L107.4,67.9c0.5-1.6,2-2.7,3.7-2.7c0.8,0,1.4,0.3,2,0.7c0.4-2.5,2.5-4.3,5.1-4.3
			c2.4,0,4.2,1.6,4.8,3.5c0.3-0.1,0.7-0.1,0.9-0.1c1.7,0,3.1,1.3,3.4,3h0.5c1.4,0,2.6,1.2,2.6,2.6v0.1c0,1.4-1.2,2.6-2.6,2.6h-20.5
			c-1.4,0-2.6-1.2-2.6-2.6v-0.1C104.8,69.1,106,67.9,107.4,67.9z"/>
		<path id="XMLID_464_" class="st2" d="M124.3,73.4h3.7c1.4,0,2.6-1.2,2.6-2.6v-0.1c0-1.4-1.2-2.6-2.6-2.6h-0.5
			c-0.3-1.7-1.7-3-3.4-3c-0.3,0-0.7,0-0.9,0.1c-0.7-2.1-2.6-3.5-4.8-3.5c-2.6,0-4.7,1.8-5.1,4.3c-0.5-0.4-1.3-0.7-2-0.7
			c-1.7,0-3.1,1.2-3.5,2.7h-0.1c-1.4,0-2.6,1.2-2.6,2.6v0.1c0,1.4,1.2,2.6,2.6,2.6h3.9H124.3z"/>
		<path id="XMLID_442_" class="st0" d="M60.5,100h1.7c1.4-4.1,5.2-6.8,9.8-6.8h69.8c0,9.7-7.8,17.4-17.4,17.4H80.5H61.4h-0.9
			c-2.6,0-4.8-2.1-4.8-4.8v-0.9C55.6,102,57.7,100,60.5,100z"/>
		<path id="XMLID_460_" class="st4" d="M60.5,106.4h0.9h18.8h43.9c8.2,0,15-5.8,17-13.3h0.5c0,9.7-7.8,17.4-17.4,17.4H80.4h-19h-0.9
			c-2.6,0-4.8-2.1-4.8-4.8v-0.9c0-0.5,0.1-1,0.3-1.6C56.6,105.1,58.3,106.4,60.5,106.4z"/>
		<path id="XMLID_423_" class="st2" d="M60.5,100h1.7c1.4-4.1,5.2-6.8,9.8-6.8h69.8c0,9.7-7.8,17.4-17.4,17.4H80.5H61.4h-0.9
			c-2.6,0-4.8-2.1-4.8-4.8v-0.9C55.6,102,57.7,100,60.5,100z"/>
		<path id="XMLID_425_" class="st5" d="M120.9,98.6h21.8c0.8,0,1.6-0.7,1.6-1.6v-2.5c0-0.8-0.7-1.6-1.6-1.6h-21.8
			c-0.8,0-1.6,0.7-1.6,1.6v2.5C119.3,97.9,120,98.6,120.9,98.6z"/>
		<path id="XMLID_428_" class="st5" d="M81.5,112.5H108c0.8,0,1.6-0.7,1.6-1.6v-3.5c0-0.8-0.7-1.6-1.6-1.6H81.5
			c-0.8,0-1.6,0.7-1.6,1.6v3.5C80,111.9,80.8,112.5,81.5,112.5z"/>
		<path id="XMLID_429_" class="st2" d="M120.9,98.6h21.8c0.8,0,1.6-0.7,1.6-1.6v-2.5c0-0.8-0.7-1.6-1.6-1.6h-21.8
			c-0.8,0-1.6,0.7-1.6,1.6v2.5C119.3,97.9,120,98.6,120.9,98.6z"/>
		<path id="XMLID_424_" class="st2" d="M81.5,112.5H108c0.8,0,1.6-0.7,1.6-1.6v-3.5c0-0.8-0.7-1.6-1.6-1.6H81.5
			c-0.8,0-1.6,0.7-1.6,1.6v3.5C80,111.9,80.8,112.5,81.5,112.5z"/>
		<line id="XMLID_452_" class="st2" x1="76.2" y1="98.6" x2="67.4" y2="98.6"/>
		<line id="XMLID_451_" class="st2" x1="86.4" y1="98.6" x2="82.1" y2="98.6"/>
		<line id="XMLID_453_" class="st2" x1="93.4" y1="98.6" x2="89.1" y2="98.6"/>
		<line id="XMLID_454_" class="st2" x1="100.5" y1="98.6" x2="96.2" y2="98.6"/>
		<line id="XMLID_455_" class="st2" x1="107.6" y1="98.6" x2="103.1" y2="98.6"/>
		<line id="XMLID_456_" class="st2" x1="114.6" y1="98.6" x2="110.2" y2="98.6"/>
	</g>
	<g id="XMLID_301_">
		<g id="XMLID_300_">
			<path id="XMLID_289_" class="st0" d="M215.1,141.2h-43c-1,0-1.8-0.8-1.8-1.8v-43c0-1,0.8-1.8,1.8-1.8h43c1,0,1.8,0.8,1.8,1.8v43
				C216.9,140.4,216,141.2,215.1,141.2z"/>
			<path id="XMLID_302_" class="st2" d="M211.4,94.5h3.1c1.3,0,2.4,1,2.4,2.4v13.6"/>
			<line id="XMLID_303_" class="st2" x1="203.4" y1="94.5" x2="207.2" y2="94.5"/>
			<path id="XMLID_288_" class="st2" d="M194.4,141.2h-22c-1.3,0-2.4-1-2.4-2.4V96.7c0-1.3,1-2.4,2.4-2.4h28.9"/>
			<rect id="XMLID_290_" x="189.1" y="94.5" class="st4" width="8.9" height="45.4"/>
			<polyline id="XMLID_295_" class="st2" points="189.1,141.2 189.1,94.5 198,94.5 198,115.6 			"/>
			<line id="XMLID_293_" class="st2" x1="172.8" y1="100" x2="185.4" y2="100"/>
			<line id="XMLID_292_" class="st2" x1="172.8" y1="105.1" x2="181.1" y2="105.1"/>
			<g id="XMLID_757_">
				<line id="XMLID_767_" class="st2" x1="224.9" y1="142.9" x2="230.3" y2="148.1"/>
				<path id="XMLID_764_" class="st5" d="M200,117.9c-7.1,7.1-7.1,18.4,0,25.5c7.1,7.1,18.4,7.1,25.5,0c7.1-7.1,7.1-18.4,0-25.5
					C218.5,110.9,207.1,110.9,200,117.9z M222.5,140.4c-5.4,5.4-14,5.4-19.4,0c-5.4-5.4-5.4-14,0-19.4c5.4-5.4,14-5.4,19.4,0
					C227.9,126.4,227.9,135,222.5,140.4z"/>
				<path id="XMLID_298_" class="st2" d="M230.3,126c-0.8-2.9-2.4-5.8-4.7-8c-7.1-7.1-18.4-7.1-25.5,0c-7.1,7.1-7.1,18.4,0,25.5
					c7.1,7.1,18.4,7.1,25.5,0c2.7-2.7,4.3-6,5-9.5"/>
				<path id="XMLID_762_" class="st2" d="M203.4,123.8c4.8-4.8,12.7-4.8,17.5,0"/>
				
					<rect id="XMLID_761_" x="229.3" y="144.8" transform="matrix(0.7071 -0.7071 0.7071 0.7071 -38.3675 208.8572)" class="st4" width="7.2" height="11.9"/>
				<polyline id="XMLID_294_" class="st2" points="239.7,152.4 231.2,144 226.2,149 234.6,157.5 				"/>
				<line id="XMLID_758_" class="st2" x1="229.6" y1="152.8" x2="235" y2="147.6"/>
			</g>
			<path id="XMLID_297_" class="st1" d="M220.3,130.7c0,4.2-3.4,7.6-7.6,7.6c-4.2,0-7.6-3.4-7.6-7.6c0-4.2,3.4-7.6,7.6-7.6
				C217,123.1,220.3,126.5,220.3,130.7z"/>
			<path id="XMLID_291_" class="st2" d="M216,130.7c0,1.7-1.4,3.1-3.1,3.1s-3.1-1.4-3.1-3.1s1.4-3.1,3.1-3.1S216,129,216,130.7z"/>
			<polyline id="XMLID_296_" class="st2" points="216.7,130.7 236,130.7 236,108.1 264.9,108.1 			"/>
		</g>
	</g>
	<g id="XMLID_366_">
		<path id="XMLID_836_" class="st0" d="M137.1,187.1c0.4-1.3,2-2.4,3.4-2.4h21.1v33.1c-6.1,0-11.2,5-11.2,11.2h-19.9v-22.2
			L137.1,187.1z"/>
		<path id="XMLID_835_" class="st1" d="M154.1,204.3h-18.3c-0.7,0-1.8,0.1-2.5,0.4l-3,0.9l6.8-18.7c0,0,0.7-3.4,6.4-2.4h13.1v17.3
			C156.6,203.3,155.4,204.3,154.1,204.3z"/>
		<path id="XMLID_824_" class="st0" d="M200.6,230.7c0,4.3,3.5,7.8,7.8,7.8s7.8-3.5,7.8-7.8c0-4.3-3.5-7.8-7.8-7.8
			S200.6,226.4,200.6,230.7z"/>
		<path id="XMLID_823_" class="st2" d="M200.6,230.7c0,4.3,3.5,7.8,7.8,7.8s7.8-3.5,7.8-7.8c0-4.3-3.5-7.8-7.8-7.8
			S200.6,226.4,200.6,230.7z"/>
		<path id="XMLID_822_" class="st1" d="M205.4,230.7c0,1.7,1.4,3.1,3.1,3.1s3.1-1.4,3.1-3.1c0-1.7-1.4-3.1-3.1-3.1
			C206.7,227.6,205.4,229,205.4,230.7z"/>
		<path id="XMLID_820_" class="st0" d="M155.3,230.7c0,4.3,3.5,7.8,7.8,7.8c4.3,0,7.8-3.5,7.8-7.8c0-4.3-3.5-7.8-7.8-7.8
			C158.8,222.9,155.3,226.4,155.3,230.7z"/>
		<path id="XMLID_819_" class="st2" d="M155.3,230.7c0,4.3,3.5,7.8,7.8,7.8c4.3,0,7.8-3.5,7.8-7.8c0-4.3-3.5-7.8-7.8-7.8
			C158.8,222.9,155.3,226.4,155.3,230.7z"/>
		<path id="XMLID_818_" class="st1" d="M160.2,230.7c0,1.7,1.4,3.1,3.1,3.1c1.7,0,3.1-1.4,3.1-3.1c0-1.7-1.4-3.1-3.1-3.1
			C161.5,227.6,160.2,229,160.2,230.7z"/>
		<path id="XMLID_816_" class="st0" d="M221.4,230.7c0,4.3,3.5,7.8,7.8,7.8s7.8-3.5,7.8-7.8c0-4.3-3.5-7.8-7.8-7.8
			S221.4,226.4,221.4,230.7z"/>
		<path id="XMLID_814_" class="st2" d="M221.4,230.7c0,4.3,3.5,7.8,7.8,7.8s7.8-3.5,7.8-7.8c0-4.3-3.5-7.8-7.8-7.8
			S221.4,226.4,221.4,230.7z"/>
		<path id="XMLID_811_" class="st1" d="M226.1,230.7c0,1.7,1.4,3.1,3.1,3.1s3.1-1.4,3.1-3.1c0-1.7-1.4-3.1-3.1-3.1
			S226.1,229,226.1,230.7z"/>
		<line id="XMLID_815_" class="st2" x1="168.3" y1="224.3" x2="196.3" y2="224.3"/>
		<path id="XMLID_813_" class="st2" d="M241.6,227.7L241.6,227.7c0-5.2-4.3-9.5-9.5-9.5h-26.3c-5.2,0-9.5,4.3-9.5,9.5v2"/>
		<path id="XMLID_810_" class="st1" d="M171.3,213.6h127.4c1.7,0,3-1.3,3-3v-44.2c0-1.7-1.3-3-3-3H171.3c-1.7,0-3,1.3-3,3v44.2
			C168.1,212.3,169.6,213.6,171.3,213.6z"/>
		<path id="XMLID_143_" class="st2" d="M264.9,163.4h-93.6c-1.7,0-3,1.3-3,3v44.2c0,1.7,1.3,3,3,3h93.6"/>
		<rect id="XMLID_808_" x="175.6" y="175.8" class="st0" width="118.8" height="23"/>
		<line id="XMLID_807_" class="st2" x1="141.3" y1="184.3" x2="159.1" y2="169.3"/>
		<line id="XMLID_806_" class="st2" x1="153.4" y1="174.6" x2="153.4" y2="182.7"/>
		<path id="XMLID_353_" class="st2" d="M137.1,187.1c0.4-1.3,2-2.4,3.4-2.4h21.1v33.1c-6.1,0-11.2,5-11.2,11.2h-19.9v-22.2
			L137.1,187.1z"/>
		<path id="XMLID_832_" class="st4" d="M128.4,228.8c0,0.5,0.4,0.9,0.9,0.9h8.9c0.5,0,0.9-0.4,0.9-0.9v-5.1c0-0.5-0.4-0.9-0.9-0.9
			h-8.9c-0.5,0-0.9,0.4-0.9,0.9V228.8z"/>
		<path id="XMLID_313_" class="st2" d="M128.4,228.8c0,0.5,0.4,0.9,0.9,0.9h8.9c0.5,0,0.9-0.4,0.9-0.9v-5.1c0-0.5-0.4-0.9-0.9-0.9
			h-8.9c-0.5,0-0.9,0.4-0.9,0.9V228.8z"/>
		<line id="XMLID_365_" class="st2" x1="256" y1="182.7" x2="179.9" y2="182.7"/>
		<line id="XMLID_364_" class="st2" x1="289.9" y1="191.6" x2="179.9" y2="191.6"/>
	</g>
	<g id="XMLID_341_">
		<path id="XMLID_472_" class="st5" d="M559.1,236.1v-82c0-1.4,1.2-2.5,2.5-2.5h40.7c1.4,0,2.5,1.2,2.5,2.5v82
			c0,1.4-1.2,2.5-2.5,2.5h-40.7C560.3,238.6,559.1,237.4,559.1,236.1z"/>
		<path id="XMLID_92_" class="st2" d="M563.9,238.6c-2.7,0-4.8-2.2-4.8-4.8v-1.8"/>
		<path id="XMLID_41_" class="st2" d="M559.1,160.2v-3.8c0-2.7,2.2-4.8,4.8-4.8H600c2.7,0,4.8,2.2,4.8,4.8V186"/>
		<path id="XMLID_470_" class="st0" d="M566.8,194.9c0.1-8.5,7.2-15.3,15.7-15.2c8.5,0.1,15.3,7.2,15.2,15.7
			c-0.1,8.5-7.2,15.3-15.7,15.2C573.3,210.5,566.7,203.4,566.8,194.9z"/>
		<path id="XMLID_468_" class="st2" d="M585.6,180.3c6.9,1.6,12.2,7.8,12,15.3c-0.1,8.5-7.2,15.3-15.7,15.2"/>
		<path id="XMLID_467_" class="st0" d="M578.4,219.2c0-2.4,2-4.1,4.2-4.1c2.4,0,4.1,2,4.1,4.2c0,2.4-2,4.1-4.2,4.1
			C580.3,223.4,578.4,221.5,578.4,219.2z"/>
		<path id="XMLID_349_" class="st0" d="M578.4,170.2c0-2.4,2-4.1,4.2-4.1c2.4,0,4.1,2,4.1,4.2c0,2.4-2,4.1-4.2,4.1
			C580.3,174.4,578.4,172.5,578.4,170.2z"/>
		<g id="XMLID_346_">
			<path id="XMLID_348_" class="st2" d="M588.1,201.4v-7.6c0-1.6-1.3-2.9-2.9-2.9l0,0c-1.6,0-2.9,1.3-2.9,2.9v3.1
				c0,1.6-1.3,2.9-2.9,2.9l0,0c-1.6,0-2.9-1.3-2.9-2.9v-7.8"/>
			<line id="XMLID_347_" class="st2" x1="592.8" y1="195.3" x2="571.5" y2="195.3"/>
		</g>
		<path id="XMLID_326_" class="st2" d="M574.2,160.5c0.3-0.7,0.4-1.4,0.5-2.2c0-0.4,0.3-0.7,0.7-0.7c2.5,0,11.1,0,13.6,0
			c0.4,0,0.7,0.3,0.7,0.7c0.4,4.1,3.5,7.2,7.6,7.6c0.4,0,0.7,0.3,0.7,0.7v6.7"/>
		<path id="XMLID_340_" class="st2" d="M569.3,224.1c1.7,0.7,3.3,1.8,4.2,3.4c0.7,1,1.2,2.4,1.2,3.7c0,0.4,0.3,0.7,0.7,0.7
			c0.9,0,2.7,0,4.7,0c3.4,0,7.3,0,8.9,0c0.4,0,0.7-0.3,0.7-0.7c0.4-4.1,3.5-7.2,7.6-7.6c0.4,0,0.7-0.3,0.7-0.7v-6.7"/>
	</g>
	<g class="st6">
		<path class="st7" d="M587.2,192.4v-27.6c0-0.7-0.3-1.4-0.8-1.8c-0.5-0.5-1.2-0.8-1.8-0.8c-9.8,0.4-16.7,0.3-20.1-0.1
			c-2-0.3-3.8-0.9-5.5-1.7v71.4h-1.3v1.8c0,0.1,0,0.3,0,0.4l17.4-15.3C582.9,212.2,587.2,202.5,587.2,192.4z"/>
		<path class="st7" d="M557.8,159.7v0.5h0.9C558.4,160.1,558.2,160,557.8,159.7z"/>
	</g>
	<g id="XMLID_343_">
		<g id="XMLID_1066_">
			<path id="XMLID_1067_" class="st0" d="M547.7,238.5c-0.4,0.3-0.9,0.3-1.3,0L523,217.4c-7.2-6.4-11.2-15.7-11.2-25.4v-27.3
				c0-0.7,0.5-1.3,1.3-1.3c3.3,0.1,7.5,0.1,11.2,0.1c4.6,0,8-0.1,10.1-0.4c5.8-0.7,9.9-4.1,12.6-6.1c0.4-0.4,1-0.4,1.6,0
				c2.7,2.1,6.8,5.4,12.7,6.3c2,0.3,5,0.4,9,0.4c3.9,0,8.1-0.1,11.2-0.3c0.7,0,1.3,0.5,1.3,1.3v27.6c0,9.8-4.2,19.1-11.5,25.5
				L547.7,238.5z"/>
		</g>
		<g id="XMLID_99_">
			<path id="XMLID_111_" class="st1" d="M547.7,233.6c-0.4,0.3-0.8,0.3-1.2,0l-20.7-18.6c-6.3-5.6-9.9-13.7-9.9-22.4v-24.1
				c0-0.7,0.5-1.2,1.2-1.2c2.9,0.1,6.5,0.1,9.9,0.1c4.1,0,7.1-0.1,8.9-0.4c5.1-0.7,8.8-3.5,11-5.5c0.4-0.3,0.9-0.3,1.3,0
				c2.4,2,6,4.7,11.1,5.5c1.7,0.3,4.3,0.4,8,0.4c3.4,0,7.2-0.1,9.9-0.3c0.7,0,1.2,0.5,1.2,1.2v24.3c0,8.6-3.7,16.9-10.2,22.5
				L547.7,233.6z"/>
		</g>
		<g id="XMLID_1059_">
			<path id="XMLID_1065_" class="st1" d="M547.7,233.6c-0.4,0.3-0.8,0.3-1.2,0l-20.7-18.6c-6.3-5.6-9.9-13.7-9.9-22.4v-24.1
				c0-0.7,0.5-1.2,1.2-1.2c2.9,0.1,6.5,0.1,9.9,0.1c4.1,0,7.1-0.1,8.9-0.4c5.1-0.7,8.8-3.5,11-5.5c0.4-0.3,0.9-0.3,1.3,0
				c2.4,2,6,4.7,11.1,5.5c1.7,0.3,4.3,0.4,8,0.4c3.4,0,7.2-0.1,9.9-0.3c0.7,0,1.2,0.5,1.2,1.2v24.3c0,8.6-3.7,16.9-10.2,22.5
				L547.7,233.6z"/>
		</g>
		<g id="XMLID_1057_">
			<path id="XMLID_89_" class="st2" d="M518.9,213.7l27.3,24.6c0.4,0.3,0.9,0.3,1.3,0l23.3-20.4c7.3-6.4,11.5-15.8,11.5-25.5v-27.6
				c0-0.7-0.5-1.3-1.3-1.3c-3.3,0.1-7.5,0.3-11.2,0.3c-4.1,0-7.1-0.1-9-0.4c-5.8-0.8-9.9-4.1-12.7-6.3c-0.4-0.4-1-0.4-1.6,0
				c-2.6,2.1-6.8,5.5-12.6,6.1l-3.1,0.4h-10.5"/>
		</g>
		<path id="XMLID_1056_" class="st0" d="M566.8,195.8c0,10.7-8.6,19.4-19.4,19.4c-10.7,0-19.4-8.6-19.4-19.4
			c0-10.7,8.6-19.4,19.4-19.4C558.2,176.5,566.8,185.1,566.8,195.8z"/>
		<polyline id="XMLID_334_" class="st2" points="558.8,188.5 544,203.3 535.9,195 		"/>
	</g>
	<path class="st8" d="M298.7,163.4h-33.7v-1.3h-0.8v52.8h0.7v-1.3h33.7c1.7,0,3-1.3,3-3v-44.2C301.7,164.7,300.4,163.4,298.7,163.4z
		"/>
	<g id="XMLID_15_">
		<path id="XMLID_51_" class="st1" d="M480.6,230.1H270.1c-0.8,0-1.3-0.5-1.3-1.3V78.2c0-0.7,0.5-1.3,1.3-1.3h210.4
			c0.8,0,1.3,0.7,1.3,1.3v150.5C481.9,229.6,481.4,230.1,480.6,230.1z"/>
		<path id="XMLID_84_" class="st2" d="M274.2,230.1c-2.9,0-5.2-2.4-5.2-5.2V82.3c0-2.9,2.4-5.2,5.2-5.2h32.2h140.9h29.4
			c2.9,0,5.2,2.4,5.2,5.2v40"/>
		<rect id="XMLID_50_" x="279.2" y="89" class="st0" width="191.2" height="124.3"/>
		<path id="XMLID_42_" class="st0" d="M478.2,238.6h-208c-5,0-9.3-3.7-10.1-8.5l-1.4-9h96.4l3.7,5.2h26.7l3.9-5.2h101.5l-1.3,7.8
			C488.7,234.5,483.9,238.6,478.2,238.6z"/>
		<path id="XMLID_25_" class="st2" d="M440.4,238.6H270.3c-5,0-9.3-3.7-10.1-8.5l-1.4-9h96.4l3.7,5.2h26.7l3.9-5.2h51"/>
	</g>
	<g id="XMLID_16_">
		<g id="XMLID_30_">
			<ellipse id="XMLID_79_" class="st5" cx="375.3" cy="138.7" rx="35.4" ry="35.4"/>
			<path id="XMLID_76_" class="st2" d="M356.9,168.9c-10.2-6.1-17-17.4-17-30.2c0-19.5,15.8-35.4,35.4-35.4
				c19.5,0,35.4,15.8,35.4,35.4c0,12.8-6.8,24.1-17,30.2"/>
			<ellipse id="XMLID_78_" class="st1" cx="375.3" cy="138.7" rx="22.8" ry="22.8"/>
			<g id="XMLID_52_">
				<path id="XMLID_380_" class="st0" d="M363.1,146h-5.8v-13.2h5.1c0.9,0,1.7,0.1,2.4,0.3c0.7,0.3,1.2,0.5,1.4,0.9
					c0.7,0.7,0.9,1.4,0.9,2.4c0,1-0.4,1.8-1,2.4c-0.3,0.1-0.4,0.3-0.5,0.4c-0.1,0-0.3,0.1-0.5,0.3c0.8,0.1,1.4,0.5,2,1
					s0.8,1.3,0.8,2.1c0,0.9-0.3,1.7-0.9,2.5C366.2,145.6,365,146,363.1,146z M360.3,138.1h1.4c0.8,0,1.4-0.1,1.8-0.3
					c0.4-0.1,0.7-0.5,0.7-1.2c0-0.5-0.1-0.9-0.5-1.2c-0.4-0.1-1-0.3-1.8-0.3h-1.4v2.9H360.3z M360.3,143.5h2c0.8,0,1.4-0.1,2-0.3
					c0.4-0.3,0.7-0.7,0.7-1.2c0-0.7-0.3-1-0.7-1.2c-0.4-0.1-1.2-0.3-2.1-0.3h-1.7v2.9H360.3z"/>
				<path id="XMLID_55_" class="st0" d="M373.9,142.6c0.5,0.7,1.2,0.9,2,0.9c0.8,0,1.4-0.3,2-0.9c0.5-0.7,0.8-1.4,0.8-2.5v-7.3h3
					v7.5c0,2-0.5,3.4-1.6,4.4c-1,1-2.4,1.6-4.1,1.6c-1.7,0-3-0.5-4.1-1.6c-1-1-1.6-2.5-1.6-4.4v-7.5h3v7.3
					C373.1,141.2,373.3,141.9,373.9,142.6z"/>
				<path id="XMLID_53_" class="st0" d="M390.2,146h-3v-5.2l-4.6-8h3.1l2.9,5l2.9-5h3.1l-4.6,8v5.2H390.2z"/>
			</g>
			<g id="XMLID_32_">
				<path id="XMLID_362_" class="st0" d="M387.7,158.3c-1.7,0-3.1,1.4-3.1,3.1v-3.3c0-1.7-1.4-3.1-3.1-3.1c-1.7,0-3.1,1.4-3.1,3.1
					V155c0-1.7-1.4-3.1-3.1-3.1c-1.7,0-3.1,1.4-3.1,3.1v-9.8c0-1.7-1.4-3.1-3.1-3.1c-1.7,0-3.1,1.4-3.1,3.1v19.4h-4.3
					c-1.2,0-2.1,0.9-2.1,2.1v13.7c0,1,0.7,2.1,1.7,2.6l2.5,1.2c1,0.5,1.7,1.4,1.7,2.6v5.9h20.5V186c0-0.7,0.3-1.3,0.8-1.8l3.1-3
					c0.5-0.5,0.9-1.3,0.9-2.1v-17.5C390.9,159.7,389.4,158.3,387.7,158.3z"/>
				<path id="XMLID_361_" class="st2" d="M372.2,165.6v-20.4c0-1.7-1.4-3.1-3.1-3.1l0,0c-1.7,0-3.1,1.4-3.1,3.1v25"/>
				<path id="XMLID_360_" class="st2" d="M378.4,160.2V155c0-1.7-1.4-3.1-3.1-3.1l0,0c-1.7,0-3.1,1.4-3.1,3.1v5.2"/>
				<path id="XMLID_40_" class="st2" d="M384.6,165.6v-7.5c0-1.7-1.4-3.1-3.1-3.1l0,0c-1.7,0-3.1,1.4-3.1,3.1v7.5"/>
				<path id="XMLID_38_" class="st2" d="M384.6,164.3v-2.9c0-1.7,1.4-3.1,3.1-3.1l0,0c1.7,0,3.1,1.4,3.1,3.1V179
					c0,0.8-0.3,1.6-0.9,2.1l-3.1,3c-0.5,0.5-0.8,1-0.8,1.8v6.7"/>
				<path id="XMLID_37_" class="st2" d="M366,164.6h-4.3c-1.2,0-2.1,0.9-2.1,2.1v13.7c0,1,0.7,2.1,1.7,2.6l2.5,1.2
					c1,0.5,1.7,1.4,1.7,2.6v5.9"/>
				<rect id="XMLID_36_" x="362.8" y="187.2" class="st1" width="26.2" height="27.3"/>
				<polyline id="XMLID_33_" class="st2" points="362.8,214.7 362.8,187.2 388.9,187.2 388.9,214.7 				"/>
			</g>
			<line class="st2" x1="374.9" y1="95.5" x2="374.9" y2="100"/>
			<line class="st2" x1="387.2" y1="92.5" x2="384.9" y2="101.3"/>
			<line class="st2" x1="396.5" y1="101.3" x2="394.3" y2="104.9"/>
			<line class="st2" x1="408.7" y1="104.7" x2="402.3" y2="111.1"/>
			<line class="st2" x1="412.5" y1="116.7" x2="408.5" y2="118.9"/>
			<line class="st2" x1="421.2" y1="125.8" x2="412.5" y2="128.2"/>
			<line class="st2" x1="418.5" y1="138.1" x2="413.9" y2="138.3"/>
			<line class="st2" x1="421.3" y1="150.6" x2="412.7" y2="148.2"/>
			<line class="st2" x1="412.7" y1="159.9" x2="408.9" y2="157.6"/>
			<line class="st2" x1="409.2" y1="172.2" x2="402.8" y2="165.6"/>
			<line class="st2" x1="397.2" y1="176.2" x2="394.9" y2="171.9"/>
			<line class="st2" x1="354" y1="176.2" x2="356.2" y2="172.3"/>
			<line class="st2" x1="341.8" y1="172.5" x2="348.2" y2="166.1"/>
			<line class="st2" x1="338.3" y1="160.4" x2="342" y2="158.3"/>
			<line class="st2" x1="329.3" y1="151.2" x2="338" y2="149"/>
			<line class="st2" x1="329.3" y1="151.2" x2="338" y2="149"/>
			<line class="st2" x1="332" y1="138.9" x2="336.6" y2="138.9"/>
			<line class="st2" x1="329.1" y1="126.6" x2="337.9" y2="129"/>
			<line class="st2" x1="338" y1="117.5" x2="341.6" y2="119.6"/>
			<line class="st2" x1="341.3" y1="105.2" x2="347.7" y2="111.6"/>
			<line class="st2" x1="353.3" y1="101.4" x2="355.7" y2="105.3"/>
			<line class="st2" x1="362.6" y1="92.6" x2="365" y2="101.4"/>
		</g>
	</g>
	<path class="st8" d="M448.4,125.3c-4.2,0-7.6,3.4-7.6,7.6v29.4h1.3v4.7v-0.1l-18.2-1.4l-0.1,2.6l16.3,1.3l2,6V189h-1.3v43.3
		c0,2.6,1.3,5,3.4,6.3h34c5.6,0,10.5-4.1,11.5-9.7l1.3-7.8h-9v-95.6h-33.6V125.3z"/>
	<g id="XMLID_104_">
		<path id="XMLID_516_" class="st0" d="M513.3,238.6h-65.1c-1.4,0-2.6-1.2-2.6-2.6V129.2c0-1.4,1.2-2.6,2.6-2.6h65.1
			c1.4,0,2.6,1.2,2.6,2.6V236C515.9,237.4,514.7,238.6,513.3,238.6z"/>
		<path id="XMLID_90_" class="st2" d="M445.5,162.3v-29.4c0-3.5,2.9-6.3,6.3-6.3h6H473h36.6c3.5,0,6.3,2.9,6.3,6.3v35.2"/>
		<path id="XMLID_103_" class="st2" d="M515.9,203.1v29.2c0,3.5-2.9,6.3-6.3,6.3h-57.8c-3.5,0-6.3-2.9-6.3-6.3V189"/>
		<line id="XMLID_513_" class="st2" x1="470.4" y1="135.1" x2="491.2" y2="135.1"/>
		<path id="XMLID_512_" class="st2" d="M484.1,229.4c0,1.8-1.6,3.4-3.4,3.4s-3.4-1.6-3.4-3.4c0-1.8,1.6-3.4,3.4-3.4
			C482.7,226,484.1,227.6,484.1,229.4z"/>
		<rect id="XMLID_511_" x="452.6" y="142.9" class="st4" width="56.2" height="79.3"/>
		<g id="XMLID_64_">
			<line id="XMLID_82_" class="st2" x1="506.1" y1="214.5" x2="509.4" y2="214.5"/>
			<line id="XMLID_81_" class="st2" x1="478.2" y1="214.5" x2="489.6" y2="214.5"/>
			<polyline id="XMLID_80_" class="st2" points="427.4,166.9 444.6,168.2 459.4,214.5 461.9,214.5 			"/>
			<line id="XMLID_791_" class="st2" x1="447.8" y1="177.1" x2="519" y2="177.1"/>
			<line id="XMLID_795_" class="st2" x1="450.4" y1="185.1" x2="515" y2="185.1"/>
			<line id="XMLID_796_" class="st2" x1="452.2" y1="193.1" x2="513.2" y2="193.1"/>
			<path id="XMLID_788_" class="st2" d="M476,214.5c0,3.1-2.6,5.8-5.8,5.8s-5.8-2.6-5.8-5.8c0-3.1,2.6-5.8,5.8-5.8
				S476,211.4,476,214.5z"/>
			<path id="XMLID_784_" class="st2" d="M503.4,214.5c0,3.1-2.6,5.8-5.8,5.8c-3.1,0-5.8-2.6-5.8-5.8c0-3.1,2.6-5.8,5.8-5.8
				C500.7,208.8,503.4,211.4,503.4,214.5z"/>
			<polyline id="XMLID_77_" class="st2" points="519.6,172.7 510.4,201.7 455.5,201.7 			"/>
		</g>
	</g>
	<path class="st8" d="M601.7,189.8L601.7,189.8c-0.5,0.9-0.8,1.8-0.8,3v45h2.6v-0.4c0.1,0.1,0.3,0.3,0.4,0.3c0.7-0.7,1-1.4,1-2.5
		v-49.3h1.3V183L601.7,189.8z"/>
	<g id="XMLID_662_">
		<path id="XMLID_651_" class="st5" d="M668,190.5h-62l5-7.5c0.8-1.7,2.5-2.7,4.3-2.7h43.2c1.8,0,3.5,1,4.3,2.7L668,190.5z"/>
		<path id="XMLID_652_" class="st2" d="M606.2,190.5l5-7.5c0.8-1.7,2.5-2.7,4.3-2.7h43.2c1.8,0,3.5,1,4.3,2.7l5,7.5"/>
		<path id="XMLID_648_" class="st0" d="M665.5,238.6h-56.8c-1.7,0-3.1-1.4-3.1-3.1v-43.6c0-1.7,1.4-3.1,3.1-3.1h56.8
			c1.7,0,3.1,1.4,3.1,3.1v43.6C668.7,237.2,667.2,238.6,665.5,238.6z"/>
		<path id="XMLID_96_" class="st2" d="M605.5,237.8v-45c0-2.2,1.8-4.1,4.1-4.1h54.9c2.2,0,4.1,1.8,4.1,4.1v5.8"/>
		<polygon id="XMLID_657_" class="st1" points="642.5,188.4 639.5,188.4 633.1,188.4 634.8,180.3 640.8,180.3 		"/>
		<polygon id="XMLID_656_" class="st2" points="642.5,188.4 639.5,188.4 633.1,188.4 634.8,180.3 640.8,180.3 		"/>
		<polygon id="XMLID_658_" class="st1" points="642.5,205.2 639.5,205.2 637.2,203.7 633.1,205.2 633.1,188.6 642.5,188.6 		"/>
		<polygon id="XMLID_650_" class="st2" points="642.5,205.2 639.5,205.2 637.2,203.7 633.1,205.2 633.1,188.6 642.5,188.6 		"/>
		<line id="XMLID_655_" class="st2" x1="611.3" y1="196.2" x2="622" y2="196.2"/>
		<line id="XMLID_654_" class="st2" x1="611.3" y1="201.1" x2="616.6" y2="201.1"/>
	</g>
	<circle class="st8" cx="666.2" cy="219.5" r="19.7"/>
	<g>
		<circle class="st5" cx="669.6" cy="219.5" r="18.6"/>
		
			<ellipse transform="matrix(0.9131 -0.4077 0.4077 0.9131 -31.3403 292.0634)" class="st0" cx="669.6" cy="219.6" rx="13.5" ry="13.5"/>
		<circle class="st2" cx="669.6" cy="219.5" r="18.6"/>
		<g>
			<line class="st2" x1="676" y1="213.2" x2="663.3" y2="225.9"/>
			<circle class="st2" cx="666.1" cy="216" r="2.4"/>
			<path class="st2" d="M675.2,225.1c-0.9,0.9-2.4,0.9-3.3,0c-0.9-0.9-0.9-2.4,0-3.3c0.9-0.9,2.4-0.9,3.3,0
				C676.1,222.8,676.1,224.2,675.2,225.1z"/>
		</g>
	</g>
	<line id="XMLID_174_" class="st2" x1="-17.7" y1="238.6" x2="729.8" y2="238.6"/>
	<g id="XMLID_214_">
		<line id="XMLID_216_" class="st2" x1="527.3" y1="113.3" x2="534.6" y2="106.1"/>
		<line id="XMLID_215_" class="st2" x1="534.6" y1="104.7" x2="527.3" y2="97.3"/>
		<path id="XMLID_185_" class="st1" d="M555.1,123.6L555.1,123.6c-2.1,2.1-5.4,2.1-7.5,0l-14.3-14.3c-2.1-2.1-2.1-5.4,0-7.5l0,0
			L555.1,123.6z"/>
		<path id="XMLID_175_" class="st2" d="M555.1,123.6L555.1,123.6c-2.1,2.1-5.4,2.1-7.5,0l-14.3-14.3c-2.1-2.1-2.1-5.4,0-7.5l0,0
			L555.1,123.6z"/>
		<path id="XMLID_173_" class="st5" d="M555.1,87.8L555.1,87.8c-2.1-2.1-5.4-2.1-7.5,0L533.4,102c-2.1,2.1-2.1,5.4,0,7.5l0,0
			L555.1,87.8z"/>
		<path id="XMLID_171_" class="st2" d="M555.1,87.8L555.1,87.8c-2.1-2.1-5.4-2.1-7.5,0L533.4,102c-2.1,2.1-2.1,5.4,0,7.5l0,0
			L555.1,87.8z"/>
		<path id="XMLID_169_" class="st2" d="M527.4,95.2c0,3.1-2.5,5.6-5.6,5.6c-3.1,0-5.6-2.5-5.6-5.6c0-3.1,2.5-5.6,5.6-5.6
			C524.9,89.6,527.4,92.2,527.4,95.2z"/>
		<path id="XMLID_158_" class="st2" d="M527.4,115c0,3.1-2.5,5.6-5.6,5.6c-3.1,0-5.6-2.5-5.6-5.6c0-3.1,2.5-5.6,5.6-5.6
			C524.9,109.4,527.4,111.9,527.4,115z"/>
		<path id="XMLID_306_" class="st0" d="M589.8,87.1l-8.1-7.7c-0.3-0.3-0.7-0.4-1-0.4h-9.5c-0.4,0-0.8,0.1-1,0.4l-8,7.7
			c-0.3,0.3-0.4,0.7-0.4,1v36.1c0,0.8,0.7,1.4,1.4,1.4h25.6c0.8,0,1.4-0.7,1.4-1.4V88.2C590.2,87.8,590.1,87.4,589.8,87.1z
			 M573.3,83.9c0-1.3,1-2.4,2.4-2.4s2.4,1,2.4,2.4s-1,2.4-2.4,2.4C574.5,86.3,573.3,85.2,573.3,83.9z"/>
		<path id="XMLID_144_" class="st2" d="M574.8,79h-3.7c-0.4,0-0.8,0.1-1,0.4l-8,7.7c-0.3,0.3-0.4,0.7-0.4,1V101 M583.8,81.5
			l-2.2-2.1c-0.3-0.3-0.7-0.4-1-0.4H578 M561.7,108.8v15.4c0,0.8,0.7,1.4,1.4,1.4h25.6c0.8,0,1.4-0.7,1.4-1.4V88.2
			c0-0.4-0.1-0.8-0.4-1l-3.9-3.7 M573.3,83.9c0-1.3,1-2.4,2.4-2.4s2.4,1,2.4,2.4s-1,2.4-2.4,2.4C574.5,86.3,573.3,85.2,573.3,83.9z"
			/>
		<circle id="XMLID_299_" class="st4" cx="575.8" cy="106.1" r="10.1"/>
		<g id="XMLID_142_">
			<g id="XMLID_219_">
				<g id="XMLID_220_">
					<line id="XMLID_223_" class="st2" x1="540" y1="104.7" x2="541.7" y2="104.7"/>
					<line id="XMLID_222_" class="st9" x1="545.1" y1="104.7" x2="583.1" y2="104.7"/>
					<line id="XMLID_221_" class="st2" x1="584.8" y1="104.7" x2="586.5" y2="104.7"/>
				</g>
			</g>
		</g>
	</g>
</g>
</svg>
