<?xml version="1.0" encoding="utf-8"?>
<!-- Generator: Adobe Illustrator 22.1.0, SVG Export Plug-In . SVG Version: 6.00 Build 0)  -->
<svg version="1.1" id="Layer_1" xmlns="http://www.w3.org/2000/svg" xmlns:xlink="http://www.w3.org/1999/xlink" x="0px" y="0px"
	 viewBox="0 0 693 270" style="enable-background:new 0 0 693 270;" xml:space="preserve">
<style type="text/css">
	.st0{fill:#FFFFFF;}
	.st1{fill:#5FB0E5;}
	.st2{fill:none;stroke:#0686D8;stroke-width:1.5;stroke-miterlimit:10;}
	.st3{fill:#D2E9F7;}
	.st4{fill:#FFFFFE;}
	.st5{fill:#9ECFEF;}
	.st6{opacity:0.3;fill:#03436C;}
	.st7{opacity:0.3;}
	.st8{fill:#03436C;}
	.st9{fill:#0686D8;}
</style>
<g>
	<g id="XMLID_721_">
		<g id="XMLID_688_">
			<g id="XMLID_635_">
				<path id="XMLID_660_" class="st0" d="M658.9,237.9h-7.5c-0.3,0-0.5-0.2-0.5-0.5v-54.5c0-0.1,0-0.2,0-0.2l3.7-6.1
					c0.2-0.4,0.8-0.4,1,0l3.7,6.1c0,0.1,0,0.1,0,0.2v54.5C659.4,237.7,659.2,237.9,658.9,237.9z"/>
				<rect id="XMLID_659_" x="650.9" y="184.7" class="st1" width="8.5" height="47.7"/>
				<path id="XMLID_658_" class="st2" d="M659.4,237.9h-8.5v-55.1l4-6.6c0.1-0.3,0.5-0.3,0.6,0l4,6.6V237.9z"/>
				<line id="XMLID_657_" class="st2" x1="650.7" y1="184.7" x2="659.4" y2="184.7"/>
				<line id="XMLID_656_" class="st2" x1="650.5" y1="232.4" x2="659.8" y2="232.4"/>
			</g>
			<g id="XMLID_663_">
				<path id="XMLID_686_" class="st2" d="M662.3,184.1c10.6,3,18.4,12.8,18.4,24.5c0,11.9-8.2,21.9-19.3,24.7"/>
				<path id="XMLID_670_" class="st2" d="M648.8,233.2c-10.9-2.9-19-12.8-19-24.6c0-11.7,8-21.6,18.8-24.5"/>
				<path id="XMLID_669_" class="st2" d="M664.2,184.8c3.9,6.2,6.2,14.6,6.2,23.7c0,9.3-2.4,17.7-6.3,23.9"/>
				<path id="XMLID_668_" class="st2" d="M647,184.8c-3.8,6.2-6.2,14.6-6.2,23.7c0,9.3,2.4,17.7,6.3,23.9"/>
				<line id="XMLID_666_" class="st2" x1="662.3" y1="208.6" x2="680.7" y2="208.6"/>
				<line id="XMLID_665_" class="st2" x1="663.7" y1="196.5" x2="678.3" y2="196.5"/>
				<line id="XMLID_687_" class="st2" x1="629.9" y1="208.6" x2="648.4" y2="208.6"/>
				<line id="XMLID_685_" class="st2" x1="632" y1="196.5" x2="647.3" y2="196.5"/>
				<line id="XMLID_664_" class="st2" x1="663.4" y1="220.7" x2="676.9" y2="220.7"/>
				<line id="XMLID_667_" class="st2" x1="633.6" y1="220.7" x2="647.1" y2="220.7"/>
			</g>
		</g>
	</g>
	<g>
		<path class="st0" d="M184.9,236.7H88.1v-170c0-1.7,1.4-3,3-3h90.7c1.7,0,3,1.4,3,3V236.7z"/>
		<path class="st1" d="M184.9,82.4H88.1V69.4c0-3.2,2.6-5.8,5.8-5.8h85.2c3.2,0,5.8,2.6,5.8,5.8V82.4z"/>
		<path class="st2" d="M88.1,152.3V69.4c0-3.2,2.6-5.8,5.8-5.8h85.2c3.2,0,5.8,2.6,5.8,5.8v68.2"/>
		<line class="st2" x1="88.1" y1="236.7" x2="88.1" y2="177.5"/>
		<line class="st2" x1="88.8" y1="82.8" x2="184.9" y2="82.8"/>
		<rect x="102.6" y="138" class="st3" width="67.3" height="14.4"/>
		<rect x="102.6" y="162.2" class="st3" width="67.3" height="14.4"/>
		<line class="st2" x1="97.8" y1="71.1" x2="100.7" y2="71.1"/>
		<line class="st2" x1="112.1" y1="145.2" x2="156" y2="145.2"/>
		<line class="st2" x1="110.7" y1="169.3" x2="112.9" y2="169.3"/>
		<line class="st2" x1="117.7" y1="169.3" x2="119.9" y2="169.3"/>
		<line class="st2" x1="124.7" y1="169.3" x2="126.9" y2="169.3"/>
		<line class="st2" x1="131.7" y1="169.3" x2="133.9" y2="169.3"/>
		<line class="st2" x1="138.7" y1="169.3" x2="140.9" y2="169.3"/>
		<line class="st2" x1="145.7" y1="169.3" x2="147.9" y2="169.3"/>
		<line class="st2" x1="152.7" y1="169.3" x2="154.9" y2="169.3"/>
		<line class="st2" x1="104.9" y1="71.1" x2="107.8" y2="71.1"/>
		<line class="st2" x1="112" y1="71.1" x2="114.9" y2="71.1"/>
		<g id="XMLID_69_">
			<path id="XMLID_79_" class="st2" d="M140.8,102c0,2.8-2.2,5-5,5s-5-2.2-5-5c0-2.8,2.2-5,5-5S140.8,99.3,140.8,102z"/>
			<path id="XMLID_77_" class="st2" d="M128.1,123.7V119c0-4.5,3.6-8.1,8.1-8.1l0,0c4.5,0,8.1,3.6,8.1,8.1v4.7"/>
		</g>
		<circle class="st2" cx="136.2" cy="110.4" r="18.7"/>
	</g>
	<g id="XMLID_147_">
		<g id="XMLID_12_">
			<path id="XMLID_152_" class="st3" d="M529.9,224.9h-25.5c-0.7,0-1.4-0.6-1.4-1.4V133c0-0.7,0.6-1.4,1.4-1.4h25.5
				c0.7,0,1.4,0.6,1.4,1.4v90.5C531.3,224.3,530.7,224.9,529.9,224.9z"/>
			<path id="XMLID_151_" class="st1" d="M553.9,224.9h-13.1c-0.7,0-1.4-0.6-1.4-1.4V120.1c0-0.7,0.6-1.4,1.4-1.4h13.1
				c0.7,0,1.4,0.6,1.4,1.4v103.4C555.3,224.3,554.7,224.9,553.9,224.9z"/>
			<rect id="XMLID_150_" x="545" y="139.9" class="st4" width="5.5" height="67.1"/>
			<path id="XMLID_42_" class="st3" d="M586.7,224.9H565c-0.7,0-1.4-0.6-1.4-1.4v-93.8c0-0.7,0.6-1.4,1.4-1.4h21.7
				c0.7,0,1.4,0.6,1.4,1.4v93.8C588.1,224.3,587.5,224.9,586.7,224.9z"/>
			<path id="XMLID_146_" class="st2" d="M503,144.3v-7.5c0-2.8,2.3-5,5-5h18.2c2.8,0,5,2.3,5,5V177"/>
			<path id="XMLID_145_" class="st2" d="M539.5,173.7v-49.9c0-2.8,2.3-5,5-5h5.3c3,0,5.4,2.4,5.4,5.4v49.5"/>
			<path id="XMLID_41_" class="st2" d="M563.6,177v-43.6c0-2.8,2.3-5,5-5h14.4c2.8,0,5,2.3,5,5v25.9"/>
			<line id="XMLID_40_" class="st2" x1="509.9" y1="142.8" x2="524.4" y2="142.8"/>
			<line id="XMLID_142_" class="st2" x1="509.9" y1="154.4" x2="524.4" y2="154.4"/>
			<line id="XMLID_141_" class="st2" x1="509.9" y1="165.9" x2="524.4" y2="165.9"/>
			<line id="XMLID_140_" class="st2" x1="509.9" y1="177.5" x2="524.4" y2="177.5"/>
			<line id="XMLID_39_" class="st2" x1="509.9" y1="189" x2="517.8" y2="189"/>
			<line id="XMLID_138_" class="st2" x1="509.9" y1="200.6" x2="524.4" y2="200.6"/>
			<line id="XMLID_137_" class="st2" x1="509.9" y1="212.1" x2="524.4" y2="212.1"/>
			<path id="XMLID_136_" class="st1" d="M584.5,145.7c0,4.8-3.9,8.7-8.7,8.7c-4.8,0-8.7-3.9-8.7-8.7c0-4.8,3.9-8.7,8.7-8.7
				C580.7,137,584.5,140.9,584.5,145.7z"/>
			<path id="XMLID_38_" class="st1" d="M584.5,203.5c0,4.8-3.9,8.7-8.7,8.7c-4.8,0-8.7-3.9-8.7-8.7c0-4.8,3.9-8.7,8.7-8.7
				C580.7,194.8,584.5,198.7,584.5,203.5z"/>
			<g id="XMLID_14_">
				<path id="XMLID_535_" class="st3" d="M599.1,210.8h-0.5c-2.3-7.8-9.4-13.4-17.9-13.4c-3.7,0-7.1,1.1-10.1,3
					c-1.9-12.2-12.4-21.6-25.2-21.6c-11.4,0-21.1,7.5-24.4,17.9c-1.5-0.4-3-0.6-4.6-0.6c-8.7,0-16,6.4-17.3,14.8h-2.9
					c-7.2,0-13.1,5.9-13.1,13.1v1c0,7.2,5.9,13.1,13.1,13.1h102.7c7.2,0,13.1-5.9,13.1-13.1v-1C612.1,216.7,606.3,210.8,599.1,210.8
					z"/>
				<path id="XMLID_37_" class="st0" d="M587,214h-0.5c-2-6.8-8.3-11.8-15.8-11.8c-3.3,0-6.3,1-8.9,2.6c-1.7-10.8-10.9-19-22.2-19
					c-10.1,0-18.6,6.7-21.5,15.8c-1.3-0.3-2.6-0.5-4-0.5c-7.7,0-14.1,5.6-15.2,13h-2.5c-6.3,0-11.5,5.2-11.5,11.5v0.8
					c0,6.3,5.2,11.5,11.5,11.5H587c6.3,0,11.5-5.2,11.5-11.5v-0.8C598.6,219.2,593.4,214,587,214z"/>
				<path id="XMLID_533_" class="st2" d="M562,198.3c-3.8-5.8-10.3-9.7-17.8-9.7c-4,0-7.7,1.1-10.8,3"/>
				<path id="XMLID_531_" class="st2" d="M516.9,196c5,0,9.1,4.1,9.1,9.1"/>
				<path id="XMLID_59_" class="st2" d="M496.4,210.8c-7.2,0-13.1,5.9-13.1,13.1v1c0,7.2,5.9,13.1,13.1,13.1h102.7
					c7.2,0,13.1-5.9,13.1-13.1v-1c0-7.2-5.9-13.1-13.1-13.1h-0.5c-2.3-7.8-9.4-13.4-17.9-13.4c-3.7,0-7.1,1.1-10.1,3
					c-1.9-12.2-12.4-21.6-25.2-21.6c-11.4,0-21.1,7.5-24.4,17.9c-1.5-0.4-3-0.6-4.6-0.6"/>
			</g>
		</g>
	</g>
	<g id="XMLID_74_">
		<g id="XMLID_78_">
			<path id="XMLID_186_" class="st1" d="M459.9,188.8H279.2V86.1c0-2.7,2.2-4.8,4.8-4.8h171.1c2.7,0,4.8,2.2,4.8,4.8V188.8z"/>
			<path id="XMLID_51_" class="st2" d="M279.2,139.4v-49c0-5,4-9,9-9h12.2h16.8"/>
			<path id="XMLID_48_" class="st2" d="M357.3,81.3h93.6c5,0,9,4,9,9v54.1"/>
			<line id="XMLID_55_" class="st2" x1="325.2" y1="81.3" x2="345.2" y2="81.3"/>
			<rect id="XMLID_36_" x="289" y="91.8" class="st0" width="161.3" height="84.9"/>
			<rect id="XMLID_20_" x="342.4" y="205.1" class="st3" width="54.4" height="32.2"/>
			<rect id="XMLID_182_" x="342.4" y="205.1" class="st5" width="54.4" height="16.1"/>
			<rect id="XMLID_15_" x="342.4" y="205.1" class="st2" width="54.4" height="32.2"/>
			<path id="XMLID_180_" class="st0" d="M459.9,184.9H279.2v18.5c0,3.2,2.6,5.9,5.9,5.9h168.9c3.2,0,5.9-2.6,5.9-5.9V184.9z"/>
			<line id="XMLID_54_" class="st2" x1="308.3" y1="209.3" x2="438.2" y2="209.3"/>
			<line id="XMLID_53_" class="st2" x1="436.2" y1="184.9" x2="308.5" y2="184.9"/>
			<line id="XMLID_178_" class="st2" x1="331.8" y1="237.9" x2="408.1" y2="237.9"/>
		</g>
		<path id="XMLID_58_" class="st3" d="M368.9,146.8h-67.3c-0.6,0-1.1-0.5-1.1-1.1v-40.1c0-0.6,0.5-1.1,1.1-1.1h67.3
			c0.6,0,1.1,0.5,1.1,1.1v40.1C369.9,146.3,369.5,146.8,368.9,146.8z"/>
		<path id="XMLID_56_" class="st2" d="M368.9,146.8h-67.3c-0.6,0-1.1-0.5-1.1-1.1v-40.1c0-0.6,0.5-1.1,1.1-1.1h67.3
			c0.6,0,1.1,0.5,1.1,1.1v40.1C369.9,146.3,369.5,146.8,368.9,146.8z"/>
		<path id="XMLID_812_" class="st1" d="M344.4,127l-16.8,9.7c-1.1,0.6-2.4-0.2-2.4-1.4V116c0-1.2,1.3-2,2.4-1.4l16.8,9.7
			C345.4,124.9,345.4,126.4,344.4,127z"/>
		<path id="XMLID_811_" class="st2" d="M344.4,127l-16.8,9.7c-1.1,0.6-2.4-0.2-2.4-1.4V116c0-1.2,1.3-2,2.4-1.4l16.8,9.7
			C345.4,124.9,345.4,126.4,344.4,127z"/>
		<line id="XMLID_61_" class="st2" x1="300.5" y1="158.3" x2="334" y2="158.3"/>
		<line id="XMLID_11_" class="st2" x1="412.5" y1="111" x2="446" y2="111"/>
		<line id="XMLID_10_" class="st2" x1="412.5" y1="121.4" x2="429.2" y2="121.4"/>
		<line id="XMLID_73_" class="st2" x1="412.5" y1="141.6" x2="446" y2="141.6"/>
		<line id="XMLID_72_" class="st2" x1="412.5" y1="151.9" x2="429.2" y2="151.9"/>
		<line id="XMLID_9_" class="st2" x1="412.5" y1="172.2" x2="446" y2="172.2"/>
		<line id="XMLID_60_" class="st2" x1="298.3" y1="167.4" x2="372.8" y2="167.4"/>
		<rect id="XMLID_62_" x="385.5" y="104.8" class="st1" width="22.6" height="22.6"/>
		<rect id="XMLID_63_" x="385.5" y="135.5" class="st1" width="22.6" height="22.6"/>
		<rect id="XMLID_64_" x="385.5" y="166.2" class="st1" width="22.6" height="11.3"/>
	</g>
	<path class="st6" d="M461.3,198.5v-8.3v-6.7v-38.7h-2v-1.4h-7.7v1.4h-5.3v-1.4h-4.2c-3.1,0-5.7,2.5-5.7,5.7v61.5h12.8
		C455.9,210.6,461.3,205.2,461.3,198.5z"/>
	<path class="st6" d="M515.7,233.6v-80.9c0-3.1-2.5-5.7-5.7-5.7h-2.1h-6.3v50.2h1.4v3c-2.4,2.5-4.2,5.6-4.9,9.1h-1.7
		c-8,0-14.5,6.5-14.5,14.5v1c0,8,6.5,14.5,14.5,14.5H510C513.2,239.3,515.7,236.8,515.7,233.6z"/>
	<g id="XMLID_113_">
		<path id="XMLID_99_" class="st0" d="M508.9,237.9h-65.7c-1,0-1.8-0.8-1.8-1.8v-85.9c0-1,0.8-1.8,1.8-1.8h65.7c1,0,1.8,0.8,1.8,1.8
			v85.9C510.7,237.1,509.9,237.9,508.9,237.9z"/>
		<path id="XMLID_112_" class="st2" d="M467.2,148.5h39.1c2.4,0,4.3,1.9,4.3,4.3v80.9c0,2.4-1.9,4.3-4.3,4.3h-60.7
			c-2.4,0-4.3-1.9-4.3-4.3v-80.9c0-2.4,1.9-4.3,4.3-4.3h4.2"/>
		<line id="XMLID_98_" class="st2" x1="455.3" y1="148.5" x2="463" y2="148.5"/>
		<rect id="XMLID_100_" x="447.9" y="157.6" class="st3" width="56.2" height="71.8"/>
		<line id="XMLID_102_" class="st2" x1="468.2" y1="153.2" x2="483.9" y2="153.2"/>
		<polygon id="XMLID_103_" class="st1" points="502.9,199.9 495.9,197.5 489,199.9 489,148.5 502.9,148.5 		"/>
		<polygon id="XMLID_101_" class="st2" points="502.9,199.9 495.9,197.5 489,199.9 489,148.5 502.9,148.5 		"/>
		<line id="XMLID_105_" class="st2" x1="452.1" y1="165" x2="484.9" y2="165"/>
		<line id="XMLID_104_" class="st2" x1="452.1" y1="173.4" x2="484.9" y2="173.4"/>
		<line id="XMLID_106_" class="st2" x1="452.1" y1="181.7" x2="484.9" y2="181.7"/>
		<line id="XMLID_107_" class="st2" x1="452.1" y1="190.1" x2="484.9" y2="190.1"/>
		<line id="XMLID_108_" class="st2" x1="452.1" y1="198.5" x2="484.9" y2="198.5"/>
		<line id="XMLID_109_" class="st2" x1="452.1" y1="206.9" x2="499.7" y2="206.9"/>
		<line id="XMLID_110_" class="st2" x1="452.1" y1="215.3" x2="499.7" y2="215.3"/>
		<line id="XMLID_111_" class="st2" x1="452.1" y1="223.6" x2="499.7" y2="223.6"/>
		<line id="XMLID_115_" class="st2" x1="473.3" y1="233" x2="478.8" y2="233"/>
	</g>
	<line id="XMLID_5_" class="st2" x1="-34.5" y1="237.9" x2="766" y2="237.9"/>
	<path class="st6" d="M303.1,137.5h-25.2v46v6.7v8.3c0,6.7,5.4,12.1,12.1,12.1h17.6V142C307.6,139.5,305.6,137.5,303.1,137.5z"/>
	<path class="st6" d="M184.9,141.2h-8.6c-2.5,0-4.5,2-4.5,4.5v80.5h-6.2l1.1,6.9c0.2,1.4,0.8,2.6,1.7,3.6h16.5V141.2z"/>
	<g>
		<g id="XMLID_49_">
			<path id="XMLID_802_" class="st1" d="M301.5,232.9H177.8c-0.6,0-1-0.4-1-1v-88.4c0-0.5,0.4-1,1-1h123.7c0.5,0,1,0.5,1,1v88.4
				C302.5,232.5,302.1,232.9,301.5,232.9z"/>
			<path id="XMLID_57_" class="st2" d="M176.8,173v-27.4c0-1.7,1.4-3.1,3.1-3.1h21.3"/>
			<path id="XMLID_52_" class="st2" d="M273.6,142.5h25.8c1.7,0,3.1,1.4,3.1,3.1v84.1c0,1.7-1.4,3.1-3.1,3.1"/>
			<rect id="XMLID_799_" x="182.9" y="149.7" class="st0" width="112.8" height="73.3"/>
			<path id="XMLID_798_" class="st0" d="M300.3,237.9H177.6c-2.9,0-5.5-2.1-5.9-5l-0.9-5.3h56.9l2.2,3.1h15.7l2.4-3.1h59.9l-0.8,4.6
				C306.6,235.5,303.7,237.9,300.3,237.9z"/>
			<path id="XMLID_797_" class="st2" d="M300.3,237.9H177.6c-2.9,0-5.5-2.1-5.9-5l-0.9-5.3h56.9l2.2,3.1h15.7l2.4-3.1h59.9l-0.8,4.6
				C306.6,235.5,303.7,237.9,300.3,237.9z"/>
		</g>
		<path id="XMLID_757_" class="st3" d="M206,127.6v30c0,1.4,1.1,2.5,2.5,2.5h2v5.9v11.2c0,0.6,0.8,0.9,1.2,0.4l14.7-17.6H268
			c1.4,0,2.5-1.1,2.5-2.5v-30c0-1.4-1.1-2.5-2.5-2.5h-59.4C207.1,125.1,206,126.2,206,127.6z"/>
		<path id="XMLID_756_" class="st2" d="M247.5,125.1h-39c-1.4,0-2.5,1.1-2.5,2.5v30c0,1.4,1.1,2.5,2.5,2.5h2v5.9v11.2
			c0,0.6,0.8,0.9,1.2,0.4l14.7-17.6H268c1.4,0,2.5-1.1,2.5-2.5v-30c0-1.4-1.1-2.5-2.5-2.5h-5.4h-3.3"/>
		<line id="XMLID_754_" class="st2" x1="257.4" y1="125.1" x2="251.5" y2="125.1"/>
		<g id="XMLID_724_">
			<path id="XMLID_726_" class="st2" d="M216,191.3c0,2.8-2.2,5-5,5c-2.8,0-5-2.2-5-5c0-2.8,2.2-5,5-5
				C213.7,186.3,216,188.6,216,191.3z"/>
			<path id="XMLID_725_" class="st2" d="M203.2,213v-4.7c0-4.5,3.6-8.1,8.1-8.1l0,0c4.5,0,8.1,3.6,8.1,8.1v4.7"/>
		</g>
		<polyline id="XMLID_712_" class="st2" points="203.2,176.6 190.9,176.6 190.9,213 231,213 231,176.6 219.5,176.6 		"/>
		<path id="XMLID_713_" class="st2" d="M226.7,143.6c0,2.5-2.1,4.6-4.6,4.6c-2.5,0-4.6-2.1-4.6-4.6c0-2.5,2.1-4.6,4.6-4.6
			C224.7,139,226.7,141,226.7,143.6z"/>
		<path id="XMLID_788_" class="st2" d="M244.4,143.6c0,2.5-2.1,4.6-4.6,4.6c-2.5,0-4.6-2.1-4.6-4.6c0-2.5,2.1-4.6,4.6-4.6
			C242.3,139,244.4,141,244.4,143.6z"/>
		<path id="XMLID_789_" class="st2" d="M262,143.6c0,2.5-2.1,4.6-4.6,4.6c-2.5,0-4.6-2.1-4.6-4.6c0-2.5,2.1-4.6,4.6-4.6
			C260,139,262,141,262,143.6z"/>
		<line id="XMLID_791_" class="st2" x1="242.1" y1="177.9" x2="287.5" y2="177.9"/>
		<line id="XMLID_790_" class="st2" x1="242.6" y1="191.3" x2="288" y2="191.3"/>
		<line id="XMLID_792_" class="st2" x1="243" y1="204.7" x2="265.7" y2="204.7"/>
	</g>
	<path class="st6" d="M190.2,234.2v-49.6c0-2.5-2-4.6-4.6-4.6h-7v-5.4h-2.7v5.4h-0.5v46.2h-6.2l1.1,6.9c0.4,2.6,2.2,4.7,4.5,5.6
		h10.8C188.2,238.7,190.2,236.7,190.2,234.2z"/>
	<g id="XMLID_464_">
		<path id="XMLID_530_" class="st0" d="M183.4,237.4h-62.9c-1,0-1.8-0.8-1.8-1.8v-52.4c0-1,0.8-1.8,1.8-1.8h62.9
			c1,0,1.8,0.8,1.8,1.8v52.4C185.2,236.6,184.4,237.4,183.4,237.4z"/>
		<path id="XMLID_467_" class="st5" d="M182,181.4h-60.2c-1.8,0-3.2,1.4-3.2,3.2v8.5h66.6v-8.5C185.2,182.8,183.8,181.4,182,181.4z"
			/>
		<line id="XMLID_488_" class="st2" x1="129.3" y1="174.6" x2="129.3" y2="185.3"/>
		<line id="XMLID_487_" class="st2" x1="136.7" y1="174.6" x2="136.7" y2="185.3"/>
		<line id="XMLID_486_" class="st2" x1="144.1" y1="174.6" x2="144.1" y2="185.3"/>
		<line id="XMLID_485_" class="st2" x1="151.5" y1="174.6" x2="151.5" y2="185.3"/>
		<line id="XMLID_484_" class="st2" x1="158.9" y1="174.6" x2="158.9" y2="185.3"/>
		<line id="XMLID_483_" class="st2" x1="166.2" y1="174.6" x2="166.2" y2="185.3"/>
		<line id="XMLID_482_" class="st2" x1="173.6" y1="174.6" x2="173.6" y2="185.3"/>
		<circle id="XMLID_458_" class="st3" cx="151.5" cy="216.1" r="17.1"/>
		<path id="XMLID_462_" class="st0" d="M161.8,216.1c0,5.7-4.6,10.3-10.3,10.3c-5.7,0-10.3-4.6-10.3-10.3c0-5.7,4.6-10.3,10.3-10.3
			C157.2,205.7,161.8,210.3,161.8,216.1z"/>
		<path id="XMLID_44_" class="st2" d="M144.6,231.8c-1.9-0.8-3.7-2-5.1-3.5"/>
		<path id="XMLID_422_" class="st2" d="M137.8,226.4c-2.2-2.9-3.5-6.5-3.5-10.4c0-9.5,7.7-17.1,17.1-17.1c9.5,0,17.1,7.7,17.1,17.1
			c0,9.5-7.7,17.1-17.1,17.1c-1.4,0-2.8-0.2-4.2-0.5"/>
		<polyline id="XMLID_423_" class="st2" points="159.2,210.1 149.2,220.1 143.7,214.6 		"/>
		<line id="XMLID_463_" class="st2" x1="118.8" y1="193.1" x2="185.2" y2="193.1"/>
		<path id="XMLID_50_" class="st2" d="M169.8,237.4H182c1.8,0,3.2-1.4,3.2-3.2v-49.6c0-1.8-1.4-3.2-3.2-3.2h-60.2
			c-1.8,0-3.2,1.4-3.2,3.2v49.6c0,1.8,1.4,3.2,3.2,3.2h10.9H169.8z"/>
	</g>
	<g>
		<path id="XMLID_426_" class="st5" d="M477,122.2l2.9-15.8c-1.7-3.7-2.6-7.9-2.6-12.2c0-16.6,13.4-30,30-30c16.6,0,30,13.4,30,30
			c0,16.6-13.4,30-30,30c-5.9,0-11.3-1.7-15.9-4.6L477,122.2z"/>
		<path id="XMLID_425_" class="st2" d="M495.3,66.6c3.7-1.6,7.7-2.5,12-2.5c16.6,0,30,13.4,30,30c0,16.6-13.4,30-30,30
			c-5.9,0-11.3-1.7-15.9-4.6l-14.4,2.6l2.9-15.8c-1.7-3.7-2.6-7.9-2.6-12.2c0-7.2,2.5-13.7,6.7-18.9"/>
		<path id="XMLID_424_" class="st2" d="M486,73c1.9-1.9,4-3.5,6.3-4.9"/>
		<ellipse id="XMLID_96_" class="st0" cx="507.2" cy="94.1" rx="23.2" ry="22.6"/>
		<path id="XMLID_97_" class="st2" d="M516.3,95.1l-11.8,6.8c-0.7,0.4-1.7-0.1-1.7-1V87.3c0-0.9,0.9-1.4,1.7-1l11.8,6.8
			C517.1,93.6,517.1,94.7,516.3,95.1z"/>
	</g>
	<g class="st7">
		<path class="st8" d="M599.6,209.4c-1.9-5.5-6.2-9.9-11.5-12V194h1.4v-32c-0.6,0.6-1.2,1.2-1.7,1.8l-1.1-0.9
			c-3.9,4.6-6,10.5-6,16.6c0,8.9,4.7,17.2,12.2,21.9v5.3h-2.3v2.7h2.3v2.8h-2.3v2.7h2.3v2.8h-2.3v2.7h2.3v2.8h-2.3v2.7h2.8l3.5,6.5
			h4.3v1.7c0,1.8,1.4,3.2,3.2,3.2h1.8c2.1-1.2,3.8-2.8,5.1-4.8v-0.1h0c1.4-2.2,2.3-4.9,2.3-7.7v-1
			C613.5,216.1,607.3,209.7,599.6,209.4z"/>
		<path class="st8" d="M589.5,160.7v-0.5c-0.1,0.1-0.2,0.2-0.3,0.3L589.5,160.7z"/>
	</g>
	<g id="XMLID_602_">
		<path id="XMLID_647_" class="st1" d="M612.5,236.1h-5.3c-0.5,0-1-0.4-1-1v-9.2c0-0.6,0.5-1,1-1h5.3c0.5,0,1,0.4,1,1v9.2
			C613.5,235.6,613.1,236.1,612.5,236.1z"/>
		<path id="XMLID_646_" class="st2" d="M612.5,236.1h-5.3c-0.5,0-1-0.4-1-1v-9.2c0-0.6,0.5-1,1-1h5.3c0.5,0,1,0.4,1,1v9.2
			C613.5,235.6,613.1,236.1,612.5,236.1z"/>
		<path id="XMLID_645_" class="st0" d="M634.4,179.5c0-13.5-10.9-24.4-24.4-24.4c-13.5,0-24.4,10.9-24.4,24.4
			c0,9,4.9,16.9,12.2,21.1v24l3.5,6.5h16.7l4.1-6.5v-24C629.5,196.4,634.4,188.6,634.4,179.5z"/>
		<polygon id="XMLID_644_" class="st5" points="597.9,207.3 597.9,226.1 601.4,231.2 618.1,231.2 622.2,226.1 622.2,207.3 		"/>
		<polygon id="XMLID_643_" class="st1" points="622.2,224.7 618.1,231.2 601.4,231.2 597.9,224.7 		"/>
		<path id="XMLID_642_" class="st2" d="M591.4,163.8c-3.6,4.2-5.7,9.7-5.7,15.7c0,9,4.9,16.9,12.2,21.1v24l3.5,6.5h16.7l4.1-6.5v-24
			c7.3-4.2,12.2-12.1,12.2-21.1c0-13.5-10.9-24.4-24.4-24.4c-3.2,0-6.3,0.6-9.2,1.8"/>
		<path id="XMLID_641_" class="st2" d="M597.9,158.4c-1.9,1.1-2.5,1.4-4.1,2.9"/>
		<line id="XMLID_640_" class="st2" x1="594.2" y1="208.1" x2="625.9" y2="208.1"/>
		<line id="XMLID_639_" class="st2" x1="594.2" y1="213.6" x2="625.9" y2="213.6"/>
		<line id="XMLID_638_" class="st2" x1="594.2" y1="219.1" x2="625.9" y2="219.1"/>
		<line id="XMLID_637_" class="st2" x1="594.2" y1="224.7" x2="625.9" y2="224.7"/>
		<path id="XMLID_625_" class="st5" d="M622.9,179.5c0,7.1-5.7,12.8-12.8,12.8c-7.1,0-12.8-5.7-12.8-12.8c0-7.1,5.7-12.8,12.8-12.8
			C617.1,166.7,622.9,172.5,622.9,179.5z"/>
		<g id="XMLID_626_">
			<g id="XMLID_95_">
				<polygon class="st9" points="613.3,163.5 605.9,179.3 604.7,177.3 615,177.3 617.3,177.3 616.3,179.3 607.3,196.1 606.2,195.6 
					613.8,178.1 615,180 604.7,180 602.4,180 603.5,178.1 611.9,162.9 				"/>
			</g>
		</g>
	</g>
</g>
</svg>
